<?xml version="1.0" encoding="UTF-8" standalone="no"?>
<!-- Created with Inkscape (http://www.inkscape.org/) -->

<svg
   xmlns:dc="http://purl.org/dc/elements/1.1/"
   xmlns:cc="http://creativecommons.org/ns#"
   xmlns:rdf="http://www.w3.org/1999/02/22-rdf-syntax-ns#"
   xmlns:svg="http://www.w3.org/2000/svg"
   xmlns="http://www.w3.org/2000/svg"
   xmlns:sodipodi="http://sodipodi.sourceforge.net/DTD/sodipodi-0.dtd"
   xmlns:inkscape="http://www.inkscape.org/namespaces/inkscape"
   width="160"
   height="42"
   version="1.1"
   id="svg50"
   sodipodi:docname="awesco.svg"
   inkscape:version="0.92.4 (unknown)">
  <defs
     id="defs54" />
  <sodipodi:namedview
     pagecolor="#ffffff"
     bordercolor="#666666"
     borderopacity="1"
     objecttolerance="10"
     gridtolerance="10"
     guidetolerance="10"
     inkscape:pageopacity="0"
     inkscape:pageshadow="2"
     inkscape:window-width="1154"
     inkscape:window-height="713"
     id="namedview52"
     showgrid="false"
     fit-margin-top="0"
     fit-margin-left="0"
     fit-margin-right="0"
     fit-margin-bottom="0"
     inkscape:zoom="1.5653109"
     inkscape:cx="123.44443"
     inkscape:cy="9.1440321"
     inkscape:window-x="0"
     inkscape:window-y="0"
     inkscape:window-maximized="0"
     inkscape:current-layer="svg50" />
  <metadata
     id="metadata2">
    <rdf:RDF>
      <cc:Work
         rdf:about="">
        <dc:format>image/svg+xml</dc:format>
        <dc:type
           rdf:resource="http://purl.org/dc/dcmitype/StillImage" />
        <dc:title></dc:title>
      </cc:Work>
    </rdf:RDF>
  </metadata>
  <g
     transform="translate(-362.91443,82.191222)"
     display="none"
     id="g22"
     style="display:none">
    <g
       id="g14"
       style="fill:none;stroke:#000000">
      <path
         d="m 265.75,272.34 h 16.188"
         id="path4"
         inkscape:connector-curvature="0"
         style="stroke-width:1.04830003px" />
      <g
         id="g12"
         style="stroke-width:1px">
        <path
           d="m 241.63,273.34 h 24.119"
           id="path6"
           inkscape:connector-curvature="0" />
        <path
           d="m 256.43,326.49 h 9.3203"
           id="path8"
           inkscape:connector-curvature="0" />
        <path
           d="m 232.31,325.49 h 24.119"
           id="path10"
           inkscape:connector-curvature="0" />
      </g>
    </g>
    <rect
       x="159.45"
       y="219.69"
       width="106.3"
       height="106.3"
       id="rect16"
       style="fill-opacity:0;stroke:#ff0000;stroke-linejoin:round" />
    <path
       d="m 183.58,219.21 h 12.271"
       id="path18"
       inkscape:connector-curvature="0"
       style="fill:none;stroke:#000000;stroke-width:0.98411px" />
    <path
       d="m 220.02,219.21 h 12.271"
       display="inline"
       id="path20"
       inkscape:connector-curvature="0"
       style="display:inline;fill:none;stroke:#000000;stroke-width:0.98411px" />
  </g>
  <g
     transform="matrix(0.28222235,0,0,0.28222235,-45.000354,38.381646)"
     id="g48">
    <g
       transform="matrix(0.73123,0,0,0.73123,226.57,-1410.1)"
       id="g38">
      <path
         d="m 145.27,1902.4 1.694,-6.93 c 2.464,-9.548 4.928,-21.56 7.084,-31.724 h 0.616 c 2.464,10.01 4.928,22.176 7.392,31.724 l 1.694,6.93 h -18.48 m 28.182,41.734 h 28.028 l -30.492,-100.1 h -32.032 l -30.492,100.1 h 27.104 l 4.928,-21.252 h 28.028 l 4.928,21.252"
         id="path24"
         inkscape:connector-curvature="0" />
      <path
         d="m 219.03,1944.1 h 32.956 l 7.392,-39.732 c 1.54,-7.7 2.618,-16.016 3.696,-23.408 h 0.616 c 0.924,7.392 2.156,15.708 3.696,23.408 l 7.7,39.732 h 33.572 L 325.29,1844 h -25.256 l -5.544,43.736 c -1.078,10.164 -2.31,20.79 -3.388,31.416 h -0.616 c -1.848,-10.626 -3.696,-21.406 -5.544,-31.416 L 275.394,1844 h -22.176 l -9.548,43.736 c -1.848,10.318 -3.696,20.944 -5.544,31.416 h -0.616 c -1.078,-10.472 -2.31,-20.944 -3.388,-31.416 L 228.578,1844 h -27.104 l 17.556,100.1"
         id="path26"
         inkscape:connector-curvature="0" />
      <path
         d="m 337.95,1944.1 h 66.22 v -22.176 h -39.732 v -17.864 h 32.648 v -22.176 h -32.648 v -15.708 H 402.63 V 1844 h -64.68 v 100.1"
         id="path28"
         inkscape:connector-curvature="0" />
      <g
         id="g36"
         style="fill:#00a6d7">
        <path
           d="m 417.51,1931.6 c 10.78,9.702 25.256,14.322 37.884,14.322 24.948,0 39.116,-15.092 39.116,-32.032 0,-13.86 -7.084,-22.484 -19.558,-27.412 l -12.166,-4.774 c -9.086,-3.542 -14.784,-5.236 -14.784,-10.01 0,-4.466 4.004,-6.776 10.472,-6.776 7.392,0 13.244,2.464 20.02,7.238 l 13.244,-16.632 c -9.24,-9.086 -21.868,-13.398 -33.264,-13.398 -21.868,0 -37.268,14.014 -37.268,31.108 0,14.476 9.394,23.562 20.174,27.874 l 12.474,5.236 c 8.47,3.388 13.552,4.928 13.552,9.702 0,4.466 -3.388,7.084 -11.396,7.084 -7.392,0 -16.324,-4.004 -23.408,-9.702 L 417.51,1931.6"
           id="path30"
           inkscape:connector-curvature="0" />
        <path
           d="m 506.29,1894.8 c 0,34.188 22.176,51.128 48.356,51.128 12.32,0 23.87,-4.928 32.34,-14.784 l -14.476,-16.016 c -4.312,4.62 -9.856,8.008 -17.556,8.008 -12.936,0 -21.56,-10.472 -21.56,-29.26 0,-18.172 10.164,-28.952 22.176,-28.952 6.468,0 10.78,2.464 15.708,6.776 l 14.476,-16.324 c -7.084,-7.084 -17.864,-13.244 -30.492,-13.244 -25.872,0 -48.972,19.096 -48.972,52.668"
           id="path32"
           inkscape:connector-curvature="0" />
        <path
           d="m 637.01,1945.9 c 27.72,0 46.508,-19.404 46.508,-52.36 0,-32.802 -18.788,-51.436 -46.508,-51.436 -27.72,0 -46.508,18.48 -46.508,51.436 0,32.956 18.788,52.36 46.508,52.36 m 0,-22.792 c -12.012,0 -19.404,-11.396 -19.404,-29.568 0,-18.172 7.392,-28.644 19.404,-28.644 12.012,0 19.404,10.472 19.404,28.644 0,18.172 -7.392,29.568 -19.404,29.568"
           id="path34"
           inkscape:connector-curvature="0" />
      </g>
    </g>
    <g
       id="g46"
       style="fill:#00a6d7">
      <path
         d="m 259.82,-134.89 12.844,73.189 -12.844,73.204 33.213,3e-5 12.839,-73.197 -12.839,-73.197 z"
         id="path40"
         inkscape:connector-curvature="0" />
      <path
         d="m 209.66,-134.89 12.844,73.189 -12.844,73.204 33.213,2e-5 12.839,-73.197 -12.839,-73.197 z"
         id="path42"
         inkscape:connector-curvature="0" />
      <path
         d="m 159.45,-134.89 12.844,73.189 -12.844,73.204 33.213,2e-5 12.839,-73.197 -12.839,-73.197 z"
         id="path44"
         inkscape:connector-curvature="0" />
    </g>
  </g>
</svg>
