<?xml version="1.0" encoding="UTF-8" standalone="no"?>
<!-- Created with Inkscape (http://www.inkscape.org/) by Marsupilami -->
<svg
   xmlns:svg="http://www.w3.org/2000/svg"
   xmlns="http://www.w3.org/2000/svg"
   version="1.0"
   width="1024"
   height="177"
   viewBox="0 0 219.5303 38.018749"
   id="svg2322">
  <defs
     id="defs2324">
    <clipPath
       id="clipPath2478">
      <path
         d="M 392.249,740.608 L 567.874,740.608 L 567.874,771.023 L 392.249,771.023 L 392.249,740.608 z "
         id="path2480" />
    </clipPath>
    <clipPath
       id="clipPath2510">
      <path
         d="M 388.346,735.248 L 567.873,735.248 L 567.873,771.024 L 388.346,771.024 L 388.346,735.248 z "
         id="path2512" />
    </clipPath>
    <clipPath
       id="clipPath2526">
      <path
         d="M 392.249,740.608 L 567.874,740.608 L 567.874,771.023 L 392.249,771.023 L 392.249,740.608 z "
         id="path2528" />
    </clipPath>
    <clipPath
       id="clipPath2542">
      <path
         d="M 388.346,735.248 L 567.873,735.248 L 567.873,771.024 L 388.346,771.024 L 388.346,735.248 z "
         id="path2544" />
    </clipPath>
  </defs>
  <g
     transform="translate(-265.23485,-513.35285)"
     id="layer1">
    <g
       transform="matrix(1.25,0,0,-1.25,-225.07698,1477.1316)"
       id="g2474">
      <g
         clip-path="url(#clipPath2478)"
         id="g2476">
        <g
           transform="translate(400.0583,770.9676)"
           id="g2482">
          <path
             d="M 0,0 L 28.01,0 C 29.658,0 30.696,-1.419 30.327,-3.17 L 26.246,-22.484 C 25.877,-24.222 24.241,-25.641 22.592,-25.641 L -5.417,-25.641 C -7.066,-25.641 -8.104,-24.222 -7.734,-22.484 L -3.66,-3.17 C -3.291,-1.419 -1.655,0 0,0"
             style="fill:#faba00;fill-opacity:1;fill-rule:nonzero;stroke:none"
             id="path2484" />
        </g>
        <g
           transform="translate(428.0678,770.9676)"
           id="g2486">
          <path
             d="M 61.875,0 C 59.9575,0 59.182502,0.13750001 58.59375,0.3125 C 57.20875,0.76625 55.896249,2.0187499 55.15625,3.59375 C 53.93875,6.16375 52.90625,10.27125 52.90625,12.5625 C 52.90625,14.735 54.077502,16.2875 56.71875,17.59375 L 59.25,18.8125 C 61.8125,20.09375 62.468752,20.5525 62.46875,21.9375 C 62.46875,24.65875 61.239998,25.6875 57.9375,25.6875 L 53.8125,25.6875 L 51.09375,25.65625 L 50.625,25.65625 C 49.86125,25.65625 49.40875,25.93625 49.28125,26.46875 C 49.05875,27.3925 48.8125,28.75625 48.8125,28.78125 C 48.6925,29.2425 48.625,29.678751 48.625,30.15625 C 48.625,31.3425 49.131251,31.96875 51.78125,31.96875 L 60.65625,31.96875 C 63.075,31.96875 64.156249,31.791249 65.4375,31.21875 C 67.20375,30.3275 68.649996,28.517499 69.40625,26.25 C 70.32125,23.3775 71.062498,19.710001 71.0625,18.0625 C 71.0625,15.77125 70.156248,14.6125 67.1875,13.125 L 64.0625,11.53125 C 62.02625,10.52875 61.687501,10.22875 61.6875,8.8125 C 61.6875,6.41625 62.714998,5.6562502 65.9375,5.65625 L 69.78125,5.65625 C 71.365,5.65625 71.768753,5.355 72.0625,3.875 L 72.625,1.3125 C 72.7125,1.0575 72.83125,0.44125 72.65625,0.21875 C 72.49,0.02 71.941251,-0.02375 71.6875,0 L 61.875,0 z M 85.09375,0 L 80.875,0.03125 C 80.62875,0.015 79.9275,-0.0037499924 79.625,0.25 C 79.425,0.41 79.106248,0.93375011 78.84375,2.4375 L 78.8125,2.65625 C 78.7875,2.87 78.761253,3.195 78.5625,4.03125 L 73.21875,28.65625 C 73.05125,29.3325 72.968754,29.937499 72.96875,30.375 C 72.9525,30.6925 73.012499,30.92625 73.1875,31.125 C 73.47375,31.4525 74.06375,31.625 74.875,31.625 L 79.34375,31.625 C 79.56625,31.6325 80.236249,31.605 80.5625,31.40625 C 81.15125,31.05625 81.2325,30.51375 81.34375,29.75 L 81.4375,29.21875 L 81.46875,28.96875 C 81.50125,28.7375 81.527501,28.38875 81.6875,27.625 L 83.5625,19.1875 L 85.125,19.1875 C 86.335,19.1875 87.562503,19.342501 87.5625,20.6875 C 87.5625,21.005 87.493749,21.474999 87.40625,22 L 87.375,22.1875 L 85.9375,28.78125 C 85.755,29.545 85.656249,30.146249 85.65625,30.3125 C 85.65625,31.14 86.337497,31.625 87.53125,31.625 L 91.78125,31.625 C 92.0675,31.6325 92.890001,31.615 93.28125,31.34375 C 93.7025,31.03375 93.880003,30.2825 94.09375,29.34375 L 94.125,29.21875 L 94.15625,28.96875 C 94.18125,28.73 94.214996,28.35625 94.40625,27.625 L 95.90625,20.65625 C 96.07375,19.885 96.156247,19.12 96.15625,18.53125 C 96.15625,16.19125 94.913752,15.0625 92.375,15.0625 L 90.6875,15.0625 L 91.0625,14.65625 L 97.25,8.0625 C 97.56,7.68875 97.718749,7.4112499 97.71875,7.15625 C 97.71875,6.79875 97.564996,6.46875 96.5625,6.46875 L 93.28125,6.46875 L 92.625,6.53125 C 92.1875,6.73 91.540003,7.45875 91.0625,8 L 90.625,8.46875 L 89.96875,9.21875 L 89.1875,10.09375 L 84.3125,15.4375 L 84.5,14.625 L 87.1875,2.5 L 87.25,2.0625 C 87.305,1.76875 87.375,1.52625 87.375,1.375 C 87.39125,1.01 87.299996,0.73000001 87.125,0.53125 C 86.8075,0.18875 86.143751,-7.5219844e-12 85.09375,0 z M 135.25,0 C 133.3325,0 132.55749,0.13750001 131.96875,0.3125 C 130.5775,0.76625 129.24001,2.0187499 128.5,3.59375 C 127.2825,6.16375 126.25,10.27125 126.25,12.5625 C 126.25,14.735 127.45249,16.2875 130.09375,17.59375 L 132.625,18.8125 C 135.18,20.09375 135.84376,20.5525 135.84375,21.9375 C 135.84375,24.65875 134.615,25.6875 131.3125,25.6875 L 127.1875,25.6875 L 124.46875,25.65625 L 124,25.65625 C 123.23625,25.65625 122.78375,25.93625 122.65625,26.46875 C 122.43375,27.3925 122.1875,28.75625 122.1875,28.78125 C 122.0675,29.2425 122,29.678751 122,30.15625 C 122,31.3425 122.475,31.96875 125.125,31.96875 L 134.03125,31.96875 C 136.44125,31.96875 137.5,31.791249 138.78125,31.21875 C 140.5475,30.3275 142.02625,28.517499 142.78125,26.25 C 143.68875,23.3775 144.43751,19.710001 144.4375,18.0625 C 144.4375,15.77125 143.5225,14.6125 140.5625,13.125 L 137.4375,11.53125 C 135.41625,10.52875 135.03126,10.22875 135.03125,8.8125 C 135.03125,6.41625 136.06626,5.6562502 139.28125,5.65625 L 143.15625,5.65625 C 144.7325,5.65625 145.14375,5.355 145.4375,3.875 L 146,1.3125 C 146.0875,1.0575 146.20624,0.44125 146.03125,0.21875 C 145.865,0.02 145.3175,-0.02375 145.0625,0 L 135.25,0 z M 179.40625,0 C 179.22031,0.02078125 179.0325,0.096249999 178.9375,0.1875 C 178.80125,0.3225 178.69625,0.62999999 178.65625,0.8125 L 178.25,2.625 C 178.21,2.80875 178.1875,3.0762501 178.1875,3.15625 C 178.1875,4.1425 178.68875,4.5625 179.875,4.5625 L 184.40625,4.5625 C 184.8675,4.57 185.69,4.46625 185.9375,4.21875 C 186.1925,3.9725 186.34375,3.45 186.375,3.25 L 186.65625,2 C 186.7125,1.68875 186.71876,1.45625 186.71875,1.28125 C 186.71875,0.39 186.41124,-3.5022391e-10 184.40625,0 L 179.9375,0 L 179.90625,0 C 179.7675,-0.015625 179.59219,-0.02078125 179.40625,0 z M 194.53125,0 C 194.18875,-0.00875 193.195,0.039999989 192.75,0.40625 C 192.24,0.82 192.12749,1.3625 192,2.03125 L 191.96875,2.34375 L 191.8125,2.96875 L 191.59375,4.03125 L 186.125,29.3125 L 186.09375,29.3125 C 185.9825,29.67875 185.9375,30.01 185.9375,30.3125 C 185.9225,30.6225 185.99625,30.878749 186.1875,31.09375 C 186.49,31.43625 187.01125,31.625 187.65625,31.625 L 191.0625,31.625 C 191.07875,31.625 192.97874,31.778749 193.71875,31.03125 C 194.06875,30.68875 194.21626,30.058749 194.34375,29.40625 L 194.375,29.21875 L 194.6875,27.75 L 194.71875,27.625 L 200.21875,2.34375 C 200.3775,1.755 200.375,1.37 200.375,1.21875 C 200.375,0.59 200.13375,-7.5219341e-12 198.375,0 L 194.53125,0 z M 9.75,0.0625 C 7.6825002,0.062499997 5.64875,1.8425 5.1875,4.03125 L 3.875,10.1875 C 4.94125,9.7012498 6.05,9.235 7.15625,8.78125 C 24.85375,1.4687503 40.6475,1.72875 42.4375,9.34375 C 43.711251,14.73125 37.62625,22.36375 27.6875,28.96875 C 32.27875,24.8225 40.90125,16.3425 35.1875,16 C 29.093751,15.6425 19.3075,19.48 7.1875,26.1875 C 4.475,27.6925 2.19,29.20125 0.34375,30.5625 C 0.82875,31.50875 1.79125,32.125 3,32.125 L 22.4375,32.125 L 23.3125,32.125 L 38,32.125 C 40.061249,32.125001 42.10125,30.36 42.5625,28.1875 L 47.65625,4.03125 C 48.1175,1.8424998 46.8425,0.0625 44.78125,0.0625 L 9.75,0.0625 z M 154.96875,6.4375 C 154.58959,6.4406054 154.04062,6.5121875 153.84375,6.78125 C 153.71626,6.9487502 153.6175,7.31 153.59375,7.4375 L 153.09375,9.875 L 153.0625,10 C 153.02375,10.2225 153,10.41 153,10.59375 C 153.00001,11.19875 153.2125,11.78125 154.78125,11.78125 L 160.625,11.78125 C 161.6825,11.78125 162.25,11.94375 162.25,12.90625 C 162.24999,14.8475 161.5125,15.15625 159.125,15.15625 L 155.90625,15.15625 C 152.59624,15.15625 151.425,15.54375 149.9375,17.03125 C 148.2025,18.822499 146.6875,23.52 146.6875,27.125 C 146.6875,30.41125 148.46125,31.96875 152.28125,31.96875 C 155.6225,31.968751 155.725,31.91125 158,28.65625 L 158.6875,27.65625 L 159.0625,27.8125 L 158.75,29.40625 C 158.6225,29.86875 158.59375,30.27875 158.59375,30.40625 C 158.59375,31.034999 158.805,31.625 160.53125,31.625 L 164.78125,31.625 C 165.05125,31.6325 165.845,31.615 166.21875,31.34375 C 166.75999,30.96125 166.8575,30.36375 166.96875,29.6875 L 167.0625,29.25 L 167.09375,29.09375 L 167.40625,27.625 L 170.75,12.1875 C 170.90125,11.39125 170.96875,10.8425 170.96875,10.46875 C 170.96874,9.0999998 170.115,7.65875 168.96875,7.125 C 168.02251,6.6237501 167.01875,6.46875 164.65625,6.46875 L 155.28125,6.46875 C 155.20969,6.460625 155.09514,6.4364649 154.96875,6.4375 z M 217.9375,6.4375 C 217.75266,6.434082 217.58031,6.45875 217.46875,6.46875 L 210,6.46875 C 206.45125,6.46875 205.2725,6.8825003 204.03125,8.65625 C 203.0125,10.16875 202.18749,13.40125 202.1875,15.84375 C 202.1875,17.88875 202.8625,18.943751 204.8125,19.90625 L 208.3125,21.59375 C 209.91125,22.3975 210.46876,22.83625 210.46875,23.71875 C 210.46875,25.08 209.54501,25.343749 207.90625,25.34375 L 203.5625,25.34375 L 202.9375,25.34375 C 201.5925,25.32125 200.55375,25.293751 199.78125,26.375 C 199.5025,26.78125 199.25001,27.5775 199.25,27.5625 L 198.875,29.375 C 198.78625,29.72625 198.71874,30.08875 198.71875,30.375 C 198.71875,31.155 199.07125,31.625 200.78125,31.625 L 210.125,31.625 C 213.24375,31.625 214.83375,31.105001 216.1875,29.625 C 217.48375,28.2075 218.71875,24.24625 218.71875,21.46875 C 218.71875,19.575 217.99125,18.53375 215.90625,17.5 L 211.5625,15.375 C 210.27375,14.7375 209.96875,14.49 209.96875,13.71875 C 209.96875,12.34125 210.78751,12.09375 212.625,12.09375 L 216.75,12.09375 C 218.24625,12.09375 218.69,11.7525 219.03125,10.3125 L 219.5,8.09375 C 219.5,8.08625 219.53126,7.8874999 219.53125,7.625 C 219.53125,7.41875 219.49374,7.1749999 219.40625,6.96875 C 219.23281,6.5684375 218.49203,6.447754 217.9375,6.4375 z M 101.1875,6.46875 C 100.4875,6.485 99.760001,6.6299999 99.6875,6.78125 C 99.655,6.91625 99.625001,7.0299998 99.625,7.15625 C 99.625,7.5075 99.737503,7.9587499 100,8.9375 L 100.21875,9.71875 L 104.90625,27.75 L 100.25,36.09375 C 99.96375,36.60375 99.812497,37.041249 99.8125,37.34375 C 99.8125,37.67875 99.91625,38.031251 101.0625,38.03125 L 104.65625,38.03125 C 104.6725,38.03125 106.17375,38.056248 106.90625,37.5625 C 107.47125,37.18875 107.69,36.816249 108.03125,36.1875 L 108.125,36.03125 L 108.5,35.40625 L 109.25,34.03125 L 123.28125,8.90625 C 123.6475,8.25375 123.84375,7.7250002 123.84375,7.375 C 123.84375,6.5725 122.8375,6.4687498 122.25,6.46875 L 118.5,6.46875 C 118.245,6.4525 117.49125,6.4562498 117.125,6.6875 C 116.45625,7.10875 115.90375,8.1712497 115.65625,8.625 L 115.21875,9.4375 L 114.5,10.6875 L 110.21875,18.5625 L 107.875,8.3125 C 107.4925,6.68875 107.175,6.4687498 105.3125,6.46875 L 101.1875,6.46875 z M 178.5,6.46875 C 178.29312,6.4915625 178.05312,6.5456249 177.90625,6.625 C 177.25375,6.94375 177.135,7.6575004 177,8.40625 L 176.90625,8.875 L 176.78125,9.40625 L 176.53125,10.46875 L 172.5,29.0625 C 172.3725,29.6675 172.28125,30.142499 172.28125,30.46875 C 172.265,30.74625 172.34125,30.973751 172.5,31.15625 C 172.77875,31.46625 173.32249,31.625 174.09375,31.625 L 177.21875,31.625 C 177.24375,31.625 179.1125,31.755 179.84375,31.03125 C 180.37,30.5225 180.49001,30.0925 180.65625,29.25 L 180.78125,28.8125 L 181.0625,27.625 L 185.25,8.625 L 185.25,8.46875 C 185.28125,8.1825 185.31251,7.9349999 185.3125,7.625 C 185.3125,6.90875 184.96875,6.46875 183.21875,6.46875 L 179,6.46875 C 178.90062,6.464375 178.70688,6.4459375 178.5,6.46875 z M 159.59375,19.1875 L 160.71875,19.1875 L 161,19.1875 L 159.5625,25.59375 L 158.15625,25.59375 C 156.215,25.59375 155.34375,25.31875 155.34375,23.6875 C 155.34375,22.76375 155.72625,21.37375 156.1875,20.59375 C 156.85625,19.3525 157.50125,19.1875 159.59375,19.1875 z "
             transform="matrix(0.8,0,0,-0.8,-35.818336,5.54e-2)"
             style="fill:#003b79;fill-opacity:1;fill-rule:nonzero;stroke:none"
             id="path2488" />
        </g>
        <g
           transform="translate(438.6035,750.4698)"
           id="g2490" />
        <g
           transform="translate(455.7338,745.7206)"
           id="g2494" />
        <g
           transform="translate(484.412,763.4749)"
           id="g2498" />
        <g
           transform="translate(539.7816,767.3772)"
           id="g2502" />
      </g>
    </g>
    <g
       transform="matrix(1.25,0,0,-1.25,-225.07698,1477.1316)"
       id="g2506">
      <g
         clip-path="url(#clipPath2510)"
         id="g2508">
        <g
           transform="translate(534.0331,745.7206)"
           id="g2514" />
        <g
           transform="translate(545.1033,745.7206)"
           id="g2518" />
      </g>
    </g>
    <g
       transform="matrix(1.25,0,0,-1.25,-225.07698,1477.1316)"
       id="g2522">
      <g
         clip-path="url(#clipPath2526)"
         id="g2524">
        <g
           transform="translate(558.5737,750.7434)"
           id="g2530" />
        <g
           transform="translate(497.2965,750.4698)"
           id="g2534" />
      </g>
    </g>
    <g
       transform="matrix(1.25,0,0,-1.25,-225.07698,1477.1316)"
       id="g2538">
      <g
         clip-path="url(#clipPath2542)"
         id="g2540">
        <g
           transform="translate(527.432,765.3339)"
           id="g2546" />
      </g>
    </g>
  </g>
</svg>
