<?xml version="1.0" encoding="UTF-8" standalone="no"?>
<!-- Created with Inkscape (http://www.inkscape.org/) -->

<svg
   xmlns:dc="http://purl.org/dc/elements/1.1/"
   xmlns:cc="http://creativecommons.org/ns#"
   xmlns:rdf="http://www.w3.org/1999/02/22-rdf-syntax-ns#"
   xmlns:svg="http://www.w3.org/2000/svg"
   xmlns="http://www.w3.org/2000/svg"
   xmlns:sodipodi="http://sodipodi.sourceforge.net/DTD/sodipodi-0.dtd"
   xmlns:inkscape="http://www.inkscape.org/namespaces/inkscape"
   width="680"
   height="500"
   viewBox="0 0 680 500"
   version="1.1"
   id="svg34012"
   inkscape:version="0.92.4 (unknown)"
   sodipodi:docname="featured.svg"
   inkscape:export-filename="/home/rschmehl/awesco.eu/content/software/openOCL/featured.png"
   inkscape:export-xdpi="96"
   inkscape:export-ydpi="96">
  <defs
     id="defs34006" />
  <sodipodi:namedview
     id="base"
     pagecolor="#ffffff"
     bordercolor="#666666"
     borderopacity="1.0"
     inkscape:pageopacity="0.0"
     inkscape:pageshadow="2"
     inkscape:zoom="1.0150748"
     inkscape:cx="117.60232"
     inkscape:cy="240.85177"
     inkscape:document-units="px"
     inkscape:current-layer="g41297"
     showgrid="false"
     units="px"
     inkscape:window-width="1920"
     inkscape:window-height="1022"
     inkscape:window-x="0"
     inkscape:window-y="0"
     inkscape:window-maximized="1"
     showguides="true"
     inkscape:guide-bbox="true">
    <sodipodi:guide
       position="345.51638,43.886153"
       orientation="0,1"
       id="guide1772"
       inkscape:locked="false" />
    <sodipodi:guide
       position="4.1796336,166.48874"
       orientation="1,0"
       id="guide1774"
       inkscape:locked="false" />
  </sodipodi:namedview>
  <metadata
     id="metadata34009">
    <rdf:RDF>
      <cc:Work
         rdf:about="">
        <dc:format>image/svg+xml</dc:format>
        <dc:type
           rdf:resource="http://purl.org/dc/dcmitype/StillImage" />
        <dc:title></dc:title>
      </cc:Work>
    </rdf:RDF>
  </metadata>
  <g
     inkscape:label="Layer 1"
     inkscape:groupmode="layer"
     id="layer1"
     transform="translate(0,-164.70832)">
    <g
       id="g41297"
       transform="matrix(4.0381786,0,0,4.0381786,-38.905606,119.85387)">
      <path
         inkscape:connector-curvature="0"
         style="fill:#fefefe;stroke:none;stroke-width:0.33354512"
         d="M 20.163933,20.99254 V 124.05798 H 167.92443 V 20.99254 Z"
         id="path2" />
      <path
         inkscape:connector-curvature="0"
         style="fill:#101010;stroke:none;stroke-width:0.33354512"
         d="m 93.877408,22.326721 c -0.533338,1.576085 -1.603354,3.312871 -1.59802,5.003177 0.0054,1.758617 1.199104,3.770628 1.93157,5.336722 0.927917,-1.467765 2.072983,-3.898075 1.916875,-5.670266 -0.140092,-1.590711 -1.075013,-3.167509 -1.583338,-4.669633 H 93.877408 M 42.845002,76.361032 c 2.641844,-0.03136 3.880798,-1.545981 5.670267,-3.335452 l 5.336722,-5.336721 20.346251,-20.346253 6.003819,-6.003812 c 1.247782,-1.248025 2.583975,-2.390885 3.335446,-4.002542 -1.808476,-0.591275 -2.775426,0.777161 -4.002546,2.001271 L 72.864069,46.008425 53.1849,65.687589 c -3.414034,3.414167 -7.558432,6.724936 -10.339898,10.673443 M 105.21795,37.002706 c 0.61972,2.207303 2.75708,3.757754 4.33608,5.336723 3.33011,3.330048 6.74128,6.596823 9.99501,10.00145 0.513,0.536775 1.08369,1.075851 1.28582,1.814187 0.38958,1.423103 -0.32154,2.624532 1.39388,3.193894 v 7.671538 h -3.33545 c -0.49565,-4.446156 -5.72263,-3.335451 -9.00571,-3.335451 -1.35554,0 -3.12233,-0.270173 -4.28673,0.581035 -0.94427,0.690439 -1.01531,1.683736 -1.05,2.754416 h -5.003173 v 9.339263 c -1.662053,0.551685 -1.334187,2.159706 -1.334187,3.668996 h 1.000637 v -2.334814 h 1.667723 v 2.334814 h 1.00064 c -3.3e-4,-1.905542 -0.69711,-3.229717 -0.95261,-5.016184 -0.29185,-2.038628 -0.0481,-4.265709 -0.0481,-6.324349 h 3.66899 v 5.670267 c 0.001,0.979955 -0.10209,2.101 0.53469,2.925857 0.76482,0.990297 1.98625,1.05934 3.13431,1.07535 2.43855,0.03402 4.90045,0.07271 7.338,-0.0036 1.03732,-0.03269 2.05964,-0.170109 2.71572,-1.071681 1.43692,-1.974587 0.61973,-6.261309 0.61973,-8.596125 1.18908,0 3.48555,0.43561 4.4685,-0.342884 0.72313,-0.572697 0.53301,-1.851844 0.53468,-2.659023 v -6.337356 c 2.12068,0.988961 3.69835,3.031257 5.33672,4.669631 l 9.33927,9.339263 c 2.18337,2.183387 4.03789,4.964153 7.33799,5.003177 -1.48562,-2.108672 -3.51557,-3.849111 -5.33672,-5.670266 l -9.67281,-9.672809 c -1.99161,-1.991599 -5.22399,-4.226351 -6.00383,-7.004448 -2.08631,-0.585605 -3.50988,-2.509227 -5.00316,-4.002542 l -8.67218,-8.672172 c -1.61336,-1.613258 -3.51757,-4.544386 -6.00381,-4.336088 m 2.34916,12.532125 c -2.89551,0.88146 -2.02762,5.507998 -2.01528,7.814129 0.005,0.990628 -0.0504,2.090661 0.5807,2.925857 1.39289,1.843171 5.39309,1.087023 7.42405,1.07635 0.76015,-0.004 1.59834,0.04937 2.31646,-0.247157 2.53728,-1.047998 1.70008,-5.581544 1.68575,-7.757592 -0.007,-0.992197 0.0253,-2.052037 -0.63141,-2.87039 -1.47693,-1.841102 -7.28029,-1.574332 -9.36027,-0.941197 z"
         id="path4" />
      <path
         inkscape:connector-curvature="0"
         style="fill:#fefefe;stroke:none;stroke-width:0.33354512"
         d="m 107.96235,51.599175 c -1.79548,0.751545 -0.66008,3.824229 1.18309,3.147799 1.88685,-0.692372 0.87923,-4.011114 -1.18309,-3.147799 m 5.64391,0.09523 c -1.85883,1.013944 -0.30218,3.907114 1.54199,2.911815 1.8952,-1.022849 0.34155,-3.939368 -1.54199,-2.911815 z"
         id="path6" />
      <path
         inkscape:connector-curvature="0"
         style="fill:#101010;stroke:none;stroke-width:0.33354512"
         d="m 108.21984,53.012874 v 1.000635 h 1.00064 v -1.000635 h -1.00064 m 5.67027,0 v 1.000635 h 1.00064 v -1.000635 z"
         id="path8" />
      <path
         inkscape:connector-curvature="0"
         style="fill:#fefefe;stroke:none;stroke-width:0.33354512"
         d="m 121.8952,54.680599 v 1.33418 h 1.33418 c -0.44361,-0.584704 -0.74948,-0.890565 -1.33418,-1.33418 m -12.89586,2.677367 c -0.94594,0.660753 -0.31654,1.640041 0.57437,1.886198 1.11904,0.309196 3.88547,0.451619 4.87109,-0.236484 0.94594,-0.660753 0.31654,-1.640042 -0.57437,-1.886197 -1.11904,-0.309197 -3.88546,-0.451621 -4.87109,0.236483 z"
         id="path10" />
      <path
         inkscape:connector-curvature="0"
         style="fill:#101010;stroke:none;stroke-width:0.33354512"
         d="M 105.55148,79.362938 H 51.18363 37.841825 c -3.867255,0 -7.487021,-0.114406 -11.006989,1.775794 -6.788706,3.645315 -6.003812,10.298541 -6.003812,16.90274 v 10.339888 c 0,2.73575 -0.06189,5.53085 1.302523,8.00509 1.418137,2.57163 4.005347,4.25337 6.702559,5.26034 1.68457,0.62874 3.545051,0.92425 5.336723,1.04699 9.577448,0.65676 19.416662,0.03 29.018425,0.03 h 57.369766 24.3488 c 5.13759,0 10.4713,0.49665 15.34307,-1.49261 2.67003,-1.09037 5.08923,-3.13532 6.17792,-5.84538 1.2121,-3.01859 0.82653,-6.49346 0.82653,-9.67282 V 95.373126 c 0,-5.485822 0.10169,-10.247512 -5.00318,-13.640333 -4.58157,-3.044934 -10.12444,-2.369838 -15.34307,-2.369838 h -29.35198 c -0.0691,-2.123016 -2.54228,-4.041234 -4.4685,-2.134023 -0.56436,0.558689 -0.51099,1.407561 -0.53467,2.134023 -1.78147,-0.284181 -1.35387,-1.370871 -2.53461,-2.275112 -2.08833,-1.599682 -4.35144,0.117747 -4.46985,2.275112 z"
         id="path12" />
      <path
         inkscape:connector-curvature="0"
         style="fill:#fefefe;stroke:none;stroke-width:0.33354512"
         d="m 32.505103,80.53535 c -3.343857,0.684434 -6.771033,2.200731 -8.682479,5.164945 -1.941107,3.010246 -1.323875,6.927064 -1.323875,10.339904 V 106.3801 c 0,5.86405 0.07054,11.21179 6.337357,13.85379 3.619965,1.52631 7.502965,1.15573 11.340535,1.15573 h 18.678527 67.042562 21.01336 c 4.14929,0 8.43569,0.49565 12.34116,-1.15573 6.12555,-2.58997 6.33736,-7.74592 6.33736,-13.52025 V 96.373736 c 0,-3.227707 0.60538,-7.056144 -0.94227,-10.00635 -1.48628,-2.833466 -4.38678,-4.570568 -7.39636,-5.375079 -4.45983,-1.192424 -9.42232,-0.628733 -14.0089,-0.628733 -8.00307,0 -16.01283,-0.09405 -24.01524,0.0013 -1.45659,0.01735 -2.87916,0.344552 -4.33609,0.325873 C 96.289611,80.456633 77.535035,80.363574 58.855168,80.363574 H 41.510822 c -2.898874,0 -6.158578,-0.410928 -9.005719,0.171776 z"
         id="path14" />
      <path
         inkscape:connector-curvature="0"
         style="fill:#101010;stroke:none;stroke-width:0.33354512"
         d="m 32.171557,94.19036 c -8.939038,1.219766 -7.656728,16.64656 1.667726,15.37375 8.890746,-1.21377 7.523611,-16.627553 -1.667726,-15.37375 m 55.034946,0 c -8.939002,1.219766 -7.656861,16.64656 1.667723,15.37375 8.890648,-1.21377 7.523785,-16.627553 -1.667723,-15.37375 m 22.347527,12.52328 c -2.49458,0.89257 -5.16762,2.24943 -7.6582,0.44929 -3.598952,-2.60133 -3.246397,-9.804559 1.32084,-11.238471 2.28678,-0.718121 4.25703,0.372233 6.33736,1.116377 -0.26851,-3.477546 -5.4995,-3.41284 -8.00508,-2.336494 -3.196364,1.372547 -4.038899,4.52088 -4.001213,7.673208 0.04202,3.53492 2.084661,6.45977 5.668933,7.13153 2.40086,0.44995 6.11021,0.14576 6.33736,-2.79544 m 3.00191,-12.341164 V 109.382 h 9.33926 v -1.66773 h -7.33799 V 94.372476 Z"
         id="path16" />
      <path
         inkscape:connector-curvature="0"
         style="fill:#fefefe;stroke:none;stroke-width:0.33354512"
         d="m 31.504735,95.924459 c -5.875632,1.849502 -3.881165,14.072271 3.001372,11.905551 5.829602,-1.83483 3.872492,-14.069262 -3.001372,-11.905551 m 55.035018,0 c -5.875741,1.849502 -3.881135,14.072271 3.001236,11.905551 5.829703,-1.83483 3.872461,-14.069262 -3.001236,-11.905551 z"
         id="path18" />
      <path
         inkscape:connector-curvature="0"
         style="fill:#101010;stroke:none;stroke-width:0.33354512"
         d="m 45.179818,99.709195 c -0.187386,-0.600724 -0.274874,-1.041327 -0.333545,-1.667723 h -1.667725 v 15.676618 h 1.667725 v -6.00382 c 0.782697,0.81118 1.540311,1.52864 2.669661,1.81383 5.308271,1.34117 6.845715,-6.48179 4.45086,-9.812574 -1.747543,-2.430872 -5.17622,-2.626659 -6.786976,-0.0067 m 20.012708,7.671534 c -3.659991,0.83653 -6.950415,1.05233 -8.005084,-3.33544 h 8.672174 c -0.07672,-1.78014 -0.290851,-3.9115 -1.739105,-5.14594 -3.451858,-2.942537 -8.392995,0.04997 -8.587452,4.1453 -0.118744,2.50658 0.507655,4.94547 2.988897,6.06918 2.073985,0.93926 6.20961,1.05333 6.67057,-1.7331 m 5.33672,-7.671534 v -1.667723 h -1.667724 v 11.340547 h 1.667724 c 0,-2.3555 -0.641737,-5.84772 0.43962,-8.00009 0.903241,-1.797809 3.286418,-2.692375 4.725664,-0.95626 1.687401,2.03528 0.838535,6.47144 0.838535,8.95635 h 1.667723 c 0,-2.80145 0.572035,-6.33403 -0.369903,-9.00439 -0.791165,-2.243759 -3.11932,-3.177696 -5.298696,-2.193061 -0.791501,0.357552 -1.375873,0.943258 -2.002943,1.524627 m 64.040674,-1.840492 c -6.58418,0.826521 -5.63758,12.560966 1.33418,11.686076 6.56082,-0.82351 5.61323,-12.557974 -1.33418,-11.686076 m 11.00698,1.840492 c -0.18745,-0.600711 -0.27483,-1.041327 -0.33355,-1.667723 h -1.66772 v 11.340547 h 1.66772 c 0,-2.88118 -1.07601,-8.40535 2.33949,-9.758878 0.73246,-0.29018 1.559,-0.240479 2.33015,-0.247483 v -1.667736 c -1.80915,0.07906 -3.34078,0.386255 -4.33609,2.001273 m 13.34181,8.005094 c -0.10371,4.28672 -3.26608,4.5699 -6.6709,3.66899 0.56068,3.43584 6.11787,2.71573 7.64152,0.29852 0.85787,-1.36054 0.69711,-3.09997 0.69711,-4.63462 v -9.005707 h -1.66773 v 1.334186 c -0.73246,-0.590716 -1.41556,-1.125724 -2.33548,-1.398892 -7.60584,-2.257766 -7.60584,13.394173 0,11.136393 0.91992,-0.27317 1.60302,-0.80817 2.33548,-1.39887 z"
         id="path20" />
      <path
         inkscape:connector-curvature="0"
         style="fill:#fefefe;stroke:none;stroke-width:0.33354512"
         d="m 46.878929,99.623477 c -3.678301,1.515613 -2.265838,9.964313 2.297259,8.176513 3.711691,-1.45425 2.306599,-10.073386 -2.297259,-8.176513 m 10.308513,2.754073 h 6.670903 c -0.473635,-4.241686 -5.605893,-3.553588 -6.670903,0 m 76.721718,-2.659021 c -3.72169,1.927221 -1.80382,10.346901 2.64735,7.986411 3.676,-1.94924 1.75045,-10.264192 -2.64735,-7.986411 m 20.6878,-0.09509 c -3.71836,1.486941 -2.20273,9.600091 2.31547,7.842971 3.75839,-1.46192 2.2431,-9.665455 -2.31547,-7.842971 z"
         id="path22" />
      <path
         inkscape:connector-curvature="0"
         style="fill:#101010;stroke:none;stroke-width:0.33354512"
         d="m 124.56356,106.71364 v 2.66836 h 2.00127 v -2.66836 z"
         id="path24" />
    </g>
  </g>
</svg>
