<?xml version="1.0" encoding="UTF-8" standalone="no"?>
<!-- Created with Inkscape (http://www.inkscape.org/) -->

<svg
   xmlns:dc="http://purl.org/dc/elements/1.1/"
   xmlns:cc="http://creativecommons.org/ns#"
   xmlns:rdf="http://www.w3.org/1999/02/22-rdf-syntax-ns#"
   xmlns:svg="http://www.w3.org/2000/svg"
   xmlns="http://www.w3.org/2000/svg"
   xmlns:sodipodi="http://sodipodi.sourceforge.net/DTD/sodipodi-0.dtd"
   xmlns:inkscape="http://www.inkscape.org/namespaces/inkscape"
   width="680"
   height="500"
   viewBox="0 0 179.91666 132.29167"
   version="1.1"
   id="svg836"
   inkscape:version="0.92.4 (unknown)"
   sodipodi:docname="featured.svg"
   inkscape:export-filename="/home/rschmehl/awesco.eu/content/consortium/partner09/featured.png"
   inkscape:export-xdpi="96"
   inkscape:export-ydpi="96">
  <defs
     id="defs830" />
  <sodipodi:namedview
     id="base"
     pagecolor="#ffffff"
     bordercolor="#666666"
     borderopacity="1.0"
     inkscape:pageopacity="0.0"
     inkscape:pageshadow="2"
     inkscape:zoom="1.0793554"
     inkscape:cx="368.61451"
     inkscape:cy="219.53496"
     inkscape:document-units="px"
     inkscape:current-layer="layer1"
     showgrid="false"
     units="px"
     showguides="true"
     inkscape:guide-bbox="true"
     inkscape:window-width="1920"
     inkscape:window-height="1022"
     inkscape:window-x="0"
     inkscape:window-y="0"
     inkscape:window-maximized="1">
    <sodipodi:guide
       position="0,0"
       orientation="1,0"
       id="guide1444"
       inkscape:locked="false"
       inkscape:label=""
       inkscape:color="rgb(0,0,255)" />
    <sodipodi:guide
       position="179.91667,0"
       orientation="1,0"
       id="guide1446"
       inkscape:locked="false"
       inkscape:label=""
       inkscape:color="rgb(0,0,255)" />
    <sodipodi:guide
       position="0,0"
       orientation="0,1"
       id="guide1448"
       inkscape:locked="false" />
    <sodipodi:guide
       position="0,132.29167"
       orientation="0,1"
       id="guide1450"
       inkscape:locked="false"
       inkscape:label=""
       inkscape:color="rgb(0,0,255)" />
  </sodipodi:namedview>
  <metadata
     id="metadata833">
    <rdf:RDF>
      <cc:Work
         rdf:about="">
        <dc:format>image/svg+xml</dc:format>
        <dc:type
           rdf:resource="http://purl.org/dc/dcmitype/StillImage" />
        <dc:title />
      </cc:Work>
    </rdf:RDF>
  </metadata>
  <g
     inkscape:label="Layer 1"
     inkscape:groupmode="layer"
     id="layer1"
     transform="translate(0,-164.70832)">
    <g
       id="g16"
       transform="matrix(0.12117995,0,0,0.12117995,19.37828,164.70832)">
      <g
         id="g14">
        <path
           style="fill:#626365"
           inkscape:connector-curvature="0"
           d="m 844.131,907.996 c 54.385,0 76.689,18.477 76.689,67.275 v 116.426 H 872.373 V 981.199 c 0,-25.444 -4.541,-32.769 -32.08,-32.769 h -65.928 v 143.267 H 725.918 V 907.996 Z"
           id="path4" />
        <path
           style="fill:#626365"
           inkscape:connector-curvature="0"
           d="m 1082.49,1053.347 c 17.432,0 26.147,-4.883 26.147,-17.764 0,-12.92 -8.716,-18.135 -26.147,-18.135 h -60 c -44.629,0 -63.447,-9.053 -63.447,-51.943 0,-39.39 20.566,-57.51 64.834,-57.51 h 122.402 v 38.335 h -103.926 c -21.953,0 -33.467,1.401 -33.467,16.748 0,11.484 7.324,16.367 23.008,16.367 h 62.09 c 40.439,0 61.699,19.526 61.699,54.736 0,34.512 -21.26,57.515 -50.186,57.515 h -143.32 v -38.35 h 120.313 z"
           id="path6" />
        <path
           style="fill:#626365"
           inkscape:connector-curvature="0"
           d="m 375.117,1053.347 c 17.417,0 26.147,-4.883 26.147,-17.764 0,-12.92 -8.73,-18.135 -26.147,-18.135 h -60 c -44.619,0 -63.447,-9.053 -63.447,-51.943 0,-39.39 20.576,-57.51 64.839,-57.51 H 438.906 V 946.33 H 334.98 c -21.953,0 -33.472,1.401 -33.472,16.748 0,11.484 7.339,16.367 23.022,16.367 h 62.09 c 40.439,0 61.699,19.526 61.699,54.736 0,34.512 -21.26,57.515 -50.195,57.515 H 280.713 l -33.999,-38.35 h 128.403 z"
           id="path8" />
        <polygon
           style="fill:#626365"
           points="83.73,1001.335 1.289,1091.697 69.99,1091.697 118.896,1038.093 167.813,1091.697 236.519,1091.697 154.063,1001.335 237.788,908.542 169.092,908.542 118.896,964.167 68.701,908.542 0,908.542 "
           id="polygon10" />
        <path
           style="fill:#626365"
           inkscape:connector-curvature="0"
           d="m 568.428,907.996 c -61.006,0 -92.378,32.07 -92.378,92.021 0,60.298 31.372,91.68 92.378,91.68 h 115.381 v -38.35 H 574.707 c -31.382,0 -43.926,-3.828 -44.971,-34.165 H 683.808 V 907.996 Z m 6.631,38.335 h 60.293 v 34.521 H 529.736 c 1.045,-29.292 14.297,-34.521 45.323,-34.521"
           id="path12" />
      </g>
    </g>
    <path
       inkscape:connector-curvature="0"
       style="fill:#f5a641;stroke-width:0.12117995"
       d="m 53.412153,185.72127 c -1.805823,0 -3.592743,0.37313 -4.754859,1.54312 -6.679075,6.72379 9.592,26.52944 9.592,26.52944 l 15.402456,-0.42776 c 2.767992,-2.70523 5.314589,-5.19184 7.735885,-7.50722 l -15.797745,-1.0899 c 0,0 -9.676098,-11.22477 -11.887874,-19.04476 -0.09695,-0.002 -0.193404,-0.003 -0.289863,-0.003"
       id="path18" />
    <path
       inkscape:connector-curvature="0"
       style="fill:#f18f09;stroke-width:0.12117995"
       d="m 73.652478,213.36607 -15.402457,0.42776 c -7.208632,9.36309 -9.646409,17.06286 -9.646409,17.06286 -2.953762,9.48233 2.679773,10.5177 5.282112,10.5177 0.62844,0 1.079836,-0.0602 1.191079,-0.077 2.167424,-7.89028 10.687225,-18.88796 10.687225,-18.88796 l 15.288908,-1.86241 c -4.592235,-4.1807 -7.425181,-7.15689 -7.425181,-7.15689 0.0081,-0.008 0.01589,-0.0161 0.02474,-0.024"
       id="path20" />
    <path
       inkscape:connector-curvature="0"
       style="fill:#fabc1b;stroke-width:0.12117995"
       d="m 48.602278,230.85487 c 0,0 2.437172,-7.69795 9.645926,-17.06346 0,9.8e-4 -13.66001,-16.62698 -10.806829,-24.58244 -5.811669,9.86574 -6.267912,19.6772 -6.267912,19.6772 -1.458522,16.50046 6.024097,28.06576 7.505644,30.17452 -1.017063,-1.53764 -1.366667,-4.06655 -0.07684,-8.20582"
       id="path22" />
    <path
       inkscape:connector-curvature="0"
       style="fill:#f18e00;stroke-width:0.12117995"
       d="m 54.576693,179.62327 c -0.42425,0.32779 -0.574514,0.61801 -0.574514,0.61801 0,0 0.194614,-0.2248 0.574514,-0.61801"
       id="path24" />
    <path
       inkscape:connector-curvature="0"
       style="fill:#f18f09;stroke-width:0.12117995"
       d="m 112.94482,172.50988 c -2.8407,0 -7.03412,1.03839 -13.120257,4.50316 -7.317577,4.168 -12.958259,8.05302 -18.418992,12.6215 2.360341,1.67715 4.672093,3.45048 7.272616,5.41106 0.707082,0.53464 1.538376,1.20112 2.43838,1.94517 5.349007,-4.56023 10.754713,-8.53797 17.492923,-12.56768 4.65258,-2.78242 8.05424,-4.09164 10.51745,-4.61078 0.19292,-1.8354 0.004,-3.52149 -0.70175,-4.95929 0,0 -0.96689,-1.85527 -4.18446,-2.26449 -0.005,-4.5e-4 -0.0106,-9.9e-4 -0.016,-0.002 -0.0462,-0.005 -0.0924,-0.0108 -0.1396,-0.0155 -0.0119,-9.9e-4 -0.0236,-0.003 -0.035,-0.004 -0.0408,-0.005 -0.0817,-0.009 -0.12313,-0.0122 -0.0597,-0.006 -0.12008,-0.0102 -0.18225,-0.0154 -0.002,0 -0.004,-4.6e-4 -0.007,-4.6e-4 -0.045,-0.004 -0.0905,-0.007 -0.13608,-0.009 l -0.023,-0.002 c -0.20298,-0.0109 -0.41479,-0.0177 -0.63378,-0.0177"
       id="path26" />
    <path
       inkscape:connector-curvature="0"
       style="fill:#ea620d;stroke-width:0.12117995"
       d="m 81.406057,189.63418 c -1.907615,1.59582 -3.793419,3.27477 -5.721148,5.07853 3.061487,1.90858 6.452468,4.23367 10.065447,7.04651 1.812973,-1.66915 3.587409,-3.25116 5.366092,-4.76821 -0.900004,-0.74464 -1.731297,-1.41125 -2.438386,-1.94493 -2.600522,-1.96141 -4.912269,-3.73405 -7.272005,-5.4119"
       id="path28" />
    <path
       inkscape:connector-curvature="0"
       style="fill:#e74c13;stroke-width:0.12117995"
       d="m 75.684909,194.71284 c -3.15904,2.95667 -6.43005,6.24865 -10.095019,10.05624 l 15.797745,1.08989 c 1.495238,-1.42811 2.940797,-2.79017 4.361993,-4.09964 -3.612736,-2.8132 -7.002622,-5.13804 -10.064719,-7.04649"
       id="path30" />
    <path
       inkscape:connector-curvature="0"
       style="fill:#fabc1b;stroke-width:0.12117995"
       d="m 89.240825,164.70832 c -19.117837,0 -31.876024,12.02832 -34.664132,14.91495 0.554397,-0.42777 1.576309,-0.92037 3.343719,-0.92037 1.840722,-4.6e-4 4.490444,0.53429 8.263018,2.23577 6.546021,2.94759 10.961815,5.66638 15.222017,8.69587 5.460733,-4.56848 11.10142,-8.45362 18.418996,-12.6215 6.082007,-3.46464 10.273627,-4.50376 13.114447,-4.50376 0.22188,0 0.43432,0.007 0.63959,0.0181 l 0.023,0.002 c 0.0456,0.003 0.0911,0.005 0.13609,0.009 0.002,0 0.004,4.6e-4 0.007,4.6e-4 0.0616,0.005 0.12252,0.009 0.18226,0.0154 0.0414,0.004 0.0824,0.008 0.12313,0.0122 0.0112,9.8e-4 0.023,0.003 0.0349,0.004 0.0467,0.005 0.0934,0.0102 0.13959,0.0156 0.005,9.8e-4 0.0106,0.002 0.016,0.002 1.10771,0.13936 1.94907,0.4503 2.57569,0.79761 0,0 -3.92586,-2.85766 -7.78145,-4.45457 -7.14884,-3.03369 -13.787686,-4.22295 -19.793968,-4.22295"
       id="path32" />
    <path
       inkscape:connector-curvature="0"
       style="fill:#ec7007;stroke-width:0.12117995"
       d="m 57.920412,178.70254 c -1.76741,0 -2.789805,0.4926 -3.344325,0.92097 -0.379899,0.39323 -0.573908,0.61741 -0.573908,0.61741 -0.524226,0.73435 -0.751437,1.65059 -0.746711,2.6931 0.0047,0.85566 0.165047,1.79492 0.446791,2.79017 3.090452,0.0663 6.146004,1.1586 6.146004,1.1586 0,0 6.335286,1.90739 15.836283,7.82992 1.928334,-1.80352 3.814139,-3.48247 5.721752,-5.07853 -4.261414,-3.02949 -8.677213,-5.74744 -15.222021,-8.69587 -3.773543,-1.70088 -6.423143,-2.23626 -8.263865,-2.23577"
       id="path34" />
    <path
       inkscape:connector-curvature="0"
       style="fill:#e85911;stroke-width:0.12117995"
       d="m 53.702138,185.72431 c 2.211169,7.81962 11.887872,19.04477 11.887872,19.04477 3.664966,-3.80821 6.935249,-7.09946 10.094413,-10.05624 -9.500874,-5.92207 -15.836282,-7.82993 -15.836282,-7.82993 0,0 -3.055552,-1.09268 -6.146003,-1.1586"
       id="path36" />
    <path
       inkscape:connector-curvature="0"
       style="fill:#ef8109;stroke-width:0.12117995"
       d="m 114.22461,172.58623 c 0.005,9.9e-4 0.0106,0.002 0.016,0.002 -0.005,-9.2e-4 -0.0106,-9.8e-4 -0.016,-0.002 m -0.17449,-0.0198 c 0.0113,9.8e-4 0.023,0.003 0.035,0.004 -0.0119,-9.1e-4 -0.0236,-0.003 -0.035,-0.004 m -0.30539,-0.0275 c 0.0622,0.005 0.12252,0.009 0.18226,0.0154 -0.0597,-0.006 -0.1207,-0.0102 -0.18226,-0.0154 m -0.1431,-0.0102 c 0.0456,0.002 0.0911,0.005 0.13607,0.009 -0.045,-0.004 -0.0905,-0.006 -0.13607,-0.009 m -0.66274,-0.0202 c -2.8407,0 -7.03232,1.039 -13.115057,4.50378 6.086747,-3.46467 10.280167,-4.50319 13.120877,-4.50319 0.21897,0 0.43079,0.007 0.63366,0.0175 -0.20516,-0.0113 -0.4176,-0.018 -0.63948,-0.018"
       id="path38" />
    <path
       inkscape:connector-curvature="0"
       style="fill:#f18e00;stroke-width:0.12117995"
       d="m 54.580207,244.54893 c 0.0065,1.17158 0.278108,2.18222 0.894066,2.95559 0,0 0.164441,0.27992 0.602991,0.58336 -0.398803,-0.37155 -0.602991,-0.58336 -0.602991,-0.58336 -0.615958,-0.77337 -0.887523,-1.78401 -0.894066,-2.95559"
       id="path40" />
    <path
       inkscape:connector-curvature="0"
       style="fill:#f5a641;stroke-width:0.12117995"
       d="m 91.261378,229.20356 c -0.707083,0.64347 -1.362064,1.22211 -1.934275,1.70258 -2.4934,2.09519 -4.708207,3.98803 -6.977904,5.78743 5.692789,4.2762 11.529304,7.8607 19.056881,11.63994 5.79979,2.91232 9.86719,3.82953 12.68959,3.82953 0.19765,0 0.38875,-0.005 0.57391,-0.0135 h 0.008 c 0.0602,-0.003 0.11948,-0.006 0.17874,-0.0102 h 0.007 c 0.0591,-0.004 0.11718,-0.008 0.1751,-0.0126 0.002,-4.5e-4 0.004,-4.5e-4 0.006,-4.5e-4 1.60878,-0.12785 2.73952,-0.57331 3.517,-1.06093 0,0 -0.002,0.002 -0.007,0.005 1.16382,-0.72659 1.53899,-1.54844 1.53899,-1.54844 0.50289,-1.17811 0.66868,-2.49872 0.56688,-3.91228 -1.64901,-0.26988 -3.00053,-0.77569 -3.11178,-0.81834 -0.005,-0.002 -0.007,-0.003 -0.007,-0.003 -9.09661,-3.20182 -18.511691,-9.47919 -26.280167,-15.5852"
       id="path42" />
    <path
       inkscape:connector-curvature="0"
       style="fill:#eb6e08;stroke-width:0.12117995"
       d="m 85.417837,224.40241 c -2.872086,2.39404 -6.069051,4.89155 -9.410349,7.21189 2.146097,1.8177 4.234755,3.49642 6.34183,5.07915 2.269702,-1.7994 4.485113,-3.69224 6.977909,-5.78804 0.572209,-0.48048 1.227791,-1.05911 1.934879,-1.70196 -2.079328,-1.63328 -4.039655,-3.25394 -5.844269,-4.80104"
       id="path44" />
    <path
       inkscape:connector-curvature="0"
       style="fill:#e74c13;stroke-width:0.12117995"
       d="m 81.052816,220.54695 -15.288307,1.86266 c 3.717074,3.47774 7.045404,6.49682 10.24286,9.20469 3.341292,-2.3201 6.538263,-4.81822 9.410349,-7.21226 -1.58273,-1.35576 -3.046586,-2.65601 -4.364902,-3.85509"
       id="path46" />
    <path
       inkscape:connector-curvature="0"
       style="fill:#fabc1b;stroke-width:0.12117995"
       d="m 82.349199,236.69357 c -4.094551,3.24787 -8.363721,6.19278 -14.74154,9.47966 -4.002817,2.06031 -6.750088,2.67444 -8.603899,2.67444 -1.490513,0 -2.403483,-0.39698 -2.926496,-0.75979 2.8058,2.61773 15.198876,13.14996 33.027959,13.14996 6.626484,0 14.006707,-1.45621 21.920127,-5.31349 3.6715,-1.75614 7.35306,-4.71113 7.52938,-4.85314 -0.77688,0.4846 -1.907,0.92776 -3.51058,1.05499 -0.002,0 -0.004,0 -0.006,4.5e-4 -0.058,0.005 -0.11658,0.008 -0.1751,0.0125 h -0.007 c -0.0591,0.004 -0.11887,0.007 -0.17874,0.0102 h -0.008 c -0.18517,0.009 -0.37579,0.0135 -0.57282,0.0135 -2.82301,0 -6.8909,-0.91648 -12.69082,-3.82953 -7.527565,-3.77905 -13.36408,-7.36355 -19.05687,-11.63976"
       id="path48" />
    <path
       inkscape:connector-curvature="0"
       style="fill:#ec7007;stroke-width:0.12117995"
       d="m 76.007369,231.61444 c -6.866664,4.77024 -14.34989,8.79971 -20.903544,9.679 0,0 -0.01002,0.002 -0.02726,0.004 -0.320641,1.16744 -0.501806,2.26619 -0.496474,3.25138 0.0059,1.17158 0.278109,2.18221 0.89346,2.95559 0,0 0.205279,0.21181 0.602992,0.58336 0.523618,0.36269 1.436587,0.75979 2.927101,0.75979 1.854417,0 4.601082,-0.61414 8.603896,-2.67383 6.378553,-3.28689 10.646993,-6.23241 14.74154,-9.48015 -2.107436,-1.58237 -4.195609,-3.26156 -6.341706,-5.07925"
       id="path50" />
    <path
       inkscape:connector-curvature="0"
       style="fill:#e53e16;stroke-width:0.12117995"
       d="m 65.764509,222.40961 v 0 c 0,0 -8.521009,10.99756 -10.688434,18.88794 0.0183,-0.002 0.02726,-0.004 0.02726,-0.004 6.554867,-0.87928 14.03688,-4.90876 20.903544,-9.679 -3.196971,-2.70764 -6.524692,-5.72685 -10.242375,-9.20482"
       id="path52" />
    <path
       inkscape:connector-curvature="0"
       style="fill:#f2920a;stroke-width:0.12117995"
       d="m 114.85596,252.13929 c -0.0591,0.004 -0.1184,0.007 -0.17873,0.0102 0.0598,-0.003 0.11959,-0.006 0.17873,-0.0102 m 0.18225,-0.0124 c -0.058,0.005 -0.11596,0.008 -0.1751,0.0124 0.0585,-0.004 0.11718,-0.008 0.1751,-0.0124 m 3.52307,-1.06155 c -0.7775,0.48752 -1.90822,0.93309 -3.51701,1.06093 1.60346,-0.12723 2.73369,-0.57039 3.51058,-1.05498 0.004,-0.004 0.007,-0.006 0.007,-0.006 M 82.349444,236.69341 v 0 c 5.69279,4.27619 11.529304,7.8607 19.056886,11.63994 5.79979,2.91292 9.86779,3.82953 12.6908,3.82953 0.19705,0 0.38753,-0.005 0.57281,-0.0135 -0.18515,0.009 -0.37625,0.0135 -0.57389,0.0135 -2.82241,0 -6.88969,-0.91709 -12.68961,-3.82953 -7.527692,-3.77924 -13.364206,-7.36375 -19.056996,-11.63994"
       id="path54" />
    <path
       inkscape:connector-curvature="0"
       style="fill:#fabc1b;stroke-width:0.12117995"
       d="m 121.63101,179.52511 c -0.69994,0 -1.52832,0.0817 -2.50407,0.28732 0.97562,-0.20577 1.80401,-0.28732 2.50407,-0.28732 2.6982,0 3.49579,1.2118 3.49579,1.2118 4.95724,8.30507 -16.94265,31.67717 -16.94265,31.67717 l -10.072469,0.28465 10.072469,-0.28465 c 0,0 6.72937,7.55774 7.91814,9.01397 9.25887,11.32596 10.56241,17.55304 10.56241,17.55304 1.38993,5.5087 -1.29468,6.79444 -4.104,6.79444 -0.64262,0 -1.29166,-0.0669 -1.89998,-0.16627 v 4.7e-4 c 0.6088,0.0993 1.25798,0.16685 1.90107,0.16685 1.43963,0 2.84542,-0.33724 3.6886,-1.40762 l 0.0325,-0.0384 c 26.61111,-34.6262 -1.15619,-63.59378 -1.15619,-63.59378 0,0 -0.79772,-1.2118 -3.49578,-1.2118"
       id="path56" />
    <path
       inkscape:connector-curvature="0"
       style="fill:#ec7007;stroke-width:0.12117995"
       d="m 108.18404,212.41408 -10.072482,0.28465 c -0.189888,0.19946 -2.803495,2.91377 -6.850666,6.60454 l 11.606128,-1.41417 c 0,0 17.0007,16.70927 17.79357,27.72016 0.60833,0.0993 1.25737,0.16627 1.89999,0.16627 2.80944,0 5.49393,-1.28633 4.10401,-6.79444 0,0 -1.30354,-6.22708 -10.56242,-17.55304 -1.18877,-1.45599 -7.91813,-9.01397 -7.91813,-9.01397"
       id="path58" />
    <path
       inkscape:connector-curvature="0"
       style="fill:#e74e13;stroke-width:0.12117995"
       d="m 98.111558,212.6986 -24.483922,0.69195 c 0,0 2.833065,2.9763 7.42518,7.15627 l 10.207957,-1.24403 c 4.04729,-3.68967 6.660773,-6.40472 6.850785,-6.60419"
       id="path60" />
    <path
       inkscape:connector-curvature="0"
       style="fill:#f29400;stroke-width:0.12117995"
       d="m 121.63101,179.52511 c -0.69994,0 -1.52832,0.0817 -2.50407,0.28732 -1.1644,11.06179 -16.24866,27.53026 -16.24866,27.53026 l -11.314437,-0.781 c 2.139551,1.87271 4.333034,3.9106 6.559591,6.12492 l -0.01187,0.0122 10.072486,-0.28466 c 0,0 21.9,-23.3721 16.94265,-31.67717 0,0 -0.79762,-1.21179 -3.49568,-1.21179"
       id="path62" />
    <path
       inkscape:connector-curvature="0"
       style="fill:#ec7405;stroke-width:0.12117995"
       d="m 81.387759,205.85921 c -2.421177,2.31442 -4.967894,4.80163 -7.73589,7.50721 l 24.471445,-0.6792 c -2.226562,-2.21506 -4.420039,-4.25282 -6.55959,-6.12553 l -10.175965,-0.70248"
       id="path64" />
    <path
       inkscape:connector-curvature="0"
       style="fill:#ea670b;stroke-width:0.12117995"
       d="m 98.123314,212.68686 -24.471445,0.67921 c -0.0076,0.008 -0.01598,0.0155 -0.02483,0.0242 l 24.484531,-0.69145 0.01177,-0.0121"
       id="path66" />
    <path
       inkscape:connector-curvature="0"
       style="fill:#e74c13;stroke-width:0.12117995"
       d="m 119.12694,179.81206 c -2.46321,0.51926 -5.86487,1.82921 -10.51745,4.61078 -6.73821,4.03069 -12.144039,8.00781 -17.492923,12.56831 4.872648,4.03031 11.761853,10.35179 11.761853,10.35179 0,0 15.08398,-16.46848 16.24852,-27.53088"
       id="path68" />
    <path
       inkscape:connector-curvature="0"
       style="fill:#e64115;stroke-width:0.12117995"
       d="m 91.116448,196.99077 c -1.779287,1.51718 -3.553119,3.0993 -5.366092,4.76856 1.882168,1.46506 3.825287,3.06259 5.813487,4.80224 l 11.314437,0.78101 c 0,0 -6.88858,-6.32136 -11.761832,-10.35181"
       id="path70" />
    <path
       inkscape:connector-curvature="0"
       style="fill:#e43117;stroke-width:0.12117995"
       d="m 85.750356,201.75933 c -1.42241,1.30947 -2.867359,2.67153 -4.362597,4.10012 l 10.176084,0.702 c -1.9882,-1.73918 -3.931928,-3.33706 -5.813487,-4.80212"
       id="path72" />
    <path
       inkscape:connector-curvature="0"
       style="fill:#f2920a;stroke-width:0.12117995"
       d="m 117.54882,244.79155 c 0.11125,0.0427 1.46264,0.54845 3.11177,0.81831 v -4.5e-4 c -1.64913,-0.26987 -3.00052,-0.77518 -3.11177,-0.81773"
       id="path74" />
    <path
       inkscape:connector-curvature="0"
       style="fill:#e85911;stroke-width:0.12117995"
       d="m 102.86702,217.88899 -11.606128,1.41416 11.606128,-1.41416 c 0,0 -6.932336,7.0643 -11.605522,11.31446 7.768363,6.106 17.183562,12.38337 26.280292,15.58506 0,0 0.002,9.9e-4 0.007,0.003 0.11125,0.0427 1.46326,0.54785 3.11178,0.81772 -0.79296,-11.01099 -17.79366,-27.72038 -17.79366,-27.72038"
       id="path76" />
    <path
       inkscape:connector-curvature="0"
       style="fill:#e53517;stroke-width:0.12117995"
       d="m 102.86702,217.88899 -11.606128,1.41416 c -1.715303,1.56383 -3.68811,3.30289 -5.843055,5.09926 1.804733,1.54698 3.764941,3.16764 5.843661,4.80104 4.673186,-4.25016 11.605522,-11.31446 11.605522,-11.31446"
       id="path78" />
    <path
       inkscape:connector-curvature="0"
       style="fill:#e42518;stroke-width:0.12117995"
       d="m 91.260773,219.30315 -10.208565,1.2438 c 1.318924,1.19908 2.78278,2.49933 4.365025,3.85546 2.155549,-1.79637 4.128236,-3.53531 5.84354,-5.09926"
       id="path80" />
  </g>
</svg>
