<?xml version="1.0" encoding="UTF-8" standalone="no"?>
<!-- Created with Inkscape (http://www.inkscape.org/) -->

<svg
   xmlns:dc="http://purl.org/dc/elements/1.1/"
   xmlns:cc="http://creativecommons.org/ns#"
   xmlns:rdf="http://www.w3.org/1999/02/22-rdf-syntax-ns#"
   xmlns:svg="http://www.w3.org/2000/svg"
   xmlns="http://www.w3.org/2000/svg"
   xmlns:sodipodi="http://sodipodi.sourceforge.net/DTD/sodipodi-0.dtd"
   xmlns:inkscape="http://www.inkscape.org/namespaces/inkscape"
   version="1.1"
   id="svg2"
   xml:space="preserve"
   width="2487.0532"
   height="507.88"
   viewBox="0 0 2487.0532 507.88"
   sodipodi:docname="Kitepower-Logo_RGB-2.eps"
   inkscape:version="0.92.4 (unknown)"><metadata
     id="metadata8"><rdf:RDF><cc:Work
         rdf:about=""><dc:format>image/svg+xml</dc:format><dc:type
           rdf:resource="http://purl.org/dc/dcmitype/StillImage" /><dc:title></dc:title></cc:Work></rdf:RDF></metadata><defs
     id="defs6" /><sodipodi:namedview
     pagecolor="#ffffff"
     bordercolor="#666666"
     borderopacity="1"
     objecttolerance="10"
     gridtolerance="10"
     guidetolerance="10"
     inkscape:pageopacity="0"
     inkscape:pageshadow="2"
     inkscape:window-width="796"
     inkscape:window-height="480"
     id="namedview4"
     showgrid="false"
     inkscape:zoom="0.12102676"
     inkscape:cx="1243.5266"
     inkscape:cy="253.94"
     inkscape:window-x="0"
     inkscape:window-y="0"
     inkscape:window-maximized="0"
     inkscape:current-layer="g10" /><g
     id="g10"
     inkscape:groupmode="layer"
     inkscape:label="ink_ext_XXXXXX"
     transform="matrix(1.3333333,0,0,-1.3333333,0,507.88)"><g
       id="g12"
       transform="scale(0.1)"><path
         d="m 939.68,1364.26 c 0,855.14 708.82,1548.37 1583.27,1548.37 471.98,0 895.72,-201.93 1185.74,-522.1 C 3514.97,3203.49 2769.3,3809.1 1878.89,3809.1 841.238,3809.1 0,2986.71 0,1972.02 0,1078.9 652.09,334.719 1515.9,169.371 1164.01,453.32 939.68,883.129 939.68,1364.26"
         style="fill:#2d4da3;fill-opacity:1;fill-rule:nonzero;stroke:none"
         id="path14"
         inkscape:connector-curvature="0" /><path
         d="m 1629.84,712.449 c 0,652.271 540.47,1180.901 1207.68,1180.901 487.65,0 907.84,-282.56 1098.49,-689.5 6.06,52.72 9.52,106.01 9.52,160.41 0,768.16 -636.97,1390.95 -1422.58,1390.95 -785.52,0 -1422.49,-622.79 -1422.49,-1390.95 0,-489.901 259.22,-920.631 650.59,-1168.291 -77.73,156.113 -121.21,331.16 -121.21,516.48"
         style="fill:#3870bf;fill-opacity:1;fill-rule:nonzero;stroke:none"
         id="path16"
         inkscape:connector-curvature="0" /><path
         d="m 2733.84,918.211 c 474.4,0 858.87,-375.961 858.87,-839.7305 0,-26.4102 -1.41,-52.5313 -3.55,-78.4805 182.8,184.48 295.06,435.602 295.06,712.449 0,565.121 -468.72,1023.481 -1046.7,1023.481 -578,0 -1046.71,-458.36 -1046.71,-1023.481 0,-160.867 37.79,-312.879 105.34,-448.367 86.6,374.469 428.59,654.129 837.69,654.129"
         style="fill:#5d9fd6;fill-opacity:1;fill-rule:nonzero;stroke:none"
         id="path18"
         inkscape:connector-curvature="0" /><path
         d="m 5104.49,3051.2 h -174.3 c -61.41,0 -71.67,-18.38 -71.67,-79.78 v -82.03 c 0,-61.5 10.26,-77.82 71.67,-77.82 h 102.54 c 61.41,0 71.76,16.32 71.76,77.82 z m 92.2,248.03 v -409.84 c 0,-122.99 -40.97,-163.86 -163.96,-163.86 h -102.54 c -122.81,0 -163.78,40.87 -163.78,163.86 v 82.03 c 0,122.79 40.97,165.81 163.78,165.81 h 174.3 v 162 c 0,61.4 -10.35,77.82 -71.76,77.82 h -102.54 c -61.41,0 -71.67,-16.42 -71.67,-77.82 v -71.76 h -92.11 v 71.76 c 0,122.9 40.97,163.86 163.78,163.86 h 102.54 c 122.99,0 163.96,-40.96 163.96,-163.86"
         style="fill:#2d4da3;fill-opacity:1;fill-rule:nonzero;stroke:none"
         id="path20"
         inkscape:connector-curvature="0" /><path
         d="m 5422.32,2725.53 h -92.29 v 737.56 h 92.29 v -737.56"
         style="fill:#2d4da3;fill-opacity:1;fill-rule:nonzero;stroke:none"
         id="path22"
         inkscape:connector-curvature="0" /><path
         d="m 5724.56,3463.09 h 163.96 v -86.04 h -163.96 c -61.49,0 -71.66,-16.42 -71.66,-77.82 v -573.7 h -92.29 v 573.7 c 0,122.9 41.06,163.86 163.95,163.86"
         style="fill:#2d4da3;fill-opacity:1;fill-rule:nonzero;stroke:none"
         id="path24"
         inkscape:connector-curvature="0" /><path
         d="M 6247.22,3051.2 H 6073.1 v -239.63 h 174.12 c 61.4,0 71.67,16.32 71.67,77.82 v 82.03 c 0,61.4 -10.27,79.78 -71.67,79.78 z m 71.67,166 v 82.03 c 0,61.4 -10.27,77.82 -71.67,77.82 H 6073.1 v -239.82 h 174.12 c 61.4,0 71.67,18.48 71.67,79.97 z m 0,-120.83 v -5.14 c 46.1,0 92.29,-17.36 92.29,-119.81 v -82.03 c 0,-122.99 -41.16,-163.86 -163.96,-163.86 H 5980.9 v 737.56 h 266.32 c 122.8,0 163.96,-40.96 163.96,-163.86 v -82.03 c 0,-102.37 -46.19,-120.83 -92.29,-120.83"
         style="fill:#2d4da3;fill-opacity:1;fill-rule:nonzero;stroke:none"
         id="path26"
         inkscape:connector-curvature="0" /><path
         d="m 6867.2,3299.23 c 0,61.4 -10.07,77.82 -71.67,77.82 h -102.45 c -61.4,0 -71.67,-16.42 -71.67,-77.82 v -409.84 c 0,-61.5 10.27,-77.82 71.67,-77.82 h 102.45 c 61.6,0 71.67,16.32 71.67,77.82 z m 92.29,0 v -409.84 c 0,-122.99 -40.97,-163.86 -163.96,-163.86 h -102.45 c -122.9,0 -163.96,40.87 -163.96,163.86 v 409.84 c 0,122.9 41.06,163.86 163.96,163.86 h 102.45 c 122.99,0 163.96,-40.96 163.96,-163.86"
         style="fill:#2d4da3;fill-opacity:1;fill-rule:nonzero;stroke:none"
         id="path28"
         inkscape:connector-curvature="0" /><path
         d="m 7251.66,3463.09 h 163.95 v -86.04 h -163.95 c -61.59,0 -71.67,-16.42 -71.67,-77.82 v -573.7 h -92.28 v 573.7 c 0,122.9 40.96,163.86 163.95,163.86"
         style="fill:#2d4da3;fill-opacity:1;fill-rule:nonzero;stroke:none"
         id="path30"
         inkscape:connector-curvature="0" /><path
         d="m 7933.13,3299.23 v -573.7 h -92.19 v 573.7 c 0,61.4 -10.18,77.82 -71.67,77.82 h -102.46 c -61.5,0 -71.66,-16.42 -71.66,-77.82 v -573.7 h -92.29 v 573.7 c 0,122.9 41.06,163.86 163.95,163.86 h 102.46 c 122.9,0 163.86,-40.96 163.86,-163.86"
         style="fill:#2d4da3;fill-opacity:1;fill-rule:nonzero;stroke:none"
         id="path32"
         inkscape:connector-curvature="0" /><path
         d="m 8153.54,3137.23 h 245.98 v 162 c 0,61.4 -10.18,77.82 -71.76,77.82 h -102.37 c -61.58,0 -71.85,-16.42 -71.85,-77.82 z m 0,-86.03 v -161.81 c 0,-61.5 10.27,-77.82 71.85,-77.82 h 102.37 c 61.58,0 71.76,16.32 71.76,77.82 v 71.67 h 92.19 v -71.67 c 0,-122.99 -40.96,-163.86 -163.95,-163.86 h -102.37 c -122.99,0 -163.95,40.87 -163.95,163.86 v 409.84 c 0,122.9 40.96,163.86 163.95,163.86 h 102.37 c 122.99,0 163.95,-40.96 163.95,-163.86 V 3051.2 h -338.17"
         style="fill:#2d4da3;fill-opacity:1;fill-rule:nonzero;stroke:none"
         id="path34"
         inkscape:connector-curvature="0" /><path
         d="m 9665.14,3463.09 v -573.7 c 0,-122.99 -40.96,-163.86 -163.95,-163.86 h -71.66 c -102.37,0 -120.94,46.01 -120.94,92.1 h -5.22 c 0,-46.09 -17.37,-92.1 -119.73,-92.1 h -71.76 c -122.89,0 -163.95,40.87 -163.95,163.86 v 573.7 h 92.28 v -573.7 c 0,-61.5 10.18,-77.82 71.67,-77.82 h 71.76 c 61.4,0 76.89,16.32 76.89,77.82 v 573.7 h 92.1 v -573.7 c 0,-61.5 15.39,-77.82 76.9,-77.82 h 71.66 c 61.39,0 71.76,16.32 71.76,77.82 v 573.7 h 92.19"
         style="fill:#2d4da3;fill-opacity:1;fill-rule:nonzero;stroke:none"
         id="path36"
         inkscape:connector-curvature="0" /><path
         d="m 9896,2725.53 h -92.18 v 737.56 H 9896 v -737.56"
         style="fill:#2d4da3;fill-opacity:1;fill-rule:nonzero;stroke:none"
         id="path38"
         inkscape:connector-curvature="0" /><path
         d="m 10464.7,3299.23 v -573.7 h -92.3 v 573.7 c 0,61.4 -10.1,77.82 -71.7,77.82 h -102.4 c -61.5,0 -71.8,-16.42 -71.8,-77.82 v -573.7 h -92.3 v 573.7 c 0,122.9 41.2,163.86 164.1,163.86 h 102.4 c 123,0 164,-40.96 164,-163.86"
         style="fill:#2d4da3;fill-opacity:1;fill-rule:nonzero;stroke:none"
         id="path40"
         inkscape:connector-curvature="0" /><path
         d="m 10941.3,3299.23 c 0,61.4 -10.3,77.82 -71.7,77.82 h -174.3 v -565.48 h 174.3 c 61.4,0 71.7,16.32 71.7,77.82 z m 92.2,0 v -409.84 c 0,-122.99 -41,-163.86 -163.9,-163.86 h -266.4 v 737.56 h 266.4 c 122.9,0 163.9,-40.96 163.9,-163.86"
         style="fill:#2d4da3;fill-opacity:1;fill-rule:nonzero;stroke:none"
         id="path42"
         inkscape:connector-curvature="0" /><path
         d="m 11576.8,3137.23 h 245.8 v 162 c 0,61.4 -10.2,77.82 -71.6,77.82 h -102.4 c -61.6,0 -71.8,-16.42 -71.8,-77.82 z m 0,-86.03 v -161.81 c 0,-61.5 10.2,-77.82 71.8,-77.82 h 102.4 c 61.4,0 71.6,16.32 71.6,77.82 v 71.67 h 92.4 v -71.67 c 0,-122.99 -41.2,-163.86 -164,-163.86 h -102.4 c -123.1,0 -164.1,40.87 -164.1,163.86 v 409.84 c 0,122.9 41,163.86 164.1,163.86 h 102.4 c 122.8,0 164,-40.96 164,-163.86 V 3051.2 h -338.2"
         style="fill:#2d4da3;fill-opacity:1;fill-rule:nonzero;stroke:none"
         id="path44"
         inkscape:connector-curvature="0" /><path
         d="m 12473.4,3299.23 v -573.7 h -92.2 v 573.7 c 0,61.4 -10.2,77.82 -71.6,77.82 H 12207 c -61.4,0 -71.6,-16.42 -71.6,-77.82 v -573.7 h -92.3 v 573.7 c 0,122.9 41.1,163.86 163.9,163.86 h 102.6 c 123,0 163.8,-40.96 163.8,-163.86"
         style="fill:#2d4da3;fill-opacity:1;fill-rule:nonzero;stroke:none"
         id="path46"
         inkscape:connector-curvature="0" /><path
         d="m 12694,3137.23 h 245.8 v 162 c 0,61.4 -10.2,77.82 -71.6,77.82 h -102.6 c -61.6,0 -71.6,-16.42 -71.6,-77.82 z m 0,-86.03 v -161.81 c 0,-61.5 10,-77.82 71.6,-77.82 h 102.6 c 61.4,0 71.6,16.32 71.6,77.82 v 71.67 h 92.3 v -71.67 c 0,-122.99 -41.1,-163.86 -163.9,-163.86 h -102.6 c -123,0 -164,40.87 -164,163.86 v 409.84 c 0,122.9 41,163.86 164,163.86 h 102.6 c 122.8,0 163.9,-40.96 163.9,-163.86 V 3051.2 H 12694"
         style="fill:#2d4da3;fill-opacity:1;fill-rule:nonzero;stroke:none"
         id="path48"
         inkscape:connector-curvature="0" /><path
         d="m 13324.2,3463.09 h 163.9 v -86.04 h -163.9 c -61.4,0 -71.7,-16.42 -71.7,-77.82 v -573.7 h -92.3 v 573.7 c 0,122.9 41,163.86 164,163.86"
         style="fill:#2d4da3;fill-opacity:1;fill-rule:nonzero;stroke:none"
         id="path50"
         inkscape:connector-curvature="0" /><path
         d="m 13908.3,3227.47 v 71.76 c 0,61.4 -10.2,77.82 -71.6,77.82 h -102.6 c -61.5,0 -71.6,-16.42 -71.6,-77.82 v -409.84 c 0,-61.5 10.1,-77.82 71.6,-77.82 h 102.6 c 61.4,0 71.6,16.32 71.6,77.82 v 161.81 h -122.8 v 86.03 h 215.1 v -247.84 c 0,-122.99 -41.1,-163.86 -163.9,-163.86 h -102.6 c -123,0 -163.9,40.87 -163.9,163.86 v 409.84 c 0,122.9 40.9,163.86 163.9,163.86 h 102.6 c 122.8,0 163.9,-40.96 163.9,-163.86 v -71.76 h -92.3"
         style="fill:#2d4da3;fill-opacity:1;fill-rule:nonzero;stroke:none"
         id="path52"
         inkscape:connector-curvature="0" /><path
         d="m 14594.9,3463.09 -210,-493.82 v -243.74 h -92.1 v 243.74 l -210,493.82 h 100.3 l 152.6,-360.57 h 5.1 l 153.7,360.57 h 100.4"
         style="fill:#2d4da3;fill-opacity:1;fill-rule:nonzero;stroke:none"
         id="path54"
         inkscape:connector-curvature="0" /><path
         d="M 5562.48,1215.05 6113.69,112.629 H 5804.53 L 5320.51,1086.55 H 5041.88 V 112.629 H 4766.41 V 2317.46 h 275.47 v -973.73 h 278.63 l 484.02,973.73 h 309.16 L 5562.48,1215.05"
         style="fill:#3870bf;fill-opacity:1;fill-rule:nonzero;stroke:none"
         id="path56"
         inkscape:connector-curvature="0" /><path
         d="M 6695.41,112.629 H 6419.95 V 2317.46 h 275.46 V 112.629"
         style="fill:#3870bf;fill-opacity:1;fill-rule:nonzero;stroke:none"
         id="path58"
         inkscape:connector-curvature="0" /><path
         d="m 8257.12,2060.29 h -505.2 V 112.629 H 7476.27 V 2060.29 h -505.21 v 257.17 h 1286.06 v -257.17"
         style="fill:#3870bf;fill-opacity:1;fill-rule:nonzero;stroke:none"
         id="path60"
         inkscape:connector-curvature="0" /><path
         d="m 8777.73,1343.73 h 734.85 v 483.84 c 0,183.73 -30.52,232.72 -214.36,232.72 h -306.25 c -183.64,0 -214.24,-48.99 -214.24,-232.72 z m 0,-257.18 V 602.621 c 0,-183.629 30.6,-232.723 214.24,-232.723 h 306.25 c 183.84,0 214.36,49.094 214.36,232.723 v 214.438 h 275.65 V 602.621 c 0,-367.473 -122.53,-489.992 -490.01,-489.992 h -306.25 c -367.47,0 -489.9,122.519 -489.9,489.992 V 1827.57 c 0,367.47 122.43,489.89 489.9,489.89 h 306.25 c 367.48,0 490.01,-122.42 490.01,-489.89 v -741.02 h -1010.5"
         style="fill:#3870bf;fill-opacity:1;fill-rule:nonzero;stroke:none"
         id="path62"
         inkscape:connector-curvature="0" /><path
         d="m 11196.8,1827.57 c 0,183.73 -30.5,232.72 -214.3,232.72 h -520.6 v -961.51 h 520.6 c 183.8,0 214.3,55.06 214.3,238.79 z m 275.6,0 v -490 c 0,-367.468 -122.5,-496.058 -489.9,-496.058 h -520.6 V 112.629 h -275.7 V 2317.46 h 796.3 c 367.4,0 489.9,-122.42 489.9,-489.89"
         style="fill:#2d4da3;fill-opacity:1;fill-rule:nonzero;stroke:none"
         id="path64"
         inkscape:connector-curvature="0" /><path
         d="m 12819.6,1827.57 c 0,183.73 -30.6,232.72 -214.3,232.72 H 12299 c -183.6,0 -214.4,-48.99 -214.4,-232.72 V 602.621 c 0,-183.629 30.8,-232.723 214.4,-232.723 h 306.3 c 183.7,0 214.3,49.094 214.3,232.723 z m 275.7,0 V 602.621 c 0,-367.473 -122.5,-489.992 -490,-489.992 H 12299 c -367.4,0 -489.9,122.519 -489.9,489.992 V 1827.57 c 0,367.47 122.5,489.89 489.9,489.89 h 306.3 c 367.5,0 490,-122.42 490,-489.89"
         style="fill:#2d4da3;fill-opacity:1;fill-rule:nonzero;stroke:none"
         id="path66"
         inkscape:connector-curvature="0" /><path
         d="M 15621.7,2317.46 V 602.621 c 0,-367.473 -122.6,-489.992 -490.1,-489.992 h -214.3 c -306.1,0 -361.4,137.832 -361.4,275.562 h -15.3 c 0,-137.73 -52.1,-275.562 -358.3,-275.562 H 13968 c -367.5,0 -490,122.519 -490,489.992 V 2317.46 h 275.6 V 602.621 c 0,-183.629 30.5,-232.723 214.4,-232.723 h 214.3 c 183.8,0 229.7,49.094 229.7,232.723 V 2317.46 h 275.5 V 602.621 c 0,-183.629 46,-232.723 229.8,-232.723 h 214.3 c 183.6,0 214.3,49.094 214.3,232.723 V 2317.46 h 275.8"
         style="fill:#2d4da3;fill-opacity:1;fill-rule:nonzero;stroke:none"
         id="path68"
         inkscape:connector-curvature="0" /><g
         id="g70"
         transform="scale(1.06075)"><path
           d="m 15347.4,1266.77 h 692.9 v 456.13 c 0,173.2 -28.8,219.39 -202.1,219.39 h -288.7 c -173.2,0 -202.1,-46.19 -202.1,-219.39 z m 0,-242.45 V 568.106 c 0,-173.112 28.9,-219.393 202.1,-219.393 h 288.7 c 173.3,0 202.1,46.281 202.1,219.393 V 770.262 H 16300 V 568.106 c 0,-346.426 -115.4,-461.928 -461.8,-461.928 h -288.7 c -346.5,0 -461.8,115.502 -461.8,461.928 V 1722.9 c 0,346.42 115.3,461.83 461.8,461.83 h 288.7 c 346.4,0 461.8,-115.41 461.8,-461.83 v -698.58 h -952.6"
           style="fill:#2d4da3;fill-opacity:1;fill-rule:nonzero;stroke:none"
           id="path72"
           inkscape:connector-curvature="0" /></g><g
         id="g74"
         transform="scale(1.14435)"><path
           d="M 15871.9,2025.13 H 16300 V 1800.4 h -428.1 c -160.6,0 -187.4,-42.81 -187.4,-203.36 V 98.4217 h -240.7 V 1597.04 c 0,321.11 106.9,428.09 428.1,428.09"
           style="fill:#2d4da3;fill-opacity:1;fill-rule:nonzero;stroke:none"
           id="path76"
           inkscape:connector-curvature="0" /></g></g></g></svg>