<?xml version="1.0" encoding="UTF-8" standalone="no"?>
<!-- Created with Inkscape (http://www.inkscape.org/) -->

<svg
   xmlns:dc="http://purl.org/dc/elements/1.1/"
   xmlns:cc="http://creativecommons.org/ns#"
   xmlns:rdf="http://www.w3.org/1999/02/22-rdf-syntax-ns#"
   xmlns:svg="http://www.w3.org/2000/svg"
   xmlns="http://www.w3.org/2000/svg"
   xmlns:sodipodi="http://sodipodi.sourceforge.net/DTD/sodipodi-0.dtd"
   xmlns:inkscape="http://www.inkscape.org/namespaces/inkscape"
   width="680"
   height="500"
   viewBox="0 0 179.91666 132.29167"
   version="1.1"
   id="svg836"
   inkscape:version="0.92.4 (unknown)"
   sodipodi:docname="featured.svg"
   inkscape:export-filename="/home/rschmehl/awesco.eu/content/consortium/partner01/featured.png"
   inkscape:export-xdpi="96"
   inkscape:export-ydpi="96">
  <defs
     id="defs830" />
  <sodipodi:namedview
     id="base"
     pagecolor="#ffffff"
     bordercolor="#666666"
     borderopacity="1.0"
     inkscape:pageopacity="0.0"
     inkscape:pageshadow="2"
     inkscape:zoom="1.385"
     inkscape:cx="233.25425"
     inkscape:cy="229.15936"
     inkscape:document-units="px"
     inkscape:current-layer="layer1"
     showgrid="false"
     units="px"
     showguides="true"
     inkscape:guide-bbox="true"
     inkscape:window-width="1920"
     inkscape:window-height="1022"
     inkscape:window-x="0"
     inkscape:window-y="0"
     inkscape:window-maximized="1">
    <sodipodi:guide
       position="0,0"
       orientation="1,0"
       id="guide1444"
       inkscape:locked="false"
       inkscape:label=""
       inkscape:color="rgb(0,0,255)" />
    <sodipodi:guide
       position="179.91667,0"
       orientation="1,0"
       id="guide1446"
       inkscape:locked="false"
       inkscape:label=""
       inkscape:color="rgb(0,0,255)" />
    <sodipodi:guide
       position="0,0"
       orientation="0,1"
       id="guide1448"
       inkscape:locked="false" />
    <sodipodi:guide
       position="0,132.29167"
       orientation="0,1"
       id="guide1450"
       inkscape:locked="false"
       inkscape:label=""
       inkscape:color="rgb(0,0,255)" />
  </sodipodi:namedview>
  <metadata
     id="metadata833">
    <rdf:RDF>
      <cc:Work
         rdf:about="">
        <dc:format>image/svg+xml</dc:format>
        <dc:type
           rdf:resource="http://purl.org/dc/dcmitype/StillImage" />
        <dc:title />
      </cc:Work>
    </rdf:RDF>
  </metadata>
  <g
     inkscape:label="Layer 1"
     inkscape:groupmode="layer"
     id="layer1"
     transform="translate(0,-164.70832)">
    <g
       style="display:inline"
       transform="matrix(1.1016703,0,0,-1.1016703,-10.413763,252.66782)"
       inkscape:label="ink_ext_XXXXXX"
       id="g3573">
      <g
         transform="scale(0.1)"
         id="g3575">
        <path
           id="path3577"
           style="fill:#6ac2ee;fill-opacity:1;fill-rule:nonzero;stroke:none"
           d="M 94.527109,-85.477366 H 1727.6533 V 497.03898 H 94.527109 Z"
           inkscape:connector-curvature="0" />
        <path
           id="path3599"
           style="fill:#123c75;fill-opacity:1;fill-rule:nonzero;stroke:none"
           d="M 151.73854,-85.477366 H 1727.6533 V 439.82755 H 151.73854 Z"
           inkscape:connector-curvature="0" />
        <path
           id="path3603"
           style="fill:#ffffff;fill-opacity:1;fill-rule:nonzero;stroke:none"
           d="m 269.39779,263.926 h 52.21841 v -60.41 h 0.4727 l 46.52464,60.41 h 64.32483 l -61.478,-68.516 71.44626,-106.816198 h -65.0421 L 336.09781,156.855 321.6162,140.422 V 88.593802 H 269.39779 V 263.926"
           inkscape:connector-curvature="0" />
        <path
           id="path3605"
           style="fill:#ffffff;fill-opacity:1;fill-rule:nonzero;stroke:none"
           d="m 599.678,156.367 c 0,-48.613 -25.43615,-71.9334 -77.24446,-71.9334 -51.81605,0 -77.48644,23.3204 -77.48644,71.9334 v 107.559 h 52.28939 v -95.52 c 0,-17.929 0,-40.281 25.43517,-40.281 24.71695,0 24.71695,22.352 24.71695,40.281 v 95.52 H 599.678 V 156.367"
           inkscape:connector-curvature="0" />
        <path
           id="path3607"
           style="fill:#ffffff;fill-opacity:1;fill-rule:nonzero;stroke:none"
           d="m 675.7432,263.99922 h 51.8999 v -130.403 h 74.55035 V 88.667022 H 675.7432 V 263.99922"
           inkscape:connector-curvature="0" />
        <path
           id="path3609"
           style="fill:#ffffff;fill-opacity:1;fill-rule:nonzero;stroke:none"
           d="m 817.79657,263.99922 h 139.45564 v -44.934 h -87.53915 v -21.863 h 79.52006 v -41.738 h -79.52006 v -21.868 h 90.1369 V 88.667022 H 817.79657 V 263.99922"
           inkscape:connector-curvature="0" />
        <path
           id="path3611"
           style="fill:#ffffff;fill-opacity:1;fill-rule:nonzero;stroke:none"
           d="m 1127.5834,156.367 c 0,-48.613 -25.3764,-71.9334 -77.0778,-71.9334 -51.71399,0 -77.32803,23.3204 -77.32803,71.9334 v 107.559 h 52.19013 v -95.52 c 0,-17.929 0,-40.281 25.3716,-40.281 24.6616,0 24.6616,22.352 24.6616,40.281 v 95.52 h 52.1825 V 156.367"
           inkscape:connector-curvature="0" />
        <path
           id="path3613"
           style="fill:#ffffff;fill-opacity:1;fill-rule:nonzero;stroke:none"
           d="m 1243.9937,88.593802 h -58.7575 L 1134.3765,263.926 h 53.0189 l 27.9442,-106.328 h 0.4766 l 27.4675,106.328 h 53.9722 L 1243.9937,88.593802"
           inkscape:connector-curvature="0" />
        <path
           id="path3615"
           style="fill:#ffffff;fill-opacity:1;fill-rule:nonzero;stroke:none"
           d="m 1304.0937,263.926 h 139.2372 v -44.934 h -87.4071 v -21.863 h 79.3955 v -41.738 h -79.3955 v -21.868 h 89.9976 V 88.5938 H 1304.0937 V 263.926"
           inkscape:connector-curvature="0" />
        <path
           id="path3617"
           style="fill:#ffffff;fill-opacity:1;fill-rule:nonzero;stroke:none"
           d="m 1459.4075,263.926 h 53.2801 l 49.2401,-93.797 h 0.4725 v 93.797 H 1611.65 V 88.5938 h -50.6671 l -51.8531,95.7692 h -0.4725 V 88.5938 h -49.2498 V 263.926"
           inkscape:connector-curvature="0" />
      </g>
    </g>
  </g>
</svg>
