<?xml version="1.0" encoding="UTF-8" standalone="no"?>
<!-- Created with Inkscape (http://www.inkscape.org/) -->

<svg
   xmlns:dc="http://purl.org/dc/elements/1.1/"
   xmlns:cc="http://creativecommons.org/ns#"
   xmlns:rdf="http://www.w3.org/1999/02/22-rdf-syntax-ns#"
   xmlns:svg="http://www.w3.org/2000/svg"
   xmlns="http://www.w3.org/2000/svg"
   xmlns:sodipodi="http://sodipodi.sourceforge.net/DTD/sodipodi-0.dtd"
   xmlns:inkscape="http://www.inkscape.org/namespaces/inkscape"
   width="680"
   height="500"
   viewBox="0 0 179.91666 132.29167"
   version="1.1"
   id="svg836"
   inkscape:version="0.92.4 (unknown)"
   sodipodi:docname="featured.svg"
   inkscape:export-filename="/home/rschmehl/awesco.eu/content/consortium/partner01/featured.png"
   inkscape:export-xdpi="96"
   inkscape:export-ydpi="96">
  <defs
     id="defs830" />
  <sodipodi:namedview
     id="base"
     pagecolor="#ffffff"
     bordercolor="#666666"
     borderopacity="1.0"
     inkscape:pageopacity="0.0"
     inkscape:pageshadow="2"
     inkscape:zoom="1.385"
     inkscape:cx="233.25425"
     inkscape:cy="229.15936"
     inkscape:document-units="px"
     inkscape:current-layer="layer1"
     showgrid="false"
     units="px"
     showguides="true"
     inkscape:guide-bbox="true"
     inkscape:window-width="1920"
     inkscape:window-height="1022"
     inkscape:window-x="0"
     inkscape:window-y="0"
     inkscape:window-maximized="1">
    <sodipodi:guide
       position="0,0"
       orientation="1,0"
       id="guide1444"
       inkscape:locked="false"
       inkscape:label=""
       inkscape:color="rgb(0,0,255)" />
    <sodipodi:guide
       position="179.91667,0"
       orientation="1,0"
       id="guide1446"
       inkscape:locked="false"
       inkscape:label=""
       inkscape:color="rgb(0,0,255)" />
    <sodipodi:guide
       position="0,0"
       orientation="0,1"
       id="guide1448"
       inkscape:locked="false" />
    <sodipodi:guide
       position="0,132.29167"
       orientation="0,1"
       id="guide1450"
       inkscape:locked="false"
       inkscape:label=""
       inkscape:color="rgb(0,0,255)" />
  </sodipodi:namedview>
  <metadata
     id="metadata833">
    <rdf:RDF>
      <cc:Work
         rdf:about="">
        <dc:format>image/svg+xml</dc:format>
        <dc:type
           rdf:resource="http://purl.org/dc/dcmitype/StillImage" />
        <dc:title />
      </cc:Work>
    </rdf:RDF>
  </metadata>
  <g
     inkscape:label="Layer 1"
     inkscape:groupmode="layer"
     id="layer1"
     transform="translate(0,-164.70832)">
    <g
       style="display:inline"
       clip-path="none"
       id="g22"
       transform="matrix(0.62108089,0,0,-0.62108089,-75.286686,661.87061)">
      <g
         transform="matrix(0.90653936,0,0,0.90653936,-123.50189,35.729984)"
         id="g3960">
        <g
           id="g28"
           transform="translate(291.7378,720.8199)">
          <path
             inkscape:connector-curvature="0"
             d="M 0,0 C 0.159,0 0.298,0.088 0.363,0.224 H 0.918 V -0.343 C 0.779,-0.41 0.683,-0.548 0.683,-0.71 c 0,-0.225 0.182,-0.409 0.409,-0.409 0.224,0 0.406,0.184 0.406,0.409 0,0.159 -0.091,0.298 -0.225,0.363 V 0.224 H 1.84 c 0.066,-0.136 0.205,-0.233 0.369,-0.233 0.224,0 0.405,0.182 0.405,0.406 0,0.227 -0.181,0.408 -0.405,0.408 -0.162,0 -0.3,-0.092 -0.366,-0.224 H 1.273 V 1.132 C 1.409,1.197 1.508,1.337 1.508,1.5 1.508,1.724 1.324,1.908 1.099,1.908 0.875,1.908 0.691,1.724 0.691,1.5 0.691,1.34 0.782,1.201 0.918,1.133 V 0.581 H 0.366 C 0.3,0.718 0.161,0.813 0,0.813 -0.227,0.813 -0.408,0.631 -0.408,0.407 -0.408,0.18 -0.227,0 0,0"
             style="fill:#760135;fill-opacity:1;fill-rule:nonzero;stroke:none"
             id="path30" />
        </g>
        <g
           id="g32"
           transform="translate(292.8371,724.6947)">
          <path
             inkscape:connector-curvature="0"
             d="M 0,0 C -0.572,-0.244 -0.446,-0.924 -0.489,-1.124 H 0.535 C 0.476,-0.916 0.645,-0.174 0,0"
             style="fill:#760135;fill-opacity:1;fill-rule:nonzero;stroke:none"
             id="path34" />
        </g>
        <path
           inkscape:connector-curvature="0"
           d="m 300.132,719.423 h 0.988 v 0.935 h -0.988 z"
           style="fill:#760135;fill-opacity:1;fill-rule:nonzero;stroke:none"
           id="path36" />
        <g
           id="g38"
           transform="translate(302.8194,722.4825)">
          <path
             inkscape:connector-curvature="0"
             d="m 0,0 c -0.318,-0.224 -0.645,-0.455 -0.94,-0.693 l 0.973,-0.68 c 0.315,0.226 0.645,0.448 0.93,0.692 C 0.643,-0.455 0.32,-0.231 0,0"
             style="fill:#760135;fill-opacity:1;fill-rule:nonzero;stroke:none"
             id="path40" />
        </g>
        <g
           id="g42"
           transform="translate(281.5405,731.7047)">
          <path
             inkscape:connector-curvature="0"
             d="M 0,0 C -0.058,-12.729 7.621,-18.439 18.43,-23.924 29.238,-18.439 36.917,-12.729 36.857,0 V 23.69 H 0 Z m 13.994,-17.203 h -5.38 v 3.018 h 5.38 z m -5.567,3.586 0.369,0.658 h 5.022 l 0.37,-0.658 z m 2.365,9.15 v 0.6 h 1.324 v -0.6 c 0,0 0.434,0 0.814,0 v 0.6 h 1.001 l -0.05,-1.658 -0.497,-0.63 H 9.638 l -0.52,0.643 -0.035,1.645 h 0.978 v -0.6 z m 5.128,-2.989 c 0.02,0.242 0.076,0.488 0.076,0.746 0.169,0.028 0.378,0 0.567,0 l -0.035,-0.746 h 1.582 l 0.05,0.746 h 0.567 l 0.028,-0.746 h 1.571 c -0.008,0.23 0.013,0.509 -0.015,0.746 h 0.469 l 0.063,-0.746 h 1.646 l -0.086,0.746 h 0.681 l -0.126,-1.482 h -9.125 l -0.149,1.482 h 0.681 l -0.078,-0.746 z m 1.577,10.5 h 0.641 l -0.003,0.779 c 0,0.338 -0.282,0.184 -0.348,0.159 0,0.3 0.267,0.422 0.348,0.422 0,0.176 0.113,0.347 0.282,0.411 C 18.586,4.751 18.7,4.58 18.7,4.404 c 0.081,0 0.348,-0.122 0.348,-0.422 C 18.985,4.007 18.7,4.161 18.7,3.823 V 3.044 h 0.638 c 0.34,0 0.186,0.284 0.161,0.349 0.3,0 0.421,-0.267 0.421,-0.349 0.179,0 0.348,-0.112 0.411,-0.281 C 20.268,2.592 20.099,2.48 19.92,2.48 19.92,2.399 19.799,2.132 19.499,2.132 19.524,2.196 19.678,2.48 19.338,2.48 H 18.7 V 1.059 c 0.37,-0.092 0.693,-0.246 1.031,-0.443 h -2.72 c 0.35,0.197 0.726,0.381 1.124,0.437 l 0.003,1.427 c 0,0 -0.3,0 -0.641,0 -0.338,0 -0.186,-0.284 -0.161,-0.348 -0.3,0 -0.421,0.267 -0.421,0.348 -0.178,0 -0.347,0.112 -0.412,0.283 0.065,0.169 0.234,0.281 0.412,0.281 0,0.082 0.121,0.349 0.421,0.349 -0.025,-0.065 -0.177,-0.349 0.161,-0.349 m 2.814,-2.867 c 1.338,-1.33 1.638,-3.089 1.709,-4.947 h -7.285 c 0.028,1.506 0.31,3.677 1.717,4.947 z m 1.744,-5.382 0.124,-0.946 c -0.139,-0.009 -0.419,0 -0.419,0 0,0 0.063,-0.501 0.099,-0.746 H 21.39 l -0.063,0.746 h -1.568 c 0,0 0.027,-0.473 0,-0.733 -0.121,-0.028 -0.29,-0.007 -0.436,-0.013 l -0.013,0.746 h -1.717 l -0.028,-0.746 h -0.421 l 0.028,0.746 h -1.721 c -0.05,-0.245 -0.07,-0.746 -0.07,-0.746 h -0.449 l 0.078,0.746 h -0.436 l 0.111,0.946 z m 2.718,0.738 v 0.6 h 1.321 v -0.6 h 0.731 v 0.6 h 0.979 l -0.036,-1.645 -0.519,-0.643 h -3.746 l -0.497,0.63 -0.048,1.658 h 1.001 v -0.6 z m 3.094,-7.981 h -4.735 l 0.555,5.761 h 3.257 z m -18.04,5.761 h 3.262 l 0.547,-5.761 H 8.909 Z m 10.504,-8.503 -0.54,-0.53 -0.552,0.53 h 0.341 v 0.973 h -0.989 v -0.973 h 0.336 l -0.542,-0.53 -0.55,0.53 h 0.335 v 0.973 h -0.98 v -0.973 c 0.098,-0.035 0.216,0.005 0.33,0 l -0.55,-0.53 c -0.188,0.163 -0.359,0.368 -0.543,0.53 h 0.33 v 0.973 h -0.514 c -0.008,0.139 0.015,0.279 0.023,0.411 h 0.491 v 1.112 h -0.34 l 0.108,0.412 h 0.245 v 0.575 c 0,0 0.339,0.618 0.684,0.784 h 0.716 v 0.246 c 0.126,0.018 0.293,0.018 0.421,0 v -0.246 h 0.747 c 0.295,-0.175 0.511,-0.486 0.663,-0.77 v -0.589 h 0.257 l 0.106,-0.412 h -0.363 v -1.112 h 0.517 l 0.022,-0.411 h -0.539 v -0.973 z m 1.674,1.013 h 0.212 v -2.117 h -1.261 l -0.015,2.646 c -0.126,1.224 -0.371,2.5 -1.535,3.199 -0.714,0.337 -1.722,0.294 -2.345,-0.21 -0.664,-0.581 -0.916,-1.359 -1.1,-2.15 -0.091,-0.616 -0.154,-1.239 -0.126,-1.905 v -1.58 h -1.261 v 2.117 c 0.161,0.005 0.315,0.074 0.421,0.158 0.106,0.089 -0.05,0.275 -0.05,0.275 -0.23,0.406 -0.494,0.791 -0.694,1.21 l -0.355,3.744 h 8.979 l -0.351,-3.759 c -0.232,-0.425 -0.469,-0.844 -0.728,-1.258 -0.028,-0.169 -0.023,-0.357 0.209,-0.37 m 6.149,-3.026 h -5.357 v 3.018 h 5.357 z m -5.569,3.586 0.373,0.658 h 5.022 l 0.371,-0.658 z M 0.495,23.196 H 36.363 V -0.385 C 36.34,-3.325 35.705,-6.613 34.875,-8.66 L 18.503,6.941 13.228,1.97 V 1.949 C 13.225,1.955 13.22,1.956 13.215,1.961 L 6.375,-4.486 C 6.378,-4.504 6.38,-4.522 6.383,-4.539 6.368,-4.533 6.355,-4.524 6.343,-4.516 L 1.955,-8.651 c -1.075,2.899 -1.424,5.419 -1.46,8.266 z"
             style="fill:#760135;fill-opacity:1;fill-rule:nonzero;stroke:none"
             id="path44" />
        </g>
        <g
           id="g46"
           transform="translate(308.0935,721.6254)">
          <path
             inkscape:connector-curvature="0"
             d="m 0,0 c -0.159,0 -0.297,-0.092 -0.366,-0.224 h -0.567 v 0.55 c 0.136,0.066 0.232,0.206 0.232,0.369 0,0.224 -0.181,0.408 -0.406,0.408 -0.227,0 -0.408,-0.184 -0.408,-0.408 0,-0.161 0.091,-0.299 0.224,-0.367 V -0.224 H -1.84 c -0.066,0.137 -0.207,0.232 -0.368,0.232 -0.227,0 -0.409,-0.182 -0.409,-0.406 0,-0.227 0.182,-0.407 0.409,-0.407 0.158,0 0.297,0.088 0.365,0.224 h 0.552 v -0.567 c -0.136,-0.067 -0.232,-0.206 -0.232,-0.367 0,-0.226 0.182,-0.41 0.406,-0.41 0.227,0 0.409,0.184 0.409,0.41 0,0.159 -0.091,0.297 -0.225,0.363 v 0.571 h 0.565 c 0.066,-0.136 0.207,-0.233 0.368,-0.233 0.224,0 0.408,0.181 0.408,0.406 C 0.408,-0.182 0.224,0 0,0"
             style="fill:#760135;fill-opacity:1;fill-rule:nonzero;stroke:none"
             id="path48" />
        </g>
        <path
           inkscape:connector-curvature="0"
           d="m 298.735,717.899 h 0.976 v 1.112 h -0.976 z"
           style="fill:#760135;fill-opacity:1;fill-rule:nonzero;stroke:none"
           id="path50" />
        <path
           inkscape:connector-curvature="0"
           d="m 298.735,719.423 h 0.976 v 0.935 h -0.976 z"
           style="fill:#760135;fill-opacity:1;fill-rule:nonzero;stroke:none"
           id="path52" />
        <path
           inkscape:connector-curvature="0"
           d="m 300.132,717.899 h 0.988 v 1.112 h -0.988 z"
           style="fill:#760135;fill-opacity:1;fill-rule:nonzero;stroke:none"
           id="path54" />
        <g
           id="g56"
           transform="translate(296.0667,721.7892)">
          <path
             inkscape:connector-curvature="0"
             d="M 0,0 0.973,-0.68 C 1.281,-0.449 1.596,-0.218 1.906,0.013 1.583,0.238 1.26,0.463 0.938,0.693 0.623,0.469 0.292,0.238 0,0"
             style="fill:#760135;fill-opacity:1;fill-rule:nonzero;stroke:none"
             id="path58" />
        </g>
        <g
           id="g60"
           transform="translate(306.9716,724.6947)">
          <path
             inkscape:connector-curvature="0"
             d="M 0,0 C -0.575,-0.244 -0.449,-0.924 -0.492,-1.124 H 0.532 C 0.474,-0.916 0.643,-0.174 0,0"
             style="fill:#760135;fill-opacity:1;fill-rule:nonzero;stroke:none"
             id="path62" />
        </g>
        <g
           id="g64"
           transform="translate(319.8621,731.3265)">
          <path
             inkscape:connector-curvature="0"
             d="M 0,0 V 25.524 H -39.774 V 0 c 0,-8.528 3.212,-17.626 19.852,-25.151 11.227,5.078 16.372,10.87 18.533,16.718 0.063,0.228 0.139,0.45 0.232,0.665 C -0.295,-5.166 0,-2.558 0,0 m -19.922,-24.368 c -5.82,2.941 -19.209,8.645 -19.132,24.379 V 24.803 H -0.718 V 0.011 c 0.005,-15.734 -13.383,-21.438 -19.204,-24.379"
             style="fill:#760135;fill-opacity:1;fill-rule:nonzero;stroke:none"
             id="path66" />
        </g>
        <g
           id="g68"
           transform="translate(296.9364,739.7345)">
          <path
             inkscape:connector-curvature="0"
             d="M 0,0 H 6.198 C 4.902,2.331 4.494,4.639 4.512,9.457 5.023,9.416 7.055,8.908 8.27,8.351 v 5.08 c 0,0 -2.405,-1.147 -5.17,-1.129 -2.77,0.017 -5.175,1.129 -5.175,1.129 v -5.08 c 1.218,0.557 3.25,1.065 3.76,1.106 C 1.706,4.639 1.293,2.331 0,0 m -1.508,12.532 c 0,0 2.055,-0.738 4.608,-0.75 2.549,-0.011 4.606,0.75 4.606,0.75 V 9.222 C 6.624,9.64 4.285,10.064 3.972,10.089 3.977,5.084 4.249,2.867 5.235,0.597 H 0.963 C 1.948,2.867 2.22,5.084 2.227,10.089 1.912,10.064 -0.426,9.64 -1.508,9.222 Z"
             style="fill:#760135;fill-opacity:1;fill-rule:nonzero;stroke:none"
             id="path70" />
        </g>
        <g
           id="g72"
           transform="translate(306.175,750.7405)">
          <path
             inkscape:connector-curvature="0"
             d="M 0,0 C 0.184,-0.101 0.35,-0.228 0.527,-0.337 0.305,-0.464 0.025,-0.438 -0.192,-0.591 V -0.619 C 0.121,-0.929 0.522,-1.017 0.877,-1.221 0.688,-1.401 0.413,-1.476 0.28,-1.706 0.643,-1.789 1.082,-1.731 1.452,-1.752 1.324,-1.963 1.17,-2.164 1.134,-2.405 c 0.336,-0.054 0.631,0.171 0.908,0.349 0.015,-0.064 0,-0.14 -0.017,-0.204 -0.046,-0.167 -0.129,-0.317 -0.192,-0.47 0.312,0.031 0.504,0.342 0.822,0.349 0.456,0.091 0.96,0.026 1.424,0 l 0.033,-0.024 c -0.3,-0.129 -0.681,-0.364 -0.693,-0.74 v -0.09 c 0.1,0.084 0.209,0.205 0.338,0.236 0.242,0.083 0.509,-0.031 0.751,0.046 L 4.52,-2.967 c -0.045,-0.35 0,-0.7 0.147,-0.986 0.05,0.127 0.075,0.254 0.146,0.369 l 0.325,-0.6 c 0.005,0.022 -0.013,0.135 0.013,0.193 0.509,-0.313 1.114,-0.268 1.749,-0.268 0.409,-0.09 0.752,-0.332 1.115,-0.527 0.058,0 0.128,-0.008 0.146,0.055 v 0.077 C 7.868,-4.443 7.546,-4.316 7.263,-4.068 7.5,-4.03 7.697,-4.17 7.881,-4.29 l 0.325,-0.248 c 0.255,0.044 0.643,-0.066 0.719,0.266 -0.154,0.566 -0.699,1.018 -1.157,1.407 -0.744,0.585 -1.077,0.649 -1.077,0.649 0,0 0.144,0.047 0.517,0.16 0.386,0.127 0.681,-0.16 0.965,-0.349 l 0.179,-0.047 c 0.053,0.218 -0.146,0.396 -0.1,0.613 0.229,-0.191 0.501,-0.325 0.806,-0.307 0.078,0.051 0.008,0.153 -0.017,0.224 -0.063,0.133 -0.225,0.253 -0.205,0.407 0.351,-0.02 0.694,-0.1 1.027,0.011 0.05,0.034 0.1,0.083 0.042,0.136 -0.171,0.102 -0.375,0.14 -0.526,0.312 0.325,0.209 0.736,0.298 1.01,0.63 0,0.038 0.026,0.108 -0.037,0.113 -0.21,0.033 -0.439,-0.005 -0.618,0.091 0.3,0.228 0.693,0.459 0.892,0.808 V 0.643 C 10.352,0.58 10.09,0.441 9.805,0.453 10.047,0.866 10.198,1.337 10.13,1.858 10.102,1.912 10.102,1.973 10.026,1.968 9.842,1.764 9.81,1.458 9.545,1.332 9.53,1.751 9.384,2.152 9.041,2.388 9.021,2.394 9.016,2.37 8.995,2.363 8.97,1.973 8.965,1.586 8.723,1.293 8.519,1.719 8.06,2.1 7.647,2.317 7.581,2.293 7.518,2.376 7.475,2.304 7.551,2.12 7.71,1.968 7.793,1.79 8.186,1.122 8.332,0.116 7.926,-0.591 7.647,-1.063 7.162,-1.465 6.653,-1.603 6.482,-1.387 6.507,-1.075 6.24,-0.909 6.157,-0.852 6.048,-0.835 5.945,-0.821 6.028,-1.05 6.116,-1.324 6.015,-1.571 5.894,-1.772 5.834,-1.897 5.678,-1.897 5.456,-1.916 5.572,-1.661 5.519,-1.542 5.443,-1.266 5.244,-0.949 4.946,-0.852 4.914,-0.86 4.876,-0.841 4.858,-0.866 4.904,-1.121 5.098,-1.407 4.914,-1.661 4.747,-1.91 4.417,-1.858 4.17,-1.82 3.419,-1.68 2.597,-1.096 2.405,-0.313 2.297,0.097 2.297,0.586 2.405,0.995 2.516,1.414 2.71,1.796 2.864,2.197 2.831,2.286 2.756,2.249 2.687,2.26 2.196,2.051 1.82,1.547 1.54,1.114 1.223,1.419 1.306,1.917 1.248,2.348 1.134,2.363 1.069,2.227 0.998,2.158 0.822,1.858 0.744,1.521 0.688,1.171 0.401,1.375 0.305,1.688 0.159,1.968 0.005,1.852 0.088,1.592 0.088,1.419 0.129,1.045 0.28,0.707 0.413,0.364 L 0.393,0.349 C 0.101,0.402 -0.192,0.478 -0.471,0.573 -0.479,0.561 -0.484,0.555 -0.497,0.555 -0.446,0.305 -0.171,0.165 0,0 m 8.131,-3.98 c 0.1,-0.05 0.259,-0.094 0.252,-0.234 L 8.277,-4.229 c -0.071,0.045 -0.134,0.123 -0.159,0.205 z m -2.199,1.338 c 0.371,0 0.701,-0.134 0.951,-0.402 L 6.429,-3.088 C 6.136,-3.119 5.973,-2.82 5.786,-2.642 Z"
             style="fill:#760135;fill-opacity:1;fill-rule:nonzero;stroke:none"
             id="path74" />
        </g>
        <g
           id="g76"
           transform="translate(314.5652,734.4238)">
          <path
             inkscape:connector-curvature="0"
             d="M 0,0 C -0.018,-0.038 -0.018,-0.11 0,-0.147 0.071,-0.187 0.146,-0.154 0.204,-0.121 1.182,0.85 1.735,2.24 1.268,3.595 0.966,4.388 0.474,5.098 -0.159,5.752 -0.799,6.435 -1.142,8.092 -1.5,8.89 l 0.141,-0.095 0.456,-0.532 0.033,0.691 c -0.378,0.442 -0.935,1.157 -0.935,1.157 l 0.948,-0.683 c -0.058,0.345 0.144,0.612 -0.174,0.78 l -0.933,0.824 0.013,0.014 c 0.242,-0.108 0.754,-0.421 1.011,-0.51 -0.154,0.427 -0.404,0.823 -0.741,1.176 -0.386,-0.032 -0.774,-0.008 -1.12,0.089 0.018,-0.121 0.018,-0.274 0,-0.397 -0.224,0.162 -0.494,0.239 -0.665,0.487 -0.026,-0.09 -0.053,-0.187 -0.104,-0.262 -0.391,0.416 -0.635,0.915 -0.62,1.516 -0.436,-0.186 -0.857,-0.403 -1.266,-0.647 -0.111,-0.121 -0.148,-0.267 -0.191,-0.416 0.095,0.005 0.325,0.08 0.421,0.042 l -0.583,-0.47 C -5.887,11.45 -5.957,11.238 -6,11.021 c 0.166,0.071 0.512,0.248 0.683,0.262 -0.199,-0.219 -0.582,-0.488 -0.746,-0.717 -0.073,-0.25 -0.041,-0.49 -0.028,-0.759 0.159,0.164 0.532,0.406 0.731,0.556 0,0 -0.602,-0.885 -0.789,-1.262 -0.363,-0.205 -0.9,-0.122 -1.253,0.046 L -9.5,10.063 c -0.552,0.223 -1.106,0.427 -1.709,0.528 -0.083,-0.331 0.134,-0.626 0.353,-0.857 0.683,-0.011 1.195,-0.441 1.74,-0.78 0.3,-0.186 0.62,-0.295 0.96,-0.384 L -8.201,8.544 -8.675,8.514 -8.068,8.071 C -7.78,8.04 -7.284,8.056 -7.009,7.996 L -7.773,7.847 -7.185,7.451 c 0.27,-0.007 0.713,0.163 0.971,0.13 -0.144,-0.096 -0.485,-0.284 -0.631,-0.366 0.192,-0.18 0.421,-0.327 0.633,-0.476 0.161,-0.029 0.27,0.054 0.383,0.11 0.482,0.283 1.127,0.848 1.652,1.014 0,0 -0.679,-0.727 -0.88,-1.065 L -4.959,6.657 C -4.382,6.128 -3.82,4.901 -3.187,4.529 -2.778,4.184 -2.496,3.736 -2.496,3.23 -2.854,3.961 -3.653,4.331 -4.361,4.556 -5.125,4.701 -5.97,4.6 -6.595,4.189 -7.031,3.857 -7.049,3.289 -6.973,2.768 -6.807,1.945 -6.199,1.298 -5.705,0.6 c 0.03,-0.049 0.063,-0.127 0.025,-0.19 -0.058,-0.124 -0.154,0 -0.232,0 C -6.608,0.824 -7.339,1.326 -8.214,1.118 -8.4,1.035 -8.63,0.837 -8.675,0.634 -8.496,0.441 -8.264,0.39 -8.01,0.396 c 0.038,0.033 0.096,0 0.134,0.033 -0.007,0.017 0.02,0.024 0.033,0.044 0.37,-0.044 0.683,-0.242 0.998,-0.429 0.6,-0.339 1.157,-0.788 1.873,-0.843 0.179,0.024 0.371,0.05 0.474,0.223 0.084,0.184 0.038,0.396 0.026,0.602 -0.076,0.512 -0.326,0.991 -0.23,1.535 0.116,0.397 0.542,0.505 0.882,0.588 0.295,0.083 0.616,0.109 0.916,0.178 L -2.892,2.316 C -3.378,1.574 -3.89,0.85 -3.923,-0.078 c 0.103,-0.983 1.198,-1.459 1.959,-1.798 0.421,-0.21 1.082,-0.351 1.14,-0.946 0.108,-0.511 0.017,-1.436 -0.27,-1.838 -0.32,-0.428 -0.895,-0.76 -0.973,-1.3 0.264,-0.248 0.711,-0.267 1.036,-0.146 0.174,0.334 0.507,0.525 0.872,0.532 0.21,0.135 0.134,0.415 0.126,0.62 -0.33,1.017 0.711,2.036 0.552,3.022 -0.232,0.461 -0.806,0.416 -1.185,0.69 -0.274,0.231 -0.383,0.576 -0.307,0.947 0.224,0.724 1.147,1.126 1.402,1.843 C 0.557,1.868 0.59,2.232 0.59,2.609 0.782,2.149 0.744,1.542 0.62,1.061 0.524,0.659 0.313,0.307 0,0"
             style="fill:#760135;fill-opacity:1;fill-rule:nonzero;stroke:none"
             id="path78" />
        </g>
        <g
           id="g80"
           transform="translate(302.1917,746.776)">
          <path
             inkscape:connector-curvature="0"
             d="m 0,0 -0.267,-0.11 c 0.209,-0.256 0.479,-0.422 0.766,-0.512 0.129,0.06 0.275,0.066 0.416,0.104 C 0.877,-0.45 0.819,-0.386 0.782,-0.314 0.57,-0.155 0.799,0.358 0.411,0.275 0.154,0.281 -0.096,0.281 -0.325,0.216 -0.187,0.139 0,0.108 0.161,0.038 0.121,-0.019 0.045,0.03 0,0"
             style="fill:#760135;fill-opacity:1;fill-rule:nonzero;stroke:none"
             id="path82" />
        </g>
        <g
           id="g84"
           transform="translate(303.6388,746.2579)">
          <path
             inkscape:connector-curvature="0"
             d="M 0,0 C 1.107,-0.136 2.007,-0.768 2.917,-1.389 L 4.319,-2.42 c 0.058,-0.012 0.1,-0.065 0.146,-0.089 -0.046,0.545 -0.088,1.095 -0.071,1.663 -0.35,0.052 -0.691,0.136 -1.018,0.237 L 1.619,0.115 C 0.953,0.363 0.267,0.587 -0.449,0.722 -0.429,0.427 -0.224,0.198 0,0"
             style="fill:#760135;fill-opacity:1;fill-rule:nonzero;stroke:none"
             id="path86" />
        </g>
        <g
           id="g88"
           transform="translate(302.4866,744.1465)">
          <path
             inkscape:connector-curvature="0"
             d="M 0,0 C 0.232,0.031 0.474,0.049 0.724,0.043 0.545,0.294 0.429,0.608 0.499,0.928 0.154,0.978 -0.257,0.978 -0.575,0.868 -0.398,0.793 -0.217,0.715 -0.033,0.666 -0.212,0.601 -0.398,0.543 -0.562,0.442 -0.403,0.255 -0.199,0.115 0,0"
             style="fill:#760135;fill-opacity:1;fill-rule:nonzero;stroke:none"
             id="path90" />
        </g>
        <g
           id="g92"
           transform="translate(306.5884,734.4501)">
          <path
             inkscape:connector-curvature="0"
             d="m 0,0 c -0.27,0.018 -0.552,0.011 -0.756,0.178 -0.3,-0.257 -0.542,-0.562 -0.52,-0.975 0.116,0.11 0.237,0.195 0.361,0.285 l 0.012,-0.021 c -0.04,-0.159 -0.045,-0.338 -0.057,-0.512 0.383,0.027 0.731,0.201 0.985,0.468 0.025,0.193 0.088,0.416 0,0.595 z"
             style="fill:#760135;fill-opacity:1;fill-rule:nonzero;stroke:none"
             id="path94" />
        </g>
        <g
           id="g96"
           transform="translate(312.4097,728.0566)">
          <path
             inkscape:connector-curvature="0"
             d="m 0,0 c -0.129,-0.276 -0.232,-0.563 -0.25,-0.891 0.167,0.051 0.263,0.231 0.371,0.358 L 0.134,-0.551 0.088,-1.063 c 0.303,0.04 0.603,0.121 0.782,0.385 0.045,0.171 0.159,0.331 0.133,0.512 C 0.653,-0.199 0.28,-0.187 0,0"
             style="fill:#760135;fill-opacity:1;fill-rule:nonzero;stroke:none"
             id="path98" />
        </g>
        <g
           id="g100"
           transform="translate(283.555,750.4279)">
          <path
             inkscape:connector-curvature="0"
             d="M 0,0 C -0.063,-0.005 -0.038,-0.076 -0.038,-0.114 0.237,-0.445 0.649,-0.534 0.974,-0.744 0.822,-0.915 0.618,-0.953 0.446,-1.055 0.389,-1.108 0.44,-1.157 0.49,-1.191 0.822,-1.302 1.166,-1.223 1.515,-1.203 1.535,-1.356 1.375,-1.476 1.312,-1.61 1.287,-1.68 1.216,-1.782 1.293,-1.833 1.598,-1.852 1.873,-1.717 2.101,-1.527 2.147,-1.743 1.949,-1.921 1.999,-2.139 l 0.179,0.046 c 0.286,0.19 0.579,0.477 0.968,0.35 0.37,-0.114 0.517,-0.16 0.517,-0.16 0,0 -0.336,-0.065 -1.078,-0.65 -0.459,-0.388 -1.006,-0.84 -1.158,-1.406 0.077,-0.332 0.465,-0.222 0.72,-0.266 l 0.324,0.248 c 0.185,0.12 0.382,0.26 0.617,0.222 -0.28,-0.249 -0.605,-0.376 -0.897,-0.586 v -0.077 c 0.02,-0.063 0.089,-0.056 0.146,-0.056 0.362,0.196 0.707,0.438 1.114,0.527 0.638,0 1.243,-0.044 1.752,0.269 0.025,-0.058 0.005,-0.172 0.012,-0.193 l 0.323,0.6 c 0.073,-0.115 0.096,-0.242 0.149,-0.37 0.146,0.287 0.189,0.637 0.146,0.986 l 0.013,0.014 c 0.242,-0.077 0.509,0.038 0.751,-0.045 0.126,-0.032 0.235,-0.153 0.338,-0.236 v 0.089 c -0.013,0.376 -0.396,0.612 -0.693,0.74 l 0.03,0.024 c 0.464,0.027 0.968,0.091 1.427,0 0.317,-0.006 0.507,-0.317 0.822,-0.349 -0.066,0.154 -0.149,0.304 -0.192,0.47 -0.02,0.065 -0.033,0.14 -0.02,0.205 0.28,-0.178 0.572,-0.404 0.91,-0.35 -0.038,0.241 -0.189,0.443 -0.318,0.653 0.368,0.022 0.81,-0.036 1.173,0.047 -0.134,0.229 -0.409,0.305 -0.6,0.484 0.358,0.204 0.758,0.293 1.069,0.603 v 0.027 c -0.215,0.154 -0.494,0.128 -0.719,0.255 0.179,0.108 0.343,0.236 0.53,0.337 0.171,0.165 0.443,0.305 0.496,0.554 -0.012,0 -0.02,0.006 -0.025,0.019 C 10.543,0.79 10.25,0.715 9.958,0.662 L 9.94,0.677 c 0.134,0.343 0.285,0.681 0.325,1.055 0,0.173 0.081,0.432 -0.073,0.548 C 10.049,2 9.953,1.688 9.665,1.484 9.607,1.834 9.532,2.171 9.353,2.471 9.282,2.54 9.219,2.676 9.106,2.661 9.048,2.23 9.131,1.732 8.813,1.427 8.533,1.859 8.155,2.363 7.666,2.573 7.595,2.561 7.52,2.599 7.487,2.51 7.641,2.109 7.837,1.727 7.946,1.307 8.054,0.899 8.054,0.41 7.946,0 7.754,-0.783 6.935,-1.368 6.184,-1.508 5.934,-1.546 5.604,-1.597 5.437,-1.349 5.253,-1.094 5.45,-0.808 5.495,-0.553 5.475,-0.528 5.437,-0.547 5.405,-0.54 5.107,-0.637 4.91,-0.953 4.832,-1.229 c -0.05,-0.12 0.066,-0.375 -0.159,-0.356 -0.156,0 -0.216,0.125 -0.337,0.327 -0.101,0.247 -0.013,0.521 0.07,0.75 C 4.305,-0.522 4.197,-0.54 4.114,-0.596 3.847,-0.763 3.872,-1.074 3.7,-1.291 3.191,-1.152 2.706,-0.75 2.427,-0.279 2.018,0.429 2.165,1.434 2.56,2.103 2.642,2.28 2.802,2.433 2.878,2.617 2.834,2.689 2.771,2.606 2.706,2.629 2.293,2.413 1.834,2.032 1.63,1.606 1.389,1.898 1.382,2.285 1.356,2.676 1.337,2.682 1.331,2.706 1.312,2.7 0.968,2.464 0.822,2.064 0.809,1.645 0.542,1.771 0.51,2.076 0.325,2.28 0.248,2.285 0.248,2.225 0.223,2.171 0.154,1.65 0.306,1.179 0.548,0.765 0.261,0.754 0,0.893 -0.274,0.956 V 0.899 C -0.077,0.55 0.318,0.319 0.618,0.091 0.44,-0.005 0.21,0.033 0,0 m 2.076,-3.917 -0.108,0.015 c -0.007,0.14 0.153,0.185 0.256,0.235 L 2.236,-3.711 C 2.211,-3.793 2.147,-3.871 2.076,-3.917 M 4.419,-2.33 H 4.565 C 4.381,-2.507 4.215,-2.806 3.922,-2.776 l -0.451,0.044 c 0.247,0.269 0.58,0.402 0.948,0.402"
             style="fill:#760135;fill-opacity:1;fill-rule:nonzero;stroke:none"
             id="path102" />
        </g>
        <g
           id="g104"
           transform="translate(295.0179,744.4868)">
          <path
             inkscape:connector-curvature="0"
             d="m 0,0 -2.098,-0.916 c -0.353,-0.168 -0.89,-0.251 -1.255,-0.046 -0.184,0.377 -0.789,1.262 -0.789,1.262 0.201,-0.15 0.572,-0.392 0.731,-0.556 0.015,0.269 0.045,0.509 -0.025,0.759 -0.167,0.229 -0.55,0.498 -0.747,0.717 0.172,-0.014 0.517,-0.191 0.684,-0.262 -0.046,0.217 -0.116,0.429 -0.192,0.633 l -0.585,0.47 C -4.18,2.099 -3.948,2.024 -3.852,2.019 -3.895,2.168 -3.936,2.314 -4.044,2.435 -4.452,2.679 -4.876,2.896 -5.31,3.082 -5.297,2.481 -5.541,1.982 -5.93,1.566 -5.983,1.641 -6.008,1.738 -6.033,1.828 -6.207,1.58 -6.474,1.503 -6.699,1.341 c -0.02,0.123 -0.02,0.276 0,0.397 C -7.044,1.641 -7.435,1.617 -7.818,1.649 -8.156,1.296 -8.406,0.9 -8.56,0.473 c 0.255,0.089 0.767,0.402 1.012,0.51 L -7.536,0.969 -8.47,0.145 c -0.315,-0.168 -0.114,-0.435 -0.173,-0.78 l 0.948,0.683 c 0,0 -0.559,-0.715 -0.935,-1.157 L -8.599,-1.8 -8.141,-1.268 -8,-1.173 c -0.358,-0.798 -0.701,-2.455 -1.341,-3.138 -0.632,-0.654 -1.126,-1.364 -1.426,-2.157 -0.468,-1.355 0.082,-2.745 1.063,-3.716 0.056,-0.033 0.133,-0.066 0.202,-0.026 0.021,0.037 0.021,0.109 0,0.147 -0.312,0.308 -0.524,0.659 -0.618,1.061 -0.123,0.481 -0.161,1.088 0.031,1.548 0,-0.377 0.032,-0.741 0.16,-1.061 0.255,-0.717 1.176,-1.119 1.401,-1.843 0.077,-0.371 -0.032,-0.716 -0.307,-0.947 -0.378,-0.274 -0.953,-0.229 -1.183,-0.69 -0.16,-0.986 0.882,-2.005 0.549,-3.022 -0.006,-0.205 -0.083,-0.485 0.128,-0.62 0.365,-0.006 0.698,-0.198 0.871,-0.532 0.327,-0.121 0.773,-0.102 1.035,0.146 -0.075,0.54 -0.653,0.872 -0.971,1.3 -0.289,0.402 -0.379,1.327 -0.27,1.838 0.058,0.595 0.717,0.736 1.14,0.946 0.762,0.339 1.856,0.815 1.957,1.798 -0.03,0.928 -0.542,1.652 -1.029,2.394 l 0.013,0.011 c 0.3,-0.069 0.62,-0.095 0.915,-0.178 0.338,-0.083 0.766,-0.191 0.882,-0.588 0.096,-0.544 -0.154,-1.023 -0.232,-1.535 -0.012,-0.206 -0.055,-0.418 0.028,-0.602 0.101,-0.173 0.292,-0.199 0.474,-0.223 0.716,0.055 1.271,0.504 1.873,0.843 0.313,0.187 0.628,0.385 0.999,0.429 0.012,-0.02 0.037,-0.027 0.03,-0.044 0.04,-0.033 0.098,0 0.136,-0.033 0.255,-0.006 0.487,0.045 0.666,0.238 -0.046,0.203 -0.278,0.401 -0.462,0.484 -0.877,0.208 -1.606,-0.294 -2.302,-0.708 -0.078,0 -0.174,-0.124 -0.232,0 -0.037,0.063 -0.005,0.141 0.026,0.19 0.494,0.698 1.099,1.345 1.265,2.168 0.078,0.521 0.058,1.089 -0.375,1.421 -0.628,0.411 -1.473,0.512 -2.234,0.367 -0.708,-0.225 -1.51,-0.595 -1.868,-1.326 0,0.506 0.282,0.954 0.691,1.299 0.635,0.372 1.197,1.599 1.772,2.128 l 0.098,0.141 c -0.199,0.338 -0.877,1.065 -0.877,1.065 0.524,-0.166 1.17,-0.731 1.649,-1.014 0.116,-0.056 0.224,-0.139 0.385,-0.11 0.21,0.149 0.442,0.296 0.633,0.476 -0.148,0.082 -0.489,0.27 -0.63,0.366 0.257,0.033 0.701,-0.137 0.968,-0.13 l 0.59,0.396 -0.764,0.149 c 0.275,0.06 0.769,0.044 1.059,0.075 l 0.608,0.443 -0.474,0.03 -0.046,0.027 c 0.341,0.088 0.658,0.197 0.961,0.383 0.542,0.339 1.056,0.769 1.739,0.78 C 1.573,-0.097 1.79,0.197 1.707,0.528 1.107,0.427 0.55,0.223 0,0"
             style="fill:#760135;fill-opacity:1;fill-rule:nonzero;stroke:none"
             id="path106" />
        </g>
        <g
           id="g108"
           transform="translate(297.481,747.0508)">
          <path
             inkscape:connector-curvature="0"
             d="m 0,0 c -0.391,0.083 -0.161,-0.43 -0.371,-0.589 -0.04,-0.072 -0.096,-0.132 -0.136,-0.204 0.141,-0.038 0.29,-0.044 0.419,-0.103 0.287,0.089 0.554,0.256 0.766,0.511 l -0.27,0.11 C 0.366,-0.245 0.287,-0.294 0.25,-0.237 0.408,-0.166 0.595,-0.136 0.736,-0.059 0.504,0.006 0.257,0.006 0,0"
             style="fill:#760135;fill-opacity:1;fill-rule:nonzero;stroke:none"
             id="path110" />
        </g>
        <g
           id="g112"
           transform="translate(292.0504,745.412)">
          <path
             inkscape:connector-curvature="0"
             d="m 0,0 c 0.018,-0.569 -0.028,-1.118 -0.071,-1.663 0.043,0.024 0.089,0.077 0.147,0.089 l 1.401,1.031 C 2.385,0.076 3.288,0.71 4.394,0.846 4.619,1.044 4.823,1.273 4.843,1.568 4.124,1.433 3.439,1.209 2.776,0.961 L 1.016,0.237 C 0.691,0.136 0.35,0.052 0,0"
             style="fill:#760135;fill-opacity:1;fill-rule:nonzero;stroke:none"
             id="path114" />
        </g>
        <g
           id="g116"
           transform="translate(297.5969,744.1465)">
          <path
             inkscape:connector-curvature="0"
             d="M 0,0 C 0.197,0.115 0.401,0.255 0.562,0.442 0.396,0.543 0.209,0.601 0.03,0.666 0.217,0.715 0.396,0.793 0.575,0.868 0.255,0.978 -0.154,0.978 -0.499,0.928 -0.429,0.609 -0.545,0.294 -0.723,0.045 -0.474,0.05 -0.232,0.031 0,0"
             style="fill:#760135;fill-opacity:1;fill-rule:nonzero;stroke:none"
             id="path118" />
        </g>
        <g
           id="g120"
           transform="translate(294.7682,733.6536)">
          <path
             inkscape:connector-curvature="0"
             d="M 0,0 V 0.021 L -0.013,0.013 C -0.008,0.008 -0.003,0.006 0,0"
             style="fill:#760135;fill-opacity:1;fill-rule:nonzero;stroke:none"
             id="path122" />
        </g>
        <g
           id="g124"
           transform="translate(294.249,734.628)">
          <path
             inkscape:connector-curvature="0"
             d="m 0,0 c -0.204,-0.166 -0.484,-0.16 -0.754,-0.178 l -0.025,0.018 c -0.091,-0.179 -0.025,-0.402 0,-0.595 0.254,-0.269 0.6,-0.441 0.986,-0.468 -0.013,0.174 -0.021,0.353 -0.058,0.512 l 0.012,0.022 C 0.28,-0.778 0.396,-0.858 0.507,-0.962 l 0.012,0.009 C 0.534,-0.553 0.297,-0.251 0,0"
             style="fill:#760135;fill-opacity:1;fill-rule:nonzero;stroke:none"
             id="path126" />
        </g>
        <g
           id="g128"
           transform="translate(287.9234,727.1655)">
          <path
             inkscape:connector-curvature="0"
             d="M 0,0 C -0.003,0.018 -0.005,0.035 -0.008,0.053 L -0.04,0.023 C -0.028,0.015 -0.015,0.006 0,0"
             style="fill:#760135;fill-opacity:1;fill-rule:nonzero;stroke:none"
             id="path130" />
        </g>
        <g
           id="g132"
           transform="translate(286.6678,727.8903)">
          <path
             inkscape:connector-curvature="0"
             d="m 0,0 c -0.025,-0.18 0.091,-0.34 0.134,-0.512 0.181,-0.263 0.481,-0.345 0.781,-0.384 l -0.043,0.512 0.013,0.017 c 0.098,-0.114 0.189,-0.268 0.33,-0.335 l 0.033,0.03 C 1.223,-0.367 1.124,-0.093 1.006,0.166 0.724,-0.02 0.353,-0.033 0,0"
             style="fill:#760135;fill-opacity:1;fill-rule:nonzero;stroke:none"
             id="path134" />
        </g>
        <g
           id="g136"
           transform="translate(328.7996,714.5447)">
          <path
             inkscape:connector-curvature="0"
             d="m 0,0 c 0.025,1.767 -1.891,2.477 -3.033,3.216 0.686,1.23 1.049,2.643 0.918,4.189 -0.051,0.446 -0.109,0.917 -0.295,1.278 -1.185,0.791 -2.297,2.015 -2.952,3.286 l -0.149,0.407 c -0.414,-0.087 -0.868,-0.08 -1.251,-0.256 -1.401,-0.467 -2.7,-1.651 -3.333,-3.106 -0.073,-0.222 -0.151,-0.443 -0.231,-0.665 -0.084,-0.308 -0.142,-0.623 -0.159,-0.944 0.842,0.092 1.641,-0.097 2.296,-0.563 L -8.844,6.154 -10.874,3.87 c -1.404,-1.861 -3.007,-3.64 -3.275,-5.998 0.018,-0.426 -0.052,-0.891 0.116,-1.251 0.825,0.013 1.468,-0.13 2.156,-0.445 -2.438,-1.91 -4.926,-3.343 -7.639,-4.469 -2.675,-1.114 -6,-1.645 -9.333,-1.643 -3.334,0.003 -6.66,0.529 -9.335,1.643 -2.712,1.126 -5.201,2.559 -7.637,4.469 0.687,0.315 1.33,0.458 2.152,0.445 0.169,0.36 0.101,0.825 0.12,1.251 -0.269,2.358 -1.872,4.137 -3.278,5.998 l -2.028,2.284 -0.655,0.688 c 0.655,0.466 1.454,0.655 2.296,0.563 -0.118,2.143 -1.829,4.086 -3.726,4.715 -0.379,0.176 -0.836,0.169 -1.248,0.256 l -0.15,-0.407 c -0.655,-1.271 -1.766,-2.495 -2.952,-3.286 -0.188,-0.361 -0.243,-0.832 -0.294,-1.278 -0.131,-1.546 0.231,-2.959 0.918,-4.189 -1.142,-0.739 -3.058,-1.449 -3.033,-3.216 -0.038,-0.643 0.248,-1.145 0.504,-1.658 1.518,-2.736 3.734,-5.172 6.198,-7.254 l 2.678,-1.998 c 7.945,-5.355 14.749,-6.179 19.47,-6.179 5.06,0 11.524,0.824 19.468,6.179 l 2.677,1.998 c 2.466,2.082 4.682,4.518 6.2,7.254 C -0.25,-1.145 0.038,-0.643 0,0 m -7.921,11.026 c 0.524,0.175 1.099,0.019 1.399,-0.498 0.207,-0.326 0.123,-0.844 0,-1.185 -0.464,0.249 -1.347,1.286 -1.347,1.286 0,0 -0.284,-0.176 -0.408,-0.224 0.35,-1.657 -0.615,-1.532 -0.867,-1.44 -0.131,0.097 -0.212,0.28 -0.27,0.438 0.325,0.641 0.925,1.197 1.493,1.623 M -9.769,7.843 c 0.045,0.08 -0.086,0.124 0,0.183 0.764,-0.163 1.366,0.44 1.785,1.036 0.143,0.23 0.199,0.497 0.3,0.745 h 0.063 C -7.316,9.515 -7.047,9.133 -6.704,8.938 -6.903,8.401 -7.261,7.937 -7.684,7.497 -8.327,7.745 -9,7.916 -9.769,7.843 m -2.146,-6.095 1.404,1.872 2.408,2.782 c 1.2,1.082 2.173,2.311 2.385,3.844 -0.013,0.51 -0.144,1.029 -0.623,1.283 l -0.269,0.092 c 0.199,0.1 0.456,0.189 0.71,0.217 0.482,-1.46 1.725,-2.781 3.041,-3.53 0.439,-1.564 0.063,-3.325 -0.744,-4.622 -0.441,0.379 -0.854,0.727 -0.953,1.31 -0.05,0.131 -0.07,0.326 -0.237,0.348 C -6.255,5.33 -7.241,4.123 -8.307,3.122 -9.674,1.78 -10.612,0.23 -11.733,-1.192 c -0.371,-0.294 -0.714,-0.752 -1.226,-0.589 -0.242,0.111 -0.262,0.372 -0.325,0.589 0.139,1.119 0.787,2.018 1.369,2.94 m -1.669,-4.754 -0.03,0.345 c 1.803,-0.816 2.39,1.312 3.103,2.157 0.994,1.465 2.103,2.958 3.452,4.19 0.28,-0.079 0.585,-0.34 0.622,-0.654 0.046,-0.231 -0.055,-0.473 -0.118,-0.69 -0.885,-2.173 -2.753,-4.058 -4.556,-5.689 -0.738,0.295 -2.364,0.353 -2.473,0.341 m -30.532,0 c -0.108,0.012 -1.734,-0.046 -2.472,-0.341 -1.806,1.631 -3.671,3.516 -4.557,5.689 -0.063,0.217 -0.162,0.459 -0.119,0.69 0.037,0.314 0.343,0.575 0.624,0.654 1.348,-1.232 2.46,-2.725 3.452,-4.19 0.712,-0.845 1.299,-2.973 3.102,-2.157 z m -3.815,11.032 c 0.087,-0.059 -0.043,-0.103 0,-0.183 -0.768,0.073 -1.442,-0.098 -2.085,-0.346 -0.425,0.44 -0.78,0.904 -0.981,1.441 0.345,0.195 0.613,0.577 0.919,0.869 h 0.062 c 0.1,-0.248 0.156,-0.515 0.3,-0.745 0.419,-0.596 1.024,-1.199 1.785,-1.036 m -1.847,3 c 0.568,-0.426 1.166,-0.982 1.492,-1.623 -0.057,-0.158 -0.138,-0.341 -0.27,-0.438 -0.252,-0.092 -1.215,-0.217 -0.866,1.44 -0.124,0.048 -0.41,0.224 -0.41,0.224 0,0 -0.883,-1.037 -1.345,-1.286 -0.125,0.341 -0.207,0.859 0,1.185 0.299,0.517 0.874,0.673 1.399,0.498 m -5.063,-2.718 c 1.317,0.749 2.56,2.07 3.04,3.53 0.256,-0.028 0.512,-0.117 0.712,-0.217 l -0.268,-0.092 c -0.482,-0.254 -0.613,-0.773 -0.625,-1.283 0.213,-1.533 1.186,-2.762 2.385,-3.844 l 2.409,-2.782 1.404,-1.872 c 0.58,-0.922 1.23,-1.821 1.368,-2.94 -0.062,-0.217 -0.082,-0.478 -0.324,-0.589 -0.512,-0.163 -0.856,0.295 -1.224,0.589 -1.125,1.422 -2.06,2.972 -3.428,4.314 -1.066,1.001 -2.053,2.208 -3.513,2.222 -0.169,-0.022 -0.188,-0.217 -0.238,-0.348 -0.1,-0.583 -0.512,-0.931 -0.954,-1.31 -0.806,1.297 -1.18,3.058 -0.744,4.622 m 54.097,-9.062 c -3.401,-6.194 -9.33,-10.351 -15.137,-13.063 -3.794,-1.603 -7.918,-2.554 -12.27,-2.56 -0.232,-0.006 -0.466,-0.011 -0.698,-0.013 -0.232,-0.003 -0.467,0.007 -0.701,0.013 -4.35,0.006 -8.475,0.957 -12.272,2.56 -5.803,2.712 -11.733,6.869 -15.134,13.063 -0.269,0.603 -0.032,1.29 0.236,1.814 0.793,0.915 1.773,1.363 2.71,1.906 -0.474,-0.793 -1.018,-1.553 -1.667,-2.188 0.038,-0.033 0.063,-0.085 0.118,-0.066 1.362,1.004 2.504,2.477 2.953,4.068 0.325,-0.125 0.649,-0.229 0.955,-0.408 -0.213,-0.141 -0.486,-0.26 -0.6,-0.528 -0.381,-0.598 -0.087,-1.362 0.237,-1.88 1.543,-2.317 3.496,-4.459 5.694,-6.246 4.357,-3.269 9.263,-5.77 14.505,-6.162 1.036,-0.078 2.02,-0.118 2.966,-0.118 0.945,-0.003 1.929,0.04 2.965,0.118 5.241,0.392 10.147,2.893 14.504,6.162 2.198,1.787 4.152,3.929 5.692,6.246 0.326,0.518 0.62,1.282 0.24,1.88 -0.114,0.268 -0.388,0.387 -0.6,0.528 0.305,0.179 0.63,0.283 0.955,0.408 0.449,-1.591 1.591,-3.064 2.952,-4.068 0.056,-0.019 0.081,0.033 0.119,0.066 -0.65,0.635 -1.193,1.395 -1.666,2.188 0.935,-0.543 1.916,-0.991 2.707,-1.906 0.27,-0.524 0.507,-1.211 0.237,-1.814"
             style="fill:#760135;fill-opacity:1;fill-rule:nonzero;stroke:none"
             id="path138" />
        </g>
        <g
           id="g140"
           transform="translate(318.4731,722.8934)">
          <path
             inkscape:connector-curvature="0"
             d="M 0,0 C 0.081,0.222 0.159,0.444 0.232,0.665 0.139,0.45 0.063,0.228 0,0"
             style="fill:#760135;fill-opacity:1;fill-rule:nonzero;stroke:none"
             id="path142" />
        </g>
        <g
           id="g144"
           transform="translate(294.6245,702.9136)">
          <path
             inkscape:connector-curvature="0"
             d="m 0,0 c -0.106,0.063 -0.471,0.231 -0.834,0.32 -0.417,0.104 -0.812,0.143 -1.314,-0.041 -0.421,-0.154 -0.814,-0.503 -0.955,-1.072 -0.129,-0.529 0.073,-1.076 0.544,-1.474 0.293,-0.244 0.739,-0.371 0.893,-0.409 0.645,-0.16 1.104,-0.092 1.217,-0.037 l 0.104,0.163 c -0.336,-0.102 -0.721,-0.059 -1.034,0.016 -0.87,0.214 -1.367,1.058 -1.167,1.862 0.156,0.643 0.764,1.072 1.515,0.886 0.532,-0.131 0.844,-0.522 0.877,-0.722 -0.005,-0.072 -0.04,-0.27 -0.06,-0.348 l 0.088,-0.053 c 0.101,0.392 0.229,0.815 0.403,1.252 L 0.179,0.347 C 0.154,0.301 0.04,0.048 0,0"
             style="fill:#760135;fill-opacity:1;fill-rule:nonzero;stroke:none"
             id="path146" />
        </g>
        <g
           id="g148"
           transform="translate(297.5919,702.5795)">
          <path
             inkscape:connector-curvature="0"
             d="m 0,0 0.013,-0.092 c 0.121,-0.02 0.34,-0.077 0.41,-0.101 0.016,-0.108 -0.042,-0.65 -0.075,-0.978 l -0.02,-0.197 c -0.172,-0.011 -1.649,0.162 -1.755,0.171 l 0.02,0.205 c 0.041,0.366 0.109,0.862 0.136,0.974 0.071,0.009 0.298,0.021 0.416,0.017 l 0.031,0.087 C -0.892,0.083 -1.253,0.112 -1.515,0.139 -1.785,0.168 -2.186,0.217 -2.257,0.233 L -2.244,0.141 C -2.14,0.122 -1.881,0.062 -1.808,0.039 -1.805,-0.103 -1.883,-0.9 -1.896,-1.032 l -0.04,-0.397 C -1.971,-1.751 -2.05,-2.462 -2.085,-2.656 -2.168,-2.665 -2.433,-2.677 -2.531,-2.671 l -0.036,-0.086 c 0.129,-0.005 0.527,-0.036 0.747,-0.06 0.181,-0.019 0.597,-0.071 0.686,-0.087 l -0.011,0.089 c -0.085,0.013 -0.292,0.065 -0.406,0.101 0,0.158 0.041,0.701 0.084,1.132 l 0.017,0.149 c 0.061,0.007 1.563,-0.07 1.763,-0.085 L 0.287,-1.763 C 0.239,-2.21 0.184,-2.748 0.144,-2.888 0.066,-2.895 -0.217,-2.904 -0.28,-2.903 l -0.03,-0.088 c 0.144,-0.005 0.542,-0.039 0.723,-0.058 0.2,-0.02 0.629,-0.072 0.708,-0.091 l -0.01,0.092 C 1.025,-3.037 0.773,-2.971 0.688,-2.945 0.676,-2.8 0.737,-2.1 0.79,-1.61 l 0.031,0.295 c 0.01,0.114 0.108,0.984 0.138,1.067 0.124,0.002 0.353,0.014 0.436,0.014 l 0.036,0.087 C 1.355,-0.147 1,-0.121 0.723,-0.092 0.461,-0.064 0.071,-0.016 0,0"
             style="fill:#760135;fill-opacity:1;fill-rule:nonzero;stroke:none"
             id="path150" />
        </g>
        <g
           id="g152"
           transform="translate(301.6169,702.5178)">
          <path
             inkscape:connector-curvature="0"
             d="m 0,0 0.033,-0.09 c 0.113,-0.002 0.368,-0.026 0.466,-0.04 0.023,-0.138 0.068,-0.915 0.073,-1.051 l 0.02,-0.388 C 0.615,-2.081 0.628,-2.454 0.391,-2.681 0.242,-2.822 0.043,-2.898 -0.26,-2.909 -0.754,-2.93 -1.18,-2.641 -1.22,-1.741 l -0.028,0.566 c -0.015,0.363 0.045,0.902 0.055,0.974 0.134,0.032 0.323,0.061 0.439,0.08 l 0.018,0.088 C -0.842,-0.045 -1.17,-0.068 -1.364,-0.076 -1.692,-0.09 -1.961,-0.092 -2.082,-0.09 l 0.017,-0.088 c 0.116,-0.012 0.247,-0.026 0.338,-0.044 0.018,-0.118 -0.071,-0.577 -0.053,-0.959 l 0.03,-0.661 c 0.036,-0.742 0.494,-1.268 1.442,-1.233 0.454,0.018 0.742,0.154 0.946,0.334 0.338,0.304 0.36,0.714 0.338,1.193 -0.008,0.154 -0.026,0.357 -0.033,0.523 l -0.01,0.202 c -0.005,0.115 -0.053,0.648 -0.043,0.711 0.108,0.029 0.222,0.05 0.295,0.07 l 0.02,0.091 C 1.134,0.038 0.908,0.02 0.688,0.011 0.426,0 0.108,-0.004 0,0"
             style="fill:#760135;fill-opacity:1;fill-rule:nonzero;stroke:none"
             id="path154" />
        </g>
        <g
           id="g156"
           transform="translate(306.4549,703.0435)">
          <path
             inkscape:connector-curvature="0"
             d="M 0,0 C 0.108,0.038 0.255,0.098 0.308,0.116 V 0.208 C 0.222,0.183 -0.124,0.111 -0.214,0.094 -0.308,0.077 -0.759,0.003 -0.84,-0.003 l 0.036,-0.084 c 0.118,0.014 0.345,0.021 0.433,0.02 0.124,-0.201 0.396,-1.669 0.479,-2.13 -0.153,0.087 -0.965,0.771 -1.096,0.87 -0.084,0.061 -1.117,0.96 -1.233,1.085 -0.323,-0.077 -0.716,-0.151 -0.948,-0.204 l 0.033,-0.082 c 0.161,0.02 0.368,0.035 0.469,0.031 0.025,-0.137 0.408,-2.489 0.368,-2.677 -0.091,-0.047 -0.222,-0.082 -0.336,-0.121 l 0.003,-0.092 c 0.121,0.033 0.444,0.101 0.565,0.121 0.111,0.021 0.544,0.092 0.622,0.096 l -0.03,0.084 c -0.081,-0.004 -0.398,-0.031 -0.464,-0.023 -0.083,0.142 -0.534,2.325 -0.537,2.411 0.169,-0.133 1.14,-0.958 1.208,-1.01 0.116,-0.091 1.52,-1.23 1.666,-1.324 C 0.393,-2.858 0.106,-1.097 0.083,-0.899 0.066,-0.764 -0.02,-0.173 0,0"
             style="fill:#760135;fill-opacity:1;fill-rule:nonzero;stroke:none"
             id="path158" />
        </g>
        <g
           id="g160"
           transform="translate(275.7143,711.6064)">
          <path
             inkscape:connector-curvature="0"
             d="m 0,0 c -0.088,-0.04 -0.204,-0.105 -0.35,-0.16 -0.209,0.082 -0.484,0.373 -0.751,0.705 0.089,0.085 0.801,0.678 1.004,0.839 L -0.03,1.437 C 0.197,1.153 0.384,0.877 0.414,0.734 0.348,0.681 0.258,0.614 0.187,0.562 L 0.21,0.476 C 0.329,0.545 0.832,0.848 0.899,0.887 L 0.836,0.953 C 0.784,0.92 0.731,0.894 0.667,0.871 0.575,0.927 0.294,1.232 0.066,1.515 L 0.132,1.568 C 0.327,1.724 0.978,2.222 1.032,2.251 1.174,2.074 1.539,1.529 1.49,1.392 1.427,1.337 1.274,1.221 1.252,1.201 L 1.286,1.11 C 1.394,1.186 1.944,1.553 2.027,1.595 L 1.951,1.659 C 1.887,1.619 1.823,1.583 1.775,1.562 1.679,1.631 1.056,2.411 0.972,2.517 0.851,2.665 0.633,2.953 0.512,3.119 L 0.452,3.049 C 0.507,2.961 0.645,2.739 0.682,2.665 0.591,2.57 0.071,2.139 -0.228,1.901 L -0.381,1.777 C -0.745,1.486 -1.364,1.01 -1.433,0.973 -1.529,1.044 -1.708,1.228 -1.752,1.278 L -1.835,1.24 c 0.109,-0.125 0.326,-0.383 0.416,-0.495 0.166,-0.209 0.743,-0.956 0.803,-1.065 -0.05,-0.044 -0.11,-0.093 -0.2,-0.165 l 0.043,-0.08 c 0.177,0.119 0.739,0.45 0.854,0.502 z"
             style="fill:#760135;fill-opacity:1;fill-rule:nonzero;stroke:none"
             id="path162" />
        </g>
        <g
           id="g164"
           transform="translate(279.0458,711.261)">
          <path
             inkscape:connector-curvature="0"
             d="m 0,0 c 0.087,-0.052 0.18,-0.122 0.266,-0.192 l 0.073,0.053 c -0.092,0.082 -0.397,0.381 -0.52,0.508 -0.051,0.05 -0.292,0.309 -0.375,0.406 L -0.616,0.71 c 0.061,-0.083 0.147,-0.194 0.195,-0.279 -0.156,-0.07 -2.38,-1.068 -2.679,-1.146 -0.098,0.066 -0.203,0.142 -0.297,0.22 L -3.47,-0.548 c 0.074,-0.066 0.28,-0.26 0.357,-0.341 0.086,-0.087 0.351,-0.369 0.437,-0.47 l 0.052,0.075 c -0.075,0.094 -0.16,0.206 -0.213,0.303 0.263,0.199 0.997,0.597 1.057,0.622 0.127,-0.096 0.622,-0.557 0.726,-0.662 -0.041,-0.136 -0.472,-0.983 -0.577,-1.19 -0.113,0.073 -0.23,0.166 -0.343,0.263 l -0.078,-0.047 c 0.087,-0.076 0.43,-0.414 0.514,-0.5 0.159,-0.162 0.453,-0.472 0.483,-0.515 l 0.054,0.072 c -0.077,0.103 -0.151,0.203 -0.219,0.306 0.13,0.403 0.455,1.089 0.606,1.403 C -0.41,-0.8 -0.097,-0.166 0,0 m -1.596,-0.263 c 0.129,0.066 0.847,0.385 1.209,0.554 L -0.381,0.286 C -0.496,0.071 -0.85,-0.649 -0.984,-0.911 Z"
             style="fill:#760135;fill-opacity:1;fill-rule:nonzero;stroke:none"
             id="path166" />
        </g>
        <g
           id="g168"
           transform="translate(281.9174,706.7596)">
          <path
             inkscape:connector-curvature="0"
             d="m 0,0 c -0.045,0.026 -0.368,0.281 -0.527,0.41 -0.117,0.093 -0.368,0.3 -0.534,0.447 L -1.098,0.771 C -1.046,0.707 -0.853,0.526 -0.793,0.465 -0.831,0.4 -0.91,0.294 -0.992,0.19 L -1.135,0.015 c -0.133,-0.165 -0.226,-0.275 -0.273,-0.32 -0.197,0.042 -0.403,0.184 -0.489,0.253 -0.715,0.576 -0.616,1.638 -0.183,2.177 0.426,0.529 1.154,0.646 1.73,0.183 C 0.189,1.874 0.247,1.465 0.251,1.293 0.203,1.208 0.126,1.078 0.042,0.962 L 0.086,0.858 C 0.324,1.175 0.832,1.731 0.957,1.843 L 0.867,1.888 C 0.8,1.825 0.616,1.671 0.56,1.627 0.483,1.756 0.17,2.08 -0.115,2.308 -0.453,2.58 -0.836,2.788 -1.303,2.825 -1.753,2.861 -2.254,2.714 -2.631,2.246 -2.964,1.833 -3.024,1.266 -2.774,0.722 c 0.166,-0.364 0.533,-0.694 0.747,-0.866 0.226,-0.181 0.698,-0.474 0.935,-0.574 0.069,0.1 0.208,0.274 0.308,0.395 l 0.084,0.107 c 0.076,0.092 0.256,0.308 0.311,0.355 0.085,-0.041 0.284,-0.173 0.316,-0.195 z"
             style="fill:#760135;fill-opacity:1;fill-rule:nonzero;stroke:none"
             id="path170" />
        </g>
        <g
           id="g172"
           transform="translate(285.9904,706.0033)">
          <path
             inkscape:connector-curvature="0"
             d="m 0,0 c 0.106,-0.045 0.255,-0.095 0.306,-0.116 l 0.061,0.066 c -0.08,0.039 -0.386,0.215 -0.464,0.266 -0.081,0.049 -0.466,0.296 -0.532,0.345 L -0.657,0.474 c 0.097,-0.071 0.271,-0.217 0.336,-0.276 -0.045,-0.233 -0.819,-1.506 -1.066,-1.907 -0.055,0.167 -0.203,1.22 -0.235,1.377 -0.022,0.102 -0.191,1.461 -0.194,1.633 -0.293,0.16 -0.635,0.364 -0.841,0.483 L -2.69,1.697 C -2.556,1.605 -2.391,1.479 -2.318,1.41 -2.391,1.29 -3.676,-0.717 -3.83,-0.831 c -0.099,0.025 -0.222,0.086 -0.331,0.135 l -0.058,-0.07 c 0.11,-0.057 0.396,-0.222 0.502,-0.288 0.094,-0.057 0.465,-0.296 0.525,-0.343 l 0.037,0.083 c -0.064,0.05 -0.32,0.242 -0.363,0.292 0.031,0.161 1.153,2.087 1.209,2.154 0.035,-0.212 0.208,-1.474 0.225,-1.558 0.025,-0.146 0.312,-1.929 0.36,-2.099 0.109,0.134 1.07,1.638 1.184,1.8 C -0.461,-0.613 -0.13,-0.113 0,0"
             style="fill:#760135;fill-opacity:1;fill-rule:nonzero;stroke:none"
             id="path174" />
        </g>
        <g
           id="g176"
           transform="translate(287.399,705.4725)">
          <path
             inkscape:connector-curvature="0"
             d="m 0,0 -0.033,-0.083 c 0.086,-0.056 0.209,-0.129 0.283,-0.192 -0.124,-0.121 -1.848,-1.843 -2.1,-2.02 -0.115,0.024 -0.239,0.059 -0.355,0.097 l -0.051,-0.073 c 0.092,-0.033 0.356,-0.147 0.457,-0.193 0.11,-0.049 0.458,-0.218 0.574,-0.284 l 0.022,0.088 c -0.104,0.063 -0.223,0.137 -0.306,0.208 0.175,0.279 0.721,0.91 0.768,0.955 0.154,-0.045 0.779,-0.299 0.915,-0.361 0.01,-0.141 -0.096,-1.085 -0.119,-1.317 -0.131,0.028 -0.274,0.074 -0.413,0.126 l -0.058,-0.072 c 0.108,-0.04 0.547,-0.233 0.661,-0.286 0.204,-0.095 0.589,-0.283 0.632,-0.312 l 0.025,0.087 c -0.108,0.067 -0.214,0.135 -0.315,0.211 -0.02,0.421 0.041,1.179 0.068,1.526 0.043,0.472 0.111,1.177 0.142,1.367 0.098,-0.019 0.211,-0.051 0.315,-0.086 l 0.05,0.077 C 1.046,-0.494 0.658,-0.323 0.494,-0.248 0.431,-0.218 0.113,-0.062 0,0 m 0.199,-1.731 -0.802,0.391 c 0.099,0.107 0.656,0.661 0.933,0.947 L 0.338,-0.396 C 0.305,-0.639 0.232,-1.437 0.199,-1.731"
             style="fill:#760135;fill-opacity:1;fill-rule:nonzero;stroke:none"
             id="path178" />
        </g>
        <g
           id="g180"
           transform="translate(313.3602,703.2514)">
          <path
             inkscape:connector-curvature="0"
             d="m 0,0 c -0.048,0.108 -0.151,0.369 -0.169,0.44 0.078,0.057 0.287,0.169 0.323,0.19 L 0.139,0.719 C 0.093,0.692 -0.282,0.527 -0.471,0.446 -0.608,0.39 -0.91,0.266 -1.117,0.187 l 0.058,-0.072 c 0.081,0.015 0.333,0.098 0.414,0.125 0.04,-0.065 0.095,-0.187 0.148,-0.309 l 0.089,-0.204 c 0.08,-0.197 0.133,-0.331 0.153,-0.394 -0.128,-0.154 -0.353,-0.268 -0.453,-0.311 -0.845,-0.359 -1.735,0.225 -2.007,0.862 -0.265,0.628 -0.025,1.324 0.655,1.612 0.636,0.27 1.024,0.13 1.175,0.053 0.055,-0.082 0.134,-0.211 0.197,-0.341 L -0.577,1.199 C -0.744,1.558 -0.996,2.269 -1.036,2.43 L -1.117,2.372 C -1.094,2.283 -1.046,2.047 -1.034,1.979 -1.182,1.972 -1.614,1.847 -1.951,1.704 -2.35,1.535 -2.713,1.292 -2.965,0.899 c -0.244,-0.38 -0.35,-0.89 -0.116,-1.441 0.207,-0.488 0.681,-0.811 1.276,-0.846 0.398,-0.025 0.862,0.145 1.117,0.251 0.264,0.114 0.746,0.392 0.945,0.553 -0.055,0.109 -0.144,0.314 -0.204,0.459 z"
             style="fill:#760135;fill-opacity:1;fill-rule:nonzero;stroke:none"
             id="path182" />
        </g>
        <g
           id="g184"
           transform="translate(317.4998,704.5044)">
          <path
             inkscape:connector-curvature="0"
             d="m 0,0 c -0.065,0.159 -0.94,1.714 -1.031,1.892 -0.061,0.121 -0.348,0.648 -0.386,0.816 0.088,0.073 0.204,0.181 0.247,0.217 L -1.2,3.008 C -1.273,2.956 -1.573,2.771 -1.654,2.723 -1.734,2.676 -2.133,2.452 -2.206,2.415 l 0.063,-0.064 c 0.106,0.052 0.318,0.137 0.399,0.165 C -1.558,2.37 -0.799,1.088 -0.56,0.682 -0.734,0.711 -1.732,1.075 -1.888,1.121 -1.989,1.148 -3.267,1.639 -3.421,1.717 -3.698,1.534 -4.039,1.327 -4.24,1.2 l 0.06,-0.069 c 0.144,0.074 0.333,0.164 0.429,0.193 0.07,-0.121 1.24,-2.198 1.268,-2.388 -0.071,-0.074 -0.182,-0.155 -0.275,-0.228 l 0.035,-0.086 c 0.101,0.072 0.383,0.246 0.489,0.309 0.094,0.056 0.479,0.272 0.55,0.304 l -0.056,0.07 c -0.073,-0.031 -0.363,-0.167 -0.428,-0.184 -0.126,0.105 -1.301,2 -1.334,2.079 C -3.298,1.131 -2.105,0.693 -2.019,0.668 -1.881,0.623 -0.171,0.038 0,0"
             style="fill:#760135;fill-opacity:1;fill-rule:nonzero;stroke:none"
             id="path186" />
        </g>
        <g
           id="g188"
           transform="translate(323.1523,709.4962)">
          <path
             inkscape:connector-curvature="0"
             d="m 0,0 c -0.235,0.151 -1.856,1.335 -2.236,1.631 0.053,0.077 0.186,0.24 0.224,0.285 l -0.05,0.073 C -2.13,1.917 -2.388,1.673 -2.488,1.581 -2.599,1.48 -2.816,1.295 -2.925,1.208 l 0.076,-0.052 c 0.066,0.042 0.176,0.116 0.255,0.15 0.06,-0.077 0.701,-1.873 0.771,-2.135 -0.315,0.148 -1.634,0.828 -1.984,1.031 0.048,0.069 0.116,0.167 0.197,0.258 L -3.658,0.538 C -3.741,0.451 -3.983,0.219 -4.12,0.096 c -0.166,-0.151 -0.416,-0.367 -0.461,-0.4 l 0.078,-0.048 c 0.041,0.026 0.255,0.176 0.351,0.24 0.186,-0.301 1.258,-2.166 1.369,-2.425 -0.053,-0.082 -0.142,-0.187 -0.187,-0.242 l 0.038,-0.087 c 0.098,0.099 0.252,0.25 0.338,0.329 0.058,0.054 0.428,0.379 0.479,0.413 l -0.073,0.054 c -0.053,-0.035 -0.25,-0.171 -0.318,-0.21 -0.383,0.396 -0.993,1.437 -1.349,1.991 l 0.013,0.012 c 0.146,-0.086 2.163,-1.116 2.43,-1.231 -0.068,0.265 -0.822,2.336 -0.913,2.606 l 0.013,0.013 c 0.25,-0.2 1.81,-1.364 1.921,-1.475 -0.055,-0.064 -0.27,-0.31 -0.31,-0.353 l 0.053,-0.072 c 0.086,0.088 0.426,0.411 0.57,0.541 0.148,0.136 0.343,0.301 0.456,0.391 L 0.3,0.195 C 0.237,0.154 0.096,0.054 0,0"
             style="fill:#760135;fill-opacity:1;fill-rule:nonzero;stroke:none"
             id="path190" />
        </g>
        <g
           id="g192"
           transform="translate(326.0085,712.8518)">
          <path
             inkscape:connector-curvature="0"
             d="m 0,0 c -0.131,0.068 -0.681,0.504 -1.061,0.817 l -0.23,0.189 c -0.088,0.071 -0.759,0.632 -0.812,0.703 0.064,0.105 0.182,0.299 0.227,0.372 L -1.929,2.157 C -1.971,2.091 -2.188,1.811 -2.365,1.598 -2.531,1.394 -2.788,1.094 -2.839,1.042 l 0.084,-0.039 c 0.083,0.09 0.252,0.242 0.31,0.287 0.098,-0.047 0.519,-0.39 0.776,-0.6 L -1.518,0.566 C -1.603,0.415 -2.556,-0.725 -2.624,-0.807 l -0.162,0.133 c -0.282,0.23 -0.66,0.562 -0.738,0.646 0.032,0.063 0.148,0.26 0.216,0.357 L -3.363,0.402 C -3.401,0.344 -3.623,0.059 -3.789,-0.145 -3.961,-0.354 -4.223,-0.663 -4.276,-0.713 l 0.083,-0.038 c 0.074,0.077 0.268,0.258 0.328,0.307 0.119,-0.077 0.741,-0.579 0.847,-0.665 L -2.71,-1.36 c 0.249,-0.206 0.799,-0.661 0.943,-0.799 -0.038,-0.075 -0.174,-0.303 -0.235,-0.38 l 0.053,-0.075 c 0.076,0.103 0.323,0.416 0.462,0.587 0.116,0.143 0.388,0.461 0.451,0.528 l -0.083,0.038 c -0.056,-0.063 -0.215,-0.208 -0.308,-0.282 -0.131,0.087 -0.562,0.417 -0.897,0.692 l -0.116,0.093 c 0.027,0.055 0.917,1.269 1.041,1.426 L -1.21,0.313 c 0.35,-0.285 0.766,-0.627 0.862,-0.738 -0.035,-0.069 -0.181,-0.312 -0.219,-0.361 l 0.055,-0.075 c 0.084,0.119 0.33,0.432 0.447,0.574 0.126,0.155 0.408,0.484 0.466,0.542 L 0.318,0.294 C 0.26,0.231 0.066,0.054 0,0"
             style="fill:#760135;fill-opacity:1;fill-rule:nonzero;stroke:none"
             id="path194" />
        </g>
        <g
           id="g196"
           transform="translate(319.1815,706.1116)">
          <path
             inkscape:connector-curvature="0"
             d="m 0,0 c -0.063,0.059 -0.487,0.629 -0.809,1.077 l -0.157,0.211 c -0.307,0.423 -0.595,0.822 -0.63,0.903 0.114,0.103 0.262,0.252 0.325,0.309 L -1.306,2.587 C -1.359,2.536 -1.649,2.314 -1.825,2.187 -2.095,1.989 -2.418,1.766 -2.486,1.726 l 0.068,-0.063 c 0.071,0.041 0.318,0.181 0.396,0.217 0.098,-0.108 0.57,-0.747 0.653,-0.86 l 0.146,-0.201 c 0.247,-0.336 0.706,-0.975 0.797,-1.129 -0.063,-0.066 -0.272,-0.269 -0.328,-0.314 l 0.038,-0.081 c 0.098,0.081 0.408,0.318 0.524,0.404 0.215,0.155 0.578,0.408 0.656,0.457 L 0.396,0.214 C 0.323,0.173 0.101,0.043 0,0"
             style="fill:#760135;fill-opacity:1;fill-rule:nonzero;stroke:none"
             id="path198" />
        </g>
        <g
           id="g200"
           transform="translate(317.5402,709.3438)">
          <path
             inkscape:connector-curvature="0"
             d="M 0,0 -0.396,0.199 C -0.461,0.01 -0.789,-0.893 -0.827,-0.933 l 0.149,-0.094 C -0.635,-0.945 -0.098,-0.063 0,0"
             style="fill:#760135;fill-opacity:1;fill-rule:nonzero;stroke:none"
             id="path202" />
        </g>
      </g>
      <g
         id="g4218"
         transform="matrix(0.90663002,0,0,0.90663002,25.50303,84.17041)">
        <g
           id="g4337"
           transform="matrix(0.9999,0,0,0.9999,0.14897357,0.18741173)">
          <g
             transform="translate(192.0322,683.6183)"
             id="g204">
            <path
               id="path206"
               style="fill:#760135;fill-opacity:1;fill-rule:nonzero;stroke:none"
               d="m 0,0 v 0.449 c 0,0.143 -0.088,0.169 -0.199,0.169 -0.794,0 -1.456,-0.119 -2.826,-0.119 -0.905,0 -1.523,0.119 -2.206,0.119 -0.111,0 -0.2,-0.096 -0.2,-0.215 v -0.474 c 0,-0.166 0.155,-0.262 0.331,-0.262 1.28,0 1.722,-0.214 1.722,-1.732 v -7.906 c 0,-3.514 -1.877,-4.795 -5.011,-4.795 -2.406,0 -3.953,0.996 -3.953,3.847 v 8.9 c 0,1.449 0.464,1.686 1.766,1.686 0.2,0 0.311,0.025 0.311,0.192 v 0.544 c 0,0.167 -0.045,0.215 -0.2,0.215 -1.016,0 -1.678,-0.119 -2.759,-0.119 -1.06,0 -2.805,0.119 -3.82,0.119 -0.177,0 -0.286,-0.071 -0.286,-0.24 v -0.544 c 0,-0.142 0.154,-0.167 0.265,-0.167 1.236,0 1.788,-0.07 1.788,-1.402 v -9.28 c 0,-4.414 3.024,-5.508 6.689,-5.508 1.7,0 3.533,0.617 4.835,1.802 1.522,1.402 1.7,3.159 1.7,5.224 v 7.029 c 0,1.565 0.088,2.135 1.743,2.135 C -0.021,-0.333 0,-0.285 0,0"
               inkscape:connector-curvature="0" />
          </g>
          <g
             transform="translate(206.2519,680.9509)"
             id="g208">
            <path
               id="path210"
               style="fill:#760135;fill-opacity:1;fill-rule:nonzero;stroke:none"
               d="M 0,0 C -0.478,0 -0.94,-0.093 -1.684,-0.093 -2.269,-0.093 -3.084,0 -3.988,0 -4.147,0 -4.253,-0.038 -4.253,-0.209 v -0.323 c 0,-0.192 0.177,-0.227 0.336,-0.227 1.24,0 1.329,-0.441 1.329,-1.659 v -5.871 c 0,-0.437 -0.035,-1.314 -0.089,-1.314 -0.053,0 -0.124,0.096 -0.23,0.247 l -3.81,4.745 c -0.656,0.802 -1.276,1.601 -1.896,2.402 l -1.383,1.773 C -10.102,-0.303 -10.207,0 -10.439,0 c -0.779,0 -1.471,-0.093 -2.25,-0.093 -0.603,0 -1.205,0.093 -1.844,0.093 -0.141,0 -0.194,-0.093 -0.194,-0.187 V -0.59 c 0,-0.096 0.07,-0.169 0.177,-0.169 1.791,0 2.021,-0.174 2.021,-3.28 v -6.671 c 0,-1.906 -0.604,-1.979 -1.648,-1.979 -0.125,0 -0.178,-0.096 -0.178,-0.212 v -0.322 c 0,-0.152 0.071,-0.227 0.319,-0.227 0.833,0 1.665,0.093 2.339,0.093 0.656,0 0.956,-0.093 1.701,-0.093 0.195,0 0.266,0.035 0.266,0.169 v 0.418 c 0,0.174 -0.142,0.174 -0.319,0.174 -1.08,0 -1.417,0.114 -1.417,2.133 v 6.898 c 0,0.116 -0.036,0.857 0.088,0.857 0.106,0 0.249,-0.209 0.479,-0.494 l 7.177,-8.958 c 0.284,-0.343 0.549,-0.685 1.063,-1.258 0.266,-0.229 0.337,-0.247 0.975,-0.247 0.16,0 0.178,0.038 0.178,0.154 0,0.61 -0.018,1.752 -0.018,3.199 v 7.299 c -0.036,1.926 0.231,2.307 1.115,2.347 0.48,0 0.621,0.056 0.621,0.189 v 0.383 C 0.212,-0.018 0.124,0 0,0"
               inkscape:connector-curvature="0" />
          </g>
          <g
             transform="translate(212.7009,667.5007)"
             id="g212">
            <path
               id="path214"
               style="fill:#760135;fill-opacity:1;fill-rule:nonzero;stroke:none"
               d="m 0,0 c 0.142,0 0.231,0.035 0.231,0.209 v 0.378 c 0,0.116 -0.053,0.174 -0.195,0.174 -0.886,0 -1.471,0.134 -1.471,1.198 v 9.588 c 0,0.857 0.462,1.144 1.277,1.144 0.194,0 0.354,0.018 0.354,0.114 v 0.532 c 0,0.095 -0.089,0.113 -0.229,0.113 -0.444,0 -1.49,-0.093 -2.694,-0.093 -1.224,0 -2.252,0.093 -2.501,0.093 -0.123,0 -0.14,-0.075 -0.14,-0.186 v -0.442 c 0,-0.095 0.123,-0.131 0.265,-0.131 0.85,0 1.312,-0.116 1.312,-1.144 V 1.959 c 0,-1.029 -0.533,-1.198 -1.366,-1.198 -0.176,0 -0.246,-0.058 -0.246,-0.153 V 0.111 C -5.403,0.035 -5.333,0 -5.279,0 -4.358,0 -3.42,0.093 -2.498,0.093 -1.665,0.093 -0.832,0 0,0"
               inkscape:connector-curvature="0" />
          </g>
          <g
             transform="translate(226.9326,680.9509)"
             id="g216">
            <path
               id="path218"
               style="fill:#760135;fill-opacity:1;fill-rule:nonzero;stroke:none"
               d="M 0,0 C -0.444,0 -1.082,-0.093 -1.525,-0.093 -2.854,-0.093 -3.298,0 -3.74,0 -3.882,0 -3.988,-0.055 -3.988,-0.187 V -0.57 c 0,-0.096 0.035,-0.189 0.141,-0.189 0.851,0 1.417,-0.02 1.417,-0.65 0,-0.439 -0.21,-1.049 -0.37,-1.485 l -2.341,-6.48 c -0.071,-0.211 -0.247,-0.665 -0.318,-0.665 -0.089,0 -0.124,0.075 -0.248,0.398 l -2.268,6.059 c -0.568,1.583 -0.762,2.021 -0.762,2.326 0,0.477 0.655,0.497 1.31,0.497 0.143,0 0.178,0.073 0.178,0.189 v 0.341 c 0,0.153 -0.053,0.229 -0.195,0.229 -1.347,0 -2.145,-0.093 -3.101,-0.093 -0.904,0 -1.703,0.093 -2.393,0.093 -0.159,0 -0.212,-0.055 -0.212,-0.187 v -0.365 c 0,-0.114 0.053,-0.207 0.212,-0.207 0.903,0 1.223,-0.174 1.665,-0.973 0.479,-0.857 3.953,-10.596 4.537,-11.852 0.089,-0.174 0.054,-0.136 0.409,-0.174 h 0.336 c 0.195,0 0.231,0 0.319,0.247 1.417,3.832 2.853,7.68 4.324,11.492 0.196,0.496 0.391,1.26 1.259,1.26 0.195,0 0.247,0.073 0.247,0.245 v 0.267 C 0.158,-0.113 0.142,0 0,0"
               inkscape:connector-curvature="0" />
          </g>
          <g
             transform="translate(237.5805,670.4907)"
             id="g220">
            <path
               id="path222"
               style="fill:#760135;fill-opacity:1;fill-rule:nonzero;stroke:none"
               d="M 0,0 C -0.089,0 -0.16,-0.038 -0.32,-0.285 L -0.868,-1.18 C -1.241,-1.792 -1.382,-2.135 -2.18,-2.135 h -2.428 c -1.186,0 -1.399,0.479 -1.399,1.525 v 4.382 h 1.701 c 0.744,0 1.259,0.02 1.454,-0.512 0.141,-0.404 0.141,-0.802 0.141,-1.107 0,-0.116 0.052,-0.154 0.159,-0.154 h 0.408 c 0.088,0 0.142,0.116 0.142,0.288 0,0.59 -0.019,1.2 -0.019,1.714 0,0.706 0.019,1.409 0.019,2.115 0,0.076 -0.036,0.134 -0.196,0.134 H -2.499 C -2.587,6.25 -2.623,6.212 -2.641,6.116 -2.907,4.553 -3.491,4.629 -4.802,4.629 h -1.205 v 3.335 c 0,1.546 0.213,1.639 1.17,1.639 h 1.683 c 1.169,0 1.631,-0.227 1.737,-1.694 0.018,-0.288 0.035,-0.381 0.122,-0.381 h 0.355 c 0.143,0 0.231,0.076 0.231,0.209 0,0.399 -0.017,0.82 -0.017,1.218 0,0.421 0.017,0.86 0.017,1.276 0,0.098 0,0.229 -0.159,0.229 -1.897,0 -3.811,-0.093 -5.708,-0.093 -0.902,0.018 -2.303,0.093 -3.011,0.093 -0.178,0 -0.337,0 -0.337,-0.186 V 9.891 c 0,-0.19 0.124,-0.19 0.301,-0.19 0.55,0 1.259,0 1.259,-0.993 V 6.822 -0.741 c 0,-1.261 -0.515,-1.452 -1.028,-1.488 -0.497,-0.04 -0.604,-0.075 -0.604,-0.269 v -0.343 c 0,-0.114 0.089,-0.149 0.142,-0.149 1.064,0 2.11,0.093 3.172,0.093 2.181,0 4.377,-0.093 6.558,-0.093 0.284,0.951 0.513,1.674 0.727,2.418 0.035,0.096 0.052,0.191 0.052,0.287 C 0.655,-0.076 0.142,0 0,0"
               inkscape:connector-curvature="0" />
          </g>
          <g
             transform="translate(252.1841,668.2622)"
             id="g224">
            <path
               id="path226"
               style="fill:#760135;fill-opacity:1;fill-rule:nonzero;stroke:none"
               d="m 0,0 c -0.957,0 -1.507,0.55 -1.985,1.392 l -1.79,3.085 c -0.46,0.8 -1.01,1.659 -1.737,2.211 1.455,0.265 2.836,1.105 2.836,2.781 0,2.534 -2.409,3.22 -3.544,3.22 -1.488,-0.038 -0.869,0 -2.854,-0.094 -1.346,0 -2.64,0.094 -3.438,0.094 -0.089,0 -0.124,-0.056 -0.124,-0.169 v -0.459 c 0,-0.076 0.035,-0.131 0.106,-0.131 h 0.569 c 0.814,0 0.973,-0.535 0.973,-2.461 V 2.113 c 0,-1.773 -0.141,-2.02 -1.47,-2.113 -0.178,-0.02 -0.214,-0.174 -0.214,-0.27 v -0.36 c 0,-0.116 0.036,-0.131 0.232,-0.131 0.619,0 2.25,0.093 2.995,0.093 0.708,0 1.417,-0.093 2.125,-0.093 0.107,0 0.196,0.015 0.196,0.148 v 0.459 C -7.124,-0.058 -7.159,0 -7.266,0 -8.064,0 -8.632,0.302 -8.632,1.903 V 6 c 1.331,0 1.49,-0.305 1.969,-1.142 l 2.322,-4.346 c 0.513,-0.953 0.673,-1.273 1.064,-1.273 0.353,0 0.814,0.093 1.257,0.093 0.708,0 1.419,-0.078 2.126,-0.093 v 0.647 C 0.106,-0.058 0.072,-0.02 0,0 m -7.921,6.857 c -0.231,0 -0.48,0 -0.711,0.021 v 3.393 c 0,0.857 0.055,1.56 1.171,1.56 1.525,0 2.216,-1.086 2.216,-2.513 0,-1.679 -1.206,-2.461 -2.676,-2.461"
               inkscape:connector-curvature="0" />
          </g>
          <g
             transform="translate(254.3447,678.3214)"
             id="g228">
            <path
               id="path230"
               style="fill:#760135;fill-opacity:1;fill-rule:nonzero;stroke:none"
               d="m 0,0 c 0,1.394 0.975,2.077 2.163,2.077 1.435,0 2.142,-1.026 2.374,-2.553 h 0.798 v 2.364 c -0.303,0.477 -1.88,1.047 -3.014,1.047 -2.286,0 -4.182,-1.41 -4.182,-4.039 0,-4.46 6.096,-3.658 6.096,-6.976 0,-1.43 -1.151,-2.191 -2.587,-2.191 -1.791,0 -2.428,1.316 -2.872,2.496 h -0.708 c 0.088,-0.857 0.195,-1.712 0.266,-2.572 1.028,-0.569 2.161,-0.781 3.296,-0.781 2.341,0 4.466,1.487 4.466,4.172 C 6.096,-2.287 0,-3.257 0,0"
               inkscape:connector-curvature="0" />
          </g>
          <g
             transform="translate(267.2988,667.71)"
             id="g232">
            <path
               id="path234"
               style="fill:#760135;fill-opacity:1;fill-rule:nonzero;stroke:none"
               d="m 0,0 v 0.378 c 0,0.116 -0.053,0.174 -0.195,0.174 -0.887,0 -1.47,0.134 -1.47,1.198 v 9.587 c 0,0.858 0.459,1.145 1.274,1.145 0.196,0 0.355,0.018 0.355,0.114 v 0.532 c 0,0.095 -0.088,0.113 -0.231,0.113 -0.442,0 -1.488,-0.093 -2.693,-0.093 -1.224,0 -2.25,0.093 -2.499,0.093 -0.124,0 -0.142,-0.076 -0.142,-0.187 v -0.441 c 0,-0.096 0.125,-0.131 0.266,-0.131 0.851,0 1.311,-0.116 1.311,-1.145 V 1.75 c 0,-1.029 -0.53,-1.198 -1.364,-1.198 -0.177,0 -0.249,-0.058 -0.249,-0.154 v -0.496 c 0,-0.076 0.072,-0.111 0.125,-0.111 0.922,0 1.861,0.093 2.783,0.093 0.833,0 1.665,-0.093 2.498,-0.093 C -0.089,-0.209 0,-0.174 0,0"
               inkscape:connector-curvature="0" />
          </g>
          <g
             transform="translate(293.5972,680.9509)"
             id="g236">
            <path
               id="path238"
               style="fill:#760135;fill-opacity:1;fill-rule:nonzero;stroke:none"
               d="M 0,0 C -0.284,0 -0.886,-0.093 -1.912,-0.093 -2.606,-0.093 -3.208,0 -3.617,0 -3.739,0 -3.774,-0.093 -3.774,-0.209 v -0.305 c 0,-0.131 0.053,-0.245 0.212,-0.245 0.568,0 1.134,-0.02 1.134,-0.345 0,-0.267 -0.248,-0.782 -0.637,-1.41 l -2.021,-3.355 -2.339,3.698 c -0.355,0.532 -0.585,0.953 -0.585,1.125 0,0.247 0.496,0.287 1.186,0.287 0.161,0 0.231,0.035 0.231,0.189 v 0.439 c 0,0.093 -0.07,0.131 -0.266,0.131 -0.477,0 -1.259,-0.093 -2.145,-0.093 -1.169,0 -2.019,0.093 -2.994,0.093 -0.194,0 -0.265,-0.093 -0.265,-0.187 v -0.327 c 0,-0.152 0.088,-0.245 0.23,-0.245 0.85,0 1.259,-0.552 1.86,-1.505 l 2.907,-4.692 c 0.124,-0.209 0.141,-0.38 0.141,-0.512 v -4.096 c 0,-1.125 -1.028,-1.125 -1.453,-1.125 -0.106,0 -0.194,-0.04 -0.194,-0.191 v -0.421 c 0,-0.114 0.072,-0.149 0.177,-0.149 0.815,0 1.541,0.093 2.533,0.093 1.082,0 1.934,-0.093 2.819,-0.093 0.105,0 0.178,0.035 0.178,0.169 v 0.363 c 0,0.133 -0.036,0.229 -0.143,0.229 -0.566,0 -1.558,0.114 -1.558,1.067 v 4.323 c 0,0.174 0.106,0.343 0.37,0.782 l 1.79,3.013 c 0.249,0.398 0.497,0.801 0.744,1.18 0.444,0.668 1.046,1.565 1.757,1.565 0.176,0 0.246,0.056 0.246,0.189 v 0.383 C 0.141,-0.018 0.088,0 0,0"
               inkscape:connector-curvature="0" />
          </g>
          <g
             transform="translate(339.4764,669.8958)"
             id="g240">
            <path
               id="path242"
               style="fill:#760135;fill-opacity:1;fill-rule:nonzero;stroke:none"
               d="m 0,0 c 0.118,0.477 0.237,1.067 0.237,1.187 0,0.167 -0.664,0.285 -0.829,0.285 -0.121,0 -0.215,-0.07 -0.311,-0.237 -1.376,-2.468 -1.612,-2.586 -4.533,-2.586 -2.398,0 -2.73,0.592 -2.73,2.064 v 11.204 c 0,1.236 0.878,1.473 1.994,1.473 0.213,0 0.237,0.143 0.237,0.262 v 0.499 c 0,0.119 -0.048,0.189 -0.166,0.189 -1.021,0 -2.065,-0.118 -3.109,-0.118 -2.304,0 -3.68,0.118 -4.061,0.118 -0.212,0 -0.284,-0.096 -0.284,-0.239 v -0.497 c 0,-0.141 0.072,-0.214 0.237,-0.214 1.474,0 1.996,-0.618 1.996,-2.471 V 0.95 c 0,-1.994 -0.358,-2.42 -1.972,-2.42 -0.189,0 -0.261,-0.096 -0.261,-0.262 v -0.522 c 0,-0.118 0.095,-0.166 0.191,-0.166 1.827,0 4.817,0.118 6.386,0.118 1.542,0 4.202,-0.118 6.338,-0.118 0.191,0.759 0.427,1.565 0.64,2.42"
               inkscape:connector-curvature="0" />
          </g>
          <g
             transform="translate(345.8751,668.2622)"
             id="g244">
            <path
               id="path246"
               style="fill:#760135;fill-opacity:1;fill-rule:nonzero;stroke:none"
               d="m 0,0 c -0.954,0 -1.583,0.134 -1.583,1.197 v 9.588 c 0,0.857 0.495,1.145 1.372,1.145 0.211,0 0.382,0.017 0.382,0.113 v 0.532 c 0,0.096 -0.094,0.114 -0.249,0.114 -0.475,0 -1.6,-0.094 -2.896,-0.094 -1.313,0 -2.42,0.094 -2.686,0.094 -0.134,0 -0.153,-0.076 -0.153,-0.187 v -0.441 c 0,-0.096 0.133,-0.131 0.287,-0.131 0.912,0 1.409,-0.116 1.409,-1.145 V 1.197 C -4.117,0.169 -4.688,0 -5.584,0 -5.776,0 -5.852,-0.058 -5.852,-0.154 V -0.65 c 0,-0.076 0.076,-0.111 0.134,-0.111 0.991,0 2.002,0.093 2.993,0.093 0.895,0 1.791,-0.093 2.687,-0.093 0.151,0 0.247,0.035 0.247,0.209 v 0.378 C 0.209,-0.058 0.151,0 0,0"
               inkscape:connector-curvature="0" />
          </g>
          <g
             transform="translate(364.3775,667.6495)"
             id="g248">
            <path
               id="path250"
               style="fill:#760135;fill-opacity:1;fill-rule:nonzero;stroke:none"
               d="m 0,0 v 0.421 c 0,0.116 -0.096,0.172 -0.267,0.192 -0.227,0.017 -0.61,0.073 -0.857,0.168 -0.592,0.25 -0.65,1.145 -0.65,2.688 v 7.984 c 0,0.782 0.097,1.09 1.202,1.09 0.229,0 0.38,0.017 0.38,0.168 v 0.439 c 0,0.134 -0.133,0.151 -0.36,0.151 -0.497,0 -1.335,-0.093 -2.002,-0.093 -0.723,0 -1.429,0.093 -2.154,0.093 -0.095,-0.284 -0.191,-0.627 -0.323,-0.932 -1.181,-2.668 -2.247,-5.411 -3.43,-8.081 l -4.021,9.013 c -0.84,-0.037 -1.717,-0.093 -2.21,-0.093 -0.324,0 -1.888,0.093 -2.116,0.093 -0.096,0 -0.115,-0.017 -0.115,-0.186 v -0.328 c 0,-0.171 0.019,-0.244 0.115,-0.244 1.2,0 1.868,-0.288 1.868,-1.642 0,-0.322 -0.02,-0.648 -0.02,-0.97 l -0.192,-5.108 c -0.055,-1.087 -0.151,-2.153 -0.207,-3.24 -0.039,-0.781 -0.191,-0.837 -1.05,-0.935 l -0.437,-0.035 c -0.153,-0.02 -0.192,-0.076 -0.192,-0.174 v -0.457 c 0,-0.116 0.115,-0.131 0.344,-0.131 0.725,0 1.277,0.093 1.981,0.093 0.726,0 1.412,-0.093 1.907,-0.093 0.21,0 0.324,0.036 0.324,0.149 v 0.383 c 0,0.134 -0.038,0.21 -0.154,0.23 -1.066,0.151 -1.752,0.302 -1.752,1.502 0,0.857 0.057,1.697 0.096,2.554 l 0.305,5.831 h 0.038 c 1.504,-3.582 3.239,-7.069 4.402,-10.803 0.039,-0.095 0.095,-0.153 0.305,-0.153 0.075,0 0.247,0 0.284,0.133 1.314,3.946 2.746,7.889 4.632,11.605 h 0.036 c 0.078,-1.258 0.078,-2.398 0.078,-8.652 0,-1.732 -0.095,-2.017 -1.771,-2.017 -0.097,0 -0.114,-0.076 -0.114,-0.212 V 0.078 c 0,-0.151 0,-0.227 0.245,-0.227 1.03,0 1.431,0.093 3.106,0.093 0.859,0 1.659,-0.093 2.403,-0.093 0.189,0 0.343,0 0.343,0.149"
               inkscape:connector-curvature="0" />
          </g>
          <g
             transform="translate(376.9717,669.9186)"
             id="g252">
            <path
               id="path254"
               style="fill:#760135;fill-opacity:1;fill-rule:nonzero;stroke:none"
               d="m 0,0 c 0.038,0.096 0.057,0.191 0.057,0.287 0,0.21 -0.552,0.285 -0.706,0.285 -0.096,0 -0.172,-0.038 -0.343,-0.285 l -0.591,-0.895 c -0.4,-0.612 -0.551,-0.955 -1.41,-0.955 h -2.61 c -1.276,0 -1.505,0.479 -1.505,1.525 v 4.382 h 1.83 c 0.799,0 1.351,0.02 1.562,-0.512 0.152,-0.403 0.152,-0.802 0.152,-1.107 0,-0.116 0.056,-0.153 0.172,-0.153 h 0.439 c 0.093,0 0.151,0.115 0.151,0.287 0,0.59 -0.019,1.2 -0.019,1.714 0,0.706 0.019,1.409 0.019,2.115 0,0.076 -0.037,0.134 -0.208,0.134 H -3.337 C -3.43,6.822 -3.469,6.784 -3.488,6.688 -3.774,5.125 -4.403,5.201 -5.812,5.201 h -1.296 v 3.335 c 0,1.546 0.229,1.639 1.256,1.639 h 1.809 c 1.261,0 1.755,-0.227 1.868,-1.694 C -2.154,8.193 -2.134,8.1 -2.041,8.1 h 0.382 c 0.153,0 0.248,0.076 0.248,0.21 0,0.398 -0.018,0.819 -0.018,1.217 0,0.421 0.018,0.86 0.018,1.276 0,0.098 0,0.229 -0.172,0.229 -2.039,0 -4.096,-0.093 -6.135,-0.093 -0.972,0.018 -2.477,0.093 -3.24,0.093 -0.19,0 -0.362,0 -0.362,-0.186 v -0.383 c 0,-0.189 0.133,-0.189 0.324,-0.189 0.591,0 1.354,0 1.354,-0.994 V 7.394 -0.169 c 0,-1.26 -0.553,-1.452 -1.106,-1.487 -0.533,-0.041 -0.649,-0.076 -0.649,-0.27 v -0.343 c 0,-0.113 0.096,-0.149 0.152,-0.149 1.144,0 2.269,0.093 3.412,0.093 2.344,0 4.708,-0.093 7.051,-0.093 C -0.478,-1.467 -0.229,-0.744 0,0"
               inkscape:connector-curvature="0" />
          </g>
          <g
             transform="translate(391.2841,667.5007)"
             id="g256">
            <path
               id="path258"
               style="fill:#760135;fill-opacity:1;fill-rule:nonzero;stroke:none"
               d="M 0,0 V 0 H -0.033 Z"
               inkscape:connector-curvature="0" />
          </g>
          <g
             transform="translate(391.0509,667.6118)"
             id="g260">
            <path
               id="path262"
               style="fill:#760135;fill-opacity:1;fill-rule:nonzero;stroke:none"
               d="m 0,0 v 0.497 c 0,0.07 0.044,0.121 0.148,0.143 -0.012,0.003 -0.02,0.008 -0.03,0.01 -1.031,0 -1.621,0.55 -2.134,1.392 l -1.926,3.086 c -0.493,0.799 -1.085,1.659 -1.867,2.211 1.564,0.265 3.048,1.104 3.048,2.781 0,2.533 -2.59,3.219 -3.812,3.219 -1.599,-0.038 -0.93,0 -3.068,-0.093 -1.447,0 -2.839,0.093 -3.694,0.093 -0.096,0 -0.135,-0.055 -0.135,-0.169 v -0.459 c 0,-0.075 0.039,-0.131 0.116,-0.131 h 0.61 c 0.877,0 1.046,-0.534 1.046,-2.46 V 2.763 c 0,-1.772 -0.151,-2.019 -1.581,-2.113 -0.191,-0.02 -0.228,-0.174 -0.228,-0.269 V 0.02 c 0,-0.116 0.037,-0.131 0.247,-0.131 0.667,0 2.42,0.093 3.221,0.093 0.761,0 1.525,-0.093 2.287,-0.093 0.113,0 0.209,0.015 0.209,0.149 v 0.459 c 0,0.095 -0.038,0.153 -0.151,0.153 -0.859,0 -1.468,0.303 -1.468,1.904 v 4.097 c 1.43,0 1.599,-0.305 2.115,-1.142 l 2.496,-4.347 c 0.552,-0.953 0.724,-1.273 1.144,-1.273 0.382,0 0.876,0.093 1.352,0.093 0.72,0 1.437,-0.065 2.156,-0.09 C 0.053,-0.098 0,-0.063 0,0 m -8.4,7.508 c -0.247,0 -0.515,0 -0.762,0.02 v 3.393 c 0,0.858 0.056,1.561 1.258,1.561 1.636,0 2.381,-1.087 2.381,-2.514 0,-1.679 -1.295,-2.46 -2.877,-2.46"
               inkscape:connector-curvature="0" />
          </g>
          <g
             transform="translate(396.9024,668.2622)"
             id="g264">
            <path
               id="path266"
               style="fill:#760135;fill-opacity:1;fill-rule:nonzero;stroke:none"
               d="m 0,0 c -0.953,0 -1.581,0.134 -1.581,1.197 v 9.588 c 0,0.857 0.494,1.145 1.37,1.145 0.211,0 0.382,0.017 0.382,0.113 v 0.532 c 0,0.096 -0.095,0.114 -0.248,0.114 -0.476,0 -1.601,-0.094 -2.895,-0.094 -1.316,0 -2.421,0.094 -2.688,0.094 -0.134,0 -0.151,-0.076 -0.151,-0.187 v -0.441 c 0,-0.096 0.132,-0.131 0.285,-0.131 0.914,0 1.409,-0.116 1.409,-1.145 V 1.197 C -4.117,0.169 -4.688,0 -5.583,0 -5.63,0 -5.67,-0.005 -5.704,-0.01 c 0.055,-0.023 0.086,-0.058 0.086,-0.104 v -0.647 c 0.959,0.005 1.935,0.093 2.893,0.093 0.897,0 1.79,-0.093 2.687,-0.093 0.154,0 0.247,0.035 0.247,0.209 v 0.378 C 0.209,-0.058 0.153,0 0,0"
               inkscape:connector-curvature="0" />
          </g>
          <g
             transform="translate(391.1845,667.5007)"
             id="g268">
            <path
               id="path270"
               style="fill:#760135;fill-opacity:1;fill-rule:nonzero;stroke:none"
               d="M 0,0 H 0.067 C 0.035,0 0,0.003 -0.033,0.003 -0.02,0.003 -0.01,0 0,0"
               inkscape:connector-curvature="0" />
          </g>
          <g
             transform="translate(391.1984,668.2521)"
             id="g272">
            <path
               id="path274"
               style="fill:#760135;fill-opacity:1;fill-rule:nonzero;stroke:none"
               d="M 0,0 C -0.103,-0.023 -0.148,-0.073 -0.148,-0.144 V -0.64 c 0,-0.063 0.053,-0.099 0.101,-0.109 0.033,0 0.068,-0.002 0.1,-0.002 h 0.033 v 0.648 C 0.086,-0.058 0.055,-0.023 0,0"
               inkscape:connector-curvature="0" />
          </g>
          <g
             transform="translate(410.0676,671.1942)"
             id="g276">
            <path
               id="path278"
               style="fill:#760135;fill-opacity:1;fill-rule:nonzero;stroke:none"
               d="m 0,0 c -0.151,0 -0.247,-0.381 -0.304,-0.494 -0.914,-1.906 -1.829,-2.552 -4.002,-2.552 -3.334,0 -5.41,3.069 -5.41,6.175 0,3.123 1.846,5.982 5.22,5.982 2.27,0 3.068,-1.316 4.098,-3.088 l 0.59,0.151 c 0.095,0.02 0.116,0.058 0.116,0.116 0,0.134 -0.211,1.639 -0.326,2.438 -0.017,0.096 -0.171,0.209 -0.38,0.325 -1.238,0.686 -2.842,1.009 -4.231,1.009 -3.849,0 -7.946,-2.592 -7.946,-6.785 0,-4.762 3.563,-7.278 8.061,-7.278 1.617,0 3.105,0.323 4.592,0.973 l 0.572,2.249 c 0.056,0.207 0.094,0.398 0.094,0.456 C 0.744,-0.151 0.154,0 0,0"
               inkscape:connector-curvature="0" />
          </g>
          <g
             transform="translate(425.0254,668.2622)"
             id="g280">
            <path
               id="path282"
               style="fill:#760135;fill-opacity:1;fill-rule:nonzero;stroke:none"
               d="M 0,0 C -0.741,0 -1.276,0.267 -1.829,1.142 -2.611,2.382 -3.449,3.58 -4.23,4.8 l -2.211,3.431 3.088,3.24 c 0.418,0.418 1.011,0.459 1.733,0.459 0.172,0 0.211,0.073 0.211,0.189 v 0.401 c 0,0.131 -0.096,0.169 -0.267,0.169 -0.59,0 -1.658,-0.094 -2.649,-0.094 -0.876,0 -1.487,0.094 -1.849,0.094 -0.114,0 -0.209,-0.038 -0.209,-0.187 v -0.365 c 0,-0.134 0.039,-0.207 0.171,-0.207 0.86,-0.041 1.334,-0.02 1.334,-0.477 0,-0.839 -3.658,-4.137 -4.44,-4.84 v 3.963 c 0,1.238 0.381,1.354 1.39,1.354 0.192,0 0.287,0.035 0.287,0.169 v 0.403 c 0,0.131 -0.057,0.187 -0.21,0.187 -0.857,0 -1.81,-0.094 -2.743,-0.094 -0.764,0 -1.848,0.094 -2.706,0.094 -0.154,0 -0.247,-0.038 -0.247,-0.187 v -0.345 c 0,-0.154 0.036,-0.227 0.189,-0.227 1.087,0 1.504,-0.099 1.504,-1.583 V 1.218 C -11.854,0.151 -12.366,0 -13.282,0 c -0.229,0 -0.287,-0.096 -0.287,-0.192 v -0.36 c 0,-0.098 0.058,-0.209 0.211,-0.209 0.591,0 1.315,0.093 2.552,0.093 0.916,0 1.812,-0.093 2.936,-0.093 0.153,0 0.211,0.015 0.211,0.111 v 0.476 C -7.659,-0.02 -7.736,0 -7.831,0 -8.651,0 -9.318,0.018 -9.318,1.218 V 5.564 L -8.345,6.288 -5.088,1.16 C -4.916,0.913 -4.707,0.59 -4.707,0.34 -4.707,0.073 -5.183,0.018 -5.984,0 -6.099,0 -6.136,-0.096 -6.136,-0.174 v -0.398 c 0,-0.154 0.078,-0.189 0.21,-0.189 0.554,0 1.238,0.093 2.402,0.093 1.124,0 2.324,-0.093 3.544,-0.093 0.096,0 0.151,0.075 0.151,0.168 v 0.401 C 0.171,-0.096 0.154,0 0,0"
               inkscape:connector-curvature="0" />
          </g>
          <g
             transform="translate(309.3113,675.218)"
             id="g284">
            <path
               id="path286"
               style="fill:#760135;fill-opacity:1;fill-rule:nonzero;stroke:none"
               d="m 0,0 c 0,2.266 -1.853,3.577 -3.409,3.577 -2.807,0 -5.541,-2.397 -5.541,-5.165 0,-2.005 1.423,-3.633 3.296,-3.633 C -3.37,-5.221 0,-3.217 0,0 m -3.687,-3.893 c -0.226,-0.244 -0.806,-0.917 -1.93,-0.917 -1.311,0 -1.572,1.235 -1.572,2.022 0,2.153 1.367,5.955 3.801,5.955 1.311,0 1.628,-1.163 1.628,-2.06 0,-1.367 -0.673,-3.52 -1.927,-5"
               inkscape:connector-curvature="0" />
          </g>
          <g
             transform="translate(317.6233,680.6484)"
             id="g288">
            <path
               id="path290"
               style="fill:#760135;fill-opacity:1;fill-rule:nonzero;stroke:none"
               d="m 0,0 c 0.412,0 0.861,0.32 0.861,0.824 0,0.598 -0.637,0.953 -1.385,0.953 -1.181,0 -2.34,-0.69 -3.051,-1.366 -0.843,-0.766 -1.162,-1.684 -1.442,-2.488 h -1.366 c -0.226,0 -0.319,-0.449 -0.319,-0.449 0,-0.076 0.019,-0.169 0.13,-0.169 h 1.366 c -1.122,-3.726 -1.403,-4.773 -2.488,-8.819 -0.245,-0.915 -0.694,-2.602 -1.442,-2.602 -0.318,0 -0.449,0.376 -0.506,0.562 -0.13,0.374 -0.281,0.805 -0.88,0.805 -0.486,0 -0.804,-0.356 -0.804,-0.789 0,-0.595 0.672,-1.14 1.592,-1.14 0.86,0 1.608,0.376 2.226,0.86 1.199,0.955 1.422,1.576 3.409,8.708 l 0.673,2.415 h 1.797 c 0.205,0 0.301,0.353 0.301,0.449 0,0.073 -0.019,0.169 -0.132,0.169 h -1.78 c 0.263,0.99 0.863,3.201 1.705,3.201 0.207,0 0.317,-0.186 0.449,-0.413 C -0.693,0.056 -0.131,0 0,0"
               inkscape:connector-curvature="0" />
          </g>
          <g
             transform="translate(277.3076,668.2672)"
             id="g292">
            <path
               id="path294"
               style="fill:#760135;fill-opacity:1;fill-rule:nonzero;stroke:none"
               d="m 0,0 c -0.975,0 -1.454,0.381 -1.454,1.79 l 0.009,9.951 h 2.154 c 1.046,0 1.436,-1.24 1.755,-1.773 0.053,-0.093 0.106,-0.133 0.195,-0.133 0.442,0 0.513,0.058 0.513,0.305 0,0.154 -0.353,2.287 -0.443,3.26 0,0.096 -0.052,0.133 -0.124,0.133 H 2.021 C 1.826,13.092 1.453,12.694 0.816,12.694 H -6.06 c -0.64,0 -1.01,0.398 -1.206,0.839 h -0.586 c -0.071,0 -0.124,-0.037 -0.124,-0.133 -0.088,-0.973 -0.443,-3.106 -0.443,-3.26 0,-0.247 0.072,-0.305 0.514,-0.305 0.089,0 0.142,0.04 0.196,0.133 0.318,0.533 0.708,1.773 1.754,1.773 h 2.144 V 1.677 C -3.811,0.305 -4.041,0 -5.352,0 -5.476,0 -5.512,-0.093 -5.512,-0.247 V -0.61 c 0,-0.134 0.124,-0.151 0.318,-0.151 0.515,0 1.099,0.093 2.181,0.093 0.957,0 2.605,-0.093 3.031,-0.093 0.14,0 0.231,0.017 0.231,0.133 v 0.457 C 0.249,-0.058 0.158,0 0,0"
               inkscape:connector-curvature="0" />
          </g>
        </g>
        <g
           id="g4303"
           transform="matrix(0.9999,0,0,0.9999,-30.236409,0.06613914)">
          <g
             transform="translate(211.1876,651.2723)"
             id="g296">
            <path
               id="path298"
               style="fill:#1b458f;fill-opacity:1;fill-rule:nonzero;stroke:none"
               d="m 0,0 c -0.852,0 -1.606,-0.282 -2.215,-0.88 -0.565,-0.55 -0.906,-1.293 -0.906,-2.08 0,-0.817 0.368,-1.669 1.022,-2.181 0.591,-0.468 1.515,-0.726 2.26,-0.726 1.677,0 3.157,1.2 3.157,2.94 C 3.318,-1.097 1.704,0 0,0 m 0.268,-5.544 c -0.663,0 -1.138,0.519 -1.425,1.066 -0.279,0.548 -0.405,1.175 -0.405,1.785 0,0.916 0.359,2.375 1.508,2.375 1.327,0 1.829,-1.774 1.829,-2.841 0,-0.915 -0.349,-2.385 -1.507,-2.385"
               inkscape:connector-curvature="0" />
          </g>
          <g
             transform="translate(225.2365,646.9763)"
             id="g300">
            <path
               id="path302"
               style="fill:#1b458f;fill-opacity:1;fill-rule:nonzero;stroke:none"
               d="m 0,0 c -0.359,0 -0.377,-1.097 -1.677,-1.097 -0.646,0 -0.718,0.351 -0.718,0.827 v 3.192 c 0,0.6 -0.044,0.779 0.566,0.877 0.107,0.02 0.251,0.038 0.251,0.179 0,0.144 -0.099,0.172 -0.223,0.172 -0.423,0 -0.853,-0.036 -1.284,-0.036 -0.466,0 -0.914,0.036 -1.381,0.036 -0.126,0 -0.215,-0.028 -0.215,-0.172 0,-0.151 0.18,-0.159 0.287,-0.179 0.574,-0.098 0.52,-0.33 0.52,-0.877 V -0.27 c 0,-0.585 0.028,-0.728 -0.566,-0.827 -0.107,-0.017 -0.241,-0.08 -0.241,-0.224 0,-0.134 0.089,-0.151 0.215,-0.151 0.699,0 1.417,0.035 2.116,0.035 0.682,0 1.364,-0.035 2.045,-0.035 0.216,0 0.314,-0.063 0.333,0.186 0.026,0.361 0.142,0.729 0.142,1.077 C 0.17,-0.081 0.144,0 0,0"
               inkscape:connector-curvature="0" />
          </g>
          <g
             transform="translate(235.9915,646.9763)"
             id="g304">
            <path
               id="path306"
               style="fill:#1b458f;fill-opacity:1;fill-rule:nonzero;stroke:none"
               d="m 0,0 c -0.358,0 -0.376,-1.097 -1.676,-1.097 -0.646,0 -0.718,0.351 -0.718,0.827 v 3.192 c 0,0.6 -0.045,0.779 0.565,0.877 0.107,0.02 0.251,0.038 0.251,0.179 0,0.144 -0.098,0.172 -0.223,0.172 -0.423,0 -0.852,-0.036 -1.284,-0.036 -0.466,0 -0.913,0.036 -1.381,0.036 -0.125,0 -0.216,-0.028 -0.216,-0.172 0,-0.151 0.181,-0.159 0.289,-0.179 0.574,-0.098 0.519,-0.33 0.519,-0.877 V -0.27 c 0,-0.585 0.027,-0.728 -0.564,-0.827 -0.109,-0.017 -0.244,-0.08 -0.244,-0.224 0,-0.134 0.091,-0.151 0.216,-0.151 0.7,0 1.417,0.035 2.116,0.035 0.682,0 1.364,-0.035 2.046,-0.035 0.213,0 0.313,-0.063 0.33,0.186 0.03,0.361 0.144,0.729 0.144,1.077 C 0.17,-0.081 0.144,0 0,0"
               inkscape:connector-curvature="0" />
          </g>
          <g
             transform="translate(244.7474,649.1621)"
             id="g308">
            <path
               id="path310"
               style="fill:#1b458f;fill-opacity:1;fill-rule:nonzero;stroke:none"
               d="m 0,0 -0.458,0.154 c -0.383,0.123 -0.823,0.305 -0.823,0.776 0,0.525 0.546,0.812 1.014,0.812 0.591,0 0.861,-0.476 1.031,-0.978 0.035,-0.116 0.088,-0.245 0.241,-0.245 0.199,0 0.18,0.2 0.18,0.341 v 0.61 c 0,0.171 0.028,0.313 -0.143,0.406 C 0.764,2.02 0.188,2.11 -0.126,2.11 c -1.03,0 -2.331,-0.63 -2.331,-1.815 0,-0.895 0.87,-1.298 1.578,-1.593 0.558,-0.225 1.338,-0.442 1.338,-1.168 0,-0.645 -0.656,-0.95 -1.22,-0.95 -0.332,0 -0.681,0.081 -0.932,0.323 -0.217,0.214 -0.278,0.456 -0.36,0.743 -0.045,0.154 -0.09,0.421 -0.304,0.421 -0.215,0 -0.179,-0.337 -0.179,-0.484 v -0.491 c 0,-0.298 -0.028,-0.414 0.258,-0.557 0.386,-0.187 1.086,-0.295 1.517,-0.295 0.602,0 1.183,0.151 1.651,0.539 0.42,0.358 0.716,0.867 0.716,1.432 0,1.041 -0.707,1.5 -1.606,1.785"
               inkscape:connector-curvature="0" />
          </g>
          <g
             transform="translate(258.1294,647.1075)"
             id="g312">
            <path
               id="path314"
               style="fill:#1b458f;fill-opacity:1;fill-rule:nonzero;stroke:none"
               d="m 0,0 c -0.117,0 -0.18,-0.088 -0.224,-0.187 -0.162,-0.305 -0.323,-0.6 -0.593,-0.824 -0.268,-0.217 -0.591,-0.343 -0.941,-0.343 -0.646,0 -1.184,0.368 -1.525,0.898 -0.313,0.494 -0.447,1.139 -0.447,1.722 0,0.592 0.142,1.248 0.492,1.739 0.341,0.477 0.888,0.809 1.48,0.809 1.211,0 1.237,-1.068 1.65,-1.068 0.098,0 0.17,0.055 0.17,0.151 0,0.088 -0.018,0.171 -0.036,0.262 l -0.071,0.456 c -0.044,0.252 -0.044,0.288 -0.288,0.358 -0.412,0.116 -0.922,0.192 -1.343,0.192 -0.861,0 -1.822,-0.245 -2.52,-0.756 -0.71,-0.53 -1.157,-1.337 -1.157,-2.222 0,-0.864 0.457,-1.716 1.138,-2.226 0.645,-0.484 1.569,-0.663 2.36,-0.663 0.582,0 1.217,0.109 1.72,0.414 0.278,0.159 0.27,0.277 0.288,0.572 L 0.179,-0.34 C 0.188,-0.204 0.197,0 0,0"
               inkscape:connector-curvature="0" />
          </g>
          <g
             transform="translate(267.7677,651.2723)"
             id="g316">
            <path
               id="path318"
               style="fill:#1b458f;fill-opacity:1;fill-rule:nonzero;stroke:none"
               d="M 0,0 C -0.852,0 -1.605,-0.282 -2.215,-0.88 -2.78,-1.43 -3.12,-2.173 -3.12,-2.96 c 0,-0.817 0.367,-1.669 1.022,-2.181 0.592,-0.468 1.514,-0.726 2.261,-0.726 1.676,0 3.155,1.2 3.155,2.94 C 3.318,-1.097 1.704,0 0,0 m 0.268,-5.544 c -0.661,0 -1.138,0.519 -1.425,1.066 -0.276,0.548 -0.402,1.175 -0.402,1.785 0,0.916 0.358,2.375 1.505,2.375 1.33,0 1.831,-1.774 1.831,-2.841 0,-0.915 -0.351,-2.385 -1.509,-2.385"
               inkscape:connector-curvature="0" />
          </g>
          <g
             transform="translate(280.0934,650.7757)"
             id="g320">
            <path
               id="path322"
               style="fill:#1b458f;fill-opacity:1;fill-rule:nonzero;stroke:none"
               d="m 0,0 c 0.107,0.02 0.251,0.038 0.251,0.179 0,0.144 -0.098,0.171 -0.225,0.171 -0.42,0 -0.852,-0.035 -1.28,-0.035 -0.468,0 -0.917,0.035 -1.382,0.035 -0.126,0 -0.217,-0.027 -0.217,-0.171 0,-0.151 0.182,-0.159 0.288,-0.179 0.575,-0.098 0.52,-0.33 0.52,-0.877 v -3.185 c 0,-0.582 0.027,-0.736 -0.564,-0.834 -0.109,-0.018 -0.244,-0.06 -0.244,-0.207 0,-0.133 0.091,-0.169 0.217,-0.169 0.43,0 0.859,0.036 1.29,0.036 0.467,0 0.915,-0.036 1.381,-0.036 0.118,0 0.216,0.036 0.216,0.169 0,0.164 -0.17,0.189 -0.286,0.207 -0.566,0.091 -0.53,0.305 -0.53,0.834 v 3.185 c 0,0.6 -0.045,0.779 0.565,0.877"
               inkscape:connector-curvature="0" />
          </g>
          <g
             transform="translate(291.09,646.9763)"
             id="g324">
            <path
               id="path326"
               style="fill:#1b458f;fill-opacity:1;fill-rule:nonzero;stroke:none"
               d="m 0,0 c -0.358,0 -0.376,-1.097 -1.677,-1.097 -0.645,0 -0.718,0.351 -0.718,0.827 v 3.192 c 0,0.6 -0.043,0.779 0.565,0.877 0.108,0.02 0.252,0.038 0.252,0.179 0,0.144 -0.099,0.172 -0.225,0.172 -0.421,0 -0.852,-0.036 -1.283,-0.036 -0.466,0 -0.913,0.036 -1.381,0.036 -0.123,0 -0.214,-0.028 -0.214,-0.172 0,-0.151 0.18,-0.159 0.287,-0.179 0.574,-0.098 0.519,-0.33 0.519,-0.877 V -0.27 c 0,-0.585 0.028,-0.728 -0.565,-0.827 -0.108,-0.017 -0.241,-0.08 -0.241,-0.224 0,-0.134 0.091,-0.151 0.214,-0.151 0.7,0 1.419,0.035 2.117,0.035 0.681,0 1.364,-0.035 2.045,-0.035 0.214,0 0.315,-0.063 0.333,0.186 0.027,0.361 0.143,0.729 0.143,1.077 C 0.171,-0.081 0.144,0 0,0"
               inkscape:connector-curvature="0" />
          </g>
          <g
             transform="translate(310.0398,646.9763)"
             id="g328">
            <path
               id="path330"
               style="fill:#1b458f;fill-opacity:1;fill-rule:nonzero;stroke:none"
               d="m 0,0 c -0.358,0 -0.376,-1.097 -1.674,-1.097 -0.648,0 -0.719,0.351 -0.719,0.827 v 3.192 c 0,0.6 -0.045,0.779 0.565,0.877 0.106,0.02 0.252,0.038 0.252,0.179 0,0.144 -0.098,0.172 -0.224,0.172 -0.421,0 -0.852,-0.036 -1.283,-0.036 -0.467,0 -0.915,0.036 -1.382,0.036 -0.123,0 -0.214,-0.028 -0.214,-0.172 0,-0.151 0.179,-0.159 0.287,-0.179 0.573,-0.098 0.52,-0.33 0.52,-0.877 V -0.27 c 0,-0.585 0.027,-0.728 -0.565,-0.827 -0.108,-0.017 -0.242,-0.08 -0.242,-0.224 0,-0.134 0.091,-0.151 0.214,-0.151 0.699,0 1.417,0.035 2.115,0.035 0.684,0 1.364,-0.035 2.045,-0.035 0.217,0 0.315,-0.063 0.333,0.186 0.027,0.361 0.146,0.729 0.146,1.077 C 0.174,-0.081 0.146,0 0,0"
               inkscape:connector-curvature="0" />
          </g>
          <g
             transform="translate(322.3303,651.1261)"
             id="g332">
            <path
               id="path334"
               style="fill:#1b458f;fill-opacity:1;fill-rule:nonzero;stroke:none"
               d="M 0,0 C -0.267,0 -0.537,-0.018 -0.797,-0.018 -1.066,-0.018 -1.336,0 -1.603,0 -1.74,0 -1.908,0 -1.908,-0.181 c 0,-0.205 0.204,-0.149 0.35,-0.169 0.197,-0.026 0.376,-0.071 0.474,-0.26 0.088,-0.189 0.081,-0.519 0.081,-0.716 v -2.277 c 0,-0.441 0.017,-0.864 -0.278,-1.23 -0.297,-0.386 -0.799,-0.502 -1.265,-0.502 -0.53,0 -1.059,0.197 -1.263,0.726 -0.137,0.313 -0.126,1.042 -0.126,1.407 v 1.974 c 0,0.6 -0.046,0.779 0.564,0.878 0.109,0.02 0.25,0.037 0.25,0.179 0,0.143 -0.096,0.171 -0.225,0.171 -0.418,0 -0.852,-0.035 -1.28,-0.035 -0.467,0 -0.915,0.035 -1.382,0.035 -0.126,0 -0.214,-0.028 -0.214,-0.171 0,-0.152 0.179,-0.159 0.287,-0.179 0.573,-0.099 0.52,-0.331 0.52,-0.878 v -2.448 c 0,-0.69 0.088,-1.248 0.736,-1.641 0.502,-0.305 1.2,-0.403 1.792,-0.403 0.638,0 1.284,0.116 1.785,0.519 0.537,0.441 0.53,0.978 0.53,1.598 v 2.33 c 0,0.161 0.007,0.474 0.053,0.638 0.073,0.222 0.196,0.259 0.403,0.285 0.134,0.02 0.323,-0.008 0.323,0.169 C 0.207,-0.053 0.108,0 0,0"
               inkscape:connector-curvature="0" />
          </g>
          <g
             transform="translate(331.2702,650.7757)"
             id="g336">
            <path
               id="path338"
               style="fill:#1b458f;fill-opacity:1;fill-rule:nonzero;stroke:none"
               d="m 0,0 c 0.106,0.02 0.25,0.038 0.25,0.179 0,0.144 -0.099,0.171 -0.225,0.171 -0.421,0 -0.852,-0.035 -1.283,-0.035 -0.464,0 -0.915,0.035 -1.382,0.035 -0.123,0 -0.214,-0.027 -0.214,-0.171 0,-0.151 0.179,-0.159 0.287,-0.179 0.575,-0.098 0.522,-0.33 0.522,-0.877 v -3.185 c 0,-0.582 0.026,-0.736 -0.567,-0.834 -0.108,-0.018 -0.242,-0.06 -0.242,-0.207 0,-0.133 0.091,-0.169 0.214,-0.169 0.432,0 0.863,0.036 1.294,0.036 0.464,0 0.912,-0.036 1.381,-0.036 0.116,0 0.215,0.036 0.215,0.169 0,0.164 -0.172,0.189 -0.288,0.207 -0.565,0.091 -0.529,0.305 -0.529,0.834 v 3.185 c 0,0.6 -0.046,0.779 0.567,0.877"
               inkscape:connector-curvature="0" />
          </g>
          <g
             transform="translate(344.5842,645.8721)"
             id="g340">
            <path
               id="path342"
               style="fill:#1b458f;fill-opacity:1;fill-rule:nonzero;stroke:none"
               d="m 0,0 c -0.156,0.008 -0.27,0.035 -0.343,0.187 -0.07,0.161 -0.081,0.458 -0.091,0.63 L -0.532,4.17 c -0.008,0.35 -0.053,0.708 0.376,0.734 0.136,0.01 0.37,-0.018 0.37,0.163 0,0.159 -0.126,0.187 -0.262,0.187 h -1.729 c -0.172,0 -0.19,-0.181 -0.242,-0.313 L -3.366,1.74 -4.755,5.012 c -0.07,0.161 -0.063,0.242 -0.249,0.242 h -1.669 c -0.144,0 -0.351,0 -0.351,-0.187 0,-0.181 0.252,-0.153 0.386,-0.163 0.456,-0.026 0.403,-0.215 0.386,-0.618 L -6.431,0.681 C -6.452,0.348 -6.414,0.053 -6.81,0 c -0.133,-0.018 -0.375,-0.028 -0.375,-0.209 0,-0.141 0.108,-0.159 0.224,-0.159 0.27,0 0.537,0.018 0.817,0.018 0.267,0 0.537,-0.018 0.807,-0.018 0.116,0 0.269,0.035 0.269,0.187 0,0.216 -0.297,0.199 -0.431,0.199 -0.511,0 -0.511,0.393 -0.494,0.806 l 0.116,3.114 1.669,-3.956 c 0.063,-0.163 0.099,-0.287 0.288,-0.287 0.277,0 0.305,0.242 0.378,0.456 l 1.586,3.847 0.063,-3.353 C -1.886,0.305 -1.876,0.063 -2.289,0.018 -2.44,0 -2.7,0.008 -2.7,-0.209 c 0,-0.149 0.144,-0.159 0.26,-0.159 0.385,0 0.761,0.035 1.137,0.035 0.451,0 0.879,-0.035 1.326,-0.035 0.128,0 0.325,0 0.325,0.179 C 0.348,-0.01 0.124,-0.01 0,0"
               inkscape:connector-curvature="0" />
          </g>
          <g
             transform="translate(357.2276,651.1261)"
             id="g344">
            <path
               id="path346"
               style="fill:#1b458f;fill-opacity:1;fill-rule:nonzero;stroke:none"
               d="M 0,0 C -0.26,0 -0.529,-0.018 -0.787,-0.018 -1.059,-0.018 -1.319,0 -1.588,0 c -0.134,0 -0.331,0 -0.331,-0.187 0,-0.199 0.189,-0.143 0.341,-0.163 0.207,-0.026 0.386,-0.089 0.484,-0.305 0.073,-0.159 0.073,-0.457 0.073,-0.636 v -2.181 l -2.567,3.177 C -3.812,-0.018 -3.784,0 -4.142,0 H -5.72 c -0.126,0 -0.306,0 -0.306,-0.159 0,-0.199 0.207,-0.181 0.351,-0.191 0.446,-0.026 0.413,-0.432 0.413,-0.779 v -2.789 c 0,-0.305 0.018,-0.781 -0.083,-1.059 -0.073,-0.196 -0.179,-0.259 -0.375,-0.269 -0.144,-0.008 -0.371,0.01 -0.371,-0.189 0,-0.142 0.118,-0.187 0.245,-0.187 0.277,0 0.567,0.035 0.852,0.035 0.287,0 0.554,-0.035 0.842,-0.035 0.126,0 0.27,0.035 0.27,0.187 0,0.199 -0.25,0.181 -0.379,0.189 -0.239,0.017 -0.428,0.073 -0.519,0.34 -0.063,0.189 -0.063,0.655 -0.063,0.87 v 2.96 l 3.542,-4.42 c 0.126,-0.161 0.242,-0.35 0.467,-0.35 0.305,0 0.262,0.161 0.262,0.411 v 4.253 c 0,0.35 -0.056,0.779 0.365,0.832 0.154,0.02 0.459,-0.043 0.459,0.169 C 0.252,-0.028 0.136,0 0,0"
               inkscape:connector-curvature="0" />
          </g>
          <g
             transform="translate(366.4321,650.7757)"
             id="g348">
            <path
               id="path350"
               style="fill:#1b458f;fill-opacity:1;fill-rule:nonzero;stroke:none"
               d="m 0,0 c 0.106,0.02 0.25,0.038 0.25,0.179 0,0.144 -0.096,0.171 -0.222,0.171 -0.421,0 -0.855,-0.035 -1.283,-0.035 -0.467,0 -0.916,0.035 -1.379,0.035 -0.129,0 -0.217,-0.027 -0.217,-0.171 0,-0.151 0.179,-0.159 0.287,-0.179 0.572,-0.098 0.52,-0.33 0.52,-0.877 v -3.185 c 0,-0.582 0.025,-0.736 -0.565,-0.834 -0.109,-0.018 -0.242,-0.06 -0.242,-0.207 0,-0.133 0.088,-0.169 0.217,-0.169 0.428,0 0.859,0.036 1.288,0.036 0.466,0 0.915,-0.036 1.381,-0.036 0.119,0 0.215,0.036 0.215,0.169 0,0.164 -0.169,0.189 -0.288,0.207 -0.562,0.091 -0.529,0.305 -0.529,0.834 v 3.185 c 0,0.6 -0.043,0.779 0.567,0.877"
               inkscape:connector-curvature="0" />
          </g>
          <g
             transform="translate(378.9244,648.3377)"
             id="g352">
            <path
               id="path354"
               style="fill:#1b458f;fill-opacity:1;fill-rule:nonzero;stroke:none"
               d="m 0,0 -0.358,-0.035 h -2.1 c -0.144,0 -0.358,-0.008 -0.358,-0.207 0,-0.154 0.126,-0.189 0.249,-0.189 0.21,-0.008 0.452,0.01 0.585,-0.179 0.126,-0.179 0.099,-0.582 0.099,-0.797 v -0.378 c 0,-0.161 0.007,-0.476 -0.091,-0.608 -0.098,-0.136 -0.439,-0.173 -0.593,-0.173 -1.406,0 -1.936,1.416 -1.936,2.609 0,0.577 0.136,1.23 0.459,1.712 0.333,0.486 0.86,0.812 1.47,0.812 1.238,0 1.157,-1.069 1.588,-1.069 0.134,0 0.204,0.073 0.204,0.206 0,0.134 -0.035,0.303 -0.063,0.439 -0.08,0.529 -0.007,0.504 -0.491,0.618 -0.404,0.098 -0.789,0.174 -1.203,0.174 -1.767,0 -3.585,-1.115 -3.585,-3.043 0,-0.87 0.411,-1.687 1.127,-2.179 0.656,-0.456 1.581,-0.645 2.377,-0.645 0.53,0 1.122,0.081 1.616,0.285 0.169,0.081 0.601,0.305 0.601,0.539 0,0.116 -0.018,0.232 -0.028,0.343 l -0.043,0.815 c -0.018,0.403 0.035,0.466 0.411,0.547 0.123,0.027 0.28,0.055 0.28,0.224 C 0.217,-0.043 0.126,0 0,0"
               inkscape:connector-curvature="0" />
          </g>
          <g
             transform="translate(391.5778,650.7228)"
             id="g356">
            <path
               id="path358"
               style="fill:#1b458f;fill-opacity:1;fill-rule:nonzero;stroke:none"
               d="M 0,0 C 0.111,0.018 0.255,0.033 0.255,0.176 0.257,0.32 0.159,0.348 0.035,0.35 -0.388,0.358 -0.817,0.33 -1.25,0.335 -1.714,0.345 -2.163,0.386 -2.629,0.393 -2.755,0.396 -2.844,0.371 -2.846,0.229 -2.851,0.076 -2.672,0.063 -2.564,0.045 c 0.572,-0.111 0.514,-0.34 0.507,-0.887 l -0.015,-0.87 c -0.005,-0.333 0.005,-0.325 -0.3,-0.32 l -1.599,0.028 c -0.312,0.005 -0.32,0.005 -0.315,0.327 l 0.015,0.87 c 0.01,0.6 -0.033,0.782 0.58,0.87 0.106,0.015 0.25,0.03 0.252,0.174 0.003,0.146 -0.096,0.174 -0.219,0.176 -0.424,0.005 -0.855,-0.022 -1.286,-0.017 -0.466,0.01 -0.913,0.053 -1.379,0.06 -0.126,0.003 -0.214,-0.022 -0.219,-0.169 -0.003,-0.151 0.176,-0.161 0.285,-0.181 0.572,-0.109 0.514,-0.341 0.506,-0.89 l -0.053,-3.182 c -0.01,-0.582 0.013,-0.733 -0.579,-0.822 -0.109,-0.017 -0.242,-0.06 -0.245,-0.204 -0.002,-0.133 0.086,-0.174 0.212,-0.176 0.431,-0.005 0.859,0.025 1.293,0.015 0.464,-0.005 0.913,-0.048 1.379,-0.056 0.116,-0.002 0.217,0.031 0.217,0.167 0.002,0.161 -0.166,0.189 -0.282,0.209 -0.565,0.101 -0.522,0.313 -0.517,0.842 l 0.022,1.258 c 0.005,0.368 -0.022,0.333 0.356,0.325 l 1.596,-0.027 c 0.239,-0.005 0.259,0.025 0.265,-0.217 L -2.11,-4.026 c -0.01,-0.583 0.015,-0.736 -0.58,-0.825 -0.106,-0.017 -0.242,-0.06 -0.244,-0.201 0,-0.136 0.088,-0.172 0.211,-0.174 0.431,-0.008 0.862,0.02 1.294,0.015 0.466,-0.01 0.912,-0.053 1.379,-0.061 0.118,-0.002 0.216,0.033 0.216,0.167 0.005,0.161 -0.166,0.191 -0.282,0.212 -0.562,0.098 -0.522,0.312 -0.514,0.841 l 0.053,3.185 C -0.567,-0.265 -0.61,-0.088 0,0"
               inkscape:connector-curvature="0" />
          </g>
        </g>
      </g>
    </g>
  </g>
</svg>
