<?xml version="1.0" encoding="UTF-8" standalone="no"?>
<!-- Created with Inkscape (http://www.inkscape.org/) -->

<svg
   xmlns:dc="http://purl.org/dc/elements/1.1/"
   xmlns:cc="http://creativecommons.org/ns#"
   xmlns:rdf="http://www.w3.org/1999/02/22-rdf-syntax-ns#"
   xmlns:svg="http://www.w3.org/2000/svg"
   xmlns="http://www.w3.org/2000/svg"
   xmlns:sodipodi="http://sodipodi.sourceforge.net/DTD/sodipodi-0.dtd"
   xmlns:inkscape="http://www.inkscape.org/namespaces/inkscape"
   width="680"
   height="500"
   viewBox="0 0 179.91666 132.29167"
   version="1.1"
   id="svg836"
   inkscape:version="0.92.4 (unknown)"
   sodipodi:docname="featured.svg"
   inkscape:export-filename="/home/rschmehl/awesco.eu/content/consortium/partner08/featured.png"
   inkscape:export-xdpi="96"
   inkscape:export-ydpi="96">
  <defs
     id="defs830">
    <clipPath
       id="clipPath2478">
      <path
         inkscape:connector-curvature="0"
         d="m 392.249,740.608 h 175.625 v 30.415 H 392.249 Z"
         id="path2480" />
    </clipPath>
    <clipPath
       id="clipPath2510">
      <path
         inkscape:connector-curvature="0"
         d="m 388.346,735.248 h 179.527 v 35.776 H 388.346 Z"
         id="path2512" />
    </clipPath>
    <clipPath
       id="clipPath2526">
      <path
         inkscape:connector-curvature="0"
         d="m 392.249,740.608 h 175.625 v 30.415 H 392.249 Z"
         id="path2528" />
    </clipPath>
    <clipPath
       id="clipPath2542">
      <path
         inkscape:connector-curvature="0"
         d="m 388.346,735.248 h 179.527 v 35.776 H 388.346 Z"
         id="path2544" />
    </clipPath>
  </defs>
  <sodipodi:namedview
     id="base"
     pagecolor="#ffffff"
     bordercolor="#666666"
     borderopacity="1.0"
     inkscape:pageopacity="0.0"
     inkscape:pageshadow="2"
     inkscape:zoom="1.385"
     inkscape:cx="233.25425"
     inkscape:cy="229.15936"
     inkscape:document-units="px"
     inkscape:current-layer="layer1"
     showgrid="false"
     units="px"
     showguides="true"
     inkscape:guide-bbox="true"
     inkscape:window-width="1920"
     inkscape:window-height="1022"
     inkscape:window-x="0"
     inkscape:window-y="0"
     inkscape:window-maximized="1">
    <sodipodi:guide
       position="0,0"
       orientation="1,0"
       id="guide1444"
       inkscape:locked="false"
       inkscape:label=""
       inkscape:color="rgb(0,0,255)" />
    <sodipodi:guide
       position="179.91667,0"
       orientation="1,0"
       id="guide1446"
       inkscape:locked="false"
       inkscape:label=""
       inkscape:color="rgb(0,0,255)" />
    <sodipodi:guide
       position="0,0"
       orientation="0,1"
       id="guide1448"
       inkscape:locked="false" />
    <sodipodi:guide
       position="0,132.29167"
       orientation="0,1"
       id="guide1450"
       inkscape:locked="false"
       inkscape:label=""
       inkscape:color="rgb(0,0,255)" />
  </sodipodi:namedview>
  <metadata
     id="metadata833">
    <rdf:RDF>
      <cc:Work
         rdf:about="">
        <dc:format>image/svg+xml</dc:format>
        <dc:type
           rdf:resource="http://purl.org/dc/dcmitype/StillImage" />
        <dc:title />
      </cc:Work>
    </rdf:RDF>
  </metadata>
  <g
     inkscape:label="Layer 1"
     inkscape:groupmode="layer"
     id="layer1"
     transform="translate(0,-164.70832)">
    <g
       transform="matrix(0.81967739,0,0,0.81967739,-217.40653,-206.88047)"
       id="layer1-7">
      <g
         transform="matrix(1.25,0,0,-1.25,-225.07698,1477.1316)"
         id="g2474">
        <g
           clip-path="url(#clipPath2478)"
           id="g2476">
          <g
             transform="translate(400.0583,770.9676)"
             id="g2482">
            <path
               inkscape:connector-curvature="0"
               d="m 0,0 h 28.01 c 1.648,0 2.686,-1.419 2.317,-3.17 l -4.081,-19.314 c -0.369,-1.738 -2.005,-3.157 -3.654,-3.157 H -5.417 c -1.649,0 -2.687,1.419 -2.317,3.157 L -3.66,-3.17 C -3.291,-1.419 -1.655,0 0,0"
               style="fill:#faba00;fill-opacity:1;fill-rule:nonzero;stroke:none"
               id="path2484" />
          </g>
          <g
             transform="translate(428.0678,770.9676)"
             id="g2486">
            <path
               inkscape:connector-curvature="0"
               d="m 61.875,0 c -1.9175,0 -2.692498,0.13750001 -3.28125,0.3125 -1.385,0.45375 -2.697501,1.7062499 -3.4375,3.28125 -1.2175,2.57 -2.25,6.6775 -2.25,8.96875 0,2.1725 1.171252,3.725 3.8125,5.03125 L 59.25,18.8125 c 2.5625,1.28125 3.218752,1.74 3.21875,3.125 0,2.72125 -1.228752,3.75 -4.53125,3.75 h -4.125 L 51.09375,25.65625 H 50.625 c -0.76375,0 -1.21625,0.28 -1.34375,0.8125 -0.2225,0.92375 -0.46875,2.2875 -0.46875,2.3125 -0.12,0.46125 -0.1875,0.897501 -0.1875,1.375 0,1.18625 0.506251,1.8125 3.15625,1.8125 h 8.875 c 2.41875,0 3.499999,-0.177501 4.78125,-0.75 1.76625,-0.89125 3.212496,-2.701251 3.96875,-4.96875 0.915,-2.8725 1.656248,-6.539999 1.65625,-8.1875 0,-2.29125 -0.906252,-3.45 -3.875,-4.9375 l -3.125,-1.59375 c -2.03625,-1.0025 -2.374999,-1.3025 -2.375,-2.71875 0,-2.39625 1.027498,-3.1562498 4.25,-3.15625 h 3.84375 C 71.365,5.65625 71.768753,5.355 72.0625,3.875 L 72.625,1.3125 C 72.7125,1.0575 72.83125,0.44125 72.65625,0.21875 72.49,0.02 71.941251,-0.02375 71.6875,0 Z M 85.09375,0 80.875,0.03125 C 80.62875,0.015 79.9275,-0.00374999 79.625,0.25 79.425,0.41 79.106248,0.93375011 78.84375,2.4375 L 78.8125,2.65625 c -0.025,0.21375 -0.05125,0.53875 -0.25,1.375 l -5.34375,24.625 c -0.1675,0.67625 -0.249996,1.281249 -0.25,1.71875 -0.01625,0.3175 0.04375,0.55125 0.21875,0.75 0.28625,0.3275 0.87625,0.5 1.6875,0.5 h 4.46875 c 0.2225,0.0075 0.892499,-0.02 1.21875,-0.21875 0.58875,-0.35 0.67,-0.8925 0.78125,-1.65625 l 0.09375,-0.53125 0.03125,-0.25 c 0.0325,-0.23125 0.05875,-0.58 0.21875,-1.34375 l 1.875,-8.4375 h 1.5625 c 1.21,0 2.437503,0.155001 2.4375,1.5 0,0.3175 -0.06875,0.787499 -0.15625,1.3125 l -0.03125,0.1875 -1.4375,6.59375 c -0.1825,0.76375 -0.281251,1.364999 -0.28125,1.53125 0,0.8275 0.681247,1.3125 1.875,1.3125 h 4.25 c 0.28625,0.0075 1.108751,-0.01 1.5,-0.28125 0.42125,-0.31 0.598753,-1.06125 0.8125,-2 l 0.03125,-0.125 0.03125,-0.25 c 0.025,-0.23875 0.05875,-0.6125 0.25,-1.34375 l 1.5,-6.96875 c 0.1675,-0.77125 0.249997,-1.53625 0.25,-2.125 0,-2.34 -1.242498,-3.46875 -3.78125,-3.46875 H 90.6875 L 91.0625,14.65625 97.25,8.0625 c 0.31,-0.37375 0.468749,-0.6512501 0.46875,-0.90625 0,-0.3575 -0.153754,-0.6875 -1.15625,-0.6875 H 93.28125 L 92.625,6.53125 C 92.1875,6.73 91.540003,7.45875 91.0625,8 l -0.4375,0.46875 -0.65625,0.75 -0.78125,0.875 -4.875,5.34375 L 84.5,14.625 87.1875,2.5 87.25,2.0625 C 87.305,1.76875 87.375,1.52625 87.375,1.375 87.39125,1.01 87.299996,0.73000001 87.125,0.53125 86.8075,0.18875 86.143751,0 85.09375,0 Z M 135.25,0 c -1.9175,0 -2.69251,0.13750001 -3.28125,0.3125 -1.39125,0.45375 -2.72874,1.7062499 -3.46875,3.28125 -1.2175,2.57 -2.25,6.6775 -2.25,8.96875 0,2.1725 1.20249,3.725 3.84375,5.03125 l 2.53125,1.21875 c 2.555,1.28125 3.21876,1.74 3.21875,3.125 0,2.72125 -1.22875,3.75 -4.53125,3.75 h -4.125 l -2.71875,-0.03125 H 124 c -0.76375,0 -1.21625,0.28 -1.34375,0.8125 -0.2225,0.92375 -0.46875,2.2875 -0.46875,2.3125 -0.12,0.46125 -0.1875,0.897501 -0.1875,1.375 0,1.18625 0.475,1.8125 3.125,1.8125 h 8.90625 c 2.41,0 3.46875,-0.177501 4.75,-0.75 1.76625,-0.89125 3.245,-2.701251 4,-4.96875 0.9075,-2.8725 1.65626,-6.539999 1.65625,-8.1875 0,-2.29125 -0.915,-3.45 -3.875,-4.9375 l -3.125,-1.59375 c -2.02125,-1.0025 -2.40624,-1.3025 -2.40625,-2.71875 0,-2.39625 1.03501,-3.1562498 4.25,-3.15625 h 3.875 c 1.57625,0 1.9875,-0.30125 2.28125,-1.78125 L 146,1.3125 c 0.0875,-0.255 0.20624,-0.87125 0.0312,-1.09375 C 145.865,0.02 145.3175,-0.02375 145.0625,0 Z m 44.15625,0 c -0.18594,0.02078125 -0.37375,0.09625 -0.46875,0.1875 -0.13625,0.135 -0.24125,0.44249999 -0.28125,0.625 L 178.25,2.625 c -0.04,0.18375 -0.0625,0.4512501 -0.0625,0.53125 0,0.98625 0.50125,1.40625 1.6875,1.40625 h 4.53125 C 184.8675,4.57 185.69,4.46625 185.9375,4.21875 186.1925,3.9725 186.34375,3.45 186.375,3.25 L 186.65625,2 c 0.0563,-0.31125 0.0625,-0.54375 0.0625,-0.71875 C 186.71875,0.39 186.41124,0 184.40625,0 h -4.46875 -0.0312 c -0.13875,-0.015625 -0.31406,-0.02078125 -0.5,0 z m 15.125,0 C 194.18875,-0.00875 193.195,0.03999999 192.75,0.40625 192.24,0.82 192.12749,1.3625 192,2.03125 l -0.0312,0.3125 -0.15625,0.625 -0.21875,1.0625 -5.46875,25.28125 h -0.0312 c -0.11125,0.36625 -0.15625,0.6975 -0.15625,1 -0.015,0.31 0.0588,0.566249 0.25,0.78125 0.3025,0.3425 0.82375,0.53125 1.46875,0.53125 h 3.40625 c 0.0163,0 1.91624,0.153749 2.65625,-0.59375 0.35,-0.3425 0.49751,-0.972501 0.625,-1.625 l 0.0312,-0.1875 0.3125,-1.46875 0.0312,-0.125 5.5,-25.28125 C 200.3775,1.755 200.375,1.37 200.375,1.21875 200.375,0.59 200.13375,0 198.375,0 Z M 9.75,0.0625 c -2.0674998,0 -4.10125,1.78 -4.5625,3.96875 L 3.875,10.1875 C 4.94125,9.7012498 6.05,9.235 7.15625,8.78125 24.85375,1.4687503 40.6475,1.72875 42.4375,9.34375 c 1.273751,5.3875 -4.81125,13.02 -14.75,19.625 C 32.27875,24.8225 40.90125,16.3425 35.1875,16 c -6.093749,-0.3575 -15.88,3.48 -28,10.1875 C 4.475,27.6925 2.19,29.20125 0.34375,30.5625 0.82875,31.50875 1.79125,32.125 3,32.125 H 22.4375 23.3125 38 c 2.061249,10e-7 4.10125,-1.765 4.5625,-3.9375 L 47.65625,4.03125 C 48.1175,1.8424998 46.8425,0.0625 44.78125,0.0625 Z m 145.21875,6.375 c -0.37916,0.00311 -0.92813,0.074687 -1.125,0.34375 -0.12749,0.1675002 -0.22625,0.52875 -0.25,0.65625 l -0.5,2.4375 L 153.0625,10 C 153.02375,10.2225 153,10.41 153,10.59375 c 1e-5,0.605 0.2125,1.1875 1.78125,1.1875 h 5.84375 c 1.0575,0 1.625,0.1625 1.625,1.125 -1e-5,1.94125 -0.7375,2.25 -3.125,2.25 h -3.21875 c -3.31001,0 -4.48125,0.3875 -5.96875,1.875 -1.735,1.791249 -3.25,6.48875 -3.25,10.09375 0,3.28625 1.77375,4.84375 5.59375,4.84375 3.34125,1e-6 3.44375,-0.0575 5.71875,-3.3125 l 0.6875,-1 0.375,0.15625 -0.3125,1.59375 c -0.1275,0.4625 -0.15625,0.8725 -0.15625,1 0,0.628749 0.21125,1.21875 1.9375,1.21875 h 4.25 c 0.27,0.0075 1.06375,-0.01 1.4375,-0.28125 0.54124,-0.3825 0.63875,-0.98 0.75,-1.65625 l 0.0937,-0.4375 0.0312,-0.15625 0.3125,-1.46875 3.34375,-15.4375 c 0.15125,-0.79625 0.21875,-1.345 0.21875,-1.71875 -1e-5,-1.3687502 -0.85375,-2.81 -2,-3.34375 -0.94624,-0.5012499 -1.95,-0.65625 -4.3125,-0.65625 h -9.375 c -0.0716,-0.00812 -0.18611,-0.032285 -0.3125,-0.03125 z m 62.96875,0 c -0.18484,-0.00342 -0.35719,0.02125 -0.46875,0.03125 H 210 c -3.54875,0 -4.7275,0.4137503 -5.96875,2.1875 -1.01875,1.5125 -1.84376,4.745 -1.84375,7.1875 0,2.045 0.675,3.100001 2.625,4.0625 l 3.5,1.6875 c 1.59875,0.80375 2.15626,1.2425 2.15625,2.125 0,1.36125 -0.92374,1.624999 -2.5625,1.625 h -4.34375 -0.625 c -1.345,-0.0225 -2.38375,-0.05 -3.15625,1.03125 -0.27875,0.40625 -0.53124,1.2025 -0.53125,1.1875 l -0.375,1.8125 c -0.0888,0.35125 -0.15626,0.71375 -0.15625,1 0,0.78 0.3525,1.25 2.0625,1.25 h 9.34375 c 3.11875,0 4.70875,-0.519999 6.0625,-2 1.29625,-1.4175 2.53125,-5.37875 2.53125,-8.15625 0,-1.89375 -0.7275,-2.935 -2.8125,-3.96875 l -4.34375,-2.125 c -1.28875,-0.6375 -1.59375,-0.885 -1.59375,-1.65625 0,-1.3775 0.81876,-1.625 2.65625,-1.625 h 4.125 c 1.49625,0 1.94,-0.34125 2.28125,-1.78125 L 219.5,8.09375 c 0,-0.0075 0.0313,-0.2062501 0.0312,-0.46875 0,-0.20625 -0.0375,-0.4500001 -0.125,-0.65625 -0.17344,-0.4003125 -0.91422,-0.520996 -1.46875,-0.53125 z m -116.75,0.03125 c -0.7,0.01625 -1.427499,0.1612499 -1.5,0.3125 -0.0325,0.135 -0.0625,0.2487498 -0.0625,0.375 0,0.35125 0.112503,0.8024999 0.375,1.78125 l 0.21875,0.78125 4.6875,18.03125 -4.65625,8.34375 c -0.28625,0.51 -0.437503,0.947499 -0.4375,1.25 0,0.335 0.10375,0.687501 1.25,0.6875 h 3.59375 c 0.0162,0 1.5175,0.025 2.25,-0.46875 0.565,-0.37375 0.78375,-0.746251 1.125,-1.375 l 0.0937,-0.15625 0.375,-0.625 0.75,-1.375 14.03125,-25.125 c 0.36625,-0.6525 0.5625,-1.1812498 0.5625,-1.53125 0,-0.8025 -1.00625,-0.9062502 -1.59375,-0.90625 h -3.75 c -0.255,-0.01625 -1.00875,-0.0125 -1.375,0.21875 -0.66875,0.42125 -1.22125,1.4837497 -1.46875,1.9375 l -0.4375,0.8125 -0.71875,1.25 -4.28125,7.875 -2.34375,-10.25 c -0.3825,-1.62375 -0.7,-1.8437502 -2.5625,-1.84375 z m 77.3125,0 C 178.29312,6.491562 178.05312,6.545625 177.90625,6.625 177.25375,6.94375 177.135,7.6575004 177,8.40625 l -0.0937,0.46875 -0.125,0.53125 -0.25,1.0625 L 172.5,29.0625 c -0.1275,0.605 -0.21875,1.079999 -0.21875,1.40625 -0.0163,0.2775 0.06,0.505001 0.21875,0.6875 0.27875,0.31 0.82249,0.46875 1.59375,0.46875 h 3.125 c 0.025,0 1.89375,0.13 2.625,-0.59375 0.52625,-0.50875 0.64626,-0.93875 0.8125,-1.78125 l 0.125,-0.4375 0.28125,-1.1875 4.1875,-19 V 8.46875 c 0.0312,-0.28625 0.0625,-0.5337501 0.0625,-0.84375 0,-0.71625 -0.34375,-1.15625 -2.09375,-1.15625 H 179 c -0.0994,-0.00437 -0.29312,-0.022812 -0.5,0 z M 159.59375,19.1875 h 1.125 H 161 l -1.4375,6.40625 h -1.40625 c -1.94125,0 -2.8125,-0.275 -2.8125,-1.90625 0,-0.92375 0.3825,-2.31375 0.84375,-3.09375 0.66875,-1.24125 1.31375,-1.40625 3.40625,-1.40625 z"
               transform="matrix(0.8,0,0,-0.8,-35.818336,0.0554)"
               style="fill:#003b79;fill-opacity:1;fill-rule:nonzero;stroke:none"
               id="path2488" />
          </g>
          <g
             transform="translate(438.6035,750.4698)"
             id="g2490" />
          <g
             transform="translate(455.7338,745.7206)"
             id="g2494" />
          <g
             transform="translate(484.412,763.4749)"
             id="g2498" />
          <g
             transform="translate(539.7816,767.3772)"
             id="g2502" />
        </g>
      </g>
      <g
         transform="matrix(1.25,0,0,-1.25,-225.07698,1477.1316)"
         id="g2506">
        <g
           clip-path="url(#clipPath2510)"
           id="g2508">
          <g
             transform="translate(534.0331,745.7206)"
             id="g2514" />
          <g
             transform="translate(545.1033,745.7206)"
             id="g2518" />
        </g>
      </g>
      <g
         transform="matrix(1.25,0,0,-1.25,-225.07698,1477.1316)"
         id="g2522">
        <g
           clip-path="url(#clipPath2526)"
           id="g2524">
          <g
             transform="translate(558.5737,750.7434)"
             id="g2530" />
          <g
             transform="translate(497.2965,750.4698)"
             id="g2534" />
        </g>
      </g>
      <g
         transform="matrix(1.25,0,0,-1.25,-225.07698,1477.1316)"
         id="g2538">
        <g
           clip-path="url(#clipPath2542)"
           id="g2540">
          <g
             transform="translate(527.432,765.3339)"
             id="g2546" />
        </g>
      </g>
    </g>
  </g>
</svg>
