<?xml version="1.0" encoding="UTF-8" standalone="no"?>
<!-- Created with Inkscape (http://www.inkscape.org/) -->

<svg
   xmlns:dc="http://purl.org/dc/elements/1.1/"
   xmlns:cc="http://creativecommons.org/ns#"
   xmlns:rdf="http://www.w3.org/1999/02/22-rdf-syntax-ns#"
   xmlns:svg="http://www.w3.org/2000/svg"
   xmlns="http://www.w3.org/2000/svg"
   xmlns:sodipodi="http://sodipodi.sourceforge.net/DTD/sodipodi-0.dtd"
   xmlns:inkscape="http://www.inkscape.org/namespaces/inkscape"
   width="680"
   height="500"
   viewBox="0 0 179.91666 132.29167"
   version="1.1"
   id="svg836"
   inkscape:version="0.92.4 (unknown)"
   sodipodi:docname="featured.svg"
   inkscape:export-filename="/home/rschmehl/awesco.eu/content/consortium/partner07/featured.png"
   inkscape:export-xdpi="96"
   inkscape:export-ydpi="96">
  <defs
     id="defs830" />
  <sodipodi:namedview
     id="base"
     pagecolor="#ffffff"
     bordercolor="#666666"
     borderopacity="1.0"
     inkscape:pageopacity="0.0"
     inkscape:pageshadow="2"
     inkscape:zoom="1.385"
     inkscape:cx="233.25425"
     inkscape:cy="229.15936"
     inkscape:document-units="px"
     inkscape:current-layer="layer1"
     showgrid="false"
     units="px"
     showguides="true"
     inkscape:guide-bbox="true"
     inkscape:window-width="1920"
     inkscape:window-height="1022"
     inkscape:window-x="0"
     inkscape:window-y="0"
     inkscape:window-maximized="1">
    <sodipodi:guide
       position="0,0"
       orientation="1,0"
       id="guide1444"
       inkscape:locked="false"
       inkscape:label=""
       inkscape:color="rgb(0,0,255)" />
    <sodipodi:guide
       position="179.91667,0"
       orientation="1,0"
       id="guide1446"
       inkscape:locked="false"
       inkscape:label=""
       inkscape:color="rgb(0,0,255)" />
    <sodipodi:guide
       position="0,0"
       orientation="0,1"
       id="guide1448"
       inkscape:locked="false" />
    <sodipodi:guide
       position="0,132.29167"
       orientation="0,1"
       id="guide1450"
       inkscape:locked="false"
       inkscape:label=""
       inkscape:color="rgb(0,0,255)" />
  </sodipodi:namedview>
  <metadata
     id="metadata833">
    <rdf:RDF>
      <cc:Work
         rdf:about="">
        <dc:format>image/svg+xml</dc:format>
        <dc:type
           rdf:resource="http://purl.org/dc/dcmitype/StillImage" />
        <dc:title />
      </cc:Work>
    </rdf:RDF>
  </metadata>
  <g
     inkscape:label="Layer 1"
     inkscape:groupmode="layer"
     id="layer1"
     transform="translate(0,-164.70832)">
    <path
       inkscape:connector-curvature="0"
       style="fill:#0091d0;stroke-width:1.19798398"
       d="m 111.17037,220.79848 c 0,1.51305 0.87452,2.34083 2.05574,2.34083 1.29861,0 2.6691,-1.18239 2.6691,-3.6179 0,-1.46393 -0.8266,-2.24503 -2.00782,-2.24503 -1.77301,0 -2.71702,1.82095 -2.71702,3.5221 z m 9.42574,-6.50149 -2.00782,9.38384 c -0.14137,0.61574 -0.21326,1.12367 -0.21326,1.71311 0,0.072 0,0.25174 0.024,0.25174 h -3.25851 c -0.024,0 -0.024,-0.13176 -0.024,-0.22774 0,-0.32963 0.024,-0.55946 0.0719,-0.86736 -0.45043,0.70924 -1.34774,1.63405 -2.95425,1.63405 -2.83442,0 -4.60624,-2.26776 -4.60624,-5.24475 0,-4.08992 2.62119,-6.93634 5.93002,-6.93634 2.24263,0 3.0932,1.09016 3.3304,1.54063 l 0.23481,-1.24591 h 3.47176 z m 7.80485,11.34612 1.39446,-6.27384 c 0.0719,-0.30654 0.0958,-0.46722 0.0958,-0.63135 0,-0.94641 -0.54509,-1.6053 -1.63166,-1.6053 -1.08657,0 -1.79458,0.65173 -2.05454,1.8569 l -1.46514,6.6548 h -3.59035 l 2.05574,-9.58388 c 0.18808,-0.94641 0.21203,-1.76106 0.21203,-1.76106 h 3.49572 c 0,0.87098 0,0.82665 -0.0455,1.11055 0.70681,-0.97036 1.98386,-1.41721 3.09439,-1.41721 1.55738,0 2.62119,0.68524 3.18904,1.70114 1.20397,-1.51188 2.90511,-1.70114 3.87428,-1.70114 2.33966,0 3.80359,1.67719 3.80359,3.90062 0,0.37717 -0.0479,0.5547 -0.1198,0.956 l -1.48551,6.79498 h -3.56759 l 1.3705,-6.25109 c 0.0719,-0.2839 0.0958,-0.49118 0.0958,-0.65531 0,-0.94641 -0.54389,-1.6053 -1.6053,-1.6053 -1.13569,0 -1.79698,0.67569 -2.05695,1.8569 l -1.46393,6.6548 h -3.59036 z m 18.01769,-4.93927 c 0,1.60769 0.96797,2.41151 2.17314,2.41151 1.27466,0 2.85839,-1.15843 2.85839,-3.57 0,-1.55974 -0.94641,-2.3636 -2.17434,-2.3636 -1.70114,0 -2.85719,1.72509 -2.85719,3.52209 m 4.06117,-6.64045 c 3.04886,0 4.60744,2.12645 4.60744,4.93931 0,4.30075 -2.76375,7.32686 -6.14206,7.32686 -1.79698,0 -2.97699,-0.60736 -3.4502,-1.33932 l -1.18001,5.89168 h -3.59036 l 3.02491,-14.44771 c 0.18808,-0.94641 0.21326,-2.13599 0.21326,-2.13599 h 3.49452 c 0,0 0,0.92244 -0.0719,1.13565 0.5918,-0.73313 1.77302,-1.3693 3.09559,-1.3693 m 4.14023,16.81612 3.89944,-6.45951 -2.43191,-10.12296 h 3.75448 l 1.32138,6.26186 3.66104,-6.26309 h 3.96773 l -10.2284,16.5837 h -3.94496 z"
       id="path2" />
    <path
       inkscape:connector-curvature="0"
       style="fill:#0091d0;stroke-width:1.19798398"
       d="m 169.30853,225.64311 h -4.25284 l 5.50353,-5.82699 -3.07043,-5.51913 h 3.94615 l 1.51187,3.0968 2.64514,-3.0968 h 4.32472 l -5.45801,5.75634 3.0944,5.58978 h -3.91981 l -1.55977,-3.19021 -2.76376,3.19021 z"
       id="path4" />
    <path
       inkscape:connector-curvature="0"
       style="fill:#f99d1c;stroke-width:1.19798398"
       d="m 108.50844,240.08719 c 0,1.60773 0.96798,2.41156 2.17315,2.41156 1.27465,0 2.85839,-1.15844 2.85839,-3.57001 0,-1.55738 -0.94641,-2.36242 -2.17315,-2.36242 -1.70113,0 -2.85839,1.72509 -2.85839,3.52209 m 4.06117,-6.64163 c 3.04886,0 4.60745,2.1264 4.60745,4.93931 0,4.30074 -2.76256,7.32686 -6.14087,7.32686 -1.79698,0 -2.97699,-0.69841 -3.45019,-1.43042 l -1.18002,5.80067 h -3.59036 l 3.02371,-14.44772 c 0.18809,-0.94639 0.21322,-1.26266 0.21322,-2.13599 h 3.49453 c 0,0.87454 0,1.0135 -0.0719,1.22672 0.59181,-0.73436 1.77301,-1.27943 3.0956,-1.27943 m 9.89414,6.6644 c 0,1.51302 0.92246,2.38757 2.14919,2.38757 1.22793,0 2.83562,-1.08777 2.83562,-3.52205 0,-1.55979 -0.87453,-2.33971 -2.15157,-2.36365 -1.72511,0 -2.83444,1.70114 -2.83444,3.49813 m 1.91318,5.67245 c -3.25851,0 -5.45681,-2.3876 -5.45681,-5.50714 0,-4.18337 3.07163,-6.94829 6.63922,-6.94829 3.33039,0 5.45563,2.38639 5.45563,5.48314 0,3.73413 -2.71584,6.97229 -6.63683,6.97229 m 19.74396,-12.28531 0.80265,6.92433 3.213,-6.92433 h 3.85512 l -6.12171,12.21944 h -3.54603 l -0.92005,-7.58686 -3.87428,7.58686 h -3.6838 l -1.11173,-12.21944 h 3.51968 l 0.49476,6.90038 3.54364,-6.90038 z m 15.64687,4.36422 v 0.12224 c 0,-0.75713 -0.27791,-1.94071 -1.78978,-1.94071 -1.41722,0 -2.00303,0.94641 -2.3804,1.81852 h 4.16899 z m -4.50082,2.62717 c 0,1.25312 0.80265,2.34088 2.45587,2.34088 1.01589,0 1.81854,-0.56783 2.1971,-1.32375 l 2.78771,1.25184 c -0.75473,1.53585 -2.40795,3.02495 -5.2903,3.02495 -2.95303,0 -5.43285,-2.22107 -5.43285,-5.45923 0,-4.3247 3.11476,-6.9962 6.23431,-6.9962 3.30643,0 5.29149,2.12763 5.29149,5.03389 0,0.54392 -0.0935,1.39448 -0.32944,2.10367 l -7.91269,0.0227 z m 16.96345,-3.40347 c -1.20636,0 -2.4343,0.83022 -2.93026,3.12197 l -1.15846,5.51071 h -3.59035 l 2.0797,-10.02112 c 0.18926,-0.94641 0.21204,-1.32498 0.21204,-2.19831 h 3.49811 c 0,0 0,0.8482 -0.0958,1.36931 0.75473,-1.04226 1.81854,-1.32498 2.92787,-1.32498 0.54389,0 1.0183,0.14036 1.22914,0.23499 l -0.75473,3.51009 c -0.47441,-0.14398 -0.78109,-0.20148 -1.41841,-0.20148 M 87.444275,232.704 c -0.86495,3.97488 -3.01293,7.4215 -6.047426,9.70364 -3.168668,2.38399 -7.040551,3.32324 -11.196359,2.71466 -5.438847,-0.79549 -9.024413,-3.95817 -12.944219,-11.74623 l 0.04211,-0.14399 c 3.074023,-10.48954 10.820189,-17.17549 18.837099,-16.26147 4.782354,0.54393 7.538914,3.10998 9.011233,5.16335 2.174342,3.04047 3.054865,7.08965 2.300134,10.56859 m 8.118731,-2.66312 c -0.01899,-4.02043 -1.202779,-8.09116 -3.409456,-11.55095 -0.200081,-0.31514 -0.409724,-0.62294 -0.626545,-0.92725 -3.3903,-4.73442 -8.539231,-7.71739 -14.503997,-8.39788 -5.902467,-0.67324 -11.887594,1.21238 -16.848447,5.31068 -2.974593,2.45828 -5.486764,5.58858 -7.446669,9.24367 -1.973077,-4.01088 -3.915011,-7.36762 -6.334936,-10.28829 -4.43973,-5.35979 -9.907332,-8.2661 -16.719071,-8.88904 -0.431274,-0.0408 -0.858953,-0.0683 -1.286631,-0.0861 -0.212038,-0.009 -0.424076,-0.009 -0.634932,-0.0136 -0.212038,-0.002 -0.424074,-0.009 -0.63493,-0.009 -0.267141,0 -0.531906,0.0136 -0.79666,0.0227 -0.155757,0.004 -0.307891,0.009 -0.460026,0.0136 -0.275517,0.0136 -0.551076,0.0408 -0.826612,0.0634 -0.116228,0.009 -0.235989,0.0181 -0.353395,0.0272 0.994325,-0.004 2.000632,0.0453 3.01892,0.15213 15.485141,1.65202 20.322602,17.44621 24.541905,27.57638 4.528379,10.87531 9.125043,17.75772 18.445357,19.21568 9.248435,1.44953 17.223419,-2.6715 21.82008,-10.25238 0.07191,-0.13176 0.152139,-0.25763 0.22281,-0.39166 0.15214,-0.28751 0.292325,-0.57978 0.434858,-0.8745 0.149735,-0.31151 0.295885,-0.62533 0.433677,-0.94639 0.119804,-0.28028 0.239607,-0.56309 0.349816,-0.84581 0.147331,-0.3835 0.283942,-0.77031 0.413296,-1.15843 0.0791,-0.23953 0.164139,-0.4732 0.237215,-0.71399 0.191665,-0.63494 0.365388,-1.28188 0.509145,-1.93596 l 0.0034,-0.0181 c 0.307885,-1.41603 0.455227,-2.87041 0.44925,-4.33312"
       id="path6" />
    <path
       inkscape:connector-curvature="0"
       style="fill:#0091d0;stroke-width:1.19798398"
       d="m 23.507882,249.23862 c -4.381026,-0.12225 -8.335574,-2.0366 -11.135262,-5.38737 -3.2920595,-3.94372 -4.6984938,-9.39458 -3.8539155,-14.95441 1.4651374,-9.64737 9.5479315,-16.6879 18.7891805,-16.6879 0.551071,0 1.105742,0.0227 1.665199,0.0765 4.751202,0.43467 8.263695,2.30973 11.385641,6.07854 2.764945,3.33641 4.950068,7.74379 7.57126,13.49774 -9.69888,16.47585 -21.132438,17.46659 -24.420908,17.37552 m 47.192189,2.19233 c -9.320315,-1.45914 -13.916982,-8.34037 -18.446558,-19.21569 -4.218102,-10.13133 -9.057959,-25.92793 -24.5443,-27.57397 -1.018286,-0.10774 -2.024594,-0.15575 -3.018919,-0.15078 -11.954683,1.21477 -22.0201434,10.62611 -23.93452143,23.22891 -1.18001626,7.78332 0.85775413,15.50192 5.59458463,21.16839 4.2600288,5.10339 10.2787028,8.01808 16.9394928,8.20616 5.430461,0.14761 11.081353,-1.54538 16.340503,-4.89973 1.713116,-1.09255 3.361545,-2.27618 4.947674,-3.6826 2.455868,-2.35166 5.184876,-5.66049 7.257388,-8.81715 0.87453,1.54539 1.70114,2.86317 2.419931,3.83352 0.740351,1.0063 1.495084,1.90839 2.278563,2.73743 3.483736,3.68976 7.586832,5.83055 12.542895,6.55536 6.183993,0.90448 12.239799,-0.5906 17.049712,-4.20973 2.62358,-1.97427 4.78235,-4.51998 6.397222,-7.42991 -4.600257,7.57964 -12.574032,11.70073 -21.822467,10.25477"
       id="path8" />
    <path
       inkscape:connector-curvature="0"
       style="fill:#f99d1c;stroke-width:1.19798398"
       d="m 44.574431,248.51024 c -2.956626,9.7995 -4.537965,14.62379 -5.059089,16.36926 h 8.250519 l 6.48948,-21.35407 c -0.718791,-0.97035 -1.545401,-2.28817 -2.419927,-3.83356 -2.070116,3.15909 -4.80152,6.46553 -7.259787,8.81714"
       id="path10" />
    <path
       inkscape:connector-curvature="0"
       style="opacity:0.35;fill:#000000;stroke-width:1.19798398"
       d="m 46.682885,233.86846 c 1.789786,4.20974 3.684998,7.69946 6.874032,11.95347 l 0.698424,-2.2965 c -1.76583,-2.3804 -4.185755,-6.84411 -6.325356,-11.66478 -0.413298,0.69963 -0.829006,1.3621 -1.245904,2.00781"
       id="path12" />
  </g>
</svg>
