<?xml version="1.0" encoding="UTF-8" standalone="no"?>
<!-- Created with Inkscape (http://www.inkscape.org/) -->

<svg
   xmlns:dc="http://purl.org/dc/elements/1.1/"
   xmlns:cc="http://creativecommons.org/ns#"
   xmlns:rdf="http://www.w3.org/1999/02/22-rdf-syntax-ns#"
   xmlns:svg="http://www.w3.org/2000/svg"
   xmlns="http://www.w3.org/2000/svg"
   xmlns:sodipodi="http://sodipodi.sourceforge.net/DTD/sodipodi-0.dtd"
   xmlns:inkscape="http://www.inkscape.org/namespaces/inkscape"
   width="680"
   height="500"
   viewBox="0 0 680 500"
   version="1.1"
   id="svg1359"
   inkscape:version="0.92.4 (unknown)"
   sodipodi:docname="featured.svg"
   inkscape:export-filename="/home/rschmehl/awesco.eu/content/project/ESR03/featured.png"
   inkscape:export-xdpi="96"
   inkscape:export-ydpi="96">
  <defs
     id="defs1353">
    <clipPath
       clipPathUnits="userSpaceOnUse"
       id="clipPath220">
      <path
         d="M 0,0 H 2546.2 V 2208.7 H 0 Z"
         id="path218"
         inkscape:connector-curvature="0" />
    </clipPath>
  </defs>
  <sodipodi:namedview
     id="base"
     pagecolor="#ffffff"
     bordercolor="#666666"
     borderopacity="1.0"
     inkscape:pageopacity="0.0"
     inkscape:pageshadow="2"
     inkscape:zoom="1.4985657"
     inkscape:cx="168.18318"
     inkscape:cy="37.57672"
     inkscape:document-units="px"
     inkscape:current-layer="g406"
     showgrid="false"
     units="px"
     inkscape:window-width="1920"
     inkscape:window-height="1022"
     inkscape:window-x="0"
     inkscape:window-y="0"
     inkscape:window-maximized="1" />
  <metadata
     id="metadata1356">
    <rdf:RDF>
      <cc:Work
         rdf:about="">
        <dc:format>image/svg+xml</dc:format>
        <dc:type
           rdf:resource="http://purl.org/dc/dcmitype/StillImage" />
        <dc:title></dc:title>
      </cc:Work>
    </rdf:RDF>
  </metadata>
  <g
     inkscape:label="Layer 1"
     inkscape:groupmode="layer"
     id="layer1"
     transform="translate(0,-297.08332)">
    <g
       id="g212"
       transform="matrix(0.23235976,0,0,-0.23235976,30.140932,794.61034)">
      <g
         id="g214">
        <g
           id="g216" />
        <g
           id="g410">
          <g
             clip-path="url(#clipPath220)"
             id="g408">
            <g
               id="g406">
              <g
                 transform="matrix(1.172037,0,0,-1.172037,-16.996673,2448.451)"
                 id="g224">
                <path
                   d="M 1204.891,1114.879 C 869.492,1681.738 560.68,1881.344 560.68,1881.344"
                   style="fill:none;stroke:#000000;stroke-width:3;stroke-linecap:butt;stroke-linejoin:miter;stroke-miterlimit:4;stroke-dasharray:none;stroke-opacity:1"
                   id="path222"
                   inkscape:connector-curvature="0" />
              </g>
              <g
                 transform="matrix(1.172037,0,0,-1.172037,-16.996673,2448.451)"
                 id="g232"
                 style="fill:#00a6d7;fill-opacity:1">
                <path
                   d="m 450.379,1949 c -15.899,-32.352 -2.563,-71.465 29.789,-87.363 30.184,-14.836 66.699,-4.305 84.352,24.324"
                   style="fill:#00a6d7;fill-opacity:1;fill-rule:nonzero;stroke:#000000;stroke-width:3;stroke-linecap:butt;stroke-linejoin:miter;stroke-miterlimit:4;stroke-dasharray:none;stroke-opacity:1"
                   id="path230"
                   inkscape:connector-curvature="0" />
              </g>
              <g
                 transform="matrix(1.172037,0,0,-1.172037,-16.996673,2448.451)"
                 id="g236">
                <path
                   d="m 450.375,1948.695 39.395,65.801"
                   style="fill:#ffffff;fill-opacity:1;fill-rule:nonzero;stroke:#000000;stroke-width:3;stroke-linecap:butt;stroke-linejoin:miter;stroke-miterlimit:4;stroke-dasharray:none;stroke-opacity:1"
                   id="path234"
                   inkscape:connector-curvature="0" />
              </g>
              <g
                 transform="matrix(1.172037,0,0,-1.172037,-16.996673,2448.451)"
                 id="g240">
                <path
                   d="m 564.367,1885.785 42.09,70.688"
                   style="fill:#ffffff;fill-opacity:1;fill-rule:nonzero;stroke:#000000;stroke-width:3;stroke-linecap:butt;stroke-linejoin:miter;stroke-miterlimit:4;stroke-dasharray:none;stroke-opacity:1"
                   id="path238"
                   inkscape:connector-curvature="0" />
              </g>
              <g
                 transform="matrix(1.172037,0,0,-1.172037,-16.996673,2448.451)"
                 id="g244"
                 style="fill:#00a6d7;fill-opacity:1">
                <path
                   d="m 457.656,1962.41 c -15.898,-32.351 -2.562,-71.465 29.789,-87.363 30.188,-14.836 66.703,-4.305 84.352,24.328"
                   style="fill:#00a6d7;fill-opacity:1;fill-rule:nonzero;stroke:#000000;stroke-width:3;stroke-linecap:butt;stroke-linejoin:miter;stroke-miterlimit:4;stroke-dasharray:none;stroke-opacity:1"
                   id="path242"
                   inkscape:connector-curvature="0" />
              </g>
              <g
                 transform="matrix(1.172037,0,0,-1.172037,-16.996673,2448.451)"
                 id="g248"
                 style="fill:#00a6d7;fill-opacity:1">
                <path
                   d="m 461.688,1968.859 c -15.903,-32.351 -2.563,-71.468 29.789,-87.367 30.183,-14.836 66.699,-4.304 84.347,24.328"
                   style="fill:#00a6d7;fill-opacity:1;fill-rule:nonzero;stroke:#000000;stroke-width:3;stroke-linecap:butt;stroke-linejoin:miter;stroke-miterlimit:4;stroke-dasharray:none;stroke-opacity:1"
                   id="path246"
                   inkscape:connector-curvature="0" />
              </g>
              <g
                 transform="matrix(1.172037,0,0,-1.172037,-16.996673,2448.451)"
                 id="g252"
                 style="fill:#00a6d7;fill-opacity:1">
                <path
                   d="m 464.922,1975.305 c -15.899,-32.352 -2.563,-71.469 29.789,-87.367 30.184,-14.833 66.699,-4.301 84.348,24.328"
                   style="fill:#00a6d7;fill-opacity:1;fill-rule:nonzero;stroke:#000000;stroke-width:3;stroke-linecap:butt;stroke-linejoin:miter;stroke-miterlimit:4;stroke-dasharray:none;stroke-opacity:1"
                   id="path250"
                   inkscape:connector-curvature="0" />
              </g>
              <g
                 transform="matrix(1.172037,0,0,-1.172037,-16.996673,2448.451)"
                 id="g256"
                 style="fill:#00a6d7;fill-opacity:1">
                <path
                   d="m 469.582,1982.23 c -15.898,-32.351 -2.562,-71.464 29.789,-87.363 30.184,-14.836 66.699,-4.305 84.352,24.328"
                   style="fill:#00a6d7;fill-opacity:1;fill-rule:nonzero;stroke:#000000;stroke-width:3;stroke-linecap:butt;stroke-linejoin:miter;stroke-miterlimit:4;stroke-dasharray:none;stroke-opacity:1"
                   id="path254"
                   inkscape:connector-curvature="0" />
              </g>
              <g
                 transform="matrix(1.172037,0,0,-1.172037,-16.996673,2448.451)"
                 id="g260"
                 style="fill:#00a6d7;fill-opacity:1">
                <path
                   d="m 472.781,1988.633 c -15.898,-32.352 -2.562,-71.469 29.789,-87.367 30.188,-14.836 66.703,-4.305 84.352,24.328"
                   style="fill:#00a6d7;fill-opacity:1;fill-rule:nonzero;stroke:#000000;stroke-width:3;stroke-linecap:butt;stroke-linejoin:miter;stroke-miterlimit:4;stroke-dasharray:none;stroke-opacity:1"
                   id="path258"
                   inkscape:connector-curvature="0" />
              </g>
              <g
                 transform="matrix(1.172037,0,0,-1.172037,-16.996673,2448.451)"
                 id="g264"
                 style="fill:#00a6d7;fill-opacity:1">
                <path
                   d="m 477.582,1995.031 c -15.898,-32.351 -2.562,-71.465 29.789,-87.367 30.184,-14.832 66.699,-4.301 84.352,24.328"
                   style="fill:#00a6d7;fill-opacity:1;fill-rule:nonzero;stroke:#000000;stroke-width:3;stroke-linecap:butt;stroke-linejoin:miter;stroke-miterlimit:4;stroke-dasharray:none;stroke-opacity:1"
                   id="path262"
                   inkscape:connector-curvature="0" />
              </g>
              <g
                 transform="matrix(1.172037,0,0,-1.172037,-16.996673,2448.451)"
                 id="g268"
                 style="fill:#00a6d7;fill-opacity:1">
                <path
                   d="m 612.098,1983.066 c 0,36.047 -29.223,65.27 -65.27,65.27 -36.047,0 -65.269,-29.223 -65.269,-65.27 0,-36.046 29.222,-65.269 65.269,-65.269 36.047,0 65.27,29.223 65.27,65.269 z"
                   style="fill:#00a6d7;fill-opacity:1;fill-rule:nonzero;stroke:#000000;stroke-width:3;stroke-linecap:butt;stroke-linejoin:miter;stroke-miterlimit:4;stroke-dasharray:none;stroke-opacity:1"
                   id="path266"
                   inkscape:connector-curvature="0" />
              </g>
              <g
                 transform="matrix(-1.1506472,0.13054851,-0.13240267,-1.172037,-16.996673,2448.451)"
                 id="g272">
                <path
                   d="m -1049.961,1936.725 c 0,0 -420.343,-457.579 -291.331,-531.001 50.739,-28.88 97.663,129.62 179.791,235.838 80.816,104.526 197.746,156.292 138.163,190.241 -42.435,24.18 -88.708,-23.759 -88.708,-23.759"
                   style="fill:none;stroke:#000000;stroke-width:2.43102503;stroke-linecap:butt;stroke-linejoin:miter;stroke-miterlimit:4;stroke-dasharray:none;stroke-opacity:1"
                   id="path270"
                   inkscape:connector-curvature="0" />
              </g>
              <g
                 transform="matrix(-1.1547611,-1.0214548,0.99903492,-1.172037,-16.996673,2448.451)"
                 id="g276">
                <path
                   d="m 561.525,1580.366 7.375,-7.377 -25.815,7.377 25.816,7.376 z"
                   style="fill:#000000;fill-opacity:1;fill-rule:evenodd;stroke:#000000;stroke-width:1.84402299;stroke-linecap:butt;stroke-linejoin:miter;stroke-miterlimit:4;stroke-dasharray:none;stroke-opacity:1"
                   id="path274"
                   inkscape:connector-curvature="0" />
              </g>
              <g
                 transform="matrix(1.1480735,-0.85155868,0.84054153,1.172037,-16.996673,2448.451)"
                 id="g280">
                <path
                   d="m 1534.691,-454.45 7.915,-7.917 -27.704,7.914 27.705,7.918 z"
                   style="fill:#000000;fill-opacity:1;fill-rule:evenodd;stroke:#000000;stroke-width:1.97888398;stroke-linecap:butt;stroke-linejoin:miter;stroke-miterlimit:4;stroke-dasharray:none;stroke-opacity:1"
                   id="path278"
                   inkscape:connector-curvature="0" />
              </g>
              <g
                 transform="matrix(1.1183834,1.172037,-1.1470632,1.1344509,-16.996673,2448.451)"
                 id="g284">
                <path
                   d="m -407.677,-1390.271 7.029,-7.028 -24.605,7.03 24.605,7.031 z"
                   style="fill:#000000;fill-opacity:1;fill-rule:evenodd;stroke:#000000;stroke-width:1.75757694;stroke-linecap:butt;stroke-linejoin:miter;stroke-miterlimit:4;stroke-dasharray:none;stroke-opacity:1"
                   id="path282"
                   inkscape:connector-curvature="0" />
              </g>
              <g
                 transform="matrix(-1.1480699,0.85245295,-0.84142056,-1.172037,-16.996673,2448.451)"
                 id="g288">
                <path
                   d="m -1441.64,882.855 7.91,-7.91 -27.695,7.911 27.695,7.913 z"
                   style="fill:#000000;fill-opacity:1;fill-rule:evenodd;stroke:#000000;stroke-width:1.97816503;stroke-linecap:butt;stroke-linejoin:miter;stroke-miterlimit:4;stroke-dasharray:none;stroke-opacity:1"
                   id="path286"
                   inkscape:connector-curvature="0" />
              </g>
              <g
                 transform="matrix(-1.1506472,0.13054851,-0.13240267,-1.172037,-16.996673,2448.451)"
                 id="g292">
                <path
                   d="m -1111.874,1809.004 c 0,0 -420.346,-457.578 -291.334,-531.001 50.739,-28.876 97.663,129.62 179.791,235.842 80.815,104.522 197.75,156.289 138.167,190.238 -42.44,24.183 -88.713,-23.756 -88.713,-23.756"
                   style="fill:none;stroke:#000000;stroke-width:2.43102503;stroke-linecap:butt;stroke-linejoin:miter;stroke-miterlimit:4;stroke-dasharray:none;stroke-opacity:1"
                   id="path290"
                   inkscape:connector-curvature="0" />
              </g>
              <g
                 transform="matrix(-1.1547611,-1.0214548,0.99903492,-1.172037,-16.996673,2448.451)"
                 id="g296">
                <path
                   d="m 458.408,1549.41 7.377,-7.375 -25.817,7.375 25.816,7.376 z"
                   style="fill:#000000;fill-opacity:1;fill-rule:evenodd;stroke:#000000;stroke-width:1.84402204;stroke-linecap:butt;stroke-linejoin:miter;stroke-miterlimit:4;stroke-dasharray:none;stroke-opacity:1"
                   id="path294"
                   inkscape:connector-curvature="0" />
              </g>
              <g
                 transform="matrix(1.1480735,-0.85155868,0.84054153,1.172037,-16.996673,2448.451)"
                 id="g300">
                <path
                   d="m 1527.07,-339.168 7.917,-7.915 -27.705,7.917 27.706,7.915 z"
                   style="fill:#000000;fill-opacity:1;fill-rule:evenodd;stroke:#000000;stroke-width:1.97888398;stroke-linecap:butt;stroke-linejoin:miter;stroke-miterlimit:4;stroke-dasharray:none;stroke-opacity:1"
                   id="path298"
                   inkscape:connector-curvature="0" />
              </g>
              <g
                 transform="matrix(1.1183834,1.172037,-1.1470632,1.1344509,-16.996673,2448.451)"
                 id="g304">
                <path
                   d="m -307.25,-1369.203 7.032,-7.03 -24.606,7.03 24.605,7.031 z"
                   style="fill:#000000;fill-opacity:1;fill-rule:evenodd;stroke:#000000;stroke-width:1.75757694;stroke-linecap:butt;stroke-linejoin:miter;stroke-miterlimit:4;stroke-dasharray:none;stroke-opacity:1"
                   id="path302"
                   inkscape:connector-curvature="0" />
              </g>
              <g
                 transform="matrix(-1.1480699,0.85245411,-0.84142173,-1.172037,-16.996673,2448.451)"
                 id="g308">
                <path
                   d="m -1433.967,767.615 7.913,-7.913 -27.692,7.913 27.694,7.913 z"
                   style="fill:#000000;fill-opacity:1;fill-rule:evenodd;stroke:#000000;stroke-width:1.97816503;stroke-linecap:butt;stroke-linejoin:miter;stroke-miterlimit:4;stroke-dasharray:none;stroke-opacity:1"
                   id="path306"
                   inkscape:connector-curvature="0" />
              </g>
              <g
                 transform="matrix(-1.1506472,0.13054851,-0.13240267,-1.172037,-16.996673,2448.451)"
                 id="g312">
                <path
                   d="m -1173.287,1682.066 c 0,0 -420.343,-457.578 -291.331,-531.001 50.739,-28.876 97.662,129.624 179.791,235.843 80.815,104.525 197.746,156.291 138.163,190.237 -42.436,24.183 -88.708,-23.756 -88.708,-23.756"
                   style="fill:none;stroke:#000000;stroke-width:2.43102503;stroke-linecap:butt;stroke-linejoin:miter;stroke-miterlimit:4;stroke-dasharray:none;stroke-opacity:1"
                   id="path310"
                   inkscape:connector-curvature="0" />
              </g>
              <g
                 transform="matrix(-1.1547611,-1.0214548,0.99903492,-1.172037,-16.996673,2448.451)"
                 id="g316">
                <path
                   d="m 355.985,1518.58 7.375,-7.377 -25.816,7.375 25.818,7.378 z"
                   style="fill:#000000;fill-opacity:1;fill-rule:evenodd;stroke:#000000;stroke-width:1.84402299;stroke-linecap:butt;stroke-linejoin:miter;stroke-miterlimit:4;stroke-dasharray:none;stroke-opacity:1"
                   id="path314"
                   inkscape:connector-curvature="0" />
              </g>
              <g
                 transform="matrix(1.1480735,-0.85155868,0.84054153,1.172037,-16.996673,2448.451)"
                 id="g320">
                <path
                   d="m 1519.409,-224.636 7.914,-7.917 -27.705,7.917 27.706,7.915 z"
                   style="fill:#000000;fill-opacity:1;fill-rule:evenodd;stroke:#000000;stroke-width:1.97888398;stroke-linecap:butt;stroke-linejoin:miter;stroke-miterlimit:4;stroke-dasharray:none;stroke-opacity:1"
                   id="path318"
                   inkscape:connector-curvature="0" />
              </g>
              <g
                 transform="matrix(1.1183834,1.172037,-1.1470632,1.1344509,-16.996673,2448.451)"
                 id="g324">
                <path
                   d="m -207.488,-1348.193 7.03,-7.028 -24.606,7.03 24.607,7.029 z"
                   style="fill:#000000;fill-opacity:1;fill-rule:evenodd;stroke:#000000;stroke-width:1.75757694;stroke-linecap:butt;stroke-linejoin:miter;stroke-miterlimit:4;stroke-dasharray:none;stroke-opacity:1"
                   id="path322"
                   inkscape:connector-curvature="0" />
              </g>
              <g
                 transform="matrix(-1.1480699,0.85245411,-0.84142056,-1.172037,-16.996673,2448.451)"
                 id="g328">
                <path
                   d="m -1426.248,653.132 7.912,-7.913 -27.695,7.912 27.693,7.915 z"
                   style="fill:#000000;fill-opacity:1;fill-rule:evenodd;stroke:#000000;stroke-width:1.97816503;stroke-linecap:butt;stroke-linejoin:miter;stroke-miterlimit:4;stroke-dasharray:none;stroke-opacity:1"
                   id="path326"
                   inkscape:connector-curvature="0" />
              </g>
              <g
                 transform="matrix(1.172037,0,0,-1.172037,-16.996673,2448.451)"
                 id="g332">
                <path
                   d="m 1110.934,496.324 93.632,616.84 572.727,-193.086"
                   style="fill:none;stroke:#000000;stroke-width:3;stroke-linecap:butt;stroke-linejoin:miter;stroke-miterlimit:4;stroke-dasharray:none;stroke-opacity:1"
                   id="path330"
                   inkscape:connector-curvature="0" />
              </g>
              <g
                 transform="matrix(-1.172037,0,0,1.172037,-16.996673,2448.451)"
                 id="g344">
                <path
                   d="m -1043.035,-719.172 c 0,216.02 -175.117,391.137 -391.137,391.137 -216.016,0 -391.133,-175.117 -391.133,-391.137"
                   style="fill:none;stroke:#000000;stroke-width:2.97351694;stroke-linecap:butt;stroke-linejoin:miter;stroke-miterlimit:4;stroke-dasharray:17.841103, 17.841103;stroke-dashoffset:0;stroke-opacity:1"
                   id="path342"
                   inkscape:connector-curvature="0" />
              </g>
              <g
                 transform="matrix(0,-1.172037,-1.172037,0,-16.996673,2448.451)"
                 id="g348">
                <path
                   d="m 748.906,-1043.035 11.895,-11.895 -41.629,11.895 41.629,11.894 z"
                   style="fill:#000000;fill-opacity:1;fill-rule:evenodd;stroke:#000000;stroke-width:2.97351694;stroke-linecap:butt;stroke-linejoin:miter;stroke-miterlimit:4;stroke-dasharray:none;stroke-opacity:1"
                   id="path346"
                   inkscape:connector-curvature="0" />
              </g>
              <g
                 transform="matrix(1.172037,0,0,-1.172037,-16.996673,2448.451)"
                 id="g352">
                <path
                   d="m 1822.25,749.078 c 0,216.02 -175.117,391.137 -391.133,391.137 -216.019,0 -391.137,-175.117 -391.137,-391.137"
                   style="fill:none;stroke:#000000;stroke-width:2.97351694;stroke-linecap:butt;stroke-linejoin:miter;stroke-miterlimit:4;stroke-dasharray:17.841103, 17.841103;stroke-dashoffset:0;stroke-opacity:1"
                   id="path350"
                   inkscape:connector-curvature="0" />
              </g>
              <g
                 transform="matrix(0,1.172037,1.172037,0,-16.996673,2448.451)"
                 id="g356">
                <path
                   d="m -719.344,1822.25 11.895,-11.895 -41.629,11.895 41.629,11.895 z"
                   style="fill:#000000;fill-opacity:1;fill-rule:evenodd;stroke:#000000;stroke-width:2.97351694;stroke-linecap:butt;stroke-linejoin:miter;stroke-miterlimit:4;stroke-dasharray:none;stroke-opacity:1"
                   id="path354"
                   inkscape:connector-curvature="0" />
              </g>
              <g
                 transform="matrix(1.1513364,-1.172037,-1.172037,-1.1513364,-16.996673,2448.451)"
                 id="g360"
                 style="fill:#00a6d7;fill-opacity:1">
                <path
                   d="m 808.566,-354.949 c -24.353,0.284 -0.312,165.76 10e-4,224.762 0.313,-59.361 24.203,-225.045 -10e-4,-224.762 z"
                   style="fill:#00a6d7;fill-opacity:1;fill-rule:nonzero;stroke:#000000;stroke-width:3.5668931;stroke-linecap:butt;stroke-linejoin:miter;stroke-miterlimit:4;stroke-dasharray:none;stroke-opacity:1"
                   id="path358"
                   inkscape:connector-curvature="0" />
              </g>
              <g
                 transform="matrix(1.1513364,-1.172037,-1.172037,-1.1513364,-16.996673,2448.451)"
                 id="g364"
                 style="fill:#00a6d7;fill-opacity:1">
                <path
                   d="m 743.984,-137.578 c 10e-4,-19.167 129.189,-19.601 129.187,-0.329 l -3.799,0.67 -121.11,0.31 z"
                   style="fill:#00a6d7;fill-opacity:1;fill-rule:nonzero;stroke:#000000;stroke-width:3.5668931;stroke-linecap:butt;stroke-linejoin:miter;stroke-miterlimit:4;stroke-dasharray:none;stroke-opacity:1"
                   id="path362"
                   inkscape:connector-curvature="0" />
              </g>
              <g
                 transform="matrix(1.1513364,-1.172037,-1.172037,-1.1513364,-16.996673,2448.451)"
                 id="g368"
                 style="fill:#00a6d7;fill-opacity:1">
                <path
                   d="m 798.543,-312.639 c -39.665,0.164 -244.248,-6.54 -238.376,16.666 l 124.239,8.08 106.058,2.021 c 5.468,-0.418 7.997,2.102 8.081,7.071"
                   style="fill:#00a6d7;fill-opacity:1;fill-rule:nonzero;stroke:#000000;stroke-width:3.5668931;stroke-linecap:butt;stroke-linejoin:miter;stroke-miterlimit:4;stroke-dasharray:none;stroke-opacity:1"
                   id="path366"
                   inkscape:connector-curvature="0" />
              </g>
              <g
                 transform="matrix(1.1513364,-1.172037,-1.172037,-1.1513364,-16.996673,2448.451)"
                 id="g372"
                 style="fill:#00a6d7;fill-opacity:1">
                <path
                   d="m 819.159,-313.008 c 39.667,0.165 244.252,-6.539 238.378,16.667 l -124.239,8.081 -106.057,2.019 c -5.468,-0.419 -8,2.102 -8.08,7.071"
                   style="fill:#00a6d7;fill-opacity:1;fill-rule:nonzero;stroke:#000000;stroke-width:3.5668931;stroke-linecap:butt;stroke-linejoin:miter;stroke-miterlimit:4;stroke-dasharray:none;stroke-opacity:1"
                   id="path370"
                   inkscape:connector-curvature="0" />
              </g>
              <g
                 transform="matrix(1.1513364,-1.172037,-1.172037,-1.1513364,-16.996673,2448.451)"
                 id="g376">
                <path
                   d="m 808.397,-161.193 c -3.775,0.045 -0.047,25.692 10e-4,34.837 0.046,-9.201 3.751,-34.879 -10e-4,-34.837 z"
                   style="fill:#ffffff;fill-opacity:1;fill-rule:nonzero;stroke:#000000;stroke-width:3.5668931;stroke-linecap:butt;stroke-linejoin:miter;stroke-miterlimit:4;stroke-dasharray:none;stroke-opacity:1"
                   id="path374"
                   inkscape:connector-curvature="0" />
              </g>
              <g
                 transform="matrix(-1.1513364,1.172037,1.172037,1.1513364,-16.996673,2448.451)"
                 id="g380"
                 style="fill:#00a6d7;fill-opacity:1">
                <path
                   d="m -1359.439,406.232 c -24.354,0.283 -0.313,165.759 0,224.762 0.315,-59.359 24.205,-225.043 0,-224.762 z"
                   style="fill:#00a6d7;fill-opacity:1;fill-rule:nonzero;stroke:#000000;stroke-width:3.5668931;stroke-linecap:butt;stroke-linejoin:miter;stroke-miterlimit:4;stroke-dasharray:none;stroke-opacity:1"
                   id="path378"
                   inkscape:connector-curvature="0" />
              </g>
              <g
                 transform="matrix(-1.1513364,1.172037,1.172037,1.1513364,-16.996673,2448.451)"
                 id="g384"
                 style="fill:#00a6d7;fill-opacity:1">
                <path
                   d="m -1424.02,623.604 c -10e-4,-19.169 129.185,-19.601 129.185,-0.331 l -3.801,0.672 -121.108,0.309 z"
                   style="fill:#00a6d7;fill-opacity:1;fill-rule:nonzero;stroke:#000000;stroke-width:3.5668931;stroke-linecap:butt;stroke-linejoin:miter;stroke-miterlimit:4;stroke-dasharray:none;stroke-opacity:1"
                   id="path382"
                   inkscape:connector-curvature="0" />
              </g>
              <g
                 transform="matrix(-1.1513364,1.172037,1.172037,1.1513364,-16.996673,2448.451)"
                 id="g388">
                <path
                   d="m -1369.461,448.543 c -39.667,0.163 -244.252,-6.539 -238.378,16.665 l 124.239,8.083 106.056,2.019 c 5.47,-0.419 7.999,2.104 8.081,7.071"
                   style="fill:#00a6d7;fill-opacity:1;fill-rule:nonzero;stroke:#000000;stroke-width:3.5668931;stroke-linecap:butt;stroke-linejoin:miter;stroke-miterlimit:4;stroke-dasharray:none;stroke-opacity:1"
                   id="path386"
                   inkscape:connector-curvature="0" />
              </g>
              <g
                 transform="matrix(-1.1513364,1.172037,1.172037,1.1513364,-16.996673,2448.451)"
                 id="g392"
                 style="fill:#00a6d7;fill-opacity:1">
                <path
                   d="m -1348.845,448.174 c 39.665,0.163 244.248,-6.539 238.376,16.665 l -124.239,8.081 -106.059,2.021 c -5.468,-0.418 -7.996,2.103 -8.08,7.071"
                   style="fill:#00a6d7;fill-opacity:1;fill-rule:nonzero;stroke:#000000;stroke-width:3.5668931;stroke-linecap:butt;stroke-linejoin:miter;stroke-miterlimit:4;stroke-dasharray:none;stroke-opacity:1"
                   id="path390"
                   inkscape:connector-curvature="0" />
              </g>
              <g
                 transform="matrix(-1.1513364,1.172037,1.172037,1.1513364,-16.996673,2448.451)"
                 id="g396">
                <path
                   d="m -1359.609,599.991 c -3.775,0.042 -0.049,25.69 -10e-4,34.835 0.05,-9.201 3.753,-34.88 10e-4,-34.835 z"
                   style="fill:#ffffff;fill-opacity:1;fill-rule:nonzero;stroke:#000000;stroke-width:3.5668931;stroke-linecap:butt;stroke-linejoin:miter;stroke-miterlimit:4;stroke-dasharray:none;stroke-opacity:1"
                   id="path394"
                   inkscape:connector-curvature="0" />
              </g>
              <g
                 transform="matrix(1.172037,0,0,-1.172037,-16.996673,2448.451)"
                 id="g404">
                <path
                   d="M 7.496,7.488 H 2538.707 V 2201.207 H 7.496 Z"
                   style="fill:none;stroke:#fefefe;stroke-width:15;stroke-linecap:butt;stroke-linejoin:miter;stroke-miterlimit:4;stroke-dasharray:none;stroke-opacity:1"
                   id="path402"
                   inkscape:connector-curvature="0" />
              </g>
            </g>
          </g>
        </g>
      </g>
    </g>
  </g>
</svg>
