<?xml version="1.0" encoding="utf-8" standalone="no"?>
<!DOCTYPE svg PUBLIC "-//W3C//DTD SVG 1.1//EN"
  "http://www.w3.org/Graphics/SVG/1.1/DTD/svg11.dtd">
<!-- Created with matplotlib (https://matplotlib.org/) -->
<svg height="648pt" version="1.1" viewBox="0 0 1512 648" width="1512pt" xmlns="http://www.w3.org/2000/svg" xmlns:xlink="http://www.w3.org/1999/xlink">
 <defs>
  <style type="text/css">
*{stroke-linecap:butt;stroke-linejoin:round;white-space:pre;}
  </style>
 </defs>
 <g id="figure_1">
  <g id="patch_1">
   <path d="M 0 648 
L 1512 648 
L 1512 0 
L 0 0 
z
" style="fill:#ffffff;"/>
  </g>
  <g id="axes_1">
   <g id="patch_2">
    <path d="M 51.69 604.06 
L 1492.56 604.06 
L 1492.56 55.44 
L 51.69 55.44 
z
" style="fill:#ffffff;"/>
   </g>
   <g id="matplotlib.axis_1">
    <g id="xtick_1">
     <g id="line2d_1"/>
     <g id="text_1">
      <!-- 2000 -->
      <defs>
       <path d="M 51.8125 0 
L 4.890625 0 
L 4.890625 6.984375 
L 23.6875 25.875 
Q 32.28125 34.578125 35.015625 38.28125 
Q 37.75 42 39.109375 45.515625 
Q 40.484375 49.03125 40.484375 53.078125 
Q 40.484375 58.796875 37.015625 62.140625 
Q 33.546875 65.484375 27.390625 65.484375 
Q 22.953125 65.484375 18.96875 64.015625 
Q 14.984375 62.546875 10.109375 58.6875 
L 5.8125 64.203125 
Q 15.671875 72.40625 27.296875 72.40625 
Q 37.359375 72.40625 43.0625 67.25 
Q 48.78125 62.109375 48.78125 53.421875 
Q 48.78125 46.625 44.96875 39.984375 
Q 41.15625 33.34375 30.71875 23.1875 
L 15.09375 7.90625 
L 15.09375 7.515625 
L 51.8125 7.515625 
z
" id="OpenSans-50"/>
       <path d="M 52.203125 35.796875 
Q 52.203125 17.28125 46.359375 8.140625 
Q 40.53125 -0.984375 28.515625 -0.984375 
Q 17 -0.984375 10.984375 8.359375 
Q 4.984375 17.71875 4.984375 35.796875 
Q 4.984375 54.4375 10.796875 63.46875 
Q 16.609375 72.515625 28.515625 72.515625 
Q 40.140625 72.515625 46.171875 63.078125 
Q 52.203125 53.65625 52.203125 35.796875 
z
M 13.1875 35.796875 
Q 13.1875 20.21875 16.84375 13.109375 
Q 20.515625 6 28.515625 6 
Q 36.625 6 40.25 13.203125 
Q 43.890625 20.40625 43.890625 35.796875 
Q 43.890625 51.171875 40.25 58.328125 
Q 36.625 65.484375 28.515625 65.484375 
Q 20.515625 65.484375 16.84375 58.421875 
Q 13.1875 51.375 13.1875 35.796875 
z
" id="OpenSans-48"/>
      </defs>
      <g transform="translate(56.243035 624.276562)scale(0.22 -0.22)">
       <use xlink:href="#OpenSans-50"/>
       <use x="57.177734" xlink:href="#OpenSans-48"/>
       <use x="114.355469" xlink:href="#OpenSans-48"/>
       <use x="171.533203" xlink:href="#OpenSans-48"/>
      </g>
     </g>
    </g>
    <g id="xtick_2">
     <g id="line2d_2"/>
     <g id="text_2">
      <!-- 2001 -->
      <defs>
       <path d="M 34.90625 0 
L 27 0 
L 27 50.875 
Q 27 57.234375 27.390625 62.890625 
Q 26.375 61.859375 25.09375 60.734375 
Q 23.828125 59.625 13.484375 51.21875 
L 9.1875 56.78125 
L 28.078125 71.390625 
L 34.90625 71.390625 
z
" id="OpenSans-49"/>
      </defs>
      <g transform="translate(130.514684 624.276562)scale(0.22 -0.22)">
       <use xlink:href="#OpenSans-50"/>
       <use x="57.177734" xlink:href="#OpenSans-48"/>
       <use x="114.355469" xlink:href="#OpenSans-48"/>
       <use x="171.533203" xlink:href="#OpenSans-49"/>
      </g>
     </g>
    </g>
    <g id="xtick_3">
     <g id="line2d_3"/>
     <g id="text_3">
      <!-- 2002 -->
      <g transform="translate(204.786334 624.276562)scale(0.22 -0.22)">
       <use xlink:href="#OpenSans-50"/>
       <use x="57.177734" xlink:href="#OpenSans-48"/>
       <use x="114.355469" xlink:href="#OpenSans-48"/>
       <use x="171.533203" xlink:href="#OpenSans-50"/>
      </g>
     </g>
    </g>
    <g id="xtick_4">
     <g id="line2d_4"/>
     <g id="text_4">
      <!-- 2003 -->
      <defs>
       <path d="M 49.125 54.59375 
Q 49.125 47.75 45.28125 43.40625 
Q 41.453125 39.0625 34.421875 37.59375 
L 34.421875 37.203125 
Q 43.015625 36.140625 47.15625 31.734375 
Q 51.3125 27.34375 51.3125 20.21875 
Q 51.3125 10.015625 44.234375 4.515625 
Q 37.15625 -0.984375 24.125 -0.984375 
Q 18.453125 -0.984375 13.734375 -0.125 
Q 9.03125 0.734375 4.59375 2.875 
L 4.59375 10.59375 
Q 9.234375 8.296875 14.484375 7.09375 
Q 19.734375 5.90625 24.421875 5.90625 
Q 42.921875 5.90625 42.921875 20.40625 
Q 42.921875 33.40625 22.515625 33.40625 
L 15.484375 33.40625 
L 15.484375 40.375 
L 22.609375 40.375 
Q 30.953125 40.375 35.828125 44.0625 
Q 40.71875 47.75 40.71875 54.296875 
Q 40.71875 59.515625 37.125 62.5 
Q 33.546875 65.484375 27.390625 65.484375 
Q 22.703125 65.484375 18.546875 64.203125 
Q 14.40625 62.9375 9.078125 59.515625 
L 4.984375 64.984375 
Q 9.375 68.453125 15.109375 70.421875 
Q 20.84375 72.40625 27.203125 72.40625 
Q 37.59375 72.40625 43.359375 67.640625 
Q 49.125 62.890625 49.125 54.59375 
z
" id="OpenSans-51"/>
      </defs>
      <g transform="translate(279.057983 624.276562)scale(0.22 -0.22)">
       <use xlink:href="#OpenSans-50"/>
       <use x="57.177734" xlink:href="#OpenSans-48"/>
       <use x="114.355469" xlink:href="#OpenSans-48"/>
       <use x="171.533203" xlink:href="#OpenSans-51"/>
      </g>
     </g>
    </g>
    <g id="xtick_5">
     <g id="line2d_5"/>
     <g id="text_5">
      <!-- 2004 -->
      <defs>
       <path d="M 55.171875 16.40625 
L 44.578125 16.40625 
L 44.578125 0 
L 36.8125 0 
L 36.8125 16.40625 
L 2.09375 16.40625 
L 2.09375 23.484375 
L 35.984375 71.78125 
L 44.578125 71.78125 
L 44.578125 23.78125 
L 55.171875 23.78125 
z
M 36.8125 23.78125 
L 36.8125 47.515625 
Q 36.8125 54.5 37.3125 63.28125 
L 36.921875 63.28125 
Q 34.578125 58.59375 32.515625 55.515625 
L 10.203125 23.78125 
z
" id="OpenSans-52"/>
      </defs>
      <g transform="translate(353.329633 624.276562)scale(0.22 -0.22)">
       <use xlink:href="#OpenSans-50"/>
       <use x="57.177734" xlink:href="#OpenSans-48"/>
       <use x="114.355469" xlink:href="#OpenSans-48"/>
       <use x="171.533203" xlink:href="#OpenSans-52"/>
      </g>
     </g>
    </g>
    <g id="xtick_6">
     <g id="line2d_6"/>
     <g id="text_6">
      <!-- 2005 -->
      <defs>
       <path d="M 27.203125 43.609375 
Q 38.484375 43.609375 44.953125 38.015625 
Q 51.421875 32.421875 51.421875 22.703125 
Q 51.421875 11.625 44.359375 5.3125 
Q 37.3125 -0.984375 24.90625 -0.984375 
Q 12.84375 -0.984375 6.5 2.875 
L 6.5 10.6875 
Q 9.90625 8.5 14.984375 7.25 
Q 20.0625 6 25 6 
Q 33.59375 6 38.34375 10.046875 
Q 43.109375 14.109375 43.109375 21.78125 
Q 43.109375 36.71875 24.8125 36.71875 
Q 20.171875 36.71875 12.40625 35.296875 
L 8.203125 37.984375 
L 10.890625 71.390625 
L 46.390625 71.390625 
L 46.390625 63.921875 
L 17.828125 63.921875 
L 16.015625 42.484375 
Q 21.625 43.609375 27.203125 43.609375 
z
" id="OpenSans-53"/>
      </defs>
      <g transform="translate(427.601282 624.276562)scale(0.22 -0.22)">
       <use xlink:href="#OpenSans-50"/>
       <use x="57.177734" xlink:href="#OpenSans-48"/>
       <use x="114.355469" xlink:href="#OpenSans-48"/>
       <use x="171.533203" xlink:href="#OpenSans-53"/>
      </g>
     </g>
    </g>
    <g id="xtick_7">
     <g id="line2d_7"/>
     <g id="text_7">
      <!-- 2006 -->
      <defs>
       <path d="M 5.71875 30.515625 
Q 5.71875 51.5625 13.890625 61.984375 
Q 22.078125 72.40625 38.09375 72.40625 
Q 43.609375 72.40625 46.78125 71.484375 
L 46.78125 64.5 
Q 43.015625 65.71875 38.1875 65.71875 
Q 26.703125 65.71875 20.640625 58.5625 
Q 14.59375 51.421875 14.015625 36.078125 
L 14.59375 36.078125 
Q 19.96875 44.484375 31.59375 44.484375 
Q 41.21875 44.484375 46.75 38.671875 
Q 52.296875 32.859375 52.296875 22.90625 
Q 52.296875 11.765625 46.21875 5.390625 
Q 40.140625 -0.984375 29.78125 -0.984375 
Q 18.703125 -0.984375 12.203125 7.34375 
Q 5.71875 15.671875 5.71875 30.515625 
z
M 29.6875 5.90625 
Q 36.625 5.90625 40.453125 10.28125 
Q 44.28125 14.65625 44.28125 22.90625 
Q 44.28125 29.984375 40.71875 34.03125 
Q 37.15625 38.09375 30.078125 38.09375 
Q 25.6875 38.09375 22.015625 36.28125 
Q 18.359375 34.46875 16.1875 31.296875 
Q 14.015625 28.125 14.015625 24.703125 
Q 14.015625 19.671875 15.96875 15.328125 
Q 17.921875 10.984375 21.5 8.4375 
Q 25.09375 5.90625 29.6875 5.90625 
z
" id="OpenSans-54"/>
      </defs>
      <g transform="translate(501.872932 624.276562)scale(0.22 -0.22)">
       <use xlink:href="#OpenSans-50"/>
       <use x="57.177734" xlink:href="#OpenSans-48"/>
       <use x="114.355469" xlink:href="#OpenSans-48"/>
       <use x="171.533203" xlink:href="#OpenSans-54"/>
      </g>
     </g>
    </g>
    <g id="xtick_8">
     <g id="line2d_8"/>
     <g id="text_8">
      <!-- 2007 -->
      <defs>
       <path d="M 13.921875 0 
L 43.5 63.921875 
L 4.59375 63.921875 
L 4.59375 71.390625 
L 52.09375 71.390625 
L 52.09375 64.890625 
L 22.90625 0 
z
" id="OpenSans-55"/>
      </defs>
      <g transform="translate(576.144581 624.276562)scale(0.22 -0.22)">
       <use xlink:href="#OpenSans-50"/>
       <use x="57.177734" xlink:href="#OpenSans-48"/>
       <use x="114.355469" xlink:href="#OpenSans-48"/>
       <use x="171.533203" xlink:href="#OpenSans-55"/>
      </g>
     </g>
    </g>
    <g id="xtick_9">
     <g id="line2d_9"/>
     <g id="text_9">
      <!-- 2008 -->
      <defs>
       <path d="M 28.515625 72.40625 
Q 38.28125 72.40625 43.984375 67.859375 
Q 49.703125 63.328125 49.703125 55.328125 
Q 49.703125 50.046875 46.4375 45.703125 
Q 43.171875 41.359375 35.984375 37.796875 
Q 44.671875 33.640625 48.328125 29.078125 
Q 52 24.515625 52 18.5 
Q 52 9.625 45.796875 4.3125 
Q 39.59375 -0.984375 28.8125 -0.984375 
Q 17.390625 -0.984375 11.234375 4.015625 
Q 5.078125 9.03125 5.078125 18.21875 
Q 5.078125 30.46875 20.015625 37.3125 
Q 13.28125 41.109375 10.34375 45.53125 
Q 7.421875 49.953125 7.421875 55.421875 
Q 7.421875 63.1875 13.15625 67.796875 
Q 18.890625 72.40625 28.515625 72.40625 
z
M 13.09375 18.015625 
Q 13.09375 12.15625 17.15625 8.875 
Q 21.234375 5.609375 28.609375 5.609375 
Q 35.890625 5.609375 39.9375 9.03125 
Q 44 12.453125 44 18.40625 
Q 44 23.140625 40.1875 26.828125 
Q 36.375 30.515625 26.90625 33.984375 
Q 19.625 30.859375 16.359375 27.078125 
Q 13.09375 23.296875 13.09375 18.015625 
z
M 28.421875 65.828125 
Q 22.3125 65.828125 18.84375 62.890625 
Q 15.375 59.96875 15.375 55.078125 
Q 15.375 50.59375 18.25 47.359375 
Q 21.140625 44.140625 28.90625 40.921875 
Q 35.890625 43.84375 38.796875 47.21875 
Q 41.703125 50.59375 41.703125 55.078125 
Q 41.703125 60.015625 38.15625 62.921875 
Q 34.625 65.828125 28.421875 65.828125 
z
" id="OpenSans-56"/>
      </defs>
      <g transform="translate(650.416231 624.276562)scale(0.22 -0.22)">
       <use xlink:href="#OpenSans-50"/>
       <use x="57.177734" xlink:href="#OpenSans-48"/>
       <use x="114.355469" xlink:href="#OpenSans-48"/>
       <use x="171.533203" xlink:href="#OpenSans-56"/>
      </g>
     </g>
    </g>
    <g id="xtick_10">
     <g id="line2d_10"/>
     <g id="text_10">
      <!-- 2009 -->
      <defs>
       <path d="M 51.8125 40.921875 
Q 51.8125 -0.984375 19.390625 -0.984375 
Q 13.71875 -0.984375 10.40625 0 
L 10.40625 6.984375 
Q 14.3125 5.71875 19.28125 5.71875 
Q 31 5.71875 36.984375 12.96875 
Q 42.96875 20.21875 43.5 35.203125 
L 42.921875 35.203125 
Q 40.234375 31.15625 35.78125 29.03125 
Q 31.34375 26.90625 25.78125 26.90625 
Q 16.3125 26.90625 10.734375 32.5625 
Q 5.171875 38.234375 5.171875 48.390625 
Q 5.171875 59.515625 11.390625 65.953125 
Q 17.625 72.40625 27.78125 72.40625 
Q 35.0625 72.40625 40.5 68.671875 
Q 45.953125 64.9375 48.875 57.78125 
Q 51.8125 50.640625 51.8125 40.921875 
z
M 27.78125 65.484375 
Q 20.796875 65.484375 16.984375 60.984375 
Q 13.1875 56.5 13.1875 48.484375 
Q 13.1875 41.453125 16.703125 37.421875 
Q 20.21875 33.40625 27.390625 33.40625 
Q 31.84375 33.40625 35.578125 35.203125 
Q 39.3125 37.015625 41.453125 40.140625 
Q 43.609375 43.265625 43.609375 46.6875 
Q 43.609375 51.8125 41.59375 56.15625 
Q 39.59375 60.5 36 62.984375 
Q 32.421875 65.484375 27.78125 65.484375 
z
" id="OpenSans-57"/>
      </defs>
      <g transform="translate(724.68788 624.276562)scale(0.22 -0.22)">
       <use xlink:href="#OpenSans-50"/>
       <use x="57.177734" xlink:href="#OpenSans-48"/>
       <use x="114.355469" xlink:href="#OpenSans-48"/>
       <use x="171.533203" xlink:href="#OpenSans-57"/>
      </g>
     </g>
    </g>
    <g id="xtick_11">
     <g id="line2d_11"/>
     <g id="text_11">
      <!-- 2010 -->
      <g transform="translate(798.95953 624.276562)scale(0.22 -0.22)">
       <use xlink:href="#OpenSans-50"/>
       <use x="57.177734" xlink:href="#OpenSans-48"/>
       <use x="114.355469" xlink:href="#OpenSans-49"/>
       <use x="171.533203" xlink:href="#OpenSans-48"/>
      </g>
     </g>
    </g>
    <g id="xtick_12">
     <g id="line2d_12"/>
     <g id="text_12">
      <!-- 2011 -->
      <g transform="translate(873.231179 624.276562)scale(0.22 -0.22)">
       <use xlink:href="#OpenSans-50"/>
       <use x="57.177734" xlink:href="#OpenSans-48"/>
       <use x="114.355469" xlink:href="#OpenSans-49"/>
       <use x="171.533203" xlink:href="#OpenSans-49"/>
      </g>
     </g>
    </g>
    <g id="xtick_13">
     <g id="line2d_13"/>
     <g id="text_13">
      <!-- 2012 -->
      <g transform="translate(947.502829 624.276562)scale(0.22 -0.22)">
       <use xlink:href="#OpenSans-50"/>
       <use x="57.177734" xlink:href="#OpenSans-48"/>
       <use x="114.355469" xlink:href="#OpenSans-49"/>
       <use x="171.533203" xlink:href="#OpenSans-50"/>
      </g>
     </g>
    </g>
    <g id="xtick_14">
     <g id="line2d_14"/>
     <g id="text_14">
      <!-- 2013 -->
      <g transform="translate(1021.774478 624.276562)scale(0.22 -0.22)">
       <use xlink:href="#OpenSans-50"/>
       <use x="57.177734" xlink:href="#OpenSans-48"/>
       <use x="114.355469" xlink:href="#OpenSans-49"/>
       <use x="171.533203" xlink:href="#OpenSans-51"/>
      </g>
     </g>
    </g>
    <g id="xtick_15">
     <g id="line2d_15"/>
     <g id="text_15">
      <!-- 2014 -->
      <g transform="translate(1096.046128 624.276562)scale(0.22 -0.22)">
       <use xlink:href="#OpenSans-50"/>
       <use x="57.177734" xlink:href="#OpenSans-48"/>
       <use x="114.355469" xlink:href="#OpenSans-49"/>
       <use x="171.533203" xlink:href="#OpenSans-52"/>
      </g>
     </g>
    </g>
    <g id="xtick_16">
     <g id="line2d_16"/>
     <g id="text_16">
      <!-- 2015 -->
      <g transform="translate(1170.317777 624.276562)scale(0.22 -0.22)">
       <use xlink:href="#OpenSans-50"/>
       <use x="57.177734" xlink:href="#OpenSans-48"/>
       <use x="114.355469" xlink:href="#OpenSans-49"/>
       <use x="171.533203" xlink:href="#OpenSans-53"/>
      </g>
     </g>
    </g>
    <g id="xtick_17">
     <g id="line2d_17"/>
     <g id="text_17">
      <!-- 2016 -->
      <g transform="translate(1244.589427 624.276562)scale(0.22 -0.22)">
       <use xlink:href="#OpenSans-50"/>
       <use x="57.177734" xlink:href="#OpenSans-48"/>
       <use x="114.355469" xlink:href="#OpenSans-49"/>
       <use x="171.533203" xlink:href="#OpenSans-54"/>
      </g>
     </g>
    </g>
    <g id="xtick_18">
     <g id="line2d_18"/>
     <g id="text_18">
      <!-- 2017 -->
      <g transform="translate(1318.861076 624.276562)scale(0.22 -0.22)">
       <use xlink:href="#OpenSans-50"/>
       <use x="57.177734" xlink:href="#OpenSans-48"/>
       <use x="114.355469" xlink:href="#OpenSans-49"/>
       <use x="171.533203" xlink:href="#OpenSans-55"/>
      </g>
     </g>
    </g>
    <g id="xtick_19">
     <g id="line2d_19"/>
     <g id="text_19">
      <!-- 2018 -->
      <g transform="translate(1393.132726 624.276562)scale(0.22 -0.22)">
       <use xlink:href="#OpenSans-50"/>
       <use x="57.177734" xlink:href="#OpenSans-48"/>
       <use x="114.355469" xlink:href="#OpenSans-49"/>
       <use x="171.533203" xlink:href="#OpenSans-56"/>
      </g>
     </g>
    </g>
   </g>
   <g id="matplotlib.axis_2">
    <g id="ytick_1">
     <g id="line2d_20">
      <path clip-path="url(#p74cc89cf84)" d="M 51.69 604.06 
L 1492.56 604.06 
" style="fill:none;stroke:#b0b0b0;stroke-linecap:square;stroke-width:0.8;"/>
     </g>
     <g id="line2d_21">
      <defs>
       <path d="M 0 0 
L -3.5 0 
" id="m93e0f7e828" style="stroke:#000000;stroke-width:0.8;"/>
      </defs>
      <g>
       <use style="stroke:#000000;stroke-width:0.8;" x="51.69" xlink:href="#m93e0f7e828" y="604.06"/>
      </g>
     </g>
     <g id="text_20">
      <!-- 0 -->
      <g transform="translate(32.112188 612.418281)scale(0.22 -0.22)">
       <use xlink:href="#OpenSans-48"/>
      </g>
     </g>
    </g>
    <g id="ytick_2">
     <g id="line2d_22">
      <path clip-path="url(#p74cc89cf84)" d="M 51.69 525.685714 
L 1492.56 525.685714 
" style="fill:none;stroke:#b0b0b0;stroke-linecap:square;stroke-width:0.8;"/>
     </g>
     <g id="line2d_23">
      <g>
       <use style="stroke:#000000;stroke-width:0.8;" x="51.69" xlink:href="#m93e0f7e828" y="525.685714"/>
      </g>
     </g>
     <g id="text_21">
      <!-- 10 -->
      <g transform="translate(19.534375 534.043996)scale(0.22 -0.22)">
       <use xlink:href="#OpenSans-49"/>
       <use x="57.177734" xlink:href="#OpenSans-48"/>
      </g>
     </g>
    </g>
    <g id="ytick_3">
     <g id="line2d_24">
      <path clip-path="url(#p74cc89cf84)" d="M 51.69 447.311429 
L 1492.56 447.311429 
" style="fill:none;stroke:#b0b0b0;stroke-linecap:square;stroke-width:0.8;"/>
     </g>
     <g id="line2d_25">
      <g>
       <use style="stroke:#000000;stroke-width:0.8;" x="51.69" xlink:href="#m93e0f7e828" y="447.311429"/>
      </g>
     </g>
     <g id="text_22">
      <!-- 20 -->
      <g transform="translate(19.534375 455.66971)scale(0.22 -0.22)">
       <use xlink:href="#OpenSans-50"/>
       <use x="57.177734" xlink:href="#OpenSans-48"/>
      </g>
     </g>
    </g>
    <g id="ytick_4">
     <g id="line2d_26">
      <path clip-path="url(#p74cc89cf84)" d="M 51.69 368.937143 
L 1492.56 368.937143 
" style="fill:none;stroke:#b0b0b0;stroke-linecap:square;stroke-width:0.8;"/>
     </g>
     <g id="line2d_27">
      <g>
       <use style="stroke:#000000;stroke-width:0.8;" x="51.69" xlink:href="#m93e0f7e828" y="368.937143"/>
      </g>
     </g>
     <g id="text_23">
      <!-- 30 -->
      <g transform="translate(19.534375 377.295424)scale(0.22 -0.22)">
       <use xlink:href="#OpenSans-51"/>
       <use x="57.177734" xlink:href="#OpenSans-48"/>
      </g>
     </g>
    </g>
    <g id="ytick_5">
     <g id="line2d_28">
      <path clip-path="url(#p74cc89cf84)" d="M 51.69 290.562857 
L 1492.56 290.562857 
" style="fill:none;stroke:#b0b0b0;stroke-linecap:square;stroke-width:0.8;"/>
     </g>
     <g id="line2d_29">
      <g>
       <use style="stroke:#000000;stroke-width:0.8;" x="51.69" xlink:href="#m93e0f7e828" y="290.562857"/>
      </g>
     </g>
     <g id="text_24">
      <!-- 40 -->
      <g transform="translate(19.534375 298.921138)scale(0.22 -0.22)">
       <use xlink:href="#OpenSans-52"/>
       <use x="57.177734" xlink:href="#OpenSans-48"/>
      </g>
     </g>
    </g>
    <g id="ytick_6">
     <g id="line2d_30">
      <path clip-path="url(#p74cc89cf84)" d="M 51.69 212.188571 
L 1492.56 212.188571 
" style="fill:none;stroke:#b0b0b0;stroke-linecap:square;stroke-width:0.8;"/>
     </g>
     <g id="line2d_31">
      <g>
       <use style="stroke:#000000;stroke-width:0.8;" x="51.69" xlink:href="#m93e0f7e828" y="212.188571"/>
      </g>
     </g>
     <g id="text_25">
      <!-- 50 -->
      <g transform="translate(19.534375 220.546853)scale(0.22 -0.22)">
       <use xlink:href="#OpenSans-53"/>
       <use x="57.177734" xlink:href="#OpenSans-48"/>
      </g>
     </g>
    </g>
    <g id="ytick_7">
     <g id="line2d_32">
      <path clip-path="url(#p74cc89cf84)" d="M 51.69 133.814286 
L 1492.56 133.814286 
" style="fill:none;stroke:#b0b0b0;stroke-linecap:square;stroke-width:0.8;"/>
     </g>
     <g id="line2d_33">
      <g>
       <use style="stroke:#000000;stroke-width:0.8;" x="51.69" xlink:href="#m93e0f7e828" y="133.814286"/>
      </g>
     </g>
     <g id="text_26">
      <!-- 60 -->
      <g transform="translate(19.534375 142.172567)scale(0.22 -0.22)">
       <use xlink:href="#OpenSans-54"/>
       <use x="57.177734" xlink:href="#OpenSans-48"/>
      </g>
     </g>
    </g>
    <g id="ytick_8">
     <g id="line2d_34">
      <path clip-path="url(#p74cc89cf84)" d="M 51.69 55.44 
L 1492.56 55.44 
" style="fill:none;stroke:#b0b0b0;stroke-linecap:square;stroke-width:0.8;"/>
     </g>
     <g id="line2d_35">
      <g>
       <use style="stroke:#000000;stroke-width:0.8;" x="51.69" xlink:href="#m93e0f7e828" y="55.44"/>
      </g>
     </g>
     <g id="text_27">
      <!-- 70 -->
      <g transform="translate(19.534375 63.798281)scale(0.22 -0.22)">
       <use xlink:href="#OpenSans-55"/>
       <use x="57.177734" xlink:href="#OpenSans-48"/>
      </g>
     </g>
    </g>
   </g>
   <g id="patch_3">
    <path clip-path="url(#p74cc89cf84)" d="M 51.69 604.06 
L 111.10732 604.06 
L 111.10732 580.547714 
L 51.69 580.547714 
z
" style="fill:#9bdcef;"/>
   </g>
   <g id="patch_4">
    <path clip-path="url(#p74cc89cf84)" d="M 125.961649 604.06 
L 185.378969 604.06 
L 185.378969 572.710286 
L 125.961649 572.710286 
z
" style="fill:#9bdcef;"/>
   </g>
   <g id="patch_5">
    <path clip-path="url(#p74cc89cf84)" d="M 200.233299 604.06 
L 259.650619 604.06 
L 259.650619 564.872857 
L 200.233299 564.872857 
z
" style="fill:#9bdcef;"/>
   </g>
   <g id="patch_6">
    <path clip-path="url(#p74cc89cf84)" d="M 274.504948 604.06 
L 333.922268 604.06 
L 333.922268 557.035429 
L 274.504948 557.035429 
z
" style="fill:#9bdcef;"/>
   </g>
   <g id="patch_7">
    <path clip-path="url(#p74cc89cf84)" d="M 348.776598 604.06 
L 408.193918 604.06 
L 408.193918 541.360571 
L 348.776598 541.360571 
z
" style="fill:#9bdcef;"/>
   </g>
   <g id="patch_8">
    <path clip-path="url(#p74cc89cf84)" d="M 423.048247 604.06 
L 482.465567 604.06 
L 482.465567 533.523143 
L 423.048247 533.523143 
z
" style="fill:#9bdcef;"/>
   </g>
   <g id="patch_9">
    <path clip-path="url(#p74cc89cf84)" d="M 497.319897 604.06 
L 556.737216 604.06 
L 556.737216 510.010857 
L 497.319897 510.010857 
z
" style="fill:#9bdcef;"/>
   </g>
   <g id="patch_10">
    <path clip-path="url(#p74cc89cf84)" d="M 571.591546 604.06 
L 631.008866 604.06 
L 631.008866 502.173429 
L 571.591546 502.173429 
z
" style="fill:#9bdcef;"/>
   </g>
   <g id="patch_11">
    <path clip-path="url(#p74cc89cf84)" d="M 645.863196 604.06 
L 705.280515 604.06 
L 705.280515 462.986286 
L 645.863196 462.986286 
z
" style="fill:#9bdcef;"/>
   </g>
   <g id="patch_12">
    <path clip-path="url(#p74cc89cf84)" d="M 720.134845 604.06 
L 779.552165 604.06 
L 779.552165 384.612 
L 720.134845 384.612 
z
" style="fill:#9bdcef;"/>
   </g>
   <g id="patch_13">
    <path clip-path="url(#p74cc89cf84)" d="M 794.406495 604.06 
L 853.823814 604.06 
L 853.823814 306.237714 
L 794.406495 306.237714 
z
" style="fill:#9bdcef;"/>
   </g>
   <g id="patch_14">
    <path clip-path="url(#p74cc89cf84)" d="M 868.678144 604.06 
L 928.095464 604.06 
L 928.095464 290.562857 
L 868.678144 290.562857 
z
" style="fill:#9bdcef;"/>
   </g>
   <g id="patch_15">
    <path clip-path="url(#p74cc89cf84)" d="M 942.949794 604.06 
L 1002.367113 604.06 
L 1002.367113 243.538286 
L 942.949794 243.538286 
z
" style="fill:#9bdcef;"/>
   </g>
   <g id="patch_16">
    <path clip-path="url(#p74cc89cf84)" d="M 1017.221443 604.06 
L 1076.638763 604.06 
L 1076.638763 212.188571 
L 1017.221443 212.188571 
z
" style="fill:#9bdcef;"/>
   </g>
   <g id="patch_17">
    <path clip-path="url(#p74cc89cf84)" d="M 1091.493093 604.06 
L 1150.910412 604.06 
L 1150.910412 196.513714 
L 1091.493093 196.513714 
z
" style="fill:#9bdcef;"/>
   </g>
   <g id="patch_18">
    <path clip-path="url(#p74cc89cf84)" d="M 1165.764742 604.06 
L 1225.182062 604.06 
L 1225.182062 173.001429 
L 1165.764742 173.001429 
z
" style="fill:#9bdcef;"/>
   </g>
   <g id="patch_19">
    <path clip-path="url(#p74cc89cf84)" d="M 1240.036392 604.06 
L 1299.453711 604.06 
L 1299.453711 149.489143 
L 1240.036392 149.489143 
z
" style="fill:#9bdcef;"/>
   </g>
   <g id="patch_20">
    <path clip-path="url(#p74cc89cf84)" d="M 1314.308041 604.06 
L 1373.725361 604.06 
L 1373.725361 133.814286 
L 1314.308041 133.814286 
z
" style="fill:#9bdcef;"/>
   </g>
   <g id="patch_21">
    <path clip-path="url(#p74cc89cf84)" d="M 1388.579691 604.06 
L 1447.99701 604.06 
L 1447.99701 110.302 
L 1388.579691 110.302 
z
" style="fill:#9bdcef;"/>
   </g>
   <g id="text_28">
    <!-- number of institutions involved in AWE -->
    <defs>
     <path d="M 45.21875 0 
L 45.21875 34.625 
Q 45.21875 41.15625 42.234375 44.375 
Q 39.265625 47.609375 32.90625 47.609375 
Q 24.515625 47.609375 20.609375 43.0625 
Q 16.703125 38.53125 16.703125 28.078125 
L 16.703125 0 
L 8.59375 0 
L 8.59375 53.515625 
L 15.1875 53.515625 
L 16.5 46.1875 
L 16.890625 46.1875 
Q 19.390625 50.140625 23.875 52.3125 
Q 28.375 54.5 33.890625 54.5 
Q 43.5625 54.5 48.4375 49.828125 
Q 53.328125 45.171875 53.328125 34.90625 
L 53.328125 0 
z
" id="OpenSans-110"/>
     <path d="M 16.21875 53.515625 
L 16.21875 18.796875 
Q 16.21875 12.25 19.1875 9.03125 
Q 22.171875 5.8125 28.515625 5.8125 
Q 36.921875 5.8125 40.796875 10.390625 
Q 44.671875 14.984375 44.671875 25.390625 
L 44.671875 53.515625 
L 52.78125 53.515625 
L 52.78125 0 
L 46.09375 0 
L 44.921875 7.171875 
L 44.484375 7.171875 
Q 42 3.21875 37.578125 1.109375 
Q 33.15625 -0.984375 27.484375 -0.984375 
Q 17.71875 -0.984375 12.859375 3.65625 
Q 8.015625 8.296875 8.015625 18.5 
L 8.015625 53.515625 
z
" id="OpenSans-117"/>
     <path d="M 76.8125 0 
L 76.8125 34.8125 
Q 76.8125 41.21875 74.078125 44.40625 
Q 71.34375 47.609375 65.578125 47.609375 
Q 58.015625 47.609375 54.390625 43.265625 
Q 50.78125 38.921875 50.78125 29.890625 
L 50.78125 0 
L 42.671875 0 
L 42.671875 34.8125 
Q 42.671875 41.21875 39.9375 44.40625 
Q 37.203125 47.609375 31.390625 47.609375 
Q 23.78125 47.609375 20.234375 43.046875 
Q 16.703125 38.484375 16.703125 28.078125 
L 16.703125 0 
L 8.59375 0 
L 8.59375 53.515625 
L 15.1875 53.515625 
L 16.5 46.1875 
L 16.890625 46.1875 
Q 19.1875 50.09375 23.359375 52.296875 
Q 27.546875 54.5 32.71875 54.5 
Q 45.265625 54.5 49.125 45.40625 
L 49.515625 45.40625 
Q 51.90625 49.609375 56.4375 52.046875 
Q 60.984375 54.5 66.796875 54.5 
Q 75.875 54.5 80.390625 49.828125 
Q 84.90625 45.171875 84.90625 34.90625 
L 84.90625 0 
z
" id="OpenSans-109"/>
     <path d="M 33.5 54.390625 
Q 44.046875 54.390625 49.875 47.1875 
Q 55.71875 39.984375 55.71875 26.8125 
Q 55.71875 13.625 49.828125 6.3125 
Q 43.953125 -0.984375 33.5 -0.984375 
Q 28.265625 -0.984375 23.9375 0.9375 
Q 19.625 2.875 16.703125 6.890625 
L 16.109375 6.890625 
L 14.40625 0 
L 8.59375 0 
L 8.59375 75.984375 
L 16.703125 75.984375 
L 16.703125 57.515625 
Q 16.703125 51.3125 16.3125 46.390625 
L 16.703125 46.390625 
Q 22.359375 54.390625 33.5 54.390625 
z
M 32.328125 47.609375 
Q 24.03125 47.609375 20.359375 42.84375 
Q 16.703125 38.09375 16.703125 26.8125 
Q 16.703125 15.53125 20.453125 10.671875 
Q 24.21875 5.8125 32.515625 5.8125 
Q 39.984375 5.8125 43.640625 11.25 
Q 47.3125 16.703125 47.3125 26.90625 
Q 47.3125 37.359375 43.640625 42.484375 
Q 39.984375 47.609375 32.328125 47.609375 
z
" id="OpenSans-98"/>
     <path d="M 31.203125 -0.984375 
Q 19.34375 -0.984375 12.46875 6.25 
Q 5.609375 13.484375 5.609375 26.3125 
Q 5.609375 39.265625 11.984375 46.875 
Q 18.359375 54.5 29.109375 54.5 
Q 39.15625 54.5 45.015625 47.875 
Q 50.875 41.265625 50.875 30.421875 
L 50.875 25.296875 
L 14.015625 25.296875 
Q 14.265625 15.875 18.78125 10.984375 
Q 23.296875 6.109375 31.5 6.109375 
Q 40.140625 6.109375 48.578125 9.71875 
L 48.578125 2.484375 
Q 44.28125 0.640625 40.453125 -0.171875 
Q 36.625 -0.984375 31.203125 -0.984375 
z
M 29 47.703125 
Q 22.5625 47.703125 18.71875 43.5 
Q 14.890625 39.3125 14.203125 31.890625 
L 42.1875 31.890625 
Q 42.1875 39.546875 38.765625 43.625 
Q 35.359375 47.703125 29 47.703125 
z
" id="OpenSans-101"/>
     <path d="M 33.015625 54.5 
Q 36.578125 54.5 39.40625 53.90625 
L 38.28125 46.390625 
Q 34.96875 47.125 32.421875 47.125 
Q 25.921875 47.125 21.3125 41.84375 
Q 16.703125 36.578125 16.703125 28.71875 
L 16.703125 0 
L 8.59375 0 
L 8.59375 53.515625 
L 15.28125 53.515625 
L 16.21875 43.609375 
L 16.609375 43.609375 
Q 19.578125 48.828125 23.78125 51.65625 
Q 27.984375 54.5 33.015625 54.5 
z
" id="OpenSans-114"/>
     <path id="OpenSans-32"/>
     <path d="M 54.78125 26.8125 
Q 54.78125 13.71875 48.1875 6.359375 
Q 41.609375 -0.984375 29.984375 -0.984375 
Q 22.796875 -0.984375 17.234375 2.390625 
Q 11.671875 5.765625 8.640625 12.0625 
Q 5.609375 18.359375 5.609375 26.8125 
Q 5.609375 39.890625 12.15625 47.1875 
Q 18.703125 54.5 30.328125 54.5 
Q 41.546875 54.5 48.15625 47.015625 
Q 54.78125 39.546875 54.78125 26.8125 
z
M 14.015625 26.8125 
Q 14.015625 16.546875 18.109375 11.171875 
Q 22.21875 5.8125 30.171875 5.8125 
Q 38.140625 5.8125 42.265625 11.15625 
Q 46.390625 16.5 46.390625 26.8125 
Q 46.390625 37.015625 42.265625 42.3125 
Q 38.140625 47.609375 30.078125 47.609375 
Q 22.125 47.609375 18.0625 42.375 
Q 14.015625 37.15625 14.015625 26.8125 
z
" id="OpenSans-111"/>
     <path d="M 32.71875 47.21875 
L 19.09375 47.21875 
L 19.09375 0 
L 10.984375 0 
L 10.984375 47.21875 
L 1.421875 47.21875 
L 1.421875 50.875 
L 10.984375 53.8125 
L 10.984375 56.78125 
Q 10.984375 76.515625 28.21875 76.515625 
Q 32.46875 76.515625 38.1875 74.8125 
L 36.078125 68.3125 
Q 31.390625 69.828125 28.078125 69.828125 
Q 23.484375 69.828125 21.28125 66.765625 
Q 19.09375 63.71875 19.09375 56.984375 
L 19.09375 53.515625 
L 32.71875 53.515625 
z
" id="OpenSans-102"/>
     <path d="M 16.703125 0 
L 8.59375 0 
L 8.59375 53.515625 
L 16.703125 53.515625 
z
M 7.90625 68.015625 
Q 7.90625 70.796875 9.265625 72.09375 
Q 10.640625 73.390625 12.703125 73.390625 
Q 14.65625 73.390625 16.0625 72.0625 
Q 17.484375 70.75 17.484375 68.015625 
Q 17.484375 65.28125 16.0625 63.9375 
Q 14.65625 62.59375 12.703125 62.59375 
Q 10.640625 62.59375 9.265625 63.9375 
Q 7.90625 65.28125 7.90625 68.015625 
z
" id="OpenSans-105"/>
     <path d="M 43.109375 14.59375 
Q 43.109375 7.125 37.546875 3.0625 
Q 31.984375 -0.984375 21.921875 -0.984375 
Q 11.28125 -0.984375 5.328125 2.390625 
L 5.328125 9.90625 
Q 9.1875 7.953125 13.59375 6.828125 
Q 18.015625 5.71875 22.125 5.71875 
Q 28.46875 5.71875 31.875 7.734375 
Q 35.296875 9.765625 35.296875 13.921875 
Q 35.296875 17.046875 32.59375 19.265625 
Q 29.890625 21.484375 22.015625 24.515625 
Q 14.546875 27.296875 11.390625 29.375 
Q 8.25 31.453125 6.703125 34.078125 
Q 5.171875 36.71875 5.171875 40.375 
Q 5.171875 46.921875 10.5 50.703125 
Q 15.828125 54.5 25.09375 54.5 
Q 33.734375 54.5 42 50.984375 
L 39.109375 44.390625 
Q 31.0625 47.703125 24.515625 47.703125 
Q 18.75 47.703125 15.8125 45.890625 
Q 12.890625 44.09375 12.890625 40.921875 
Q 12.890625 38.765625 13.984375 37.25 
Q 15.09375 35.75 17.53125 34.375 
Q 19.96875 33.015625 26.90625 30.421875 
Q 36.421875 26.953125 39.765625 23.4375 
Q 43.109375 19.921875 43.109375 14.59375 
z
" id="OpenSans-115"/>
     <path d="M 25.875 5.71875 
Q 28.03125 5.71875 30.03125 6.03125 
Q 32.03125 6.34375 33.203125 6.6875 
L 33.203125 0.484375 
Q 31.890625 -0.140625 29.328125 -0.5625 
Q 26.765625 -0.984375 24.703125 -0.984375 
Q 9.1875 -0.984375 9.1875 15.375 
L 9.1875 47.21875 
L 1.515625 47.21875 
L 1.515625 51.125 
L 9.1875 54.5 
L 12.59375 65.921875 
L 17.28125 65.921875 
L 17.28125 53.515625 
L 32.8125 53.515625 
L 32.8125 47.21875 
L 17.28125 47.21875 
L 17.28125 15.71875 
Q 17.28125 10.890625 19.578125 8.296875 
Q 21.875 5.71875 25.875 5.71875 
z
" id="OpenSans-116"/>
     <path d="M 20.3125 0 
L 0 53.515625 
L 8.6875 53.515625 
L 20.21875 21.78125 
Q 24.125 10.640625 24.8125 7.328125 
L 25.203125 7.328125 
Q 25.734375 9.90625 28.59375 18.03125 
Q 31.453125 26.171875 41.40625 53.515625 
L 50.09375 53.515625 
L 29.78125 0 
z
" id="OpenSans-118"/>
     <path d="M 16.703125 0 
L 8.59375 0 
L 8.59375 75.984375 
L 16.703125 75.984375 
z
" id="OpenSans-108"/>
     <path d="M 45.015625 7.171875 
L 44.578125 7.171875 
Q 38.96875 -0.984375 27.78125 -0.984375 
Q 17.28125 -0.984375 11.4375 6.1875 
Q 5.609375 13.375 5.609375 26.609375 
Q 5.609375 39.84375 11.46875 47.171875 
Q 17.328125 54.5 27.78125 54.5 
Q 38.671875 54.5 44.484375 46.578125 
L 45.125 46.578125 
L 44.78125 50.4375 
L 44.578125 54.203125 
L 44.578125 75.984375 
L 52.6875 75.984375 
L 52.6875 0 
L 46.09375 0 
z
M 28.8125 5.8125 
Q 37.109375 5.8125 40.84375 10.328125 
Q 44.578125 14.84375 44.578125 24.90625 
L 44.578125 26.609375 
Q 44.578125 37.984375 40.796875 42.84375 
Q 37.015625 47.703125 28.71875 47.703125 
Q 21.578125 47.703125 17.796875 42.15625 
Q 14.015625 36.625 14.015625 26.515625 
Q 14.015625 16.265625 17.765625 11.03125 
Q 21.53125 5.8125 28.8125 5.8125 
z
" id="OpenSans-100"/>
     <path d="M 54.6875 0 
L 45.796875 22.703125 
L 17.1875 22.703125 
L 8.40625 0 
L 0 0 
L 28.21875 71.6875 
L 35.203125 71.6875 
L 63.28125 0 
z
M 43.21875 30.171875 
L 34.90625 52.296875 
Q 33.296875 56.5 31.59375 62.59375 
Q 30.515625 57.90625 28.515625 52.296875 
L 20.125 30.171875 
z
" id="OpenSans-65"/>
     <path d="M 72.125 0 
L 63.921875 0 
L 49.515625 47.796875 
Q 48.484375 50.984375 47.21875 55.8125 
Q 45.953125 60.640625 45.90625 61.625 
Q 44.828125 55.171875 42.484375 47.515625 
L 28.515625 0 
L 20.3125 0 
L 1.3125 71.390625 
L 10.109375 71.390625 
L 21.390625 27.296875 
Q 23.734375 18.015625 24.8125 10.5 
Q 26.125 19.4375 28.71875 27.984375 
L 41.5 71.390625 
L 50.296875 71.390625 
L 63.71875 27.59375 
Q 66.0625 20.015625 67.671875 10.5 
Q 68.609375 17.4375 71.1875 27.390625 
L 82.421875 71.390625 
L 91.21875 71.390625 
z
" id="OpenSans-87"/>
     <path d="M 49.609375 0 
L 9.8125 0 
L 9.8125 71.390625 
L 49.609375 71.390625 
L 49.609375 64.015625 
L 18.109375 64.015625 
L 18.109375 41.015625 
L 47.703125 41.015625 
L 47.703125 33.6875 
L 18.109375 33.6875 
L 18.109375 7.421875 
L 49.609375 7.421875 
z
" id="OpenSans-69"/>
    </defs>
    <g transform="translate(573.250156 35.44)scale(0.22 -0.22)">
     <use xlink:href="#OpenSans-110"/>
     <use x="61.376953" xlink:href="#OpenSans-117"/>
     <use x="122.753906" xlink:href="#OpenSans-109"/>
     <use x="215.771484" xlink:href="#OpenSans-98"/>
     <use x="277.050781" xlink:href="#OpenSans-101"/>
     <use x="333.154297" xlink:href="#OpenSans-114"/>
     <use x="373.974609" xlink:href="#OpenSans-32"/>
     <use x="399.951172" xlink:href="#OpenSans-111"/>
     <use x="460.351562" xlink:href="#OpenSans-102"/>
     <use x="494.238281" xlink:href="#OpenSans-32"/>
     <use x="520.214844" xlink:href="#OpenSans-105"/>
     <use x="545.507812" xlink:href="#OpenSans-110"/>
     <use x="606.884766" xlink:href="#OpenSans-115"/>
     <use x="654.589844" xlink:href="#OpenSans-116"/>
     <use x="689.892578" xlink:href="#OpenSans-105"/>
     <use x="715.185547" xlink:href="#OpenSans-116"/>
     <use x="750.488281" xlink:href="#OpenSans-117"/>
     <use x="811.865234" xlink:href="#OpenSans-116"/>
     <use x="847.167969" xlink:href="#OpenSans-105"/>
     <use x="872.460938" xlink:href="#OpenSans-111"/>
     <use x="932.861328" xlink:href="#OpenSans-110"/>
     <use x="994.238281" xlink:href="#OpenSans-115"/>
     <use x="1041.943359" xlink:href="#OpenSans-32"/>
     <use x="1067.919922" xlink:href="#OpenSans-105"/>
     <use x="1093.212891" xlink:href="#OpenSans-110"/>
     <use x="1154.589844" xlink:href="#OpenSans-118"/>
     <use x="1204.6875" xlink:href="#OpenSans-111"/>
     <use x="1265.087891" xlink:href="#OpenSans-108"/>
     <use x="1290.380859" xlink:href="#OpenSans-118"/>
     <use x="1340.478516" xlink:href="#OpenSans-101"/>
     <use x="1396.582031" xlink:href="#OpenSans-100"/>
     <use x="1457.861328" xlink:href="#OpenSans-32"/>
     <use x="1483.837891" xlink:href="#OpenSans-105"/>
     <use x="1509.130859" xlink:href="#OpenSans-110"/>
     <use x="1570.507812" xlink:href="#OpenSans-32"/>
     <use x="1596.484375" xlink:href="#OpenSans-65"/>
     <use x="1659.703125" xlink:href="#OpenSans-87"/>
     <use x="1752.28125" xlink:href="#OpenSans-69"/>
    </g>
   </g>
  </g>
 </g>
 <defs>
  <clipPath id="p74cc89cf84">
   <rect height="548.62" width="1440.87" x="51.69" y="55.44"/>
  </clipPath>
 </defs>
</svg>
