<?xml version="1.0" encoding="utf-8" standalone="no"?>
<!DOCTYPE svg PUBLIC "-//W3C//DTD SVG 1.1//EN"
  "http://www.w3.org/Graphics/SVG/1.1/DTD/svg11.dtd">
<!-- Created with matplotlib (https://matplotlib.org/) -->
<svg height="360pt" version="1.1" viewBox="0 0 720 360" width="720pt" xmlns="http://www.w3.org/2000/svg" xmlns:xlink="http://www.w3.org/1999/xlink">
 <defs>
  <style type="text/css">
*{stroke-linecap:butt;stroke-linejoin:round;white-space:pre;}
  </style>
 </defs>
 <g id="figure_1">
  <g id="patch_1">
   <path d="M 0 360 
L 720 360 
L 720 0 
L 0 0 
z
" style="fill:#ffffff;"/>
  </g>
  <g id="axes_1">
   <g id="patch_2">
    <path d="M 73.12 299.88 
L 344.44 299.88 
L 344.44 32.12 
L 73.12 32.12 
z
" style="fill:#ffffff;"/>
   </g>
   <g id="matplotlib.axis_1">
    <g id="xtick_1">
     <g id="line2d_1">
      <defs>
       <path d="M 0 0 
L 0 3.5 
" id="m345ad3e71b" style="stroke:#000000;stroke-width:0.8;"/>
      </defs>
      <g>
       <use style="stroke:#000000;stroke-width:0.8;" x="73.12" xlink:href="#m345ad3e71b" y="299.88"/>
      </g>
     </g>
     <g id="text_1">
      <text style="font-family:Open Sans;font-size:14px;font-style:normal;font-weight:normal;text-anchor:middle;" transform="rotate(-0, 73.12, 317.517812)" x="73.12" y="317.517812">0.0</text>
     </g>
    </g>
    <g id="xtick_2">
     <g id="line2d_2">
      <g>
       <use style="stroke:#000000;stroke-width:0.8;" x="127.384" xlink:href="#m345ad3e71b" y="299.88"/>
      </g>
     </g>
     <g id="text_2">
      <text style="font-family:Open Sans;font-size:14px;font-style:normal;font-weight:normal;text-anchor:middle;" transform="rotate(-0, 127.384, 317.517812)" x="127.384" y="317.517812">0.2</text>
     </g>
    </g>
    <g id="xtick_3">
     <g id="line2d_3">
      <g>
       <use style="stroke:#000000;stroke-width:0.8;" x="181.648" xlink:href="#m345ad3e71b" y="299.88"/>
      </g>
     </g>
     <g id="text_3">
      <text style="font-family:Open Sans;font-size:14px;font-style:normal;font-weight:normal;text-anchor:middle;" transform="rotate(-0, 181.648, 317.517812)" x="181.648" y="317.517812">0.4</text>
     </g>
    </g>
    <g id="xtick_4">
     <g id="line2d_4">
      <g>
       <use style="stroke:#000000;stroke-width:0.8;" x="235.912" xlink:href="#m345ad3e71b" y="299.88"/>
      </g>
     </g>
     <g id="text_4">
      <text style="font-family:Open Sans;font-size:14px;font-style:normal;font-weight:normal;text-anchor:middle;" transform="rotate(-0, 235.912, 317.517812)" x="235.912" y="317.517812">0.6</text>
     </g>
    </g>
    <g id="xtick_5">
     <g id="line2d_5">
      <g>
       <use style="stroke:#000000;stroke-width:0.8;" x="290.176" xlink:href="#m345ad3e71b" y="299.88"/>
      </g>
     </g>
     <g id="text_5">
      <text style="font-family:Open Sans;font-size:14px;font-style:normal;font-weight:normal;text-anchor:middle;" transform="rotate(-0, 290.176, 317.517812)" x="290.176" y="317.517812">0.8</text>
     </g>
    </g>
    <g id="xtick_6">
     <g id="line2d_6">
      <g>
       <use style="stroke:#000000;stroke-width:0.8;" x="344.44" xlink:href="#m345ad3e71b" y="299.88"/>
      </g>
     </g>
     <g id="text_6">
      <text style="font-family:Open Sans;font-size:14px;font-style:normal;font-weight:normal;text-anchor:middle;" transform="rotate(-0, 344.44, 317.517812)" x="344.44" y="317.517812">1.0</text>
     </g>
    </g>
    <g id="text_7">
     <!-- reeling factor $f\, [-]$ -->
     <g transform="translate(148.65 335.662187)">
      <text>
       <tspan style="font-family:Open Sans;font-size:14px;font-style:regular;font-weight:regular;" x="0 5.714844 13.569336 21.423828 24.964844 28.505859 37.098633 44.768555 48.405273 53.149414 60.935547 67.600586 72.542969 80.999023 86.713867" y="-0.28125">reeling factor </tspan>
       <tspan style="font-family:DejaVu Sans;font-size:14px;font-style:oblique;font-weight:oblique;" x="90.350586" y="-0.28125">f</tspan>
       <tspan style="font-family:DejaVu Sans;font-size:14px;font-style:book;font-weight:book;" x="97.552292 103.014206 114.744674" y="-0.28125">[−]</tspan>
      </text>
     </g>
    </g>
   </g>
   <g id="matplotlib.axis_2">
    <g id="ytick_1">
     <g id="line2d_7">
      <defs>
       <path d="M 0 0 
L -3.5 0 
" id="m69b3186b2b" style="stroke:#000000;stroke-width:0.8;"/>
      </defs>
      <g>
       <use style="stroke:#000000;stroke-width:0.8;" x="73.12" xlink:href="#m69b3186b2b" y="299.88"/>
      </g>
     </g>
     <g id="text_8">
      <text style="font-family:Open Sans;font-size:14px;font-style:normal;font-weight:normal;text-anchor:end;" transform="rotate(-0, 66.12, 305.198906)" x="66.12" y="305.198906">0.00</text>
     </g>
    </g>
    <g id="ytick_2">
     <g id="line2d_8">
      <g>
       <use style="stroke:#000000;stroke-width:0.8;" x="73.12" xlink:href="#m69b3186b2b" y="266.41"/>
      </g>
     </g>
     <g id="text_9">
      <text style="font-family:Open Sans;font-size:14px;font-style:normal;font-weight:normal;text-anchor:end;" transform="rotate(-0, 66.12, 271.728906)" x="66.12" y="271.728906">0.05</text>
     </g>
    </g>
    <g id="ytick_3">
     <g id="line2d_9">
      <g>
       <use style="stroke:#000000;stroke-width:0.8;" x="73.12" xlink:href="#m69b3186b2b" y="232.94"/>
      </g>
     </g>
     <g id="text_10">
      <text style="font-family:Open Sans;font-size:14px;font-style:normal;font-weight:normal;text-anchor:end;" transform="rotate(-0, 66.12, 238.258906)" x="66.12" y="238.258906">0.10</text>
     </g>
    </g>
    <g id="ytick_4">
     <g id="line2d_10">
      <g>
       <use style="stroke:#000000;stroke-width:0.8;" x="73.12" xlink:href="#m69b3186b2b" y="199.47"/>
      </g>
     </g>
     <g id="text_11">
      <text style="font-family:Open Sans;font-size:14px;font-style:normal;font-weight:normal;text-anchor:end;" transform="rotate(-0, 66.12, 204.788906)" x="66.12" y="204.788906">0.15</text>
     </g>
    </g>
    <g id="ytick_5">
     <g id="line2d_11">
      <g>
       <use style="stroke:#000000;stroke-width:0.8;" x="73.12" xlink:href="#m69b3186b2b" y="166"/>
      </g>
     </g>
     <g id="text_12">
      <text style="font-family:Open Sans;font-size:14px;font-style:normal;font-weight:normal;text-anchor:end;" transform="rotate(-0, 66.12, 171.318906)" x="66.12" y="171.318906">0.20</text>
     </g>
    </g>
    <g id="ytick_6">
     <g id="line2d_12">
      <g>
       <use style="stroke:#000000;stroke-width:0.8;" x="73.12" xlink:href="#m69b3186b2b" y="132.53"/>
      </g>
     </g>
     <g id="text_13">
      <text style="font-family:Open Sans;font-size:14px;font-style:normal;font-weight:normal;text-anchor:end;" transform="rotate(-0, 66.12, 137.848906)" x="66.12" y="137.848906">0.25</text>
     </g>
    </g>
    <g id="ytick_7">
     <g id="line2d_13">
      <g>
       <use style="stroke:#000000;stroke-width:0.8;" x="73.12" xlink:href="#m69b3186b2b" y="99.06"/>
      </g>
     </g>
     <g id="text_14">
      <text style="font-family:Open Sans;font-size:14px;font-style:normal;font-weight:normal;text-anchor:end;" transform="rotate(-0, 66.12, 104.378906)" x="66.12" y="104.378906">0.30</text>
     </g>
    </g>
    <g id="ytick_8">
     <g id="line2d_14">
      <g>
       <use style="stroke:#000000;stroke-width:0.8;" x="73.12" xlink:href="#m69b3186b2b" y="65.59"/>
      </g>
     </g>
     <g id="text_15">
      <text style="font-family:Open Sans;font-size:14px;font-style:normal;font-weight:normal;text-anchor:end;" transform="rotate(-0, 66.12, 70.908906)" x="66.12" y="70.908906">0.35</text>
     </g>
    </g>
    <g id="ytick_9">
     <g id="line2d_15">
      <g>
       <use style="stroke:#000000;stroke-width:0.8;" x="73.12" xlink:href="#m69b3186b2b" y="32.12"/>
      </g>
     </g>
     <g id="text_16">
      <text style="font-family:Open Sans;font-size:14px;font-style:normal;font-weight:normal;text-anchor:end;" transform="rotate(-0, 66.12, 37.438906)" x="66.12" y="37.438906">0.40</text>
     </g>
    </g>
    <g id="text_17">
     <!-- power harvesting factor $\zeta\, [-]$ -->
     <g transform="translate(30.8825 261.83)rotate(-90)">
      <text>
       <tspan style="font-family:Open Sans;font-size:14px;font-style:regular;font-weight:regular;" x="0 8.579102 17.035156 27.924805 35.779297 41.494141 45.130859 53.723633 61.509766 67.224609 74.238281 82.092773 88.771484 93.713867 97.254883 105.847656 113.517578 117.154297 121.898438 129.68457 136.349609 141.291992 149.748047 155.462891" y="-0.28125">power harvesting factor </tspan>
       <tspan style="font-family:DejaVu Sans;font-size:14px;font-style:oblique;font-weight:oblique;" x="159.099609" y="-0.28125">ζ</tspan>
       <tspan style="font-family:DejaVu Sans;font-size:14px;font-style:book;font-weight:book;" x="168.987838 174.449752 186.180221" y="-0.28125">[−]</tspan>
      </text>
     </g>
    </g>
   </g>
   <g id="line2d_16">
    <path clip-path="url(#p25fbb3c8e8)" d="M 73.12 299.88 
L 75.860606 293.012445 
L 78.601212 286.203408 
L 81.341818 279.456735 
L 84.082424 272.776245 
L 86.82303 266.16572 
L 89.563636 259.628912 
L 92.304242 253.16954 
L 95.044848 246.79129 
L 97.785455 240.497817 
L 100.526061 234.29274 
L 103.266667 228.179648 
L 106.007273 222.162094 
L 108.747879 216.2436 
L 111.488485 210.427652 
L 114.229091 204.717702 
L 116.969697 199.117168 
L 119.710303 193.629433 
L 122.450909 188.257845 
L 125.191515 183.005714 
L 127.932121 177.876317 
L 130.672727 172.872892 
L 133.413333 167.99864 
L 136.153939 163.256725 
L 138.894545 158.65027 
L 141.635152 154.182361 
L 144.375758 149.856043 
L 147.116364 145.674322 
L 149.85697 141.640159 
L 152.597576 137.756476 
L 155.338182 134.02615 
L 158.078788 130.452013 
L 160.819394 127.036853 
L 163.56 123.78341 
L 166.300606 120.694378 
L 169.041212 117.7724 
L 171.781818 115.02007 
L 174.522424 112.439929 
L 177.26303 110.034466 
L 180.003636 107.806114 
L 182.744242 105.757249 
L 185.484848 103.890188 
L 188.225455 102.207188 
L 190.966061 100.710443 
L 193.706667 99.402082 
L 196.447273 98.284165 
L 199.187879 97.358682 
L 201.928485 96.62755 
L 204.669091 96.092611 
L 207.409697 95.755623 
L 210.150303 95.618265 
L 212.890909 95.682128 
L 215.631515 95.948709 
L 218.372121 96.419411 
L 221.112727 97.095536 
L 223.853333 97.97828 
L 226.593939 99.068725 
L 229.334545 100.367836 
L 232.075152 101.876453 
L 234.815758 103.595281 
L 237.556364 105.524884 
L 240.29697 107.665676 
L 243.037576 110.01791 
L 245.778182 112.581666 
L 248.518788 115.356838 
L 251.259394 118.343125 
L 254 121.540008 
L 256.740606 124.946739 
L 259.481212 128.562318 
L 262.221818 132.385473 
L 264.962424 136.414633 
L 267.70303 140.647903 
L 270.443636 145.083028 
L 273.184242 149.71736 
L 275.924848 154.547815 
L 278.665455 159.570821 
L 281.406061 164.782265 
L 284.146667 170.177422 
L 286.887273 175.750884 
L 289.627879 181.496456 
L 292.368485 187.407056 
L 295.109091 193.474571 
L 297.849697 199.689701 
L 300.590303 206.041754 
L 303.330909 212.518399 
L 306.071515 219.105351 
L 308.812121 225.785974 
L 311.552727 232.540764 
L 314.293333 239.346666 
L 317.033939 246.176168 
L 319.774545 252.996045 
L 322.515152 259.765599 
L 325.255758 266.434103 
L 327.996364 272.936947 
L 330.73697 279.189584 
L 333.477576 285.077467 
L 336.218182 290.438103 
L 338.958788 295.02595 
L 341.699394 298.434059 
L 344.44 299.88 
" style="fill:none;stroke:#ff0000;stroke-linecap:square;stroke-width:1.5;"/>
   </g>
   <g id="line2d_17">
    <path clip-path="url(#p25fbb3c8e8)" d="M 73.12 299.88 
L 75.860606 293.098999 
L 78.601212 286.349385 
L 81.341818 279.635211 
L 84.082424 272.960515 
L 86.82303 266.329314 
L 89.563636 259.745612 
L 92.304242 253.213396 
L 95.044848 246.736634 
L 97.785455 240.319279 
L 100.526061 233.965267 
L 103.266667 227.678515 
L 106.007273 221.462927 
L 108.747879 215.322384 
L 111.488485 209.260755 
L 114.229091 203.281886 
L 116.969697 197.389611 
L 119.710303 191.58774 
L 122.450909 185.88007 
L 125.191515 180.270375 
L 127.932121 174.762413 
L 130.672727 169.359923 
L 133.413333 164.066624 
L 136.153939 158.886215 
L 138.894545 153.822374 
L 141.635152 148.878762 
L 144.375758 144.059016 
L 147.116364 139.366754 
L 149.85697 134.805571 
L 152.597576 130.379041 
L 155.338182 126.090714 
L 158.078788 121.944119 
L 160.819394 117.94276 
L 163.56 114.090116 
L 166.300606 110.389643 
L 169.041212 106.84477 
L 171.781818 103.458901 
L 174.522424 100.235411 
L 177.26303 97.177649 
L 180.003636 94.288934 
L 182.744242 91.572555 
L 185.484848 89.031771 
L 188.225455 86.669808 
L 190.966061 84.48986 
L 193.706667 82.495087 
L 196.447273 80.688611 
L 199.187879 79.073518 
L 201.928485 77.652856 
L 204.669091 76.429632 
L 207.409697 75.40681 
L 210.150303 74.587311 
L 212.890909 73.974008 
L 215.631515 73.569726 
L 218.372121 73.377239 
L 221.112727 73.399266 
L 223.853333 73.638469 
L 226.593939 74.097452 
L 229.334545 74.778751 
L 232.075152 75.684838 
L 234.815758 76.818109 
L 237.556364 78.180888 
L 240.29697 79.775412 
L 243.037576 81.603832 
L 245.778182 83.668205 
L 248.518788 85.970487 
L 251.259394 88.512522 
L 254 91.296036 
L 256.740606 94.322629 
L 259.481212 97.593756 
L 262.221818 101.110724 
L 264.962424 104.874669 
L 267.70303 108.886543 
L 270.443636 113.147095 
L 273.184242 117.656847 
L 275.924848 122.416071 
L 278.665455 127.424754 
L 281.406061 132.682568 
L 284.146667 138.188827 
L 286.887273 143.942434 
L 289.627879 149.941825 
L 292.368485 156.184897 
L 295.109091 162.668917 
L 297.849697 169.390415 
L 300.590303 176.345049 
L 303.330909 183.527433 
L 306.071515 190.930914 
L 308.812121 198.547289 
L 311.552727 206.366421 
L 314.293333 214.375724 
L 317.033939 222.559443 
L 319.774545 230.897637 
L 322.515152 239.364663 
L 325.255758 247.926864 
L 327.996364 256.538837 
L 330.73697 265.137042 
L 333.477576 273.627941 
L 336.218182 281.863489 
L 338.958788 289.581726 
L 341.699394 296.220091 
L 344.44 299.88 
" style="fill:none;stroke:#ff0000;stroke-linecap:square;stroke-width:1.5;"/>
   </g>
   <g id="line2d_18">
    <path clip-path="url(#p25fbb3c8e8)" d="M 73.12 299.88 
L 75.860606 293.113166 
L 78.601212 286.368651 
L 81.341818 279.650549 
L 84.082424 272.962945 
L 86.82303 266.309911 
L 89.563636 259.69551 
L 92.304242 253.123791 
L 95.044848 246.598795 
L 97.785455 240.124548 
L 100.526061 233.705068 
L 103.266667 227.34436 
L 106.007273 221.046418 
L 108.747879 214.815222 
L 111.488485 208.654744 
L 114.229091 202.568942 
L 116.969697 196.561763 
L 119.710303 190.63714 
L 122.450909 184.798996 
L 125.191515 179.05124 
L 127.932121 173.397769 
L 130.672727 167.842469 
L 133.413333 162.389209 
L 136.153939 157.041849 
L 138.894545 151.804232 
L 141.635152 146.68019 
L 144.375758 141.673541 
L 147.116364 136.788086 
L 149.85697 132.027616 
L 152.597576 127.395902 
L 155.338182 122.896705 
L 158.078788 118.533766 
L 160.819394 114.310813 
L 163.56 110.231558 
L 166.300606 106.299693 
L 169.041212 102.518897 
L 171.781818 98.892827 
L 174.522424 95.425126 
L 177.26303 92.119416 
L 180.003636 88.979298 
L 182.744242 86.008357 
L 185.484848 83.210154 
L 188.225455 80.588229 
L 190.966061 78.146101 
L 193.706667 75.887265 
L 196.447273 73.815191 
L 199.187879 71.933326 
L 201.928485 70.245089 
L 204.669091 68.753873 
L 207.409697 67.463042 
L 210.150303 66.375929 
L 212.890909 65.495838 
L 215.631515 64.826037 
L 218.372121 64.369763 
L 221.112727 64.130213 
L 223.853333 64.110548 
L 226.593939 64.313886 
L 229.334545 64.743304 
L 232.075152 65.401831 
L 234.815758 66.292449 
L 237.556364 67.418087 
L 240.29697 68.781617 
L 243.037576 70.385855 
L 245.778182 72.233548 
L 248.518788 74.327378 
L 251.259394 76.66995 
L 254 79.263791 
L 256.740606 82.111337 
L 259.481212 85.214931 
L 262.221818 88.576812 
L 264.962424 92.199101 
L 267.70303 96.083797 
L 270.443636 100.232759 
L 273.184242 104.647689 
L 275.924848 109.330117 
L 278.665455 114.281383 
L 281.406061 119.502604 
L 284.146667 124.994654 
L 286.887273 130.758123 
L 289.627879 136.793279 
L 292.368485 143.100015 
L 295.109091 149.677789 
L 297.849697 156.525546 
L 300.590303 163.641624 
L 303.330909 171.023628 
L 306.071515 178.668277 
L 308.812121 186.571198 
L 311.552727 194.726646 
L 314.293333 203.127139 
L 317.033939 211.762925 
L 319.774545 220.621236 
L 322.515152 229.685163 
L 325.255758 238.93191 
L 327.996364 248.329946 
L 330.73697 257.834022 
L 333.477576 267.375678 
L 336.218182 276.842882 
L 338.958788 286.027779 
L 341.699394 294.444079 
L 344.44 299.88 
" style="fill:none;stroke:#ff0000;stroke-linecap:square;stroke-width:1.5;"/>
   </g>
   <g id="line2d_19">
    <path clip-path="url(#p25fbb3c8e8)" d="M 73.12 299.88 
L 75.860606 293.117454 
L 78.601212 286.372687 
L 81.341818 279.64981 
L 84.082424 272.952926 
L 86.82303 266.286129 
L 89.563636 259.653507 
L 92.304242 253.059136 
L 95.044848 246.507087 
L 97.785455 240.001419 
L 100.526061 233.546185 
L 103.266667 227.145429 
L 106.007273 220.803186 
L 108.747879 214.523482 
L 111.488485 208.310334 
L 114.229091 202.167752 
L 116.969697 196.099734 
L 119.710303 190.110271 
L 122.450909 184.203344 
L 125.191515 178.382925 
L 127.932121 172.652977 
L 130.672727 167.017453 
L 133.413333 161.480295 
L 136.153939 156.045437 
L 138.894545 150.716801 
L 141.635152 145.498302 
L 144.375758 140.39384 
L 147.116364 135.407308 
L 149.85697 130.542587 
L 152.597576 125.803546 
L 155.338182 121.194044 
L 158.078788 116.717928 
L 160.819394 112.379031 
L 163.56 108.181177 
L 166.300606 104.128175 
L 169.041212 100.223822 
L 171.781818 96.471903 
L 174.522424 92.876186 
L 177.26303 89.440428 
L 180.003636 86.16837 
L 182.744242 83.063738 
L 185.484848 80.130242 
L 188.225455 77.371576 
L 190.966061 74.791419 
L 193.706667 72.39343 
L 196.447273 70.181251 
L 199.187879 68.158506 
L 201.928485 66.328797 
L 204.669091 64.695707 
L 207.409697 63.262799 
L 210.150303 62.03361 
L 212.890909 61.011656 
L 215.631515 60.200427 
L 218.372121 59.603388 
L 221.112727 59.223975 
L 223.853333 59.065596 
L 226.593939 59.131628 
L 229.334545 59.425416 
L 232.075152 59.950268 
L 234.815758 60.709459 
L 237.556364 61.706221 
L 240.29697 62.943746 
L 243.037576 64.425181 
L 245.778182 66.153623 
L 248.518788 68.132119 
L 251.259394 70.363659 
L 254 72.851172 
L 256.740606 75.597519 
L 259.481212 78.605492 
L 262.221818 81.877803 
L 264.962424 85.417076 
L 267.70303 89.225842 
L 270.443636 93.306525 
L 273.184242 97.661431 
L 275.924848 102.292738 
L 278.665455 107.202475 
L 281.406061 112.392508 
L 284.146667 117.864514 
L 286.887273 123.619955 
L 289.627879 129.660052 
L 292.368485 135.985736 
L 295.109091 142.597612 
L 297.849697 149.495891 
L 300.590303 156.680321 
L 303.330909 164.150095 
L 306.071515 171.903726 
L 308.812121 179.938892 
L 311.552727 188.252221 
L 314.293333 196.839006 
L 317.033939 205.692797 
L 319.774545 214.804816 
L 322.515152 224.163084 
L 325.255758 233.751049 
L 327.996364 243.545348 
L 330.73697 253.511846 
L 333.477576 263.598036 
L 336.218182 273.716493 
L 338.958788 283.701467 
L 341.699394 293.150502 
L 344.44 299.88 
" style="fill:none;stroke:#ff0000;stroke-linecap:square;stroke-width:1.5;"/>
   </g>
   <g id="line2d_20">
    <path clip-path="url(#p25fbb3c8e8)" d="M 73.12 299.88 
L 75.860606 293.11987 
L 78.601212 286.372976 
L 81.341818 279.643442 
L 84.082424 272.935386 
L 86.82303 266.252922 
L 89.563636 259.600156 
L 92.304242 252.98119 
L 95.044848 246.400121 
L 97.785455 239.861038 
L 100.526061 233.368027 
L 103.266667 226.925166 
L 106.007273 220.536529 
L 108.747879 214.206182 
L 111.488485 207.938188 
L 114.229091 201.736601 
L 116.969697 195.605472 
L 119.710303 189.548843 
L 122.450909 183.570751 
L 125.191515 177.675229 
L 127.932121 171.866299 
L 130.672727 166.147982 
L 133.413333 160.524288 
L 136.153939 154.999223 
L 138.894545 149.576785 
L 141.635152 144.260965 
L 144.375758 139.055749 
L 147.116364 133.965114 
L 149.85697 128.993029 
L 152.597576 124.143458 
L 155.338182 119.420356 
L 158.078788 114.82767 
L 160.819394 110.36934 
L 163.56 106.049297 
L 166.300606 101.871463 
L 169.041212 97.839753 
L 171.781818 93.958072 
L 174.522424 90.230316 
L 177.26303 86.660372 
L 180.003636 83.252117 
L 182.744242 80.009417 
L 185.484848 76.936129 
L 188.225455 74.036099 
L 190.966061 71.31316 
L 193.706667 68.771136 
L 196.447273 66.413837 
L 199.187879 64.245061 
L 201.928485 62.268594 
L 204.669091 60.488205 
L 207.409697 58.907651 
L 210.150303 57.530675 
L 212.890909 56.361003 
L 215.631515 55.402343 
L 218.372121 54.658387 
L 221.112727 54.132808 
L 223.853333 53.829262 
L 226.593939 53.75138 
L 229.334545 53.902775 
L 232.075152 54.287035 
L 234.815758 54.907723 
L 237.556364 55.768378 
L 240.29697 56.872508 
L 243.037576 58.223592 
L 245.778182 59.825078 
L 248.518788 61.680377 
L 251.259394 63.792864 
L 254 66.165871 
L 256.740606 68.802688 
L 259.481212 71.706555 
L 262.221818 74.88066 
L 264.962424 78.328133 
L 267.70303 82.05204 
L 270.443636 86.055375 
L 273.184242 90.341056 
L 275.924848 94.91191 
L 278.665455 99.770668 
L 281.406061 104.91995 
L 284.146667 110.362249 
L 286.887273 116.099914 
L 289.627879 122.13513 
L 292.368485 128.469889 
L 295.109091 135.105963 
L 297.849697 142.044858 
L 300.590303 149.287769 
L 303.330909 156.835513 
L 306.071515 164.688453 
L 308.812121 172.846381 
L 311.552727 181.308385 
L 314.293333 190.072644 
L 317.033939 199.136155 
L 319.774545 208.49433 
L 322.515152 218.140401 
L 325.255758 228.064475 
L 327.996364 238.251984 
L 330.73697 248.680941 
L 333.477576 259.316619 
L 336.218182 270.099862 
L 338.958788 280.915897 
L 341.699394 291.476715 
L 344.44 299.88 
" style="fill:none;stroke:#ff0000;stroke-linecap:square;stroke-width:1.5;"/>
   </g>
   <g id="line2d_21">
    <path clip-path="url(#p25fbb3c8e8)" d="M 73.12 299.88 
L 75.860606 293.119075 
L 78.601212 286.362292 
L 81.341818 279.613791 
L 84.082424 272.87771 
L 86.82303 266.15819 
L 89.563636 259.459368 
L 92.304242 252.785386 
L 95.044848 246.140382 
L 97.785455 239.528495 
L 100.526061 232.953865 
L 103.266667 226.420631 
L 106.007273 219.932932 
L 108.747879 213.494908 
L 111.488485 207.110698 
L 114.229091 200.784442 
L 116.969697 194.520278 
L 119.710303 188.322346 
L 122.450909 182.194785 
L 125.191515 176.141735 
L 127.932121 170.167335 
L 130.672727 164.275725 
L 133.413333 158.471042 
L 136.153939 152.757428 
L 138.894545 147.139021 
L 141.635152 141.61996 
L 144.375758 136.204385 
L 147.116364 130.896435 
L 149.85697 125.70025 
L 152.597576 120.619968 
L 155.338182 115.659728 
L 158.078788 110.823672 
L 160.819394 106.115936 
L 163.56 101.540662 
L 166.300606 97.101987 
L 169.041212 92.804052 
L 171.781818 88.650995 
L 174.522424 84.646957 
L 177.26303 80.796075 
L 180.003636 77.10249 
L 182.744242 73.570341 
L 185.484848 70.203766 
L 188.225455 67.006906 
L 190.966061 63.983899 
L 193.706667 61.138885 
L 196.447273 58.476003 
L 199.187879 55.999391 
L 201.928485 53.713191 
L 204.669091 51.62154 
L 207.409697 49.728578 
L 210.150303 48.038444 
L 212.890909 46.555277 
L 215.631515 45.283217 
L 218.372121 44.226403 
L 221.112727 43.388973 
L 223.853333 42.775068 
L 226.593939 42.388826 
L 229.334545 42.234387 
L 232.075152 42.315889 
L 234.815758 42.637473 
L 237.556364 43.203276 
L 240.29697 44.017438 
L 243.037576 45.084099 
L 245.778182 46.407398 
L 248.518788 47.991473 
L 251.259394 49.840463 
L 254 51.958509 
L 256.740606 54.349749 
L 259.481212 57.018321 
L 262.221818 59.968366 
L 264.962424 63.204021 
L 267.70303 66.729427 
L 270.443636 70.548722 
L 273.184242 74.666045 
L 275.924848 79.085535 
L 278.665455 83.811331 
L 281.406061 88.847572 
L 284.146667 94.198396 
L 286.887273 99.867943 
L 289.627879 105.860352 
L 292.368485 112.17976 
L 295.109091 118.830307 
L 297.849697 125.816131 
L 300.590303 133.14137 
L 303.330909 140.810164 
L 306.071515 148.82665 
L 308.812121 157.194966 
L 311.552727 165.919249 
L 314.293333 175.003639 
L 317.033939 184.452271 
L 319.774545 194.269283 
L 322.515152 204.458809 
L 325.255758 215.024987 
L 327.996364 225.971949 
L 330.73697 237.303826 
L 333.477576 249.024746 
L 336.218182 261.138829 
L 338.958788 273.650176 
L 341.699394 286.562835 
L 344.44 299.88 
" style="fill:none;stroke:#ff0000;stroke-dasharray:5.55,2.4;stroke-dashoffset:0;stroke-width:1.5;"/>
   </g>
   <g id="line2d_22">
    <path clip-path="url(#p25fbb3c8e8)" d="M 176.844136 126.35127 
L 178.633356 129.401549 
L 180.372593 131.23938 
L 182.051147 132.201898 
L 183.66256 132.525426 
L 185.203529 132.379185 
L 186.673039 131.886458 
L 188.071691 131.138338 
L 189.40119 130.202911 
L 190.663961 129.131546 
L 193.001056 126.728011 
L 195.108071 124.142794 
L 197.010422 121.503115 
L 199.531697 117.597617 
L 202.379473 112.674026 
L 205.294374 107.11363 
L 208.495764 100.43737 
L 211.579728 93.468745 
L 214.944495 85.284677 
L 218.413167 76.227191 
L 221.988009 66.240907 
L 225.637305 55.366303 
L 226.161217 53.748527 
L 226.161217 53.748527 
" style="fill:none;stroke:#0000ff;stroke-dasharray:1.5,2.475;stroke-dashoffset:0;stroke-width:1.5;"/>
   </g>
   <g id="line2d_23">
    <path clip-path="url(#p25fbb3c8e8)" d="M 227.046361 50.982933 
L 227.582627 49.287575 
L 227.942299 48.142107 
L 228.200268 47.316384 
L 228.394325 46.692944 
L 228.545602 46.205577 
L 228.666841 45.814121 
L 229.655987 42.591616 
L 229.755599 42.264252 
L 229.765567 42.231464 
" style="fill:none;stroke:#0000ff;stroke-dasharray:1.5,2.475;stroke-dashoffset:0;stroke-width:1.5;"/>
   </g>
   <g id="patch_3">
    <path d="M 73.12 299.88 
L 73.12 32.12 
" style="fill:none;stroke:#000000;stroke-linecap:square;stroke-linejoin:miter;stroke-width:0.8;"/>
   </g>
   <g id="patch_4">
    <path d="M 344.44 299.88 
L 344.44 32.12 
" style="fill:none;stroke:#000000;stroke-linecap:square;stroke-linejoin:miter;stroke-width:0.8;"/>
   </g>
   <g id="patch_5">
    <path d="M 73.12 299.88 
L 344.44 299.88 
" style="fill:none;stroke:#000000;stroke-linecap:square;stroke-linejoin:miter;stroke-width:0.8;"/>
   </g>
   <g id="patch_6">
    <path d="M 73.12 32.12 
L 344.44 32.12 
" style="fill:none;stroke:#000000;stroke-linecap:square;stroke-linejoin:miter;stroke-width:0.8;"/>
   </g>
   <g id="text_18">
    <text style="font-family:Open Sans;font-size:14px;font-style:normal;font-weight:normal;text-anchor:middle;" transform="rotate(-0, 208.78, 26.12)" x="208.78" y="26.12">regular kite</text>
   </g>
  </g>
  <g id="axes_2">
   <g id="patch_7">
    <path d="M 423.685 299.88 
L 695.005 299.88 
L 695.005 32.12 
L 423.685 32.12 
z
" style="fill:#ffffff;"/>
   </g>
   <g id="matplotlib.axis_3">
    <g id="xtick_7">
     <g id="line2d_24">
      <g>
       <use style="stroke:#000000;stroke-width:0.8;" x="423.685" xlink:href="#m345ad3e71b" y="299.88"/>
      </g>
     </g>
     <g id="text_19">
      <text style="font-family:Open Sans;font-size:14px;font-style:normal;font-weight:normal;text-anchor:middle;" transform="rotate(-0, 423.685, 317.517812)" x="423.685" y="317.517812">0.0</text>
     </g>
    </g>
    <g id="xtick_8">
     <g id="line2d_25">
      <g>
       <use style="stroke:#000000;stroke-width:0.8;" x="477.949" xlink:href="#m345ad3e71b" y="299.88"/>
      </g>
     </g>
     <g id="text_20">
      <text style="font-family:Open Sans;font-size:14px;font-style:normal;font-weight:normal;text-anchor:middle;" transform="rotate(-0, 477.949, 317.517812)" x="477.949" y="317.517812">0.2</text>
     </g>
    </g>
    <g id="xtick_9">
     <g id="line2d_26">
      <g>
       <use style="stroke:#000000;stroke-width:0.8;" x="532.213" xlink:href="#m345ad3e71b" y="299.88"/>
      </g>
     </g>
     <g id="text_21">
      <text style="font-family:Open Sans;font-size:14px;font-style:normal;font-weight:normal;text-anchor:middle;" transform="rotate(-0, 532.213, 317.517812)" x="532.213" y="317.517812">0.4</text>
     </g>
    </g>
    <g id="xtick_10">
     <g id="line2d_27">
      <g>
       <use style="stroke:#000000;stroke-width:0.8;" x="586.477" xlink:href="#m345ad3e71b" y="299.88"/>
      </g>
     </g>
     <g id="text_22">
      <text style="font-family:Open Sans;font-size:14px;font-style:normal;font-weight:normal;text-anchor:middle;" transform="rotate(-0, 586.477, 317.517812)" x="586.477" y="317.517812">0.6</text>
     </g>
    </g>
    <g id="xtick_11">
     <g id="line2d_28">
      <g>
       <use style="stroke:#000000;stroke-width:0.8;" x="640.741" xlink:href="#m345ad3e71b" y="299.88"/>
      </g>
     </g>
     <g id="text_23">
      <text style="font-family:Open Sans;font-size:14px;font-style:normal;font-weight:normal;text-anchor:middle;" transform="rotate(-0, 640.741, 317.517812)" x="640.741" y="317.517812">0.8</text>
     </g>
    </g>
    <g id="xtick_12">
     <g id="line2d_29">
      <g>
       <use style="stroke:#000000;stroke-width:0.8;" x="695.005" xlink:href="#m345ad3e71b" y="299.88"/>
      </g>
     </g>
     <g id="text_24">
      <text style="font-family:Open Sans;font-size:14px;font-style:normal;font-weight:normal;text-anchor:middle;" transform="rotate(-0, 695.005, 317.517812)" x="695.005" y="317.517812">1.0</text>
     </g>
    </g>
    <g id="text_25">
     <!-- reeling factor $f\, [-]$ -->
     <g transform="translate(499.215 335.662187)">
      <text>
       <tspan style="font-family:Open Sans;font-size:14px;font-style:regular;font-weight:regular;" x="0 5.714844 13.569336 21.423828 24.964844 28.505859 37.098633 44.768555 48.405273 53.149414 60.935547 67.600586 72.542969 80.999023 86.713867" y="-0.28125">reeling factor </tspan>
       <tspan style="font-family:DejaVu Sans;font-size:14px;font-style:oblique;font-weight:oblique;" x="90.350586" y="-0.28125">f</tspan>
       <tspan style="font-family:DejaVu Sans;font-size:14px;font-style:book;font-weight:book;" x="97.552292 103.014206 114.744674" y="-0.28125">[−]</tspan>
      </text>
     </g>
    </g>
   </g>
   <g id="matplotlib.axis_4">
    <g id="ytick_10">
     <g id="line2d_30">
      <g>
       <use style="stroke:#000000;stroke-width:0.8;" x="423.685" xlink:href="#m69b3186b2b" y="299.88"/>
      </g>
     </g>
     <g id="text_26">
      <text style="font-family:Open Sans;font-size:14px;font-style:normal;font-weight:normal;text-anchor:end;" transform="rotate(-0, 416.685, 305.198906)" x="416.685" y="305.198906">0</text>
     </g>
    </g>
    <g id="ytick_11">
     <g id="line2d_31">
      <g>
       <use style="stroke:#000000;stroke-width:0.8;" x="423.685" xlink:href="#m69b3186b2b" y="261.628571"/>
      </g>
     </g>
     <g id="text_27">
      <text style="font-family:Open Sans;font-size:14px;font-style:normal;font-weight:normal;text-anchor:end;" transform="rotate(-0, 416.685, 266.947478)" x="416.685" y="266.947478">20</text>
     </g>
    </g>
    <g id="ytick_12">
     <g id="line2d_32">
      <g>
       <use style="stroke:#000000;stroke-width:0.8;" x="423.685" xlink:href="#m69b3186b2b" y="223.377143"/>
      </g>
     </g>
     <g id="text_28">
      <text style="font-family:Open Sans;font-size:14px;font-style:normal;font-weight:normal;text-anchor:end;" transform="rotate(-0, 416.685, 228.696049)" x="416.685" y="228.696049">40</text>
     </g>
    </g>
    <g id="ytick_13">
     <g id="line2d_33">
      <g>
       <use style="stroke:#000000;stroke-width:0.8;" x="423.685" xlink:href="#m69b3186b2b" y="185.125714"/>
      </g>
     </g>
     <g id="text_29">
      <text style="font-family:Open Sans;font-size:14px;font-style:normal;font-weight:normal;text-anchor:end;" transform="rotate(-0, 416.685, 190.444621)" x="416.685" y="190.444621">60</text>
     </g>
    </g>
    <g id="ytick_14">
     <g id="line2d_34">
      <g>
       <use style="stroke:#000000;stroke-width:0.8;" x="423.685" xlink:href="#m69b3186b2b" y="146.874286"/>
      </g>
     </g>
     <g id="text_30">
      <text style="font-family:Open Sans;font-size:14px;font-style:normal;font-weight:normal;text-anchor:end;" transform="rotate(-0, 416.685, 152.193192)" x="416.685" y="152.193192">80</text>
     </g>
    </g>
    <g id="ytick_15">
     <g id="line2d_35">
      <g>
       <use style="stroke:#000000;stroke-width:0.8;" x="423.685" xlink:href="#m69b3186b2b" y="108.622857"/>
      </g>
     </g>
     <g id="text_31">
      <text style="font-family:Open Sans;font-size:14px;font-style:normal;font-weight:normal;text-anchor:end;" transform="rotate(-0, 416.685, 113.941763)" x="416.685" y="113.941763">100</text>
     </g>
    </g>
    <g id="ytick_16">
     <g id="line2d_36">
      <g>
       <use style="stroke:#000000;stroke-width:0.8;" x="423.685" xlink:href="#m69b3186b2b" y="70.371429"/>
      </g>
     </g>
     <g id="text_32">
      <text style="font-family:Open Sans;font-size:14px;font-style:normal;font-weight:normal;text-anchor:end;" transform="rotate(-0, 416.685, 75.690335)" x="416.685" y="75.690335">120</text>
     </g>
    </g>
    <g id="ytick_17">
     <g id="line2d_37">
      <g>
       <use style="stroke:#000000;stroke-width:0.8;" x="423.685" xlink:href="#m69b3186b2b" y="32.12"/>
      </g>
     </g>
     <g id="text_33">
      <text style="font-family:Open Sans;font-size:14px;font-style:normal;font-weight:normal;text-anchor:end;" transform="rotate(-0, 416.685, 37.438906)" x="416.685" y="37.438906">140</text>
     </g>
    </g>
    <g id="text_34">
     <!-- power harvesting factor $\zeta\, [-]$ -->
     <g transform="translate(385.172813 261.83)rotate(-90)">
      <text>
       <tspan style="font-family:Open Sans;font-size:14px;font-style:regular;font-weight:regular;" x="0 8.579102 17.035156 27.924805 35.779297 41.494141 45.130859 53.723633 61.509766 67.224609 74.238281 82.092773 88.771484 93.713867 97.254883 105.847656 113.517578 117.154297 121.898438 129.68457 136.349609 141.291992 149.748047 155.462891" y="-0.28125">power harvesting factor </tspan>
       <tspan style="font-family:DejaVu Sans;font-size:14px;font-style:oblique;font-weight:oblique;" x="159.099609" y="-0.28125">ζ</tspan>
       <tspan style="font-family:DejaVu Sans;font-size:14px;font-style:book;font-weight:book;" x="168.987838 174.449752 186.180221" y="-0.28125">[−]</tspan>
      </text>
     </g>
    </g>
   </g>
   <g id="line2d_38">
    <path clip-path="url(#p0a30c5da47)" d="M 423.685 299.88 
L 426.425606 299.378057 
L 429.166212 298.896497 
L 431.906818 298.435007 
L 434.647424 297.993272 
L 437.38803 297.570979 
L 440.128636 297.167815 
L 442.869242 296.783466 
L 445.609848 296.417619 
L 448.350455 296.069959 
L 451.091061 295.740174 
L 453.831667 295.427949 
L 456.572273 295.132971 
L 459.312879 294.854927 
L 462.053485 294.593503 
L 464.794091 294.348385 
L 467.534697 294.11926 
L 470.275303 293.905814 
L 473.015909 293.707734 
L 475.756515 293.524706 
L 478.497121 293.356416 
L 481.237727 293.202551 
L 483.978333 293.062797 
L 486.718939 292.936841 
L 489.459545 292.824369 
L 492.200152 292.725067 
L 494.940758 292.638623 
L 497.681364 292.564722 
L 500.42197 292.50305 
L 503.162576 292.453295 
L 505.903182 292.415142 
L 508.643788 292.388279 
L 511.384394 292.37239 
L 514.125 292.367164 
L 516.865606 292.372286 
L 519.606212 292.387442 
L 522.346818 292.41232 
L 525.087424 292.446605 
L 527.82803 292.489984 
L 530.568636 292.542144 
L 533.309242 292.60277 
L 536.049848 292.671549 
L 538.790455 292.748168 
L 541.531061 292.832313 
L 544.271667 292.92367 
L 547.012273 293.021927 
L 549.752879 293.126768 
L 552.493485 293.237881 
L 555.234091 293.354952 
L 557.974697 293.477668 
L 560.715303 293.605715 
L 563.455909 293.738779 
L 566.196515 293.876546 
L 568.937121 294.018704 
L 571.677727 294.164939 
L 574.418333 294.314936 
L 577.158939 294.468383 
L 579.899545 294.624966 
L 582.640152 294.784371 
L 585.380758 294.946285 
L 588.121364 295.110393 
L 590.86197 295.276384 
L 593.602576 295.443942 
L 596.343182 295.612754 
L 599.083788 295.782508 
L 601.824394 295.952888 
L 604.565 296.123582 
L 607.305606 296.294276 
L 610.046212 296.464656 
L 612.786818 296.63441 
L 615.527424 296.803222 
L 618.26803 296.97078 
L 621.008636 297.136771 
L 623.749242 297.300879 
L 626.489848 297.462793 
L 629.230455 297.622198 
L 631.971061 297.778781 
L 634.711667 297.932228 
L 637.452273 298.082225 
L 640.192879 298.22846 
L 642.933485 298.370618 
L 645.674091 298.508385 
L 648.414697 298.641449 
L 651.155303 298.769496 
L 653.895909 298.892212 
L 656.636515 299.009283 
L 659.377121 299.120396 
L 662.117727 299.225237 
L 664.858333 299.323494 
L 667.598939 299.414851 
L 670.339545 299.498996 
L 673.080152 299.575615 
L 675.820758 299.644394 
L 678.561364 299.70502 
L 681.30197 299.75718 
L 684.042576 299.800559 
L 686.783182 299.834844 
L 689.523788 299.859722 
L 692.264394 299.874878 
L 695.005 299.88 
" style="fill:none;stroke:#ff0000;stroke-linecap:square;stroke-width:1.5;"/>
   </g>
   <g id="line2d_39">
    <path clip-path="url(#p0a30c5da47)" d="M 423.685 299.88 
L 426.425606 297.958474 
L 429.166212 296.114977 
L 431.906818 294.34831 
L 434.647424 292.657271 
L 437.38803 291.04066 
L 440.128636 289.497277 
L 442.869242 288.025921 
L 445.609848 286.625391 
L 448.350455 285.294488 
L 451.091061 284.032011 
L 453.831667 282.83676 
L 456.572273 281.707533 
L 459.312879 280.643131 
L 462.053485 279.642352 
L 464.794091 278.703998 
L 467.534697 277.826866 
L 470.275303 277.009758 
L 473.015909 276.251471 
L 475.756515 275.550806 
L 478.497121 274.906563 
L 481.237727 274.31754 
L 483.978333 273.782538 
L 486.718939 273.300356 
L 489.459545 272.869793 
L 492.200152 272.48965 
L 494.940758 272.158725 
L 497.681364 271.875818 
L 500.42197 271.639728 
L 503.162576 271.449256 
L 505.903182 271.303201 
L 508.643788 271.200362 
L 511.384394 271.139539 
L 514.125 271.119532 
L 516.865606 271.139139 
L 519.606212 271.197161 
L 522.346818 271.292397 
L 525.087424 271.423647 
L 527.82803 271.589709 
L 530.568636 271.789385 
L 533.309242 272.021473 
L 536.049848 272.284772 
L 538.790455 272.578083 
L 541.531061 272.900205 
L 544.271667 273.249937 
L 547.012273 273.626079 
L 549.752879 274.027431 
L 552.493485 274.452791 
L 555.234091 274.900961 
L 557.974697 275.370738 
L 560.715303 275.860924 
L 563.455909 276.370316 
L 566.196515 276.897715 
L 568.937121 277.441921 
L 571.677727 278.001733 
L 574.418333 278.575949 
L 577.158939 279.163371 
L 579.899545 279.762798 
L 582.640152 280.373029 
L 585.380758 280.992863 
L 588.121364 281.6211 
L 590.86197 282.25654 
L 593.602576 282.897983 
L 596.343182 283.544227 
L 599.083788 284.194073 
L 601.824394 284.846319 
L 604.565 285.499766 
L 607.305606 286.153213 
L 610.046212 286.805459 
L 612.786818 287.455305 
L 615.527424 288.101549 
L 618.26803 288.742991 
L 621.008636 289.378432 
L 623.749242 290.006669 
L 626.489848 290.626503 
L 629.230455 291.236734 
L 631.971061 291.83616 
L 634.711667 292.423582 
L 637.452273 292.997799 
L 640.192879 293.557611 
L 642.933485 294.101817 
L 645.674091 294.629216 
L 648.414697 295.138608 
L 651.155303 295.628794 
L 653.895909 296.098571 
L 656.636515 296.54674 
L 659.377121 296.972101 
L 662.117727 297.373453 
L 664.858333 297.749595 
L 667.598939 298.099327 
L 670.339545 298.421449 
L 673.080152 298.71476 
L 675.820758 298.978059 
L 678.561364 299.210147 
L 681.30197 299.409822 
L 684.042576 299.575885 
L 686.783182 299.707135 
L 689.523788 299.802371 
L 692.264394 299.860393 
L 695.005 299.88 
" style="fill:none;stroke:#ff0000;stroke-linecap:square;stroke-width:1.5;"/>
   </g>
   <g id="line2d_40">
    <path clip-path="url(#p0a30c5da47)" d="M 423.685 299.88 
L 426.425606 295.592189 
L 429.166212 291.478498 
L 431.906818 287.536248 
L 434.647424 283.76276 
L 437.38803 280.155355 
L 440.128636 276.711355 
L 442.869242 273.428082 
L 445.609848 270.302855 
L 448.350455 267.332997 
L 451.091061 264.515828 
L 453.831667 261.84867 
L 456.572273 259.328845 
L 459.312879 256.953673 
L 462.053485 254.720475 
L 464.794091 252.626573 
L 467.534697 250.669288 
L 470.275303 248.845942 
L 473.015909 247.153855 
L 475.756515 245.590348 
L 478.497121 244.152744 
L 481.237727 242.838363 
L 483.978333 241.644527 
L 486.718939 240.568556 
L 489.459545 239.607772 
L 492.200152 238.759496 
L 494.940758 238.021049 
L 497.681364 237.389754 
L 500.42197 236.86293 
L 503.162576 236.437899 
L 505.903182 236.111982 
L 508.643788 235.882502 
L 511.384394 235.746777 
L 514.125 235.702131 
L 516.865606 235.745884 
L 519.606212 235.875358 
L 522.346818 236.087874 
L 525.087424 236.380752 
L 527.82803 236.751315 
L 530.568636 237.196883 
L 533.309242 237.714777 
L 536.049848 238.30232 
L 538.790455 238.956832 
L 541.531061 239.675634 
L 544.271667 240.456047 
L 547.012273 241.295394 
L 549.752879 242.190995 
L 552.493485 243.140171 
L 555.234091 244.140243 
L 557.974697 245.188534 
L 560.715303 246.282363 
L 563.455909 247.419052 
L 566.196515 248.595924 
L 568.937121 249.810297 
L 571.677727 251.059495 
L 574.418333 252.340838 
L 577.158939 253.651647 
L 579.899545 254.989244 
L 582.640152 256.35095 
L 585.380758 257.734086 
L 588.121364 259.135974 
L 590.86197 260.553934 
L 593.602576 261.985287 
L 596.343182 263.427356 
L 599.083788 264.877461 
L 601.824394 266.332924 
L 604.565 267.791066 
L 607.305606 269.249207 
L 610.046212 270.70467 
L 612.786818 272.154775 
L 615.527424 273.596844 
L 618.26803 275.028198 
L 621.008636 276.446158 
L 623.749242 277.848045 
L 626.489848 279.231181 
L 629.230455 280.592887 
L 631.971061 281.930484 
L 634.711667 283.241293 
L 637.452273 284.522636 
L 640.192879 285.771834 
L 642.933485 286.986208 
L 645.674091 288.163079 
L 648.414697 289.299768 
L 651.155303 290.393598 
L 653.895909 291.441888 
L 656.636515 292.441961 
L 659.377121 293.391137 
L 662.117727 294.286737 
L 664.858333 295.126084 
L 667.598939 295.906498 
L 670.339545 296.6253 
L 673.080152 297.279811 
L 675.820758 297.867354 
L 678.561364 298.385249 
L 681.30197 298.830817 
L 684.042576 299.201379 
L 686.783182 299.494258 
L 689.523788 299.706773 
L 692.264394 299.836247 
L 695.005 299.88 
" style="fill:none;stroke:#ff0000;stroke-linecap:square;stroke-width:1.5;"/>
   </g>
   <g id="line2d_41">
    <path clip-path="url(#p0a30c5da47)" d="M 423.685 299.88 
L 426.425606 292.279349 
L 429.166212 284.987346 
L 431.906818 277.999242 
L 434.647424 271.310289 
L 437.38803 264.915739 
L 440.128636 258.810843 
L 442.869242 252.990852 
L 445.609848 247.451019 
L 448.350455 242.186595 
L 451.091061 237.192831 
L 453.831667 232.464979 
L 456.572273 227.998291 
L 459.312879 223.788018 
L 462.053485 219.829411 
L 464.794091 216.117723 
L 467.534697 212.648205 
L 470.275303 209.416108 
L 473.015909 206.416684 
L 475.756515 203.645184 
L 478.497121 201.096861 
L 481.237727 198.766966 
L 483.978333 196.650749 
L 486.718939 194.743464 
L 489.459545 193.040361 
L 492.200152 191.536692 
L 494.940758 190.227709 
L 497.681364 189.108662 
L 500.42197 188.174805 
L 503.162576 187.421387 
L 505.903182 186.843662 
L 508.643788 186.43688 
L 511.384394 186.196293 
L 514.125 186.117152 
L 516.865606 186.19471 
L 519.606212 186.424218 
L 522.346818 186.800926 
L 525.087424 187.320088 
L 527.82803 187.976954 
L 530.568636 188.766776 
L 533.309242 189.684805 
L 536.049848 190.726294 
L 538.790455 191.886493 
L 541.531061 193.160655 
L 544.271667 194.54403 
L 547.012273 196.031871 
L 549.752879 197.619429 
L 552.493485 199.301955 
L 555.234091 201.074702 
L 557.974697 202.93292 
L 560.715303 204.871862 
L 563.455909 206.886778 
L 566.196515 208.972921 
L 568.937121 211.125542 
L 571.677727 213.339892 
L 574.418333 215.611224 
L 577.158939 217.934788 
L 579.899545 220.305837 
L 582.640152 222.719621 
L 585.380758 225.171393 
L 588.121364 227.656404 
L 590.86197 230.169906 
L 593.602576 232.707149 
L 596.343182 235.263386 
L 599.083788 237.833869 
L 601.824394 240.413848 
L 604.565 242.998576 
L 607.305606 245.583304 
L 610.046212 248.163284 
L 612.786818 250.733766 
L 615.527424 253.290003 
L 618.26803 255.827247 
L 621.008636 258.340748 
L 623.749242 260.825759 
L 626.489848 263.277531 
L 629.230455 265.691316 
L 631.971061 268.062364 
L 634.711667 270.385928 
L 637.452273 272.65726 
L 640.192879 274.87161 
L 642.933485 277.024231 
L 645.674091 279.110374 
L 648.414697 281.125291 
L 651.155303 283.064232 
L 653.895909 284.922451 
L 656.636515 286.695197 
L 659.377121 288.377724 
L 662.117727 289.965282 
L 664.858333 291.453122 
L 667.598939 292.836498 
L 670.339545 294.110659 
L 673.080152 295.270859 
L 675.820758 296.312347 
L 678.561364 297.230377 
L 681.30197 298.020199 
L 684.042576 298.677065 
L 686.783182 299.196226 
L 689.523788 299.572935 
L 692.264394 299.802442 
L 695.005 299.88 
" style="fill:none;stroke:#ff0000;stroke-linecap:square;stroke-width:1.5;"/>
   </g>
   <g id="line2d_42">
    <path clip-path="url(#p0a30c5da47)" d="M 423.685 299.88 
L 426.425606 282.814062 
L 429.166212 266.441139 
L 431.906818 250.750569 
L 434.647424 235.731691 
L 437.38803 221.373842 
L 440.128636 207.666361 
L 442.869242 194.598587 
L 445.609848 182.159856 
L 448.350455 170.339509 
L 451.091061 159.126882 
L 453.831667 148.511314 
L 456.572273 138.482143 
L 459.312879 129.028708 
L 462.053485 120.140347 
L 464.794091 111.806398 
L 467.534697 104.016199 
L 470.275303 96.759088 
L 473.015909 90.024404 
L 475.756515 83.801485 
L 478.497121 78.079669 
L 481.237727 72.848294 
L 483.978333 68.096699 
L 486.718939 63.814222 
L 489.459545 59.990201 
L 492.200152 56.613974 
L 494.940758 53.67488 
L 497.681364 51.162257 
L 500.42197 49.065442 
L 503.162576 47.373775 
L 505.903182 46.076593 
L 508.643788 45.163235 
L 511.384394 44.623038 
L 514.125 44.445342 
L 516.865606 44.619485 
L 519.606212 45.134803 
L 522.346818 45.980637 
L 525.087424 47.146324 
L 527.82803 48.621202 
L 530.568636 50.394609 
L 533.309242 52.455885 
L 536.049848 54.794366 
L 538.790455 57.399391 
L 541.531061 60.260299 
L 544.271667 63.366428 
L 547.012273 66.707116 
L 549.752879 70.2717 
L 552.493485 74.04952 
L 555.234091 78.029914 
L 557.974697 82.20222 
L 560.715303 86.555775 
L 563.455909 91.079919 
L 566.196515 95.76399 
L 568.937121 100.597325 
L 571.677727 105.569263 
L 574.418333 110.669142 
L 577.158939 115.886301 
L 579.899545 121.210078 
L 582.640152 126.62981 
L 585.380758 132.134837 
L 588.121364 137.714496 
L 590.86197 143.358126 
L 593.602576 149.055064 
L 596.343182 154.79465 
L 599.083788 160.566221 
L 601.824394 166.359115 
L 604.565 172.162671 
L 607.305606 177.966227 
L 610.046212 183.759122 
L 612.786818 189.530693 
L 615.527424 195.270278 
L 618.26803 200.967217 
L 621.008636 206.610846 
L 623.749242 212.190505 
L 626.489848 217.695532 
L 629.230455 223.115264 
L 631.971061 228.439041 
L 634.711667 233.6562 
L 637.452273 238.756079 
L 640.192879 243.728017 
L 642.933485 248.561353 
L 645.674091 253.245423 
L 648.414697 257.769567 
L 651.155303 262.123123 
L 653.895909 266.295428 
L 656.636515 270.275822 
L 659.377121 274.053642 
L 662.117727 277.618227 
L 664.858333 280.958914 
L 667.598939 284.065043 
L 670.339545 286.925951 
L 673.080152 289.530976 
L 675.820758 291.869458 
L 678.561364 293.930733 
L 681.30197 295.704141 
L 684.042576 297.179019 
L 686.783182 298.344705 
L 689.523788 299.190539 
L 692.264394 299.705858 
L 695.005 299.88 
" style="fill:none;stroke:#ff0000;stroke-linecap:square;stroke-width:1.5;"/>
   </g>
   <g id="line2d_43">
    <path clip-path="url(#p0a30c5da47)" d="M 514.125 299.078582 
L 514.125 44.445342 
L 514.125 44.445342 
" style="fill:none;stroke:#0000ff;stroke-dasharray:1.5,2.475;stroke-dashoffset:0;stroke-width:1.5;"/>
   </g>
   <g id="patch_8">
    <path d="M 423.685 299.88 
L 423.685 32.12 
" style="fill:none;stroke:#000000;stroke-linecap:square;stroke-linejoin:miter;stroke-width:0.8;"/>
   </g>
   <g id="patch_9">
    <path d="M 695.005 299.88 
L 695.005 32.12 
" style="fill:none;stroke:#000000;stroke-linecap:square;stroke-linejoin:miter;stroke-width:0.8;"/>
   </g>
   <g id="patch_10">
    <path d="M 423.685 299.88 
L 695.005 299.88 
" style="fill:none;stroke:#000000;stroke-linecap:square;stroke-linejoin:miter;stroke-width:0.8;"/>
   </g>
   <g id="patch_11">
    <path d="M 423.685 32.12 
L 695.005 32.12 
" style="fill:none;stroke:#000000;stroke-linecap:square;stroke-linejoin:miter;stroke-width:0.8;"/>
   </g>
   <g id="text_35">
    <text style="font-family:Open Sans;font-size:14px;font-style:normal;font-weight:normal;text-anchor:middle;" transform="rotate(-0, 559.345, 26.12)" x="559.345" y="26.12">crosswind kite</text>
   </g>
  </g>
 </g>
 <defs>
  <clipPath id="p25fbb3c8e8">
   <rect height="267.76" width="271.32" x="73.12" y="32.12"/>
  </clipPath>
  <clipPath id="p0a30c5da47">
   <rect height="267.76" width="271.32" x="423.685" y="32.12"/>
  </clipPath>
 </defs>
</svg>
