<?xml version="1.0" encoding="UTF-8" standalone="no"?>
<!-- Created with Inkscape (http://www.inkscape.org/) -->

<svg
   xmlns:dc="http://purl.org/dc/elements/1.1/"
   xmlns:cc="http://creativecommons.org/ns#"
   xmlns:rdf="http://www.w3.org/1999/02/22-rdf-syntax-ns#"
   xmlns:svg="http://www.w3.org/2000/svg"
   xmlns="http://www.w3.org/2000/svg"
   xmlns:sodipodi="http://sodipodi.sourceforge.net/DTD/sodipodi-0.dtd"
   xmlns:inkscape="http://www.inkscape.org/namespaces/inkscape"
   width="680"
   height="500"
   viewBox="0 0 179.91666 132.29167"
   version="1.1"
   id="svg836"
   inkscape:version="0.92.4 (unknown)"
   sodipodi:docname="featured.svg"
   inkscape:export-filename="/home/rschmehl/awesco.eu/content/consortium/partner01/featured.png"
   inkscape:export-xdpi="96"
   inkscape:export-ydpi="96">
  <defs
     id="defs830" />
  <sodipodi:namedview
     id="base"
     pagecolor="#ffffff"
     bordercolor="#666666"
     borderopacity="1.0"
     inkscape:pageopacity="0.0"
     inkscape:pageshadow="2"
     inkscape:zoom="1.385"
     inkscape:cx="341.53959"
     inkscape:cy="229.15936"
     inkscape:document-units="px"
     inkscape:current-layer="layer1"
     showgrid="false"
     units="px"
     showguides="true"
     inkscape:guide-bbox="true"
     inkscape:window-width="1920"
     inkscape:window-height="1022"
     inkscape:window-x="0"
     inkscape:window-y="0"
     inkscape:window-maximized="1">
    <sodipodi:guide
       position="0,0"
       orientation="1,0"
       id="guide1444"
       inkscape:locked="false"
       inkscape:label=""
       inkscape:color="rgb(0,0,255)" />
    <sodipodi:guide
       position="179.91667,0"
       orientation="1,0"
       id="guide1446"
       inkscape:locked="false"
       inkscape:label=""
       inkscape:color="rgb(0,0,255)" />
    <sodipodi:guide
       position="0,0"
       orientation="0,1"
       id="guide1448"
       inkscape:locked="false" />
    <sodipodi:guide
       position="0,132.29167"
       orientation="0,1"
       id="guide1450"
       inkscape:locked="false"
       inkscape:label=""
       inkscape:color="rgb(0,0,255)" />
  </sodipodi:namedview>
  <metadata
     id="metadata833">
    <rdf:RDF>
      <cc:Work
         rdf:about="">
        <dc:format>image/svg+xml</dc:format>
        <dc:type
           rdf:resource="http://purl.org/dc/dcmitype/StillImage" />
        <dc:title />
      </cc:Work>
    </rdf:RDF>
  </metadata>
  <g
     inkscape:label="Layer 1"
     inkscape:groupmode="layer"
     id="layer1"
     transform="translate(0,-164.70832)">
    <polygon
       style="fill:#0065bd"
       points="322.803,12.521 322.803,66.549 335.242,66.549 335.242,0 271.4,0 271.4,54.449 257.725,54.449 257.725,0.083 209.287,0.083 209.287,11.864 220.576,11.864 220.576,66.561 232.438,66.561 232.438,11.945 245.612,11.945 245.612,66.561 283.345,66.561 283.345,12.521 296.769,12.521 296.769,66.549 309.209,66.549 309.209,12.521 "
       id="polygon237"
       transform="matrix(0.536677,0,0,0.536677,-112.18347,202.36026)" />
    <path
       inkscape:connector-curvature="0"
       style="fill:#0065bd;stroke-width:0.536677"
       d="M 2.9731913,252.06354 H 0 v -0.99876 h 7.1329739 v 0.99876 H 4.1587096 v 7.91865 H 2.9731913 Z"
       id="path239" />
    <path
       inkscape:connector-curvature="0"
       style="fill:#0065bd;stroke-width:0.536677"
       d="m 12.333375,257.93478 c -0.288197,1.42273 -1.310566,2.19662 -2.7606671,2.19662 -2.0597667,0 -3.0332984,-1.42273 -3.0971622,-3.39611 0,-1.93631 1.2746071,-3.36012 3.034907,-3.36012 2.2862443,0 2.9855343,2.13542 2.9238163,3.69663 H 7.6004194 c -0.038113,1.12381 0.5994691,2.12254 2.0109292,2.12254 0.8726354,0 1.4855224,-0.42342 1.6738944,-1.25956 z m -1.023444,-1.79841 c -0.05045,-1.01324 -0.812529,-1.82364 -1.862269,-1.82364 -1.1098474,0 -1.7731802,0.83669 -1.8472426,1.82364 z"
       id="path241" />
    <path
       inkscape:connector-curvature="0"
       style="fill:#0065bd;stroke-width:0.536677"
       d="m 17.864367,255.59808 c -0.162616,-0.81146 -0.725051,-1.28588 -1.59876,-1.28588 -1.537043,0 -2.010929,1.21182 -2.010929,2.52238 0,1.18766 0.536676,2.35924 1.885346,2.35924 1.025053,0 1.636864,-0.5984 1.77318,-1.57247 h 1.086772 c -0.237749,1.57247 -1.223088,2.5095 -2.847607,2.5095 -1.973899,0 -3.021494,-1.37281 -3.021494,-3.2968 0,-1.93473 0.999295,-3.45943 3.045644,-3.45943 1.462443,0 2.636156,0.68696 2.786425,2.22293 h -1.098577 z"
       id="path243" />
    <path
       inkscape:connector-curvature="0"
       style="fill:#0065bd;stroke-width:0.536677"
       d="m 19.999269,251.06423 h 1.062083 v 3.41004 h 0.02469 c 0.349377,-0.77387 1.261729,-1.0991 2.035617,-1.0991 1.698045,0 2.222378,0.97407 2.222378,2.36031 v 4.24618 h -1.06101 v -4.3707 c 0,-0.78785 -0.499646,-1.29928 -1.311639,-1.29928 -1.285877,0 -1.910033,0.86135 -1.910033,2.02272 v 3.64726 h -1.062081 z"
       id="path245" />
    <path
       inkscape:connector-curvature="0"
       style="fill:#0065bd;stroke-width:0.536677"
       d="m 26.86766,253.52543 h 0.998219 v 1.02399 h 0.02576 c 0.4492,-0.80072 1.17425,-1.17425 2.098407,-1.17425 1.698047,0 2.22238,0.97407 2.22238,2.36031 v 4.24618 h -1.061011 v -4.3707 c 0,-0.78785 -0.499647,-1.29928 -1.311638,-1.29928 -1.285878,0 -1.910033,0.86135 -1.910033,2.02272 v 3.64726 H 26.86766 Z"
       id="path247" />
    <path
       inkscape:connector-curvature="0"
       style="fill:#0065bd;stroke-width:0.536677"
       d="m 34.890446,252.36406 h -1.062085 v -1.29983 h 1.062085 z m -1.062085,1.16137 h 1.062085 v 6.45623 h -1.062085 z"
       id="path249" />
    <path
       inkscape:connector-curvature="0"
       style="fill:#0065bd;stroke-width:0.536677"
       d="m 37.304955,257.94711 c 0.03917,0.94886 0.862439,1.24723 1.73615,1.24723 0.66226,0 1.561731,-0.14908 1.561731,-0.96009 0,-0.82381 -1.048132,-0.96227 -2.110752,-1.19894 -1.04974,-0.23775 -2.11075,-0.58714 -2.11075,-1.82364 0,-1.29875 1.285879,-1.83597 2.409679,-1.83597 1.423268,0 2.560486,0.4492 2.648502,2.02382 h -1.062083 c -0.07513,-0.82381 -0.798576,-1.08624 -1.49733,-1.08624 -0.637572,0 -1.374966,0.17545 -1.374966,0.82433 0,0.76101 1.123801,0.88659 2.110751,1.12381 1.062083,0.23775 2.11075,0.58712 2.11075,1.83543 0,1.53597 -1.435075,2.03562 -2.747787,2.03562 -1.448491,0 -2.672114,-0.58713 -2.734905,-2.18428 h 1.06101 z"
       id="path251" />
    <path
       inkscape:connector-curvature="0"
       style="fill:#0065bd;stroke-width:0.536677"
       d="m 47.025786,255.59808 c -0.161541,-0.81146 -0.723978,-1.28588 -1.598761,-1.28588 -1.535969,0 -2.009855,1.21182 -2.009855,2.52238 0,1.18766 0.536677,2.35924 1.885882,2.35924 1.023444,0 1.635256,-0.5984 1.773182,-1.57247 h 1.08677 c -0.237211,1.57247 -1.224696,2.5095 -2.848145,2.5095 -1.973897,0 -3.022564,-1.37281 -3.022564,-3.2968 0,-1.93473 0.999292,-3.45943 3.047251,-3.45943 1.460835,0 2.635084,0.68696 2.78589,2.22293 h -1.09965 z"
       id="path253" />
    <path
       inkscape:connector-curvature="0"
       style="fill:#0065bd;stroke-width:0.536677"
       d="m 49.34906,251.06423 h 1.06101 v 3.41004 h 0.02629 c 0.349377,-0.77387 1.260118,-1.0991 2.035617,-1.0991 1.698044,0 2.222378,0.97407 2.222378,2.36031 v 4.24618 H 53.63227 v -4.3707 c 0,-0.78785 -0.500184,-1.29928 -1.310566,-1.29928 -1.286952,0 -1.911644,0.86135 -1.911644,2.02272 v 3.64726 h -1.06101 z"
       id="path255" />
    <path
       inkscape:connector-curvature="0"
       style="fill:#0065bd;stroke-width:0.536677"
       d="m 61.644867,257.93478 c -0.288195,1.42273 -1.311639,2.19662 -2.760667,2.19662 -2.060302,0 -3.034909,-1.42273 -3.097699,-3.39611 0,-1.93631 1.275144,-3.36012 3.034909,-3.36012 2.285171,0 2.984461,2.13542 2.922743,3.69663 h -4.834387 c -0.03649,1.12381 0.600542,2.12254 2.010929,2.12254 0.875319,0 1.487131,-0.42342 1.674968,-1.25956 z m -1.025052,-1.79841 c -0.0483,-1.01324 -0.811456,-1.82364 -1.859588,-1.82364 -1.112531,0 -1.773715,0.83669 -1.849924,1.82364 z"
       id="path257" />
    <path
       inkscape:connector-curvature="0"
       style="fill:#0065bd;stroke-width:0.536677"
       d="m 73.659991,256.76053 c 0,2.24759 -1.287487,3.43312 -3.509868,3.43312 -2.299124,0 -3.660136,-1.06156 -3.660136,-3.43312 v -5.6963 h 1.187666 v 5.69575 c 0,1.57354 0.898398,2.43384 2.47247,2.43384 1.498941,0 2.323277,-0.86083 2.323277,-2.43384 v -5.69575 h 1.186591 z"
       id="path259" />
    <path
       inkscape:connector-curvature="0"
       style="fill:#0065bd;stroke-width:0.536677"
       d="m 75.146051,253.52543 h 0.999292 v 1.02399 h 0.02576 c 0.449198,-0.80072 1.174248,-1.17425 2.098407,-1.17425 1.698045,0 2.222378,0.97407 2.222378,2.36031 v 4.24618 H 79.43088 v -4.3707 c 0,-0.78785 -0.499647,-1.29928 -1.31164,-1.29928 -1.28695,0 -1.911642,0.86135 -1.911642,2.02272 v 3.64726 h -1.062085 v -6.45623 z"
       id="path261" />
    <path
       inkscape:connector-curvature="0"
       style="fill:#0065bd;stroke-width:0.536677"
       d="m 83.170446,252.36406 h -1.062085 v -1.29983 h 1.062085 z m -1.062621,1.16137 h 1.062083 v 6.45623 h -1.062083 z"
       id="path263" />
    <path
       inkscape:connector-curvature="0"
       style="fill:#0065bd;stroke-width:0.536677"
       d="m 87.682824,259.98219 h -1.135607 l -2.39841,-6.45621 h 1.186056 l 1.811823,5.3834 h 0.02576 l 1.759763,-5.3834 h 1.110922 z"
       id="path265" />
    <path
       inkscape:connector-curvature="0"
       style="fill:#0065bd;stroke-width:0.536677"
       d="m 96.303467,257.93478 c -0.287658,1.42273 -1.311637,2.19662 -2.760665,2.19662 -2.059767,0 -3.035447,-1.42273 -3.097164,-3.39611 0,-1.93631 1.273536,-3.36012 3.034909,-3.36012 2.285171,0 2.984461,2.13542 2.921132,3.69663 h -4.832776 c -0.03649,1.12381 0.599469,2.12254 2.012002,2.12254 0.873711,0 1.485523,-0.42342 1.673897,-1.25956 z m -1.025053,-1.79841 c -0.04777,-1.01324 -0.810918,-1.82364 -1.860658,-1.82364 -1.111458,0 -1.772107,0.83669 -1.848316,1.82364 z"
       id="path267" />
    <path
       inkscape:connector-curvature="0"
       style="fill:#0065bd;stroke-width:0.536677"
       d="m 97.634427,253.52543 h 0.997681 v 1.36048 h 0.02469 c 0.513064,-1.03687 1.224161,-1.54778 2.373722,-1.51074 v 1.12433 c -1.710925,0 -2.334544,0.97408 -2.334544,2.61094 v 2.87175 h -1.062085 v -6.45676 z"
       id="path269" />
    <path
       inkscape:connector-curvature="0"
       style="fill:#0065bd;stroke-width:0.536677"
       d="m 102.80746,257.94711 c 0.0381,0.94886 0.86244,1.24723 1.73507,1.24723 0.66334,0 1.56173,-0.14908 1.56173,-0.96009 0,-0.82381 -1.04866,-0.96227 -2.11075,-1.19894 -1.04866,-0.23775 -2.11075,-0.58714 -2.11075,-1.82364 0,-1.29875 1.28588,-1.83597 2.41075,-1.83597 1.42327,0 2.55996,0.4492 2.64743,2.02382 h -1.06154 c -0.0751,-0.82381 -0.79965,-1.08624 -1.49894,-1.08624 -0.63757,0 -1.37443,0.17545 -1.37443,0.82433 0,0.76101 1.12326,0.88659 2.11075,1.12381 1.06208,0.23775 2.11075,0.58712 2.11075,1.83543 0,1.53597 -1.43669,2.03562 -2.74671,2.03562 -1.4485,0 -2.67319,-0.58713 -2.73491,-2.18428 h 1.06155 z"
       id="path271" />
    <path
       inkscape:connector-curvature="0"
       style="fill:#0065bd;stroke-width:0.536677"
       d="m 109.6195,252.36406 h -1.06101 v -1.29983 h 1.06101 z m -1.06101,1.16137 h 1.06101 v 6.45623 h -1.06101 z"
       id="path273" />
    <path
       inkscape:connector-curvature="0"
       style="fill:#0065bd;stroke-width:0.536677"
       d="m 112.8884,253.52543 h 1.2848 v 0.93704 h -1.2848 v 4.00898 c 0,0.4857 0.1363,0.57318 0.79857,0.57318 h 0.4857 v 0.93703 h -0.81092 c -1.09912,0 -1.53597,-0.22486 -1.53597,-1.41147 v -4.10772 h -1.09912 v -0.93704 h 1.09912 v -1.93633 h 1.06208 v 1.93633 z"
       id="path275" />
    <path
       inkscape:connector-curvature="0"
       style="fill:#0065bd;stroke-width:0.536677"
       d="m 121.2466,259.95698 c -0.18837,0.11278 -0.42451,0.17444 -0.76154,0.17444 -0.54848,0 -0.90001,-0.3 -0.90001,-0.99876 -0.58712,0.68641 -1.37335,0.99876 -2.27283,0.99876 -1.17424,0 -2.13597,-0.52489 -2.13597,-1.81021 0,-1.46137 1.08784,-1.77265 2.18696,-1.98626 1.17264,-0.22379 2.17301,-0.1497 2.17301,-0.94884 0,-0.92362 -0.76262,-1.07389 -1.43615,-1.07389 -0.89947,0 -1.56173,0.27479 -1.61218,1.22363 h -1.06101 c 0.0628,-1.59876 1.29822,-2.16066 2.73598,-2.16066 1.15922,0 2.42202,0.26243 2.42202,1.77372 v 3.32256 c 0,0.49965 0,0.72289 0.33704,0.72289 0.0875,0 0.1873,-0.0122 0.32468,-0.0617 z m -1.7238,-3.30915 c -0.41271,0.29945 -1.21128,0.31288 -1.92238,0.43738 -0.70036,0.12393 -1.29983,0.373 -1.29983,1.1603 0,0.70036 0.59947,0.94883 1.24938,0.94883 1.39858,0 1.97283,-0.87315 1.97283,-1.46029 z m -3.17176,-5.35873 h 1.1238 v 1.2993 h -1.1238 z m 2.34689,0 h 1.12487 v 1.2993 h -1.12487 z"
       id="path277" />
    <path
       inkscape:connector-curvature="0"
       style="fill:#0065bd;stroke-width:0.536677"
       d="m 123.82265,253.52543 h 1.28588 v 0.93704 h -1.28588 v 4.00898 c 0,0.4857 0.13686,0.57318 0.79965,0.57318 h 0.48623 v 0.93703 h -0.81145 c -1.09912,0 -1.53544,-0.22486 -1.53544,-1.41147 v -4.10772 h -1.10018 v -0.93704 h 1.10018 v -1.93633 h 1.06101 z"
       id="path279" />
    <path
       inkscape:connector-curvature="0"
       style="fill:#0065bd;stroke-width:0.536677"
       d="m 130.16779,251.06423 h 1.62291 l 2.8095,7.4947 2.82346,-7.4947 h 1.62291 v 8.91743 h -1.1238 v -7.41849 h -0.0247 l -2.78481,7.41849 h -1.01271 l -2.78482,-7.41849 h -0.0247 v 7.41849 h -1.1238 v -8.91743 z"
       id="path281" />
    <path
       inkscape:connector-curvature="0"
       style="fill:#0065bd;stroke-width:0.536677"
       d="m 145.81407,259.98219 h -1.00037 v -1.02452 h -0.0247 c -0.4492,0.79965 -1.17425,1.17426 -2.0968,1.17426 -1.69966,0 -2.22292,-0.97353 -2.22292,-2.36032 v -4.2451 h 1.06101 v 4.3707 c 0,0.78677 0.50019,1.29821 1.31057,1.29821 1.28695,0 1.91218,-0.86083 1.91218,-2.0222 v -3.64671 h 1.06101 z m -4.40934,-8.69309 h 1.1238 v 1.2993 h -1.1238 z m 2.34796,0 h 1.12488 v 1.2993 h -1.12488 z"
       id="path283" />
    <path
       inkscape:connector-curvature="0"
       style="fill:#0065bd;stroke-width:0.536677"
       d="m 147.38438,253.52543 h 0.99822 v 1.02399 h 0.0247 c 0.45134,-0.80072 1.17479,-1.17425 2.09787,-1.17425 1.69965,0 2.22506,0.97407 2.22506,2.36031 v 4.24618 h -1.06208 v -4.3707 c 0,-0.78785 -0.49965,-1.29928 -1.31271,-1.29928 -1.28535,0 -1.91004,0.86135 -1.91004,2.02272 v 3.64726 h -1.06154 v -6.45623 z"
       id="path285" />
    <path
       inkscape:connector-curvature="0"
       style="fill:#0065bd;stroke-width:0.536677"
       d="m 158.67821,255.59808 c -0.16268,-0.81146 -0.72505,-1.28588 -1.59875,-1.28588 -1.53705,0 -2.01201,1.21182 -2.01201,2.52238 0,1.18766 0.53775,2.35924 1.88696,2.35924 1.02344,0 1.63794,-0.5984 1.77319,-1.57247 h 1.08677 c -0.23775,1.57247 -1.22202,2.5095 -2.84816,2.5095 -1.97282,0 -3.02256,-1.37281 -3.02256,-3.2968 0,-1.93473 1.00037,-3.45943 3.04832,-3.45943 1.46137,0 2.63617,0.68696 2.78483,2.22293 h -1.09859 z"
       id="path287" />
    <path
       inkscape:connector-curvature="0"
       style="fill:#0065bd;stroke-width:0.536677"
       d="m 161.00203,251.06423 h 1.06208 v 3.41004 h 0.0235 c 0.35044,-0.77387 1.26174,-1.0991 2.03508,-1.0991 1.69859,0 2.22453,0.97407 2.22453,2.36031 v 4.24618 h -1.06156 v -4.3707 c 0,-0.78785 -0.49963,-1.29928 -1.31163,-1.29928 -1.28695,0 -1.91003,0.86135 -1.91003,2.02272 v 3.64726 h -1.06208 z"
       id="path289" />
    <path
       inkscape:connector-curvature="0"
       style="fill:#0065bd;stroke-width:0.536677"
       d="m 173.39713,257.93478 c -0.28767,1.42273 -1.31166,2.19662 -2.76175,2.19662 -2.05924,0 -3.03491,-1.42273 -3.09664,-3.39611 0,-1.93631 1.27355,-3.36012 3.03599,-3.36012 2.28518,0 2.98339,2.13542 2.92114,3.69663 h -4.83385 c -0.0355,1.12381 0.59892,2.12254 2.01092,2.12254 0.87371,0 1.48714,-0.42342 1.67336,-1.25956 z m -1.02399,-1.79841 c -0.0505,-1.01324 -0.81091,-1.82364 -1.86174,-1.82364 -1.11145,0 -1.77264,0.83669 -1.8483,1.82364 z"
       id="path291" />
    <path
       inkscape:connector-curvature="0"
       style="fill:#0065bd;stroke-width:0.536677"
       d="m 174.64489,253.52543 h 0.9993 v 1.02399 h 0.0258 c 0.44919,-0.80072 1.17156,-1.17425 2.09679,-1.17425 1.69966,0 2.22292,0.97407 2.22292,2.36031 v 4.24618 h -1.06208 v -4.3707 c 0,-0.78785 -0.49858,-1.29928 -1.3095,-1.29928 -1.28695,0 -1.91111,0.86135 -1.91111,2.02272 v 3.64726 h -1.06208 z"
       id="path293" />
  </g>
</svg>
